<?xml version="1.0" standalone="no"?>
<!DOCTYPE svg PUBLIC "-//W3C//DTD SVG 1.1//EN" "http://www.w3.org/Graphics/SVG/1.1/DTD/svg11.dtd" >
<svg xmlns="http://www.w3.org/2000/svg" xmlns:xlink="http://www.w3.org/1999/xlink" version="1.1">
<metadata>
Created by FontForge 20201107 at Mon May  6 18:21:38 2019
 By 
Copyright (c) 2014 by Kostas Bartsokas. All rights reserved.
</metadata>
<defs>
<font id="ZonaPro-SemiBold" horiz-adv-x="0" >
  <font-face 
    font-family="Zona Pro SemiBold"
    font-weight="600"
    font-stretch="normal"
    units-per-em="2048"
    panose-1="2 1 10 3 4 0 2 2 0 4"
    ascent="1690"
    descent="-358"
    x-height="1114"
    cap-height="1448"
    bbox="-1036 -516 2824 2099"
    underline-thickness="102"
    underline-position="-307"
    unicode-range="U+000D-25CA"
  />
<missing-glyph horiz-adv-x="1024" 
 />
    <glyph glyph-name=".notdef" horiz-adv-x="1024" 
 />
    <glyph glyph-name=".null" 
 />
    <glyph glyph-name="nonmarkingreturn" horiz-adv-x="682" 
 />
    <glyph glyph-name="CR" unicode="&#xd;" horiz-adv-x="569" 
 />
    <glyph glyph-name="space" unicode=" " horiz-adv-x="452" 
 />
    <glyph glyph-name="exclam" unicode="!" horiz-adv-x="503" 
d="M168 399l-41 1049h256l-43 -1049h-172zM254 -27q-66 0 -113 45t-47 111q0 63 47 108.5t113 45.5q63 0 109.5 -45t46.5 -109q0 -66 -46.5 -111t-109.5 -45z" />
    <glyph glyph-name="quotedbl" unicode="&#x22;" horiz-adv-x="851" 
d="M72 918l41 530h272l-180 -530h-133zM461 918l43 530h272l-182 -530h-133z" />
    <glyph glyph-name="numbersign" unicode="#" horiz-adv-x="1413" 
d="M1348 901h-279l-61 -358h272v-191h-303l-59 -352h-185l60 352h-320l-59 -352h-185l60 352h-236v191h266l62 358h-262v191h295l59 356h184l-59 -356h320l59 356h182l-59 -356h248v-191zM506 543h317l62 358h-320z" />
    <glyph glyph-name="dollar" unicode="$" horiz-adv-x="1261" 
d="M1190 414q0 -197 -123 -310.5t-346 -128.5v-163h-148v163q-246 10 -499 131l92 209q215 -117 407 -131v439q-248 61 -365.5 157.5t-117.5 276.5q0 178 128 292.5t355 125.5v137h148v-142q233 -20 416 -108l-103 -199q-147 74 -313 97v-431q109 -27 186.5 -58.5t145 -79.5
t102.5 -117.5t35 -159.5zM326 1067q0 -72 61.5 -118t185.5 -83v400q-115 -6 -181 -59.5t-66 -139.5zM721 186q104 12 167.5 64.5t63.5 142.5q0 72 -56 116t-175 79v-402z" />
    <glyph glyph-name="percent" unicode="%" horiz-adv-x="1996" 
d="M408 0l997 1448h201l-998 -1448h-200zM444.5 559q-184.5 0 -293 121t-108.5 330t108.5 330.5t293 121.5t293 -121.5t108.5 -330.5t-108.5 -330t-293 -121zM444.5 707q104.5 0 166 79.5t61.5 221.5q0 145 -60.5 225t-167.5 80q-104 0 -166.5 -81t-62.5 -224
q0 -141 62.5 -221t167 -80zM1552.5 -16q-184.5 0 -293 120.5t-108.5 329.5t108.5 331t293 122t293 -122t108.5 -331t-108.5 -329.5t-293 -120.5zM1552.5 131q104.5 0 166 80t61.5 221q0 145 -60.5 225t-167.5 80q-104 0 -166.5 -81t-62.5 -224q0 -141 62.5 -221t167 -80z
" />
    <glyph glyph-name="ampersand" unicode="&#x26;" horiz-adv-x="1310" 
d="M1323 92l-145 -137l-189 186q-164 -166 -438 -166q-240 0 -369 109t-129 295q0 274 297 391q-94 100 -132 171t-38 163q0 174 118 266t294 92q184 0 292.5 -102.5t108.5 -261.5q0 -268 -305 -389l291 -283q84 109 88 258h195q4 -94 -31 -201.5t-109 -193.5zM590 1274
q-88 0 -136 -52.5t-48 -136.5q0 -61 31.5 -111t117.5 -134q225 88 225 247q0 76 -48 131.5t-142 55.5zM563 176q168 0 281 107l-359 352q-94 -35 -143 -99.5t-49 -140.5q0 -96 67.5 -157.5t202.5 -61.5z" />
    <glyph glyph-name="quotesingle" unicode="'" horiz-adv-x="462" 
d="M72 918l41 530h272l-180 -530h-133z" />
    <glyph glyph-name="parenleft" unicode="(" horiz-adv-x="784" 
d="M662 -248q-279 154 -434.5 390.5t-155.5 539.5t155.5 541.5t434.5 392.5l83 -143q-209 -135 -323.5 -337t-114.5 -454t115 -451.5t323 -334.5z" />
    <glyph glyph-name="parenright" unicode=")" horiz-adv-x="784" 
d="M123 -248l-84 144q209 135 323.5 334.5t114.5 451.5t-114.5 453.5t-323.5 337.5l84 143q279 -154 434.5 -391.5t155.5 -542.5q0 -303 -154.5 -539.5t-435.5 -390.5z" />
    <glyph glyph-name="asterisk" unicode="*" horiz-adv-x="854" 
d="M344 739l18 291l-243 -158l-82 144l258 129l-260 129l84 143l243 -157l-18 290h166l-16 -290l241 155l82 -141l-256 -129l258 -129l-84 -144l-239 158l14 -291h-166z" />
    <glyph glyph-name="plus" unicode="+" horiz-adv-x="1202" 
d="M498 162v416h-416v202h416v416h209v-416h411v-202h-411v-416h-209z" />
    <glyph glyph-name="comma" unicode="," horiz-adv-x="458" 
d="M227 283q68 0 114 -51.5t46 -163.5q0 -184 -87 -285.5t-251 -101.5v110q160 4 160 195q-55 6 -92 46t-37 99q0 72 40.5 112t106.5 40z" />
    <glyph glyph-name="hyphen" unicode="-" horiz-adv-x="813" 
d="M76 569v217h659v-217h-659z" />
    <glyph glyph-name="period" unicode="." horiz-adv-x="485" 
d="M246 -27q-66 0 -113 45t-47 111q0 63 47 108.5t113 45.5q63 0 108 -45t45 -109q0 -66 -45 -111t-108 -45z" />
    <glyph glyph-name="slash" unicode="/" horiz-adv-x="1013" 
d="M-68 -262l910 1902h229l-911 -1902h-228z" />
    <glyph glyph-name="zero" unicode="0" horiz-adv-x="1515" 
d="M758 -27q-309 0 -487.5 200t-178.5 550q0 354 178.5 554t487.5 200t487 -200t178 -554q0 -350 -178 -550t-487 -200zM757.5 199q190.5 0 300 139t109.5 385q0 248 -109.5 388t-300 140t-300 -140t-109.5 -388q0 -246 109.5 -385t300 -139z" />
    <glyph glyph-name="one" unicode="1" horiz-adv-x="835" 
d="M399 0v1192l-313 -109l-72 199l473 170h162v-1452h-250z" />
    <glyph glyph-name="two" unicode="2" horiz-adv-x="1269" 
d="M336 221h846v-221h-1102v84q6 182 106.5 293.5t345.5 263.5q215 131 297 209t82 190q0 104 -76.5 160.5t-197.5 56.5q-141 0 -229.5 -76.5t-88.5 -207.5v-45h-239v55q0 227 151.5 359.5t409.5 132.5q229 0 381 -109t152 -309q0 -82 -24 -150.5t-55.5 -117t-102 -104.5
t-127 -92t-165.5 -99q-25 -14 -78 -46t-72.5 -43.5t-57 -35t-54 -37t-40 -33.5t-38 -39t-24.5 -39z" />
    <glyph glyph-name="three" unicode="3" horiz-adv-x="1275" 
d="M713 907q231 0 359 -131t128 -325q0 -227 -152.5 -352.5t-412.5 -125.5q-264 0 -416.5 119t-152.5 326v22h237v-12q0 -113 87 -177.5t237 -64.5q154 0 238.5 73t84.5 200q0 129 -85 197.5t-238 68.5q-104 0 -201 -41l-94 115l450 434h-645v215h1014v-127l-451 -414h13z
" />
    <glyph glyph-name="four" unicode="4" horiz-adv-x="1345" 
d="M1077 479h238v-211h-238v-268h-248v268h-792v133l864 1057h176v-979zM360 471h486v602z" />
    <glyph glyph-name="five" unicode="5" horiz-adv-x="1300" 
d="M694 977q254 0 397.5 -137.5t143.5 -368.5q0 -240 -150.5 -369t-420.5 -129q-262 0 -421 120t-159 325v24h238v-14q0 -111 94 -175.5t243 -64.5q160 0 243 75t83 212q0 301 -340 301q-84 0 -166 -31.5t-121 -76.5h-219l43 780h955v-215h-742l-20 -338q133 82 319 82z" />
    <glyph glyph-name="six" unicode="6" horiz-adv-x="1368" 
d="M762 942q221 0 367.5 -113.5t146.5 -349.5q0 -238 -155.5 -372t-405.5 -134q-301 0 -463 184.5t-162 536.5q0 207 48 361.5t135 245t198 133.5t244 43q236 0 376 -111t140 -272v-25h-246q-4 88 -72.5 142.5t-193.5 54.5q-180 0 -279.5 -134.5t-103.5 -363.5
q66 78 178.5 126t247.5 48zM715 184q150 0 230.5 81t80.5 210q0 135 -89 202.5t-222 67.5q-137 0 -229.5 -66.5t-127.5 -150.5q6 -145 100.5 -244.5t256.5 -99.5z" />
    <glyph glyph-name="seven" unicode="7" horiz-adv-x="1175" 
d="M51 1448h1061v-127l-709 -1321h-278l668 1227h-742v221z" />
    <glyph glyph-name="eight" unicode="8" horiz-adv-x="1349" 
d="M981 780q133 -37 212 -137t79 -229q0 -221 -162 -331t-434 -110q-274 0 -436 108.5t-162 328.5q0 131 80 232t211 134q-104 37 -164 120t-60 196q0 190 144.5 287.5t386.5 97.5q240 0 385 -97.5t145 -287.5q0 -113 -60.5 -194t-164.5 -118zM676 1270q-297 0 -297 -201
q0 -94 78 -151.5t219 -57.5t218 57.5t77 151.5q0 201 -295 201zM676 184q158 0 251 58.5t93 181.5q0 113 -94.5 179.5t-250 66.5t-249.5 -65.5t-94 -180.5q0 -240 344 -240z" />
    <glyph glyph-name="nine" unicode="9" horiz-adv-x="1357" 
d="M647 1477q301 0 462 -185.5t161 -537.5q0 -401 -174 -591t-451 -190q-246 0 -385 108.5t-139 272.5v25h246q4 -88 73.5 -142.5t202.5 -54.5q176 0 275.5 133.5t103.5 360.5q-66 -78 -177.5 -123t-244.5 -45q-221 0 -367.5 113.5t-146.5 349t156.5 371t404.5 135.5z
M647 702q135 0 227.5 66t129.5 152q-6 147 -100.5 246.5t-256.5 99.5q-150 0 -230.5 -81t-80.5 -212q0 -135 89 -203t222 -68z" />
    <glyph glyph-name="colon" unicode=":" horiz-adv-x="477" 
d="M239.5 831q-65.5 0 -111.5 45.5t-46 110.5q0 63 46 108.5t111.5 45.5t110.5 -45t45 -109q0 -66 -45 -111t-110.5 -45zM239.5 -27q-65.5 0 -111.5 45t-46 111q0 63 46 108.5t111.5 45.5t110.5 -45t45 -109q0 -66 -45 -111t-110.5 -45z" />
    <glyph glyph-name="semicolon" unicode=";" horiz-adv-x="471" 
d="M236 831q-66 0 -113 45.5t-47 110.5q0 63 47 108.5t113 45.5q63 0 108 -45t45 -109q0 -66 -45 -111t-108 -45zM227 283q68 0 114 -51.5t46 -163.5q0 -184 -87 -285.5t-251 -101.5v110q160 4 160 195q-55 6 -92 46t-37 99q0 72 40.5 112t106.5 40z" />
    <glyph glyph-name="less" unicode="&#x3c;" horiz-adv-x="1144" 
d="M1059 1229v-232l-686 -319l686 -318v-231l-1004 481v138z" />
    <glyph glyph-name="equal" unicode="=" horiz-adv-x="1204" 
d="M111 827v203h981v-203h-981zM111 330v202h981v-202h-981z" />
    <glyph glyph-name="greater" unicode="&#x3e;" horiz-adv-x="1144" 
d="M86 1229l1004 -481v-138l-1004 -481v231l684 318l-684 319v232z" />
    <glyph glyph-name="question" unicode="?" horiz-adv-x="1189" 
d="M1122 1016q0 -190 -134 -322.5t-367 -148.5l-31 -146h-135l-29 293l80 8q176 16 272 99.5t96 206.5q0 131 -89 197.5t-210 66.5q-147 0 -237 -81t-90 -228v-33h-230v43q0 233 157 369.5t409 136.5q233 0 385.5 -118t152.5 -343zM524.5 -27q-65.5 0 -111.5 45t-46 111
q0 63 46 108.5t111.5 45.5t110.5 -45t45 -109q0 -66 -45 -111t-110.5 -45z" />
    <glyph glyph-name="at" unicode="@" horiz-adv-x="1910" 
d="M1417 1038l-84 -557q-18 -131 16.5 -179t106.5 -48q123 0 188.5 98.5t65.5 263.5q0 315 -212 524.5t-541.5 209.5t-541.5 -220.5t-212 -556t199.5 -539.5t539.5 -204q330 0 512 172l94 -100q-215 -213 -608 -213q-403 0 -645 244.5t-242 640t256 654.5t647.5 259
t646.5 -246t255 -618q0 -229 -126 -374t-319 -145q-104 0 -174 48.5t-90 134.5q-98 -162 -307 -162q-184 0 -299 120t-115 326q0 227 126 376t327 149q121 0 203.5 -57.5t107.5 -149.5l25 149h200zM877 328q109 0 182.5 83t73.5 222q0 117 -62.5 187.5t-163.5 70.5
q-111 0 -181.5 -89t-70.5 -220q0 -113 62 -183.5t160 -70.5z" />
    <glyph glyph-name="A" unicode="A" horiz-adv-x="1509" 
d="M1223 0l-138 305h-661l-137 -305h-273l660 1458h160l661 -1458h-272zM754 1118l-119 -303l-123 -299h485l-125 299z" />
    <glyph glyph-name="B" unicode="B" horiz-adv-x="1421" 
d="M1053 770q145 -31 229 -121t84 -227q0 -209 -129 -315.5t-401 -106.5h-689v1448h635q231 0 353 -93t122 -268q1 -247 -204 -317zM397 1235v-399h357q256 0 256 208q0 94 -62.5 142.5t-173.5 48.5h-377zM836 217q272 0 272 211q0 205 -309 205h-402v-416h439z" />
    <glyph glyph-name="C" unicode="C" horiz-adv-x="1529" 
d="M840 -27q-340 0 -546 205t-206 551t205 546t547 200q401 0 630 -277l-196 -162q-150 209 -430 209q-223 0 -358.5 -139t-135.5 -377q0 -240 136.5 -383t357.5 -143q283 0 430 207l196 -162q-227 -275 -630 -275z" />
    <glyph glyph-name="D" unicode="D" horiz-adv-x="1499" 
d="M147 0v1448h549q340 0 527.5 -179t187.5 -528q0 -346 -183.5 -543.5t-525.5 -197.5h-555zM393 225h314q203 0 323.5 133.5t120.5 382.5q0 231 -116.5 356.5t-336.5 125.5h-305v-998z" />
    <glyph glyph-name="E" unicode="E" horiz-adv-x="1290" 
d="M147 0v1448h1031v-221h-785v-404h662v-213h-662v-389h821v-221h-1067z" />
    <glyph glyph-name="F" unicode="F" horiz-adv-x="1251" 
d="M147 0v1448h1043v-225h-793v-478h678v-225h-678v-520h-250z" />
    <glyph glyph-name="G" unicode="G" horiz-adv-x="1583" 
d="M805 774h706v-588q-219 -213 -614 -213q-373 0 -591 202t-218 548t213 550t563 204q367 0 592 -209l-158 -172q-172 152 -432 151q-233 0 -374.5 -142t-141.5 -382q0 -246 148.5 -385t406.5 -139q227 0 367 106v252h-467v217z" />
    <glyph glyph-name="H" unicode="H" horiz-adv-x="1511" 
d="M147 0v1448h250v-670h717v670h250v-1448h-250v553h-717v-553h-250z" />
    <glyph glyph-name="I" unicode="I" horiz-adv-x="577" 
d="M162 0v1448h256v-1448h-256z" />
    <glyph glyph-name="J" unicode="J" horiz-adv-x="1253" 
d="M586 -27q-248 0 -397.5 141.5t-157.5 403.5h248q8 -166 92 -240.5t215 -74.5q289 0 288 375v870h254v-870q0 -315 -134 -460t-408 -145z" />
    <glyph glyph-name="K" unicode="K" horiz-adv-x="1435" 
d="M1108 0l-475 616l-238 -272v-344h-248v1448h248v-780l645 780h318l-549 -649l614 -799h-315z" />
    <glyph glyph-name="L" unicode="L" horiz-adv-x="1222" 
d="M147 0v1448h254v-1219h789v-229h-1043z" />
    <glyph glyph-name="M" unicode="M" horiz-adv-x="1796" 
d="M1516 1456h133v-1456h-248v903l-453 -647h-100l-453 641v-897h-248v1456h134l620 -876z" />
    <glyph glyph-name="N" unicode="N" horiz-adv-x="1574" 
d="M1180 1448h247v-1458h-127l-905 999v-989h-248v1460h127l906 -999v987z" />
    <glyph glyph-name="O" unicode="O" horiz-adv-x="1726" 
d="M862 -27q-340 0 -557 206t-217 544q0 332 213 543t561 211q340 0 558 -207t218 -547q0 -330 -214 -540t-562 -210zM862 203q225 0 369.5 142t144.5 378q0 231 -141 377.5t-373 146.5q-223 0 -367.5 -144.5t-144.5 -379.5q0 -229 141.5 -374.5t370.5 -145.5z" />
    <glyph glyph-name="P" unicode="P" horiz-adv-x="1337" 
d="M725 1448q279 0 423 -129t144 -379q0 -522 -608 -522h-287v-418h-250v1448h578zM674 635q358 0 358 299q0 295 -327 295h-308v-594h277z" />
    <glyph glyph-name="Q" unicode="Q" horiz-adv-x="1726" 
d="M1638 723q0 -338 -223 -549l164 -186l-170 -140l-176 203q-168 -78 -371 -78q-340 0 -557 206t-217 544q0 332 213 543t561 211q340 0 558 -207t218 -547zM862 203q114 0 209 37l-178 206l166 140l192 -221q125 145 125 358q0 231 -141 377.5t-373 146.5
q-223 0 -367.5 -144.5t-144.5 -379.5q0 -229 141.5 -374.5t370.5 -145.5z" />
    <glyph glyph-name="R" unicode="R" horiz-adv-x="1390" 
d="M1350 0h-306l-305 434q-8 0 -25.5 -1t-27.5 -1h-289v-432h-250v1448h584q276 0 421.5 -130t145.5 -376q0 -348 -297 -459zM676 647q178 0 269 76t91 211q0 295 -329 295h-310v-582h279z" />
    <glyph glyph-name="S" unicode="S" horiz-adv-x="1282" 
d="M686 -27q-184 0 -318.5 30t-293.5 101l94 218q270 -129 506 -129q135 0 209.5 53t74.5 151q0 92 -77.5 135t-259.5 82q-266 53 -397.5 147.5t-131.5 289.5q0 193 137.5 308.5t395.5 115.5q307 0 538 -113l-104 -207q-211 96 -434 96q-131 0 -202 -55t-71 -135
q0 -90 85 -134t284 -87q121 -27 202 -54.5t153.5 -75.5t108.5 -121t36 -175q0 -219 -137.5 -330t-397.5 -111z" />
    <glyph glyph-name="T" unicode="T" horiz-adv-x="1312" 
d="M528 0v1219h-473v229h1202v-229h-473v-1219h-256z" />
    <glyph glyph-name="U" unicode="U" horiz-adv-x="1490" 
d="M745.5 -27q-616.5 0 -616.5 598v877h254v-819q0 -221 86 -321.5t276.5 -100.5t277.5 100.5t87 321.5v819h252v-877q0 -598 -616.5 -598z" />
    <glyph glyph-name="V" unicode="V" horiz-adv-x="1449" 
d="M1159 1448h281l-645 -1458h-144l-641 1458h285l321 -780l107 -285l113 283z" />
    <glyph glyph-name="W" unicode="W" horiz-adv-x="2172" 
d="M1886 1448h275l-533 -1458h-131l-412 1007l-407 -1007h-129l-539 1458h279l342 -987l391 993h133l389 -997z" />
    <glyph glyph-name="X" unicode="X" horiz-adv-x="1411" 
d="M1391 0h-301l-388 559l-380 -559h-304l512 735l-499 713h301l375 -545l374 545h299l-497 -713z" />
    <glyph glyph-name="Y" unicode="Y" horiz-adv-x="1331" 
d="M1333 1448l-540 -946v-502h-256v502l-539 946h295l375 -700l376 700h289z" />
    <glyph glyph-name="Z" unicode="Z" horiz-adv-x="1357" 
d="M451 225h827v-225h-1208v123l815 1100h-760v225h1145v-127z" />
    <glyph glyph-name="bracketleft" unicode="[" horiz-adv-x="786" 
d="M143 -246v1856h580v-189h-373v-1480h373v-187h-580z" />
    <glyph glyph-name="backslash" unicode="\" horiz-adv-x="1013" 
d="M1081 -262h-229l-909 1902h227z" />
    <glyph glyph-name="bracketright" unicode="]" horiz-adv-x="786" 
d="M645 -246h-579v187h370v1480h-370v189h579v-1856z" />
    <glyph glyph-name="asciicircum" unicode="^" horiz-adv-x="923" 
d="M872 938h-241l-170 297l-172 -297h-236l348 518h123z" />
    <glyph glyph-name="underscore" unicode="_" horiz-adv-x="1210" 
d="M-6 -207v144h1223v-144h-1223z" />
    <glyph glyph-name="grave" unicode="`" horiz-adv-x="970" 
d="M813 1270h-178l-359 309l279 23z" />
    <glyph glyph-name="a" unicode="a" horiz-adv-x="1349" 
d="M625 -23q-248 0 -396.5 158t-148.5 424t147.5 423t386.5 157q229 0 359 -131v106h241v-1114h-237v117q-119 -140 -352 -140zM672 193q94 0 176 40.5t129 122.5v408q-49 76 -135 118t-178 42q-150 0 -241 -96.5t-91 -266.5q0 -172 92 -270t248 -98z" />
    <glyph glyph-name="b" unicode="b" horiz-adv-x="1353" 
d="M729 -23q-233 0 -352 140v-117h-236v1550h238v-542q133 131 360 131q240 0 387.5 -157t147.5 -423t-148.5 -424t-396.5 -158zM682 193q156 0 248 98t92 270q0 170 -92 266.5t-242 96.5q-90 0 -176 -43t-135 -117v-408q47 -82 129 -122.5t176 -40.5z" />
    <glyph glyph-name="c" unicode="c" horiz-adv-x="1226" 
d="M676 -20q-279 0 -437.5 156.5t-158.5 422.5q0 260 163 419t437 159q152 0 275.5 -57.5t199.5 -157.5l-168 -152q-47 66 -127 107t-172 41q-164 0 -261 -97.5t-97 -259.5q0 -168 96 -266t258 -98q199 0 311 149l168 -151q-78 -100 -203.5 -157.5t-283.5 -57.5z" />
    <glyph glyph-name="d" unicode="d" horiz-adv-x="1349" 
d="M625 -23q-248 0 -396.5 158t-148.5 424t147.5 423t386.5 157q229 0 359 -131v542h241v-1550h-237v117q-119 -140 -352 -140zM672 193q94 0 176 40.5t129 122.5v408q-49 76 -135 118t-178 42q-150 0 -241 -96.5t-91 -266.5q0 -172 92 -270t248 -98z" />
    <glyph glyph-name="e" unicode="e" horiz-adv-x="1284" 
d="M1229 555q0 -49 -2 -70h-899q23 -143 117 -223t243 -80q219 0 342 154l158 -131q-168 -227 -516 -228q-274 0 -433 159t-159 425q0 262 159.5 422t415.5 160q279 0 426.5 -161t147.5 -427zM655 940q-125 0 -213 -70.5t-112 -201.5h655q-12 121 -95 196.5t-235 75.5z" />
    <glyph glyph-name="f" unicode="f" horiz-adv-x="772" 
d="M199 0v901h-166v213h166v88q0 184 89 279.5t257 95.5q133 0 223 -39v-188q-88 27 -160 26q-90 0 -130 -45t-40 -155v-62h318v-213h-316v-901h-241z" />
    <glyph glyph-name="g" unicode="g" horiz-adv-x="1343" 
d="M643 -393q-272 0 -459 82v229q209 -104 424 -104q180 0 274.5 66.5t94.5 221.5v78q-119 -139 -352 -139q-246 0 -395.5 152.5t-149.5 400.5q0 242 148.5 393.5t385.5 151.5q229 0 359 -131v106h241v-952q0 -276 -134 -415.5t-437 -139.5zM672 254q92 0 175 42t130 124
v344q-49 76 -135 119t-178 43q-145 0 -238.5 -92.5t-93.5 -239.5q0 -152 93 -246t247 -94z" />
    <glyph glyph-name="h" unicode="h" horiz-adv-x="1294" 
d="M137 0v1550h242v-549q156 135 364 136q213 0 323 -108.5t110 -366.5v-662h-244v612q0 174 -68.5 242t-191.5 68q-164 0 -293 -134v-788h-242z" />
    <glyph glyph-name="i" unicode="i" horiz-adv-x="532" 
d="M268.5 1257q-65.5 0 -111.5 45.5t-46 110.5q0 63 46 108.5t111.5 45.5t110.5 -45t45 -109q0 -66 -45 -111t-110.5 -45zM143 0v1114h246v-1114h-246z" />
    <glyph glyph-name="j" unicode="j" horiz-adv-x="548" 
d="M288.5 1257q-65.5 0 -111.5 45.5t-46 110.5q0 63 46 108.5t111.5 45.5t110.5 -45t45 -109q0 -66 -45 -111t-110.5 -45zM78 -387q-104 0 -154 16v199q43 -12 84 -12q98 0 126 52t28 181v1065h244v-1190q0 -162 -89 -236.5t-239 -74.5z" />
    <glyph glyph-name="k" unicode="k" horiz-adv-x="1265" 
d="M952 0l-313 514l-258 -260v-254h-240v1550h240v-1007l530 571h308l-406 -432l420 -682h-281z" />
    <glyph glyph-name="l" unicode="l" horiz-adv-x="532" 
d="M143 0v1550h246v-1550h-246z" />
    <glyph glyph-name="m" unicode="m" horiz-adv-x="2015" 
d="M1479 1139q201 0 309 -112t108 -376v-651h-241v608q0 176 -67.5 246t-184.5 70q-158 0 -277 -119q10 -76 11 -152v-653h-240v629q0 160 -58.5 227.5t-168.5 67.5q-158 0 -285 -133v-791h-242v1114h236v-113q162 137 373 138q229 0 315 -148q172 148 412 148z" />
    <glyph glyph-name="n" unicode="n" horiz-adv-x="1298" 
d="M143 0v1114h236v-113q160 135 369 136q213 0 322.5 -108.5t109.5 -366.5v-662h-242v612q0 174 -68.5 242t-191.5 68q-164 0 -293 -134v-788h-242z" />
    <glyph glyph-name="o" unicode="o" horiz-adv-x="1382" 
d="M692.5 -23q-274.5 0 -443.5 160t-169 422q0 260 169 420t443.5 160t442.5 -160t168 -420q0 -264 -168 -423t-442.5 -159zM692 195q160 0 259.5 100t99.5 264q0 162 -99.5 261.5t-259.5 99.5t-260 -100.5t-100 -260.5q0 -164 100 -264t260 -100z" />
    <glyph glyph-name="p" unicode="p" horiz-adv-x="1357" 
d="M143 -360v1474h240v-106q131 131 360 131q240 0 386.5 -157t146.5 -423t-147.5 -424t-397.5 -158q-229 0 -348 140v-477h-240zM686 193q156 0 248 99t92 269q0 168 -92 265.5t-242 97.5q-90 0 -176 -42t-137 -118v-408q94 -163 307 -163z" />
    <glyph glyph-name="q" unicode="q" horiz-adv-x="1339" 
d="M973 -360v477q-117 -139 -348 -140q-248 0 -396.5 158t-148.5 424t147.5 423t386.5 157q229 0 359 -131v106h241v-1474h-241zM672 193q94 0 176 40.5t129 122.5v408q-49 76 -135 118t-178 42q-150 0 -241 -96.5t-91 -266.5q0 -172 92 -270t248 -98z" />
    <glyph glyph-name="r" unicode="r" horiz-adv-x="874" 
d="M143 0v1114h236v-153q125 178 352 178q59 0 94 -15v-258q-74 27 -143 27q-129 0 -213 -93t-84 -263v-537h-242z" />
    <glyph glyph-name="s" unicode="s" horiz-adv-x="1083" 
d="M547 -27q-260 0 -469 103l80 194q174 -102 383 -102q217 0 217 141q0 59 -57.5 90t-204.5 64q-207 43 -304.5 119.5t-97.5 222.5q0 162 118 247t318 85q207 0 428 -88l-81 -195q-164 84 -351 84q-188 0 -188 -117q0 -61 53 -92t205 -65q213 -49 312.5 -123t99.5 -211
q0 -184 -115 -270.5t-346 -86.5z" />
    <glyph glyph-name="t" unicode="t" horiz-adv-x="819" 
d="M528 -25q-182 0 -262 90.5t-80 282.5v553h-166v213h166v436h240v-436h352v-213h-352v-518q0 -109 34 -155t128 -46q100 0 188 35v-211q-92 -31 -248 -31z" />
    <glyph glyph-name="u" unicode="u" horiz-adv-x="1269" 
d="M545 -23q-428 0 -428 476v661h241v-612q0 -309 252 -309q168 0 291 145v776h242v-1114h-232v125q-147 -148 -366 -148z" />
    <glyph glyph-name="v" unicode="v" horiz-adv-x="1216" 
d="M938 1114h266l-526 -1124h-141l-527 1124h277l211 -496l110 -280l115 276z" />
    <glyph glyph-name="w" unicode="w" horiz-adv-x="1677" 
d="M1417 1114h250l-393 -1124h-139l-299 737l-295 -737h-133l-398 1124h256l226 -719l282 725h129l285 -731z" />
    <glyph glyph-name="x" unicode="x" horiz-adv-x="1198" 
d="M1176 0h-287l-293 397l-289 -397h-284l415 571l-411 543h288l281 -383l283 383h290l-411 -541z" />
    <glyph glyph-name="y" unicode="y" horiz-adv-x="1202" 
d="M930 1114h260l-465 -1137q-49 -121 -108.5 -199.5t-128 -113.5t-124 -46t-128.5 -11q-102 0 -177 24v209q102 -27 164 -26q178 0 262 170l-505 1130h274l346 -846z" />
    <glyph glyph-name="z" unicode="z" horiz-adv-x="1103" 
d="M408 197h649v-197h-1004v125l637 790h-604v199h965v-123z" />
    <glyph glyph-name="braceleft" unicode="{" horiz-adv-x="888" 
d="M852 -246q-283 0 -390.5 70t-107.5 252v155q0 70 -1 100.5t-4 77t-11 65t-23.5 46t-37 35.5t-56.5 19.5t-78 14.5t-104 3v188q59 0 103 3t79 15.5t56.5 21.5t37 38t23.5 47.5t11 65.5t4 77.5t1 100.5v139q0 180 106.5 251t391.5 71v-166q-182 0 -236.5 -57.5
t-54.5 -192.5v-178q0 -147 -36 -224t-134 -106q98 -27 134 -101.5t36 -219.5v-195q0 -137 55.5 -193.5t235.5 -56.5v-166z" />
    <glyph glyph-name="bar" unicode="|" horiz-adv-x="624" 
d="M209 -262v1902h207v-1902h-207z" />
    <glyph glyph-name="braceright" unicode="}" horiz-adv-x="888" 
d="M37 -246v166q180 0 235.5 56.5t55.5 193.5v195q0 145 34.5 219.5t135.5 101.5q-98 29 -134 105.5t-36 224.5v178q0 135 -54.5 192.5t-236.5 57.5v166q285 0 391.5 -71t106.5 -251v-139q0 -238 46 -303.5t267 -65.5v-188q-59 0 -103.5 -3t-78 -14.5t-55 -19.5t-37 -35.5
t-23.5 -46t-11 -65t-4 -77t-1 -100.5v-155q0 -182 -107.5 -252t-390.5 -70z" />
    <glyph glyph-name="asciitilde" unicode="~" horiz-adv-x="1298" 
d="M926 506q-94 0 -336 76q-156 49 -211 49q-115 0 -172 -125l-144 33q57 309 312 309q115 0 358 -80q127 -41 201 -41q104 0 153 125l148 -45q-31 -152 -112.5 -226.5t-196.5 -74.5z" />
    <glyph glyph-name="exclamdown" unicode="&#xa1;" horiz-adv-x="503" 
d="M254 1477q63 0 109.5 -46.5t46.5 -111.5q0 -63 -46.5 -108.5t-109.5 -45.5q-66 0 -113 45t-47 109q0 66 47 112t113 46zM168 1051h172l43 -1051h-256z" />
    <glyph glyph-name="cent" unicode="&#xa2;" horiz-adv-x="1187" 
d="M1145 313q-150 -197 -430 -215v-237h-148v239q-240 27 -373 179.5t-133 396.5q0 238 135.5 390.5t370.5 178.5v275h148v-271q283 -18 422 -211l-150 -141q-98 137 -272 158v-762q182 20 280 160zM289 676q0 -150 73.5 -248t204.5 -127v746q-131 -29 -204.5 -126.5
t-73.5 -244.5z" />
    <glyph glyph-name="sterling" unicode="&#xa3;" horiz-adv-x="1329" 
d="M565 217h701v-217h-1166v164l219 39q2 68 -30 266l-19 100h-172v174h154q-6 63 -6 127q0 309 136 453.5t378 144.5q225 0 364.5 -128t139.5 -353v-47h-224v31q0 127 -75.5 199.5t-184.5 72.5q-289 0 -288 -369q0 -63 6 -131h528v-174h-506l8 -51q37 -235 37 -301z" />
    <glyph glyph-name="currency" unicode="&#xa4;" horiz-adv-x="1189" 
d="M1026 674q0 -127 -78 -234l158 -157l-117 -117l-164 164q-104 -66 -225 -66q-127 0 -231 70l-168 -168l-117 117l166 166q-72 104 -72 229q0 123 72 227l-164 164l115 119l166 -168q109 74 233 74q121 0 227 -68l160 160l119 -115l-160 -160q80 -104 80 -237zM379 672
q0 -94 63.5 -160t157.5 -66q96 0 159.5 67t63.5 165t-65.5 163.5t-157.5 65.5q-94 0 -157.5 -67.5t-63.5 -167.5z" />
    <glyph glyph-name="yen" unicode="&#xa5;" horiz-adv-x="1294" 
d="M1298 1448l-442 -795h297v-147h-379l-2 -2v-142h381v-147h-381v-215h-250v215h-379v147h379v138l-4 6h-375v147h293l-440 795h295l356 -700l361 700h290z" />
    <glyph glyph-name="brokenbar" unicode="&#xa6;" horiz-adv-x="624" 
d="M209 852v788h207v-788h-207zM209 -260v786h207v-786h-207z" />
    <glyph glyph-name="section" unicode="&#xa7;" horiz-adv-x="1081" 
d="M547 -23q-279 0 -502 109l82 178q195 -106 414 -106q225 0 225 112q0 61 -60.5 92t-216.5 64q-229 49 -324 110.5t-95 182.5q0 158 157 229q-137 74 -137 215q0 154 117 232t321 78q246 0 459 -87l-84 -176q-184 82 -377 82q-199 0 -198 -110q0 -51 55 -79t215 -63
q219 -47 319.5 -112.5t100.5 -188.5q0 -150 -154 -219q76 -39 112 -92t36 -137q0 -314 -465 -314zM647 586q70 8 108 40.5t38 78.5q0 59 -52.5 90.5t-152.5 52.5l-148 29q-66 -8 -107.5 -39t-41.5 -84q0 -55 51 -86t180 -58q86 -18 125 -24z" />
    <glyph glyph-name="dieresis" unicode="&#xa8;" horiz-adv-x="1028" 
d="M297 1257q-66 0 -112 45.5t-46 109t46 108.5t112 45q63 0 108.5 -45t45.5 -108.5t-45.5 -109t-108.5 -45.5zM733.5 1257q-65.5 0 -110.5 45.5t-45 109t45 108.5t110.5 45t109.5 -45t44 -108.5t-44 -109t-109.5 -45.5z" />
    <glyph glyph-name="copyright" unicode="&#xa9;" horiz-adv-x="1595" 
d="M796.5 -16q-321.5 0 -531.5 211t-210 534.5t211 534.5t535 211q319 0 527 -211t208 -534.5t-209 -534.5t-530.5 -211zM797 115q260 0 429 174t169 440q0 262 -169 437t-425 175q-262 0 -433 -175t-171 -439q0 -262 170 -437t430 -175zM807 297q-190 0 -309 119t-119 311
q0 190 119.5 309t308.5 119q96 0 184 -43t148 -115l-146 -123q-31 45 -83 75t-105 30q-102 0 -167 -69.5t-65 -182.5t64.5 -182.5t167.5 -69.5q53 0 104.5 27.5t83.5 72.5l146 -120q-129 -158 -332 -158z" />
    <glyph glyph-name="ordfeminine" unicode="&#xaa;" horiz-adv-x="942" 
d="M428 645q-174 0 -279.5 112.5t-105.5 301.5q0 182 104.5 294.5t272.5 112.5q172 0 262 -98v80h160v-786h-158v83q-88 -100 -256 -100zM463 791q154 0 221 114v301q-33 53 -94.5 84t-130.5 31q-109 0 -177.5 -70.5t-68.5 -191.5q0 -123 67.5 -195.5t182.5 -72.5z" />
    <glyph glyph-name="guillemotleft" unicode="&#xab;" horiz-adv-x="1157" 
d="M418 16l-361 531l361 530l162 -121l-293 -409l293 -410zM911 16l-358 531l358 530l164 -121l-295 -409l295 -410z" />
    <glyph glyph-name="logicalnot" unicode="&#xac;" horiz-adv-x="1329" 
d="M997 143v437h-915v204h1141v-641h-226z" />
    <glyph glyph-name="uni00AD" unicode="&#xad;" horiz-adv-x="813" 
d="M76 569v217h659v-217h-659z" />
    <glyph glyph-name="registered" unicode="&#xae;" horiz-adv-x="1046" 
d="M522 473q-215 0 -356 141.5t-141 358.5t141 359.5t358 142.5q215 0 354.5 -142.5t139.5 -359.5t-139.5 -358.5t-356.5 -141.5zM522 569q168 0 279.5 116t111.5 288t-110.5 287.5t-278.5 115.5q-172 0 -283.5 -115.5t-111.5 -289.5q0 -172 111.5 -287t281.5 -115zM315 719
v538h213q111 0 169.5 -50t58.5 -142q0 -123 -105 -168l111 -178h-141l-89 151h-96v-151h-121zM436 971h82q111 0 111 90q0 96 -105 96h-88v-186z" />
    <glyph glyph-name="macron" unicode="&#xaf;" horiz-adv-x="1028" 
d="M156 1331v174h716v-174h-716z" />
    <glyph glyph-name="degree" unicode="&#xb0;" horiz-adv-x="851" 
d="M426 748q-162 0 -266.5 102t-104.5 260t104.5 261.5t266.5 103.5t267.5 -103.5t105.5 -263.5q0 -158 -105.5 -259t-267.5 -101zM426 913q84 0 139.5 55.5t55.5 141.5t-55.5 141.5t-139.5 55.5t-139.5 -56.5t-55.5 -142.5q0 -84 55.5 -139.5t139.5 -55.5z" />
    <glyph glyph-name="plusminus" unicode="&#xb1;" horiz-adv-x="1257" 
d="M524 346v416h-413v203h413v415h209v-415h414v-203h-414v-416h-209zM109 -2v203h1036v-203h-1036z" />
    <glyph glyph-name="uni00B2" unicode="&#xb2;" horiz-adv-x="761" 
d="M221 723h490v-148h-666v64q2 102 58.5 167.5t205.5 160.5q88 53 125 79.5t65.5 65.5t28.5 84q0 55 -43 86t-108 31q-78 0 -125 -42t-47 -116v-27h-162v35q0 139 90 218t248 79q141 0 233.5 -65.5t92.5 -184.5q0 -113 -61.5 -179t-213.5 -159q-20 -12 -57 -33.5
t-53.5 -31.5t-40 -26.5t-37 -30t-23.5 -27.5z" />
    <glyph glyph-name="uni00B3" unicode="&#xb3;" horiz-adv-x="768" 
d="M432 1124q137 0 214 -78.5t77 -195.5q0 -139 -93 -213t-249 -74q-158 0 -251 73t-93 198v14h162v-8q0 -59 48 -95t130 -36q80 0 127 39.5t47 109.5t-47 109t-129 39q-59 0 -121 -25l-64 78l254 244h-364v145h612v-82z" />
    <glyph glyph-name="acute" unicode="&#xb4;" horiz-adv-x="1028" 
d="M254 1270l258 332l279 -21l-359 -311h-178z" />
    <glyph glyph-name="uni00B5" unicode="&#xb5;" horiz-adv-x="1304" 
d="M924 1114h241v-1114h-231v125q-135 -147 -328 -148q-145 0 -225 89v-426h-242v1474h242v-612q0 -309 252 -309q168 0 291 145v776z" />
    <glyph glyph-name="paragraph" unicode="&#xb6;" horiz-adv-x="1214" 
d="M606 0v592h-35q-240 0 -376 114.5t-136 317.5q0 199 135.5 311.5t370.5 112.5h541v-1448h-182v1272h-138v-1272h-180zM541 768h65v502h-51q-131 0 -207 -64.5t-76 -181.5q0 -123 71 -189.5t198 -66.5z" />
    <glyph glyph-name="periodcentered" unicode="&#xb7;" horiz-adv-x="475" 
d="M240 520q-66 0 -112 46t-46 109.5t46 109.5t112 46q63 0 109 -45t46 -110.5t-46 -110.5t-109 -45z" />
    <glyph glyph-name="cedilla" unicode="&#xb8;" horiz-adv-x="880" 
d="M670 -80q121 -29 121 -125q0 -86 -70 -133t-199 -47q-88 0 -141 12v107q41 -8 98 -8q123 0 123 75q0 55 -113 66v41l84 98l142 10z" />
    <glyph glyph-name="uni00B9" unicode="&#xb9;" horiz-adv-x="524" 
d="M246 575v701l-183 -66l-51 131l291 107h105v-873h-162z" />
    <glyph glyph-name="ordmasculine" unicode="&#xba;" horiz-adv-x="950" 
d="M475 645q-193 0 -312.5 113.5t-119.5 298.5q0 182 120 295.5t312 113.5q190 0 311 -113.5t121 -295.5q0 -184 -121 -298t-311 -114zM475 795q113 0 185.5 72.5t72.5 189.5q0 115 -72.5 186.5t-185.5 71.5t-187.5 -72t-74.5 -186q0 -117 73.5 -189.5t188.5 -72.5z" />
    <glyph glyph-name="guillemotright" unicode="&#xbb;" horiz-adv-x="1157" 
d="M246 16l-164 121l293 410l-293 409l164 121l358 -530zM739 16l-164 121l293 410l-293 409l164 121l359 -530z" />
    <glyph glyph-name="onequarter" unicode="&#xbc;" horiz-adv-x="1581" 
d="M246 575v701l-183 -66l-51 131l291 107h105v-873h-162zM1159 1448h199l-998 -1448h-200zM1421 297h138v-141h-138v-156h-161v156h-472v88l515 633h118v-580zM991 287h281v356z" />
    <glyph glyph-name="onehalf" unicode="&#xbd;" horiz-adv-x="1742" 
d="M246 575v701l-183 -66l-51 131l291 107h105v-873h-162zM1159 1448h199l-998 -1448h-200zM1202 147h490v-147h-666v63q2 102 58.5 168t205.5 160q88 53 125 80t65.5 65.5t28.5 84.5q0 55 -43 85.5t-108 30.5q-78 0 -125 -42t-47 -115v-27h-162v35q0 139 90 218t248 79
q141 0 233.5 -65.5t92.5 -184.5q0 -113 -61.5 -179.5t-213.5 -158.5q-20 -12 -57 -33.5t-53.5 -32t-40 -27t-37 -30t-23.5 -27.5z" />
    <glyph glyph-name="threequarters" unicode="&#xbe;" horiz-adv-x="1798" 
d="M723 850q0 -139 -93 -213t-249 -74q-158 0 -251 73t-93 198v14h162v-8q0 -59 48 -95t130 -36q80 0 127 39.5t47 109.5t-47 109t-129 39q-59 0 -121 -25l-64 78l254 244h-364v145h612v-82l-260 -242q137 0 214 -78.5t77 -195.5zM1376 1448h199l-997 -1448h-201zM1638 297
h138v-141h-138v-156h-161v156h-471v88l514 633h118v-580zM1208 287h281v356z" />
    <glyph glyph-name="questiondown" unicode="&#xbf;" horiz-adv-x="1189" 
d="M664 1477q66 0 112.5 -46.5t46.5 -111.5q0 -63 -47 -108.5t-112 -45.5q-63 0 -109.5 45t-46.5 109q0 66 46.5 112t109.5 46zM68 432q0 190 134 322.5t365 148.5l33 148h133l29 -295l-80 -6q-176 -16 -271.5 -100.5t-95.5 -207.5q0 -129 89.5 -196.5t207.5 -67.5
q147 0 237.5 81t90.5 228v33h231v-43q0 -231 -157.5 -367.5t-407.5 -136.5q-233 0 -385.5 117t-152.5 342z" />
    <glyph glyph-name="Agrave" unicode="&#xc0;" horiz-adv-x="1509" 
d="M856 1567h-178l-359 309l279 22zM1223 0l-138 305h-661l-137 -305h-273l660 1458h160l661 -1458h-272zM754 1118l-119 -303l-123 -299h485l-125 299z" />
    <glyph glyph-name="Aacute" unicode="&#xc1;" horiz-adv-x="1509" 
d="M651 1567l260 331l279 -22l-359 -309h-180zM1223 0l-138 305h-661l-137 -305h-273l660 1458h160l661 -1458h-272zM754 1118l-119 -303l-123 -299h485l-125 299z" />
    <glyph glyph-name="Acircumflex" unicode="&#xc2;" horiz-adv-x="1509" 
d="M381 1567l291 317h168l293 -317h-193l-184 149l-185 -149h-190zM1223 0l-138 305h-661l-137 -305h-273l660 1458h160l661 -1458h-272zM754 1118l-119 -303l-123 -299h485l-125 299z" />
    <glyph glyph-name="Atilde" unicode="&#xc3;" horiz-adv-x="1509" 
d="M446 1554l-114 27q20 131 80.5 200.5t152.5 69.5q82 0 202 -63.5t163 -63.5q86 0 133 119l115 -26q-23 -131 -82.5 -201t-149.5 -70q-74 0 -195.5 64.5t-160.5 64.5q-93 0 -144 -121zM1223 0l-138 305h-661l-137 -305h-273l660 1458h160l661 -1458h-272zM754 1118
l-119 -303l-123 -299h485l-125 299z" />
    <glyph glyph-name="Adieresis" unicode="&#xc4;" horiz-adv-x="1509" 
d="M539 1552q-66 0 -112 45t-46 108.5t46 109t112 45.5q63 0 108 -45.5t45 -109t-45 -108.5t-108 -45zM974.5 1552q-63.5 0 -109.5 45t-46 108.5t45 109t111 45.5q63 0 108 -45.5t45 -109t-45 -108.5t-108.5 -45zM1223 0l-138 305h-661l-137 -305h-273l660 1458h160
l661 -1458h-272zM754 1118l-119 -303l-123 -299h485l-125 299z" />
    <glyph glyph-name="Aring" unicode="&#xc5;" horiz-adv-x="1509" 
d="M852 1419l643 -1419h-272l-138 305h-661l-137 -305h-273l643 1419q-63 27 -101 83.5t-38 127.5q0 98 67.5 164t168.5 66q102 0 168.5 -64.5t66.5 -165.5q0 -72 -37 -128t-100 -83zM753.5 1751q-51.5 0 -84 -34t-32.5 -87q0 -51 32.5 -85t84 -34t84 34t32.5 89
q0 51 -32.5 84t-84 33zM512 516h485l-125 299l-118 303l-119 -303z" />
    <glyph glyph-name="AE" unicode="&#xc6;" horiz-adv-x="2070" 
d="M12 0l740 1448h1208v-221h-784v-404h661v-213h-661v-389h821v-221h-1067v305h-488l-151 -305h-279zM541 516h389v703h-41z" />
    <glyph glyph-name="Ccedilla" unicode="&#xc7;" horiz-adv-x="1529" 
d="M844 203q283 0 430 207l196 -162q-207 -250 -561 -273l-26 -55q121 -29 121 -125q0 -86 -70 -133t-199 -47q-88 0 -141 12v107q41 -8 98 -8q123 0 123 75q0 55 -113 66v41l60 67q-309 25 -491.5 226.5t-182.5 527.5q0 346 205 546t547 200q401 0 630 -277l-196 -162
q-150 209 -430 209q-223 0 -358.5 -139t-135.5 -377q0 -240 136.5 -383t357.5 -143z" />
    <glyph glyph-name="Egrave" unicode="&#xc8;" horiz-adv-x="1290" 
d="M743 1567h-178l-358 309l278 22zM147 0v1448h1031v-221h-785v-404h662v-213h-662v-389h821v-221h-1067z" />
    <glyph glyph-name="Eacute" unicode="&#xc9;" horiz-adv-x="1290" 
d="M539 1567l260 331l278 -22l-358 -309h-180zM147 0v1448h1031v-221h-785v-404h662v-213h-662v-389h821v-221h-1067z" />
    <glyph glyph-name="Ecircumflex" unicode="&#xca;" horiz-adv-x="1290" 
d="M270 1567l291 317h168l293 -317h-193l-184 149l-184 -149h-191zM147 0v1448h1031v-221h-785v-404h662v-213h-662v-389h821v-221h-1067z" />
    <glyph glyph-name="Edieresis" unicode="&#xcb;" horiz-adv-x="1290" 
d="M426 1552q-66 0 -112 45t-46 108.5t46 109t112 45.5q63 0 108.5 -45.5t45.5 -109t-45.5 -108.5t-108.5 -45zM862.5 1552q-63.5 0 -109.5 45t-46 108.5t45 109t110 45.5q63 0 108.5 -45.5t45.5 -109t-45 -108.5t-108.5 -45zM147 0v1448h1031v-221h-785v-404h662v-213h-662
v-389h821v-221h-1067z" />
    <glyph glyph-name="Igrave" unicode="&#xcc;" horiz-adv-x="577" 
d="M393 1567h-178l-358 309l278 22zM162 0v1448h256v-1448h-256z" />
    <glyph glyph-name="Iacute" unicode="&#xcd;" horiz-adv-x="577" 
d="M188 1567l261 331l278 -22l-358 -309h-181zM162 0v1448h256v-1448h-256z" />
    <glyph glyph-name="Icircumflex" unicode="&#xce;" horiz-adv-x="577" 
d="M-82 1567l291 317h168l293 -317h-193l-184 149l-184 -149h-191zM162 0v1448h256v-1448h-256z" />
    <glyph glyph-name="Idieresis" unicode="&#xcf;" horiz-adv-x="577" 
d="M76 1552q-66 0 -112 45t-46 108.5t46 109t112 45.5q63 0 108 -45.5t45 -109t-45 -108.5t-108 -45zM512 1552q-63 0 -109.5 45t-46.5 108.5t45 109t111 45.5q63 0 108.5 -45.5t45.5 -109t-45.5 -108.5t-108.5 -45zM162 0v1448h256v-1448h-256z" />
    <glyph glyph-name="Eth" unicode="&#xd0;" horiz-adv-x="1544" 
d="M739 1448q342 0 529.5 -179t187.5 -528q0 -346 -183 -543.5t-525 -197.5h-555v621h-164v198h164v629h546zM752 225q203 0 322.5 133.5t119.5 382.5q0 231 -116.5 356.5t-336.5 125.5h-303v-404h357v-198h-357v-396h314z" />
    <glyph glyph-name="Ntilde" unicode="&#xd1;" horiz-adv-x="1574" 
d="M483 1554l-114 27q20 131 80.5 200.5t152.5 69.5q82 0 202 -63.5t163 -63.5q86 0 133 119l114 -26q-23 -131 -82 -201t-149 -70q-74 0 -195.5 64.5t-160.5 64.5q-93 0 -144 -121zM1180 1448h247v-1458h-127l-905 999v-989h-248v1460h127l906 -999v987z" />
    <glyph glyph-name="Ograve" unicode="&#xd2;" horiz-adv-x="1726" 
d="M969 1567h-178l-359 309l279 22zM862 -27q-340 0 -557 206t-217 544q0 332 213 543t561 211q340 0 558 -207t218 -547q0 -330 -214 -540t-562 -210zM862 203q225 0 369.5 142t144.5 378q0 231 -141 377.5t-373 146.5q-223 0 -367.5 -144.5t-144.5 -379.5
q0 -229 141.5 -374.5t370.5 -145.5z" />
    <glyph glyph-name="Oacute" unicode="&#xd3;" horiz-adv-x="1726" 
d="M764 1567l260 331l279 -22l-359 -309h-180zM862 -27q-340 0 -557 206t-217 544q0 332 213 543t561 211q340 0 558 -207t218 -547q0 -330 -214 -540t-562 -210zM862 203q225 0 369.5 142t144.5 378q0 231 -141 377.5t-373 146.5q-223 0 -367.5 -144.5t-144.5 -379.5
q0 -229 141.5 -374.5t370.5 -145.5z" />
    <glyph glyph-name="Ocircumflex" unicode="&#xd4;" horiz-adv-x="1726" 
d="M494 1567l290 317h168l293 -317h-192l-185 149l-184 -149h-190zM862 -27q-340 0 -557 206t-217 544q0 332 213 543t561 211q340 0 558 -207t218 -547q0 -330 -214 -540t-562 -210zM862 203q225 0 369.5 142t144.5 378q0 231 -141 377.5t-373 146.5q-223 0 -367.5 -144.5
t-144.5 -379.5q0 -229 141.5 -374.5t370.5 -145.5z" />
    <glyph glyph-name="Otilde" unicode="&#xd5;" horiz-adv-x="1726" 
d="M559 1554l-115 27q20 131 81 200.5t153 69.5q82 0 201.5 -63.5t162.5 -63.5q86 0 134 119l114 -26q-23 -131 -82 -201t-149 -70q-74 0 -196 64.5t-161 64.5q-92 0 -143 -121zM862 -27q-340 0 -557 206t-217 544q0 332 213 543t561 211q340 0 558 -207t218 -547
q0 -330 -214 -540t-562 -210zM862 203q225 0 369.5 142t144.5 378q0 231 -141 377.5t-373 146.5q-223 0 -367.5 -144.5t-144.5 -379.5q0 -229 141.5 -374.5t370.5 -145.5z" />
    <glyph glyph-name="Odieresis" unicode="&#xd6;" horiz-adv-x="1726" 
d="M651 1552q-66 0 -111.5 45t-45.5 108.5t46 109t111 45.5q63 0 108.5 -45.5t45.5 -109t-45.5 -108.5t-108.5 -45zM1087.5 1552q-63.5 0 -109.5 45t-46 108.5t45 109t110 45.5q63 0 108.5 -45.5t45.5 -109t-45 -108.5t-108.5 -45zM862 -27q-340 0 -557 206t-217 544
q0 332 213 543t561 211q340 0 558 -207t218 -547q0 -330 -214 -540t-562 -210zM862 203q225 0 369.5 142t144.5 378q0 231 -141 377.5t-373 146.5q-223 0 -367.5 -144.5t-144.5 -379.5q0 -229 141.5 -374.5t370.5 -145.5z" />
    <glyph glyph-name="multiply" unicode="&#xd7;" horiz-adv-x="1179" 
d="M221 164l-147 145l370 369l-370 371l145 145l371 -373l371 373l145 -145l-371 -371l369 -369l-143 -145l-371 371z" />
    <glyph glyph-name="Oslash" unicode="&#xd8;" horiz-adv-x="1726" 
d="M1448 1241q190 -207 190 -518q0 -330 -214 -540t-562 -210q-242 0 -430 109l-72 -82h-245l172 199q-199 205 -199 524q0 332 213 543t561 211q246 0 441 -117l77 88h248zM350 723q0 -195 105 -334l686 787q-123 72 -279 71q-223 0 -367.5 -144t-144.5 -380zM862 203
q225 0 369.5 142t144.5 378q0 188 -98 326l-682 -781q112 -65 266 -65z" />
    <glyph glyph-name="Ugrave" unicode="&#xd9;" horiz-adv-x="1490" 
d="M848 1567h-178l-359 309l279 22zM745.5 -27q-616.5 0 -616.5 598v877h254v-819q0 -221 86 -321.5t276.5 -100.5t277.5 100.5t87 321.5v819h252v-877q0 -598 -616.5 -598z" />
    <glyph glyph-name="Uacute" unicode="&#xda;" horiz-adv-x="1490" 
d="M643 1567l260 331l279 -22l-359 -309h-180zM745.5 -27q-616.5 0 -616.5 598v877h254v-819q0 -221 86 -321.5t276.5 -100.5t277.5 100.5t87 321.5v819h252v-877q0 -598 -616.5 -598z" />
    <glyph glyph-name="Ucircumflex" unicode="&#xdb;" horiz-adv-x="1490" 
d="M375 1567l291 317h168l292 -317h-192l-184 149l-185 -149h-190zM745.5 -27q-616.5 0 -616.5 598v877h254v-819q0 -221 86 -321.5t276.5 -100.5t277.5 100.5t87 321.5v819h252v-877q0 -598 -616.5 -598z" />
    <glyph glyph-name="Udieresis" unicode="&#xdc;" horiz-adv-x="1490" 
d="M530 1552q-66 0 -111.5 45t-45.5 108.5t46 109t111 45.5q63 0 108.5 -45.5t45.5 -109t-45.5 -108.5t-108.5 -45zM966.5 1552q-63.5 0 -109.5 45t-46 108.5t45 109t111 45.5q63 0 108 -45.5t45 -109t-45 -108.5t-108.5 -45zM745.5 -27q-616.5 0 -616.5 598v877h254v-819
q0 -221 86 -321.5t276.5 -100.5t277.5 100.5t87 321.5v819h252v-877q0 -598 -616.5 -598z" />
    <glyph glyph-name="Yacute" unicode="&#xdd;" horiz-adv-x="1331" 
d="M563 1567l260 331l279 -22l-359 -309h-180zM1333 1448l-540 -946v-502h-256v502l-539 946h295l375 -700l376 700h289z" />
    <glyph glyph-name="Thorn" unicode="&#xde;" horiz-adv-x="1337" 
d="M725 1243q279 0 423 -129t144 -379q0 -522 -612 -522h-283v-213h-250v1448h250v-205h328zM674 430q358 0 358 299q0 295 -327 295h-308v-594h277z" />
    <glyph glyph-name="germandbls" unicode="&#xdf;" horiz-adv-x="1300" 
d="M934 874q133 -31 215 -147.5t82 -255.5q0 -246 -138.5 -368.5t-387.5 -122.5q-90 0 -187 18v215q96 -18 162 -18q299 0 299 280q0 129 -85 196.5t-243 67.5h-78v195h64q100 0 161.5 64.5t61.5 163t-65.5 154.5t-165.5 56q-129 0 -203 -75.5t-74 -221.5v-1435h-241v1421
q0 258 144 387t370 129q219 0 347 -106.5t128 -307.5q0 -92 -46 -169t-120 -120z" />
    <glyph glyph-name="agrave" unicode="&#xe0;" horiz-adv-x="1349" 
d="M803 1270h-178l-359 309l279 23zM625 -23q-248 0 -396.5 158t-148.5 424t147.5 423t386.5 157q229 0 359 -131v106h241v-1114h-237v117q-119 -140 -352 -140zM672 193q94 0 176 40.5t129 122.5v408q-49 76 -135 118t-178 42q-150 0 -241 -96.5t-91 -266.5q0 -172 92 -270
t248 -98z" />
    <glyph glyph-name="aacute" unicode="&#xe1;" horiz-adv-x="1349" 
d="M567 1270l258 332l279 -21l-359 -311h-178zM625 -23q-248 0 -396.5 158t-148.5 424t147.5 423t386.5 157q229 0 359 -131v106h241v-1114h-237v117q-119 -140 -352 -140zM672 193q94 0 176 40.5t129 122.5v408q-49 76 -135 118t-178 42q-150 0 -241 -96.5t-91 -266.5
q0 -172 92 -270t248 -98z" />
    <glyph glyph-name="acircumflex" unicode="&#xe2;" horiz-adv-x="1349" 
d="M311 1270l291 317h168l293 -317h-193l-184 149l-184 -149h-191zM625 -23q-248 0 -396.5 158t-148.5 424t147.5 423t386.5 157q229 0 359 -131v106h241v-1114h-237v117q-119 -140 -352 -140zM672 193q94 0 176 40.5t129 122.5v408q-49 76 -135 118t-178 42
q-150 0 -241 -96.5t-91 -266.5q0 -172 92 -270t248 -98z" />
    <glyph glyph-name="atilde" unicode="&#xe3;" horiz-adv-x="1349" 
d="M379 1278l-115 27q20 131 81 200.5t153 69.5q82 0 201.5 -63.5t162.5 -63.5q86 0 133 119l115 -27q-23 -131 -82 -200.5t-149 -69.5q-74 0 -196 64.5t-161 64.5q-92 0 -143 -121zM625 -23q-248 0 -396.5 158t-148.5 424t147.5 423t386.5 157q229 0 359 -131v106h241
v-1114h-237v117q-119 -140 -352 -140zM672 193q94 0 176 40.5t129 122.5v408q-49 76 -135 118t-178 42q-150 0 -241 -96.5t-91 -266.5q0 -172 92 -270t248 -98z" />
    <glyph glyph-name="adieresis" unicode="&#xe4;" horiz-adv-x="1349" 
d="M467 1257q-66 0 -111 45.5t-45 109t45 108.5t111 45q63 0 108.5 -45t45.5 -108.5t-45.5 -109t-108.5 -45.5zM905 1257q-66 0 -111.5 45.5t-45.5 109t46 108.5t111 45q63 0 108.5 -45t45.5 -108.5t-45.5 -109t-108.5 -45.5zM625 -23q-248 0 -396.5 158t-148.5 424
t147.5 423t386.5 157q229 0 359 -131v106h241v-1114h-237v117q-119 -140 -352 -140zM672 193q94 0 176 40.5t129 122.5v408q-49 76 -135 118t-178 42q-150 0 -241 -96.5t-91 -266.5q0 -172 92 -270t248 -98z" />
    <glyph glyph-name="aring" unicode="&#xe5;" horiz-adv-x="1349" 
d="M686 1253q-100 0 -167.5 65.5t-67.5 164t67.5 164t167.5 65.5q102 0 169 -64.5t67 -165t-67 -165t-169 -64.5zM686 1364q51 0 84 34t33 89q0 51 -33 84t-84 33t-84 -34t-33 -87q0 -51 33 -85t84 -34zM625 -23q-248 0 -396.5 158t-148.5 424t147.5 423t386.5 157
q229 0 359 -131v106h241v-1114h-237v117q-119 -140 -352 -140zM672 193q94 0 176 40.5t129 122.5v408q-49 76 -135 118t-178 42q-150 0 -241 -96.5t-91 -266.5q0 -172 92 -270t248 -98z" />
    <glyph glyph-name="ae" unicode="&#xe6;" horiz-adv-x="2158" 
d="M2103 555l-2 -70h-901q23 -143 117 -223t248 -80q223 0 344 154l159 -131q-164 -225 -501 -225q-238 0 -377 129v-109h-238v117q-117 -139 -342 -140q-242 0 -386 158t-144 426q0 266 143.5 424t376.5 158q221 0 350 -131v106h240v-104q133 127 348 127q270 0 417.5 -161
t147.5 -425zM1530 938q-127 0 -214 -69.5t-112 -200.5h658q-12 121 -95 195.5t-237 74.5zM952 358v410q-47 74 -131 117t-172 43q-145 0 -234 -97.5t-89 -267.5q0 -172 90 -272.5t239 -100.5q90 0 171 42t126 126z" />
    <glyph glyph-name="ccedilla" unicode="&#xe7;" horiz-adv-x="1226" 
d="M1163 195q-145 -190 -428 -213l-28 -62q121 -29 120 -125q0 -86 -69.5 -133t-198.5 -47q-88 0 -141 12v107q41 -8 98 -8q123 0 123 75q0 55 -113 66v41l66 76q-242 25 -377 177t-135 398q0 260 163 419t437 159q152 0 275.5 -57.5t199.5 -157.5l-168 -152
q-47 66 -127 107t-172 41q-164 0 -261 -97.5t-97 -259.5q0 -168 96 -266t258 -98q199 0 311 149z" />
    <glyph glyph-name="egrave" unicode="&#xe8;" horiz-adv-x="1284" 
d="M764 1274h-178l-359 309l279 23zM1229 555q0 -49 -2 -70h-899q23 -143 117 -223t243 -80q219 0 342 154l158 -131q-168 -227 -516 -228q-274 0 -433 159t-159 425q0 262 159.5 422t415.5 160q279 0 426.5 -161t147.5 -427zM655 940q-125 0 -213 -70.5t-112 -201.5h655
q-12 121 -95 196.5t-235 75.5z" />
    <glyph glyph-name="eacute" unicode="&#xe9;" horiz-adv-x="1284" 
d="M526 1274l258 332l279 -21l-358 -311h-179zM1229 555q0 -49 -2 -70h-899q23 -143 117 -223t243 -80q219 0 342 154l158 -131q-168 -227 -516 -228q-274 0 -433 159t-159 425q0 262 159.5 422t415.5 160q279 0 426.5 -161t147.5 -427zM655 940q-125 0 -213 -70.5
t-112 -201.5h655q-12 121 -95 196.5t-235 75.5z" />
    <glyph glyph-name="ecircumflex" unicode="&#xea;" horiz-adv-x="1284" 
d="M270 1274l291 317h168l293 -317h-193l-184 149l-184 -149h-191zM1229 555q0 -49 -2 -70h-899q23 -143 117 -223t243 -80q219 0 342 154l158 -131q-168 -227 -516 -228q-274 0 -433 159t-159 425q0 262 159.5 422t415.5 160q279 0 426.5 -161t147.5 -427zM655 940
q-125 0 -213 -70.5t-112 -201.5h655q-12 121 -95 196.5t-235 75.5z" />
    <glyph glyph-name="edieresis" unicode="&#xeb;" horiz-adv-x="1284" 
d="M426 1262q-66 0 -111 45t-45 108.5t45 108.5t111 45q63 0 108.5 -45t45.5 -108.5t-45.5 -108.5t-108.5 -45zM864 1262q-66 0 -111.5 45t-45.5 108.5t46 108.5t111 45q63 0 108.5 -45t45.5 -108.5t-45.5 -108.5t-108.5 -45zM1229 555q0 -49 -2 -70h-899q23 -143 117 -223
t243 -80q219 0 342 154l158 -131q-168 -227 -516 -228q-274 0 -433 159t-159 425q0 262 159.5 422t415.5 160q279 0 426.5 -161t147.5 -427zM655 940q-125 0 -213 -70.5t-112 -201.5h655q-12 121 -95 196.5t-235 75.5z" />
    <glyph glyph-name="igrave" unicode="&#xec;" horiz-adv-x="532" 
d="M389 1270h-178l-358 309l278 23zM143 0v1114h246v-1114h-246z" />
    <glyph glyph-name="iacute" unicode="&#xed;" horiz-adv-x="532" 
d="M152 1270l258 332l278 -21l-358 -311h-178zM143 0v1114h246v-1114h-246z" />
    <glyph glyph-name="icircumflex" unicode="&#xee;" horiz-adv-x="532" 
d="M-104 1270l290 317h168l293 -317h-192l-185 149l-184 -149h-190zM143 0v1114h246v-1114h-246z" />
    <glyph glyph-name="idieresis" unicode="&#xef;" horiz-adv-x="532" 
d="M51 1257q-66 0 -110.5 45.5t-44.5 109t45 108.5t110 45q63 0 108.5 -45t45.5 -108.5t-45.5 -109t-108.5 -45.5zM489 1257q-66 0 -111.5 45.5t-45.5 109t46 108.5t111 45q63 0 108.5 -45t45.5 -108.5t-45.5 -109t-108.5 -45.5zM143 0v1114h246v-1114h-246z" />
    <glyph glyph-name="eth" unicode="&#xf0;" horiz-adv-x="1382" 
d="M1067 1319q236 -238 236 -629q0 -342 -163 -527.5t-456 -185.5q-270 0 -437 157t-167 411q0 236 147.5 383t399.5 147q268 0 428 -188q-45 229 -226 352l-303 -127v148l140 59q-127 41 -291 47v211q301 -12 512 -125l321 135v-205zM684 195q166 0 262 113.5t101 301.5
q-55 137 -160 202t-221 65q-152 0 -243 -94.5t-91 -237.5q0 -154 99 -252t253 -98z" />
    <glyph glyph-name="ntilde" unicode="&#xf1;" horiz-adv-x="1298" 
d="M350 1278l-114 27q20 131 80.5 200.5t152.5 69.5q82 0 202 -63.5t163 -63.5q86 0 133 119l114 -27q-23 -131 -82 -200.5t-149 -69.5q-74 0 -196 64.5t-160 64.5q-93 0 -144 -121zM143 0v1114h236v-113q160 135 369 136q213 0 322.5 -108.5t109.5 -366.5v-662h-242v612
q0 174 -68.5 242t-191.5 68q-164 0 -293 -134v-788h-242z" />
    <glyph glyph-name="ograve" unicode="&#xf2;" horiz-adv-x="1382" 
d="M815 1270h-178l-358 309l278 23zM692.5 -23q-274.5 0 -443.5 160t-169 422q0 260 169 420t443.5 160t442.5 -160t168 -420q0 -264 -168 -423t-442.5 -159zM692 195q160 0 259.5 100t99.5 264q0 162 -99.5 261.5t-259.5 99.5t-260 -100.5t-100 -260.5q0 -164 100 -264
t260 -100z" />
    <glyph glyph-name="oacute" unicode="&#xf3;" horiz-adv-x="1382" 
d="M578 1270l258 332l278 -21l-358 -311h-178zM692.5 -23q-274.5 0 -443.5 160t-169 422q0 260 169 420t443.5 160t442.5 -160t168 -420q0 -264 -168 -423t-442.5 -159zM692 195q160 0 259.5 100t99.5 264q0 162 -99.5 261.5t-259.5 99.5t-260 -100.5t-100 -260.5
q0 -164 100 -264t260 -100z" />
    <glyph glyph-name="ocircumflex" unicode="&#xf4;" horiz-adv-x="1382" 
d="M322 1270l290 317h168l293 -317h-192l-185 149l-184 -149h-190zM692.5 -23q-274.5 0 -443.5 160t-169 422q0 260 169 420t443.5 160t442.5 -160t168 -420q0 -264 -168 -423t-442.5 -159zM692 195q160 0 259.5 100t99.5 264q0 162 -99.5 261.5t-259.5 99.5t-260 -100.5
t-100 -260.5q0 -164 100 -264t260 -100z" />
    <glyph glyph-name="otilde" unicode="&#xf5;" horiz-adv-x="1382" 
d="M389 1278l-115 27q20 131 81 200.5t153 69.5q82 0 201.5 -63.5t162.5 -63.5q86 0 134 119l114 -27q-23 -131 -82 -200.5t-149 -69.5q-74 0 -196 64.5t-161 64.5q-92 0 -143 -121zM692.5 -23q-274.5 0 -443.5 160t-169 422q0 260 169 420t443.5 160t442.5 -160t168 -420
q0 -264 -168 -423t-442.5 -159zM692 195q160 0 259.5 100t99.5 264q0 162 -99.5 261.5t-259.5 99.5t-260 -100.5t-100 -260.5q0 -164 100 -264t260 -100z" />
    <glyph glyph-name="odieresis" unicode="&#xf6;" horiz-adv-x="1382" 
d="M477 1257q-66 0 -110.5 45.5t-44.5 109t45 108.5t110 45q63 0 108.5 -45t45.5 -108.5t-45.5 -109t-108.5 -45.5zM915 1257q-66 0 -111.5 45.5t-45.5 109t46 108.5t111 45q63 0 108.5 -45t45.5 -108.5t-45.5 -109t-108.5 -45.5zM692.5 -23q-274.5 0 -443.5 160t-169 422
q0 260 169 420t443.5 160t442.5 -160t168 -420q0 -264 -168 -423t-442.5 -159zM692 195q160 0 259.5 100t99.5 264q0 162 -99.5 261.5t-259.5 99.5t-260 -100.5t-100 -260.5q0 -164 100 -264t260 -100z" />
    <glyph glyph-name="divide" unicode="&#xf7;" horiz-adv-x="1052" 
d="M526 928q-63 0 -108 44t-45 107.5t44 106.5t109 43q61 0 105.5 -43t44.5 -106.5t-44.5 -107.5t-105.5 -44zM82 575v203h887v-203h-887zM526 129q-66 0 -109.5 43t-43.5 106.5t44 106.5t109 43q61 0 105.5 -43t44.5 -106.5t-44.5 -106.5t-105.5 -43z" />
    <glyph glyph-name="oslash" unicode="&#xf8;" horiz-adv-x="1382" 
d="M1157 954q143 -154 143 -395q0 -264 -167.5 -423t-442.5 -159q-190 0 -330 78l-51 -57h-225l143 160q-147 158 -147 401q0 260 169 420t441 160q188 0 332 -80l45 53h227zM319 559q0 -129 64 -225l491 559q-82 41 -184 41q-166 0 -268.5 -103.5t-102.5 -271.5zM690 180
q166 0 269.5 104.5t103.5 274.5q0 125 -62 219l-493 -557q82 -41 182 -41z" />
    <glyph glyph-name="ugrave" unicode="&#xf9;" horiz-adv-x="1269" 
d="M756 1270h-178l-359 309l279 23zM545 -23q-428 0 -428 476v661h241v-612q0 -309 252 -309q168 0 291 145v776h242v-1114h-232v125q-147 -148 -366 -148z" />
    <glyph glyph-name="uacute" unicode="&#xfa;" horiz-adv-x="1269" 
d="M518 1270l258 332l279 -21l-359 -311h-178zM545 -23q-428 0 -428 476v661h241v-612q0 -309 252 -309q168 0 291 145v776h242v-1114h-232v125q-147 -148 -366 -148z" />
    <glyph glyph-name="ucircumflex" unicode="&#xfb;" horiz-adv-x="1269" 
d="M262 1270l291 317h168l293 -317h-193l-184 149l-184 -149h-191zM545 -23q-428 0 -428 476v661h241v-612q0 -309 252 -309q168 0 291 145v776h242v-1114h-232v125q-147 -148 -366 -148z" />
    <glyph glyph-name="udieresis" unicode="&#xfc;" horiz-adv-x="1269" 
d="M418 1257q-66 0 -111 45.5t-45 109t45 108.5t111 45q63 0 108 -45t45 -108.5t-45 -109t-108 -45.5zM856 1257q-66 0 -112 45.5t-46 109t46.5 108.5t111.5 45q63 0 108.5 -45t45.5 -108.5t-45.5 -109t-108.5 -45.5zM545 -23q-428 0 -428 476v661h241v-612q0 -309 252 -309
q168 0 291 145v776h242v-1114h-232v125q-147 -148 -366 -148z" />
    <glyph glyph-name="yacute" unicode="&#xfd;" horiz-adv-x="1202" 
d="M479 1270l258 332l279 -21l-359 -311h-178zM930 1114h260l-465 -1137q-49 -121 -108.5 -199.5t-128 -113.5t-124 -46t-128.5 -11q-102 0 -177 24v209q102 -27 164 -26q178 0 262 170l-505 1130h274l346 -846z" />
    <glyph glyph-name="thorn" unicode="&#xfe;" horiz-adv-x="1351" 
d="M137 -360v1910h240v-542q133 131 360 131q240 0 387.5 -157t147.5 -423t-148.5 -424t-396.5 -158q-231 0 -350 140v-477h-240zM680 193q156 0 248 99t92 269t-92 266.5t-242 96.5q-90 0 -176 -43t-135 -117v-408q47 -82 129 -122.5t176 -40.5z" />
    <glyph glyph-name="ydieresis" unicode="&#xff;" horiz-adv-x="1202" 
d="M379 1257q-66 0 -111 45.5t-45 109t45 108.5t111 45q63 0 108 -45t45 -108.5t-45 -109t-108 -45.5zM817 1257q-66 0 -112 45.5t-46 109t46.5 108.5t111.5 45q63 0 108.5 -45t45.5 -108.5t-45.5 -109t-108.5 -45.5zM930 1114h260l-465 -1137q-49 -121 -108.5 -199.5
t-128 -113.5t-124 -46t-128.5 -11q-102 0 -177 24v209q102 -27 164 -26q178 0 262 170l-505 1130h274l346 -846z" />
    <glyph glyph-name="Amacron" unicode="&#x100;" horiz-adv-x="1509" 
d="M395 1579v174h717v-174h-717zM1223 0l-138 305h-661l-137 -305h-273l660 1458h160l661 -1458h-272zM754 1118l-119 -303l-123 -299h485l-125 299z" />
    <glyph glyph-name="amacron" unicode="&#x101;" horiz-adv-x="1349" 
d="M326 1331v174h716v-174h-716zM625 -23q-248 0 -396.5 158t-148.5 424t147.5 423t386.5 157q229 0 359 -131v106h241v-1114h-237v117q-119 -140 -352 -140zM672 193q94 0 176 40.5t129 122.5v408q-49 76 -135 118t-178 42q-150 0 -241 -96.5t-91 -266.5q0 -172 92 -270
t248 -98z" />
    <glyph glyph-name="Abreve" unicode="&#x102;" horiz-adv-x="1509" 
d="M754 1567q-158 0 -252 79.5t-101 231.5h162q33 -141 191 -141q160 0 188 141h164q-8 -154 -100 -232.5t-252 -78.5zM1223 0l-138 305h-661l-137 -305h-273l660 1458h160l661 -1458h-272zM754 1118l-119 -303l-123 -299h485l-125 299z" />
    <glyph glyph-name="abreve" unicode="&#x103;" horiz-adv-x="1349" 
d="M686 1270q-158 0 -252 80t-102 231h164q33 -139 190 -139q160 0 188 139h164q-8 -152 -101 -231.5t-251 -79.5zM625 -23q-248 0 -396.5 158t-148.5 424t147.5 423t386.5 157q229 0 359 -131v106h241v-1114h-237v117q-119 -140 -352 -140zM672 193q94 0 176 40.5
t129 122.5v408q-49 76 -135 118t-178 42q-150 0 -241 -96.5t-91 -266.5q0 -172 92 -270t248 -98z" />
    <glyph glyph-name="Aogonek" unicode="&#x104;" horiz-adv-x="1509" 
d="M1499 -225l4 -135q-68 -14 -127 -15q-102 0 -161.5 41t-59.5 115q0 59 43 118.5t115 100.5h-90l-138 305h-661l-137 -305h-273l660 1458h160l661 -1458h2q-143 -78 -143 -158q0 -72 98 -71q29 0 47 4zM512 516h485l-125 299l-118 303l-119 -303z" />
    <glyph glyph-name="aogonek" unicode="&#x105;" horiz-adv-x="1349" 
d="M1217 -225l4 -135q-68 -14 -127 -15q-102 0 -162 41t-60 115q0 59 43 118.5t115 100.5h-53v117q-119 -139 -352 -140q-248 0 -396.5 158t-148.5 424t147.5 423t386.5 157q229 0 359 -131v106h241v-1114q-143 -78 -143 -158q0 -72 98 -71q30 0 48 4zM977 356v408
q-49 76 -135 118t-178 42q-150 0 -241 -96.5t-91 -266.5q0 -172 92 -270t248 -98q94 0 176 40.5t129 122.5z" />
    <glyph glyph-name="Cacute" unicode="&#x106;" horiz-adv-x="1529" 
d="M705 1567l260 331l278 -22l-358 -309h-180zM840 -27q-340 0 -546 205t-206 551t205 546t547 200q401 0 630 -277l-196 -162q-150 209 -430 209q-223 0 -358.5 -139t-135.5 -377q0 -240 136.5 -383t357.5 -143q283 0 430 207l196 -162q-227 -275 -630 -275z" />
    <glyph glyph-name="cacute" unicode="&#x107;" horiz-adv-x="1226" 
d="M545 1270l258 332l278 -21l-358 -311h-178zM676 -20q-279 0 -437.5 156.5t-158.5 422.5q0 260 163 419t437 159q152 0 275.5 -57.5t199.5 -157.5l-168 -152q-47 66 -127 107t-172 41q-164 0 -261 -97.5t-97 -259.5q0 -168 96 -266t258 -98q199 0 311 149l168 -151
q-78 -100 -203.5 -157.5t-283.5 -57.5z" />
    <glyph glyph-name="Ccircumflex" unicode="&#x108;" horiz-adv-x="1529" 
d="M436 1567l291 317h168l293 -317h-193l-184 149l-184 -149h-191zM840 -27q-340 0 -546 205t-206 551t205 546t547 200q401 0 630 -277l-196 -162q-150 209 -430 209q-223 0 -358.5 -139t-135.5 -377q0 -240 136.5 -383t357.5 -143q283 0 430 207l196 -162
q-227 -275 -630 -275z" />
    <glyph glyph-name="ccircumflex" unicode="&#x109;" horiz-adv-x="1226" 
d="M289 1270l291 317h168l292 -317h-192l-184 149l-185 -149h-190zM676 -20q-279 0 -437.5 156.5t-158.5 422.5q0 260 163 419t437 159q152 0 275.5 -57.5t199.5 -157.5l-168 -152q-47 66 -127 107t-172 41q-164 0 -261 -97.5t-97 -259.5q0 -168 96 -266t258 -98
q199 0 311 149l168 -151q-78 -100 -203.5 -157.5t-283.5 -57.5z" />
    <glyph glyph-name="Cdotaccent" unicode="&#x10a;" horiz-adv-x="1529" 
d="M806.5 1563q-65.5 0 -111.5 46t-46 109.5t46 108.5t111.5 45t111 -45t45.5 -108.5t-45.5 -109.5t-111 -46zM840 -27q-340 0 -546 205t-206 551t205 546t547 200q401 0 630 -277l-196 -162q-150 209 -430 209q-223 0 -358.5 -139t-135.5 -377q0 -240 136.5 -383
t357.5 -143q283 0 430 207l196 -162q-227 -275 -630 -275z" />
    <glyph glyph-name="cdotaccent" unicode="&#x10b;" horiz-adv-x="1226" 
d="M661.5 1257q-65.5 0 -111.5 45.5t-46 110.5q0 63 46 108.5t111.5 45.5t110.5 -45t45 -109q0 -66 -45 -111t-110.5 -45zM676 -20q-279 0 -437.5 156.5t-158.5 422.5q0 260 163 419t437 159q152 0 275.5 -57.5t199.5 -157.5l-168 -152q-47 66 -127 107t-172 41
q-164 0 -261 -97.5t-97 -259.5q0 -168 96 -266t258 -98q199 0 311 149l168 -151q-78 -100 -203.5 -157.5t-283.5 -57.5z" />
    <glyph glyph-name="Ccaron" unicode="&#x10c;" horiz-adv-x="1529" 
d="M436 1884h191l184 -147l184 147h193l-293 -317h-168zM840 -27q-340 0 -546 205t-206 551t205 546t547 200q401 0 630 -277l-196 -162q-150 209 -430 209q-223 0 -358.5 -139t-135.5 -377q0 -240 136.5 -383t357.5 -143q283 0 430 207l196 -162q-227 -275 -630 -275z" />
    <glyph glyph-name="ccaron" unicode="&#x10d;" horiz-adv-x="1226" 
d="M287 1589h190l185 -149l184 149h192l-293 -319h-167zM676 -20q-279 0 -437.5 156.5t-158.5 422.5q0 260 163 419t437 159q152 0 275.5 -57.5t199.5 -157.5l-168 -152q-47 66 -127 107t-172 41q-164 0 -261 -97.5t-97 -259.5q0 -168 96 -266t258 -98q199 0 311 149
l168 -151q-78 -100 -203.5 -157.5t-283.5 -57.5z" />
    <glyph glyph-name="Dcaron" unicode="&#x10e;" horiz-adv-x="1499" 
d="M322 1884h190l184 -147l185 147h192l-293 -317h-168zM147 0v1448h549q340 0 527.5 -179t187.5 -528q0 -346 -183.5 -543.5t-525.5 -197.5h-555zM393 225h314q203 0 323.5 133.5t120.5 382.5q0 231 -116.5 356.5t-336.5 125.5h-305v-998z" />
    <glyph glyph-name="dcaron" unicode="&#x10f;" horiz-adv-x="1431" 
d="M1483 1659q70 0 110.5 -47t40.5 -139q0 -133 -75.5 -229.5t-208.5 -96.5v94q43 0 76.5 37t48.5 106q-51 4 -91.5 40t-40.5 96q0 61 39.5 100t100.5 39zM973 1008v542h241v-1550h-237v117q-119 -139 -352 -140q-248 0 -396.5 158t-148.5 424t147.5 423t386.5 157
q230 0 359 -131zM977 356v408q-49 76 -135 118t-178 42q-150 0 -241 -96.5t-91 -266.5q0 -172 92 -270t248 -98q94 0 176 40.5t129 122.5z" />
    <glyph glyph-name="Dcroat" unicode="&#x110;" horiz-adv-x="1544" 
d="M739 1448q342 0 529.5 -179t187.5 -528q0 -346 -183 -543.5t-525 -197.5h-555v621h-164v198h164v629h546zM752 225q203 0 322.5 133.5t119.5 382.5q0 231 -116.5 356.5t-336.5 125.5h-303v-404h357v-198h-357v-396h314z" />
    <glyph glyph-name="dcroat" unicode="&#x111;" horiz-adv-x="1349" 
d="M1378 1442v-189h-164v-1253h-237v117q-119 -139 -359 -140q-248 0 -393 152t-145 406q0 250 144.5 400t384 150t364.5 -131v299h-387v189h387v108h241v-108h164zM977 356v355q-49 76 -137 118.5t-181 42.5q-147 0 -237 -92t-90 -245q0 -156 91 -249t245 -93
q94 0 178 40.5t131 122.5z" />
    <glyph glyph-name="Emacron" unicode="&#x112;" horiz-adv-x="1290" 
d="M283 1579v174h716v-174h-716zM147 0v1448h1031v-221h-785v-404h662v-213h-662v-389h821v-221h-1067z" />
    <glyph glyph-name="emacron" unicode="&#x113;" horiz-adv-x="1284" 
d="M285 1335v174h716v-174h-716zM1229 555q0 -49 -2 -70h-899q23 -143 117 -223t243 -80q219 0 342 154l158 -131q-168 -227 -516 -228q-274 0 -433 159t-159 425q0 262 159.5 422t415.5 160q279 0 426.5 -161t147.5 -427zM655 940q-125 0 -213 -70.5t-112 -201.5h655
q-12 121 -95 196.5t-235 75.5z" />
    <glyph glyph-name="Ebreve" unicode="&#x114;" horiz-adv-x="1290" 
d="M641 1567q-158 0 -252 79.5t-100 231.5h162q33 -141 190 -141q160 0 188 141h164q-8 -154 -100 -232.5t-252 -78.5zM147 0v1448h1031v-221h-785v-404h662v-213h-662v-389h821v-221h-1067z" />
    <glyph glyph-name="ebreve" unicode="&#x115;" horiz-adv-x="1284" 
d="M645 1274q-158 0 -252 80t-102 231h164q33 -139 190 -139q160 0 189 139h163q-8 -152 -101 -231.5t-251 -79.5zM1229 555q0 -49 -2 -70h-899q23 -143 117 -223t243 -80q219 0 342 154l158 -131q-168 -227 -516 -228q-274 0 -433 159t-159 425q0 262 159.5 422t415.5 160
q279 0 426.5 -161t147.5 -427zM655 940q-125 0 -213 -70.5t-112 -201.5h655q-12 121 -95 196.5t-235 75.5z" />
    <glyph glyph-name="Edotaccent" unicode="&#x116;" horiz-adv-x="1290" 
d="M641 1563q-66 0 -112 46t-46 109.5t46 108.5t112 45t111 -45t45 -108.5t-46.5 -109.5t-109.5 -46zM147 0v1448h1031v-221h-785v-404h662v-213h-662v-389h821v-221h-1067z" />
    <glyph glyph-name="edotaccent" unicode="&#x117;" horiz-adv-x="1284" 
d="M643.5 1262q-65.5 0 -112 45t-46.5 110q0 63 46.5 108.5t112 45.5t110.5 -45t45 -109q0 -66 -45 -110.5t-110.5 -44.5zM1229 555q0 -49 -2 -70h-899q23 -143 117 -223t243 -80q219 0 342 154l158 -131q-168 -227 -516 -228q-274 0 -433 159t-159 425q0 262 159.5 422
t415.5 160q279 0 426.5 -161t147.5 -427zM655 940q-125 0 -213 -70.5t-112 -201.5h655q-12 121 -95 196.5t-235 75.5z" />
    <glyph glyph-name="Eogonek" unicode="&#x118;" horiz-adv-x="1290" 
d="M1217 -225l4 -135q-68 -14 -127 -15q-102 0 -162 41t-60 115q0 59 43 118.5t115 100.5h-883v1448h1031v-221h-785v-404h662v-213h-662v-389h821v-221q-143 -78 -143 -158q0 -72 98 -71q30 0 48 4z" />
    <glyph glyph-name="eogonek" unicode="&#x119;" horiz-adv-x="1284" 
d="M1229 555q0 -49 -2 -70h-899q23 -143 117 -223t243 -80q219 0 342 154l158 -131q-137 -188 -397 -219q-117 -72 -117 -143.5t98 -71.5q29 0 47 4l4 -135q-68 -14 -127 -15q-102 0 -161.5 41t-59.5 115q0 115 127 199q-244 20 -383 175.5t-139 405.5q0 262 159.5 422
t415.5 160q279 0 426.5 -161t147.5 -427zM330 668h655q-12 121 -95 196.5t-235 75.5q-125 0 -212.5 -70.5t-112.5 -201.5z" />
    <glyph glyph-name="Ecaron" unicode="&#x11a;" horiz-adv-x="1290" 
d="M270 1884h191l184 -147l184 147h193l-293 -317h-168zM147 0v1448h1031v-221h-785v-404h662v-213h-662v-389h821v-221h-1067z" />
    <glyph glyph-name="ecaron" unicode="&#x11b;" horiz-adv-x="1284" 
d="M268 1593h191l184 -149l184 149h193l-293 -319h-168zM1229 555q0 -49 -2 -70h-899q23 -143 117 -223t243 -80q219 0 342 154l158 -131q-168 -227 -516 -228q-274 0 -433 159t-159 425q0 262 159.5 422t415.5 160q279 0 426.5 -161t147.5 -427zM655 940q-125 0 -213 -70.5
t-112 -201.5h655q-12 121 -95 196.5t-235 75.5z" />
    <glyph glyph-name="Gcircumflex" unicode="&#x11c;" horiz-adv-x="1583" 
d="M479 1567l291 317h168l293 -317h-193l-184 149l-184 -149h-191zM805 774h706v-588q-219 -213 -614 -213q-373 0 -591 202t-218 548t213 550t563 204q367 0 592 -209l-158 -172q-172 152 -432 151q-233 0 -374.5 -142t-141.5 -382q0 -246 148.5 -385t406.5 -139
q227 0 367 106v252h-467v217z" />
    <glyph glyph-name="gcircumflex" unicode="&#x11d;" horiz-adv-x="1343" 
d="M305 1270l291 317h168l293 -317h-193l-184 149l-184 -149h-191zM643 -393q-272 0 -459 82v229q209 -104 424 -104q180 0 274.5 66.5t94.5 221.5v78q-119 -139 -352 -139q-246 0 -395.5 152.5t-149.5 400.5q0 242 148.5 393.5t385.5 151.5q229 0 359 -131v106h241v-952
q0 -276 -134 -415.5t-437 -139.5zM672 254q92 0 175 42t130 124v344q-49 76 -135 119t-178 43q-145 0 -238.5 -92.5t-93.5 -239.5q0 -152 93 -246t247 -94z" />
    <glyph glyph-name="Gbreve" unicode="&#x11e;" horiz-adv-x="1583" 
d="M852 1567q-158 0 -252 79.5t-100 231.5h162q33 -141 190 -141q160 0 188 141h164q-8 -154 -100 -232.5t-252 -78.5zM805 774h706v-588q-219 -213 -614 -213q-373 0 -591 202t-218 548t213 550t563 204q367 0 592 -209l-158 -172q-172 152 -432 151q-233 0 -374.5 -142
t-141.5 -382q0 -246 148.5 -385t406.5 -139q227 0 367 106v252h-467v217z" />
    <glyph glyph-name="gbreve" unicode="&#x11f;" horiz-adv-x="1343" 
d="M680 1270q-158 0 -252 80t-102 231h163q33 -139 191 -139q160 0 188 139h164q-8 -152 -101 -231.5t-251 -79.5zM643 -393q-272 0 -459 82v229q209 -104 424 -104q180 0 274.5 66.5t94.5 221.5v78q-119 -139 -352 -139q-246 0 -395.5 152.5t-149.5 400.5
q0 242 148.5 393.5t385.5 151.5q229 0 359 -131v106h241v-952q0 -276 -134 -415.5t-437 -139.5zM672 254q92 0 175 42t130 124v344q-49 76 -135 119t-178 43q-145 0 -238.5 -92.5t-93.5 -239.5q0 -152 93 -246t247 -94z" />
    <glyph glyph-name="Gdotaccent" unicode="&#x120;" horiz-adv-x="1583" 
d="M852 1563q-66 0 -112 46t-46 109.5t46 108.5t112 45t111 -45t45 -108.5t-45 -109.5t-111 -46zM805 774h706v-588q-219 -213 -614 -213q-373 0 -591 202t-218 548t213 550t563 204q367 0 592 -209l-158 -172q-172 152 -432 151q-233 0 -374.5 -142t-141.5 -382
q0 -246 148.5 -385t406.5 -139q227 0 367 106v252h-467v217z" />
    <glyph glyph-name="gdotaccent" unicode="&#x121;" horiz-adv-x="1343" 
d="M677.5 1257q-65.5 0 -111.5 45.5t-46 110.5q0 63 46 108.5t111.5 45.5t111 -45t45.5 -109q0 -66 -45.5 -111t-111 -45zM643 -393q-272 0 -459 82v229q209 -104 424 -104q180 0 274.5 66.5t94.5 221.5v78q-119 -139 -352 -139q-246 0 -395.5 152.5t-149.5 400.5
q0 242 148.5 393.5t385.5 151.5q229 0 359 -131v106h241v-952q0 -276 -134 -415.5t-437 -139.5zM672 254q92 0 175 42t130 124v344q-49 76 -135 119t-178 43q-145 0 -238.5 -92.5t-93.5 -239.5q0 -152 93 -246t247 -94z" />
    <glyph glyph-name="uni0122" unicode="&#x122;" horiz-adv-x="1583" 
d="M805 774h706v-588q-219 -213 -614 -213q-373 0 -591 202t-218 548t213 550t563 204q367 0 592 -209l-158 -172q-172 152 -432 151q-233 0 -374.5 -142t-141.5 -382q0 -246 148.5 -385t406.5 -139q227 0 367 106v252h-467v217zM862 -96q66 0 106 -41t40 -109
q0 -102 -67 -185t-218 -83q-25 0 -37 2v90q10 -2 31 -2q47 0 79.5 26.5t43.5 73.5q-49 8 -79 38t-30 73q0 53 35 85t96 32z" />
    <glyph glyph-name="uni0123" unicode="&#x123;" horiz-adv-x="1343" 
d="M674 1266q-66 0 -106 44t-40 117q0 109 67 199t218 90q25 0 37 -2v-98q-10 2 -31 2q-47 0 -79.5 -29.5t-43.5 -79.5q51 -8 80 -39.5t29 -78.5q0 -55 -35 -90t-96 -35zM973 1114h241v-952q0 -276 -134 -415.5t-437 -139.5q-272 0 -459 82v229q209 -104 424 -104
q180 0 274.5 66.5t94.5 221.5v78q-119 -139 -352 -139q-246 0 -395.5 152.5t-149.5 400.5q0 242 148.5 393.5t385.5 151.5q229 0 359 -131v106zM977 420v344q-49 76 -135 119t-178 43q-145 0 -238.5 -92.5t-93.5 -239.5q0 -152 93 -246t247 -94q92 0 175 42t130 124z" />
    <glyph glyph-name="Hcircumflex" unicode="&#x124;" horiz-adv-x="1511" 
d="M385 1567l291 317h168l293 -317h-193l-184 149l-185 -149h-190zM147 0v1448h250v-670h717v670h250v-1448h-250v553h-717v-553h-250z" />
    <glyph glyph-name="hcircumflex" unicode="&#x125;" horiz-adv-x="1294" 
d="M301 1567l291 317h168l293 -317h-193l-184 149l-184 -149h-191zM137 0v1550h242v-549q156 135 364 136q213 0 323 -108.5t110 -366.5v-662h-244v612q0 174 -68.5 242t-191.5 68q-164 0 -293 -134v-788h-242z" />
    <glyph glyph-name="Hbar" unicode="&#x126;" horiz-adv-x="1511" 
d="M1475 1274v-199h-111v-1075h-250v553h-717v-553h-250v1075h-110v199h110v174h250v-174h717v174h250v-174h111zM1114 778v297h-717v-297h717z" />
    <glyph glyph-name="hbar" unicode="&#x127;" horiz-adv-x="1294" 
d="M743 1085q221 0 327 -112.5t106 -362.5v-610h-244v561q0 174 -68.5 242.5t-191.5 68.5q-164 0 -293 -137v-735h-242v1253h-151v189h151v108h242v-108h389v-189h-389v-303q155 135 364 135z" />
    <glyph glyph-name="Itilde" unicode="&#x128;" horiz-adv-x="577" 
d="M-16 1554l-115 27q20 131 80.5 200.5t152.5 69.5q82 0 202 -63.5t163 -63.5q86 0 133 119l115 -26q-23 -131 -82.5 -201t-149.5 -70q-74 0 -195.5 64.5t-160.5 64.5q-92 0 -143 -121zM162 0v1448h256v-1448h-256z" />
    <glyph glyph-name="itilde" unicode="&#x129;" horiz-adv-x="532" 
d="M-37 1278l-115 27q20 131 81 200.5t153 69.5q82 0 201.5 -63.5t162.5 -63.5q86 0 134 119l114 -27q-23 -131 -82 -200.5t-149 -69.5q-74 0 -196 64.5t-161 64.5q-92 0 -143 -121zM143 0v1114h246v-1114h-246z" />
    <glyph glyph-name="Imacron" unicode="&#x12a;" horiz-adv-x="577" 
d="M-68 1579v174h717v-174h-717zM162 0v1448h256v-1448h-256z" />
    <glyph glyph-name="imacron" unicode="&#x12b;" horiz-adv-x="532" 
d="M-90 1331v174h717v-174h-717zM143 0v1114h246v-1114h-246z" />
    <glyph glyph-name="Ibreve" unicode="&#x12c;" horiz-adv-x="577" 
d="M291 1567q-158 0 -252 79.5t-100 231.5h161q33 -141 191 -141q160 0 188 141h164q-8 -154 -100 -232.5t-252 -78.5zM162 0v1448h256v-1448h-256z" />
    <glyph glyph-name="ibreve" unicode="&#x12d;" horiz-adv-x="532" 
d="M270.5 1270q-157.5 0 -252 80t-102.5 231h164q33 -139 190 -139q160 0 189 139h164q-8 -152 -101.5 -231.5t-251 -79.5zM143 0v1114h246v-1114h-246z" />
    <glyph glyph-name="Iogonek" unicode="&#x12e;" horiz-adv-x="577" 
d="M420 -225l4 -135q-68 -14 -127 -15q-102 0 -161.5 41t-59.5 115q0 59 43 118.5t114 100.5h-71v1448h256v-1448q-143 -78 -144 -158q0 -72 99 -71q29 0 47 4z" />
    <glyph glyph-name="iogonek" unicode="&#x12f;" horiz-adv-x="532" 
d="M268.5 1257q-65.5 0 -111.5 45.5t-46 110.5q0 63 46 108.5t111.5 45.5t110.5 -45t45 -109q0 -66 -45 -111t-110.5 -45zM346 -229q29 0 47 4l4 -135q-68 -14 -127 -15q-102 0 -161.5 41t-59.5 115q0 59 43 118.5t115 100.5h-64v1114h246v-1114h2q-143 -78 -143 -158
q0 -71 98 -71z" />
    <glyph glyph-name="Idotaccent" unicode="&#x130;" horiz-adv-x="577" 
d="M290.5 1563q-65.5 0 -111.5 46t-46 109.5t46 108.5t111.5 45t110.5 -45t45 -108.5t-45 -109.5t-110.5 -46zM162 0v1448h256v-1448h-256z" />
    <glyph glyph-name="dotlessi" unicode="&#x131;" horiz-adv-x="532" 
d="M143 0v1114h246v-1114h-246z" />
    <glyph glyph-name="IJ" unicode="&#x132;" horiz-adv-x="1830" 
d="M162 0v1448h256v-1448h-256zM1163 -27q-248 0 -397.5 141.5t-157.5 403.5h248q8 -166 92 -240.5t215 -74.5q289 0 289 375v870h254v-870q0 -315 -134.5 -460t-408.5 -145z" />
    <glyph glyph-name="ij" unicode="&#x133;" horiz-adv-x="1081" 
d="M268.5 1257q-65.5 0 -111.5 45.5t-46 110.5q0 63 46 108.5t111.5 45.5t110.5 -45t45 -109q0 -66 -45 -111t-110.5 -45zM821.5 1257q-65.5 0 -111.5 45.5t-46 110.5q0 63 46 108.5t111.5 45.5t110.5 -45t45 -109q0 -66 -45 -111t-110.5 -45zM143 0v1114h246v-1114h-246z
M610 -387q-104 0 -153 16v199q43 -12 84 -12q98 0 125.5 52t27.5 181v1065h244v-1190q0 -162 -89 -236.5t-239 -74.5z" />
    <glyph glyph-name="Jcircumflex" unicode="&#x134;" horiz-adv-x="1253" 
d="M555 1567l291 317h168l293 -317h-193l-184 149l-185 -149h-190zM586 -27q-248 0 -397.5 141.5t-157.5 403.5h248q8 -166 92 -240.5t215 -74.5q289 0 288 375v870h254v-870q0 -315 -134 -460t-408 -145z" />
    <glyph glyph-name="jcircumflex" unicode="&#x135;" horiz-adv-x="548" 
d="M-84 1270l291 317h168l293 -317h-193l-184 149l-185 -149h-190zM78 -387q-104 0 -154 16v199q43 -12 84 -12q98 0 126 52t28 181v1065h244v-1190q0 -162 -89 -236.5t-239 -74.5z" />
    <glyph glyph-name="uni0136" unicode="&#x136;" horiz-adv-x="1435" 
d="M809 799l614 -799h-315l-475 616l-238 -272v-344h-248v1448h248v-780l645 780h318zM737 -96q66 0 106 -41t40 -109q0 -102 -66.5 -185t-218.5 -83q-25 0 -37 2v90q10 -2 31 -2q47 0 80 26.5t43 73.5q-49 8 -79 38t-30 73q0 53 35 85t96 32z" />
    <glyph glyph-name="uni0137" unicode="&#x137;" horiz-adv-x="1265" 
d="M813 682l420 -682h-281l-313 514l-258 -260v-254h-240v1550h240v-1007l530 571h308zM651 -96q66 0 106 -41t40 -109q0 -102 -66.5 -185t-218.5 -83q-25 0 -37 2v90q10 -2 31 -2q47 0 79.5 26.5t43.5 73.5q-49 8 -79 38t-30 73q0 53 35 85t96 32z" />
    <glyph glyph-name="kgreenlandic" unicode="&#x138;" horiz-adv-x="1267" 
d="M956 0l-315 514l-256 -260v-254h-242v1114h242v-571l530 571h308l-406 -432l420 -682h-281z" />
    <glyph glyph-name="Lacute" unicode="&#x139;" horiz-adv-x="1222" 
d="M158 1567l260 331l278 -22l-358 -309h-180zM147 0v1448h254v-1219h789v-229h-1043z" />
    <glyph glyph-name="lacute" unicode="&#x13a;" horiz-adv-x="532" 
d="M166 1663l260 332l279 -23l-359 -309h-180zM143 0v1550h246v-1550h-246z" />
    <glyph glyph-name="uni013B" unicode="&#x13b;" horiz-adv-x="1222" 
d="M401 229h789v-229h-1043v1448h254v-1219zM678 -96q66 0 105.5 -41t39.5 -109q0 -102 -66.5 -185t-217.5 -83q-25 0 -37 2v90q10 -2 30 -2q47 0 80 26.5t43 73.5q-49 8 -78.5 38t-29.5 73q0 53 35 85t96 32z" />
    <glyph glyph-name="uni013C" unicode="&#x13c;" horiz-adv-x="532" 
d="M389 1550v-1550h-246v1550h246zM260 -96q66 0 106 -41t40 -109q0 -102 -67 -185t-218 -83q-25 0 -37 2v90q10 -2 31 -2q47 0 79.5 26.5t43.5 73.5q-49 8 -79 38t-30 73q0 53 35 85t96 32z" />
    <glyph glyph-name="Lcaron" unicode="&#x13d;" horiz-adv-x="1222" 
d="M827 1260q-51 4 -91 39.5t-40 97t39 99.5t101 38q70 0 110.5 -46t40.5 -138q0 -135 -74.5 -230.5t-210.5 -95.5v94q43 0 77 37t48 105zM401 229h789v-229h-1043v1448h254v-1219z" />
    <glyph glyph-name="lcaron" unicode="&#x13e;" horiz-adv-x="614" 
d="M664 1659q70 0 110.5 -47t40.5 -139q0 -133 -75.5 -229.5t-209.5 -96.5v94q43 0 77 37t48 106q-51 4 -91 40t-40 96q0 61 39.5 100t100.5 39zM143 0v1550h246v-1550h-246z" />
    <glyph glyph-name="Ldot" unicode="&#x13f;" horiz-adv-x="1222" 
d="M147 0v1448h254v-1219h789v-229h-1043zM884.5 600q-65.5 0 -111.5 45t-46 110.5t46 110.5t111.5 45t110.5 -46t45 -109.5t-45 -109.5t-110.5 -46z" />
    <glyph glyph-name="ldot" unicode="&#x140;" horiz-adv-x="768" 
d="M143 0v1550h246v-1550h-246zM655.5 524q-65.5 0 -111.5 46t-46 109.5t46 110t111.5 46.5t110.5 -45.5t45 -111t-45 -110.5t-110.5 -45z" />
    <glyph glyph-name="Lslash" unicode="&#x141;" horiz-adv-x="1271" 
d="M451 229h788v-229h-1042v580l-168 -50v203l168 49v666h254v-592l436 127v-201l-436 -129v-424z" />
    <glyph glyph-name="lslash" unicode="&#x142;" horiz-adv-x="735" 
d="M727 942v-203l-233 -84v-655h-244v569l-225 -80v203l225 80v778h244v-692z" />
    <glyph glyph-name="Nacute" unicode="&#x143;" horiz-adv-x="1574" 
d="M686 1567l260 331l279 -22l-359 -309h-180zM1180 1448h247v-1458h-127l-905 999v-989h-248v1460h127l906 -999v987z" />
    <glyph glyph-name="nacute" unicode="&#x144;" horiz-adv-x="1298" 
d="M539 1270l258 332l278 -21l-358 -311h-178zM143 0v1114h236v-113q160 135 369 136q213 0 322.5 -108.5t109.5 -366.5v-662h-242v612q0 174 -68.5 242t-191.5 68q-164 0 -293 -134v-788h-242z" />
    <glyph glyph-name="uni0145" unicode="&#x145;" horiz-adv-x="1574" 
d="M1180 1448h247v-1458h-127l-905 999v-989h-248v1460h127l906 -999v987zM811 -96q66 0 105.5 -41t39.5 -109q0 -102 -66.5 -185t-217.5 -83q-25 0 -37 2v90q10 -2 31 -2q47 0 79.5 26.5t42.5 73.5q-49 8 -78.5 38t-29.5 73q0 53 35 85t96 32z" />
    <glyph glyph-name="uni0146" unicode="&#x146;" horiz-adv-x="1298" 
d="M748 1137q213 0 322.5 -108.5t109.5 -366.5v-662h-242v612q0 174 -68.5 242t-191.5 68q-164 0 -293 -134v-788h-242v1114h236v-113q160 136 369 136zM647 -96q66 0 106 -41t40 -109q0 -102 -67 -185t-218 -83q-25 0 -37 2v90q10 -2 31 -2q47 0 79.5 26.5t43.5 73.5
q-49 8 -79 38t-30 73q0 53 35 85t96 32z" />
    <glyph glyph-name="Ncaron" unicode="&#x147;" horiz-adv-x="1574" 
d="M418 1884h190l185 -147l184 147h192l-292 -317h-168zM1180 1448h247v-1458h-127l-905 999v-989h-248v1460h127l906 -999v987z" />
    <glyph glyph-name="ncaron" unicode="&#x148;" horiz-adv-x="1298" 
d="M281 1589h190l184 -149l185 149h192l-293 -319h-168zM143 0v1114h236v-113q160 135 369 136q213 0 322.5 -108.5t109.5 -366.5v-662h-242v612q0 174 -68.5 242t-191.5 68q-164 0 -293 -134v-788h-242z" />
    <glyph glyph-name="napostrophe" unicode="&#x149;" horiz-adv-x="1298" 
d="M477 1538q0 -70 -21.5 -132.5t-89 -114.5t-173.5 -52q-25 0 -37 2v100h30q102 0 123 111q-49 8 -78.5 42t-29.5 81q0 57 34.5 93t96.5 36q66 0 105.5 -45t39.5 -121zM748 1137q213 0 322.5 -108.5t109.5 -366.5v-662h-242v612q0 174 -68.5 242t-191.5 68
q-164 0 -293 -134v-788h-242v1114h236v-113q160 136 369 136z" />
    <glyph glyph-name="Eng" unicode="&#x14a;" horiz-adv-x="1574" 
d="M1180 1448h247v-1270q0 -313 -125.5 -439t-439.5 -126v217q178 0 243.5 64.5t70.5 230.5l-781 864v-989h-248v1460h127l906 -1001v989z" />
    <glyph glyph-name="eng" unicode="&#x14b;" horiz-adv-x="1298" 
d="M854 -387q-102 0 -152 16v199q43 -12 82 -12q98 0 126 52t28 181v563q0 174 -68.5 242t-191.5 68q-164 0 -293 -134v-788h-242v1114h236v-113q160 135 369 136q213 0 322.5 -108.5t109.5 -366.5v-738q0 -311 -326 -311z" />
    <glyph glyph-name="Omacron" unicode="&#x14c;" horiz-adv-x="1726" 
d="M508 1579v174h717v-174h-717zM862 -27q-340 0 -557 206t-217 544q0 332 213 543t561 211q340 0 558 -207t218 -547q0 -330 -214 -540t-562 -210zM862 203q225 0 369.5 142t144.5 378q0 231 -141 377.5t-373 146.5q-223 0 -367.5 -144.5t-144.5 -379.5
q0 -229 141.5 -374.5t370.5 -145.5z" />
    <glyph glyph-name="omacron" unicode="&#x14d;" horiz-adv-x="1382" 
d="M336 1331v174h717v-174h-717zM692.5 -23q-274.5 0 -443.5 160t-169 422q0 260 169 420t443.5 160t442.5 -160t168 -420q0 -264 -168 -423t-442.5 -159zM692 195q160 0 259.5 100t99.5 264q0 162 -99.5 261.5t-259.5 99.5t-260 -100.5t-100 -260.5q0 -164 100 -264
t260 -100z" />
    <glyph glyph-name="Obreve" unicode="&#x14e;" horiz-adv-x="1726" 
d="M866 1567q-158 0 -252 79.5t-100 231.5h162q33 -141 190 -141q160 0 189 141h164q-8 -154 -100.5 -232.5t-252.5 -78.5zM862 -27q-340 0 -557 206t-217 544q0 332 213 543t561 211q340 0 558 -207t218 -547q0 -330 -214 -540t-562 -210zM862 203q225 0 369.5 142
t144.5 378q0 231 -141 377.5t-373 146.5q-223 0 -367.5 -144.5t-144.5 -379.5q0 -229 141.5 -374.5t370.5 -145.5z" />
    <glyph glyph-name="obreve" unicode="&#x14f;" horiz-adv-x="1382" 
d="M696.5 1270q-157.5 0 -252 80t-102.5 231h164q33 -139 190 -139q160 0 189 139h164q-8 -152 -101.5 -231.5t-251 -79.5zM692.5 -23q-274.5 0 -443.5 160t-169 422q0 260 169 420t443.5 160t442.5 -160t168 -420q0 -264 -168 -423t-442.5 -159zM692 195q160 0 259.5 100
t99.5 264q0 162 -99.5 261.5t-259.5 99.5t-260 -100.5t-100 -260.5q0 -164 100 -264t260 -100z" />
    <glyph glyph-name="Ohungarumlaut" unicode="&#x150;" horiz-adv-x="1726" 
d="M592 1567l180 344l213 -72l-237 -272h-156zM934 1567l180 344l229 -76l-260 -268h-149zM862 -27q-340 0 -557 206t-217 544q0 332 213 543t561 211q340 0 558 -207t218 -547q0 -330 -214 -540t-562 -210zM862 203q225 0 369.5 142t144.5 378q0 231 -141 377.5t-373 146.5
q-223 0 -367.5 -144.5t-144.5 -379.5q0 -229 141.5 -374.5t370.5 -145.5z" />
    <glyph glyph-name="ohungarumlaut" unicode="&#x151;" horiz-adv-x="1382" 
d="M420 1268l180 346l213 -72l-238 -274h-155zM762 1268l180 346l229 -76l-260 -270h-149zM692.5 -23q-274.5 0 -443.5 160t-169 422q0 260 169 420t443.5 160t442.5 -160t168 -420q0 -264 -168 -423t-442.5 -159zM692 195q160 0 259.5 100t99.5 264q0 162 -99.5 261.5
t-259.5 99.5t-260 -100.5t-100 -260.5q0 -164 100 -264t260 -100z" />
    <glyph glyph-name="OE" unicode="&#x152;" horiz-adv-x="2101" 
d="M846 0q-362 0 -560 194.5t-198 528.5t202 529.5t566 195.5h1135v-221h-785v-404h662v-213h-662v-389h822v-221h-1182zM868 219h93v1010h-115q-236 0 -366 -136.5t-130 -370t133 -368.5t385 -135z" />
    <glyph glyph-name="oe" unicode="&#x153;" horiz-adv-x="2238" 
d="M2183 555q0 -61 -2 -70h-901q23 -143 117 -223t248 -80q223 0 344 154l159 -133q-166 -225 -516 -226q-334 0 -479 226q-152 -225 -471 -226q-262 0 -432 160t-170 422q0 260 170 422t428 162q324 0 477 -232q147 231 459 232q274 0 421.5 -161t147.5 -427zM1612 938
q-129 0 -217 -68.5t-113 -201.5h660q-14 121 -96 195.5t-234 74.5zM684 193q154 0 254 101t100 265q0 162 -100 263.5t-254 101.5q-156 0 -256 -100.5t-100 -264.5t100 -265t256 -101z" />
    <glyph glyph-name="Racute" unicode="&#x154;" horiz-adv-x="1390" 
d="M573 1567l261 331l278 -22l-358 -309h-181zM1350 0h-306l-305 434q-8 0 -25.5 -1t-27.5 -1h-289v-432h-250v1448h584q276 0 421.5 -130t145.5 -376q0 -348 -297 -459zM676 647q178 0 269 76t91 211q0 295 -329 295h-310v-582h279z" />
    <glyph glyph-name="racute" unicode="&#x155;" horiz-adv-x="874" 
d="M242 1270l258 332l278 -21l-358 -311h-178zM143 0v1114h236v-153q125 178 352 178q59 0 94 -15v-258q-74 27 -143 27q-129 0 -213 -93t-84 -263v-537h-242z" />
    <glyph glyph-name="uni0156" unicode="&#x156;" horiz-adv-x="1390" 
d="M1001 483l349 -483h-306l-305 434q-8 0 -25.5 -1t-27.5 -1h-289v-432h-250v1448h584q276 0 421.5 -130t145.5 -376q0 -348 -297 -459zM676 647q178 0 269 76t91 211q0 295 -329 295h-310v-582h279zM715 -96q66 0 105.5 -41t39.5 -109q0 -102 -66.5 -185t-218.5 -83
q-25 0 -36 2v90q10 -2 30 -2q47 0 80 26.5t43 73.5q-49 8 -78.5 38t-29.5 73q0 53 35 85t96 32z" />
    <glyph glyph-name="uni0157" unicode="&#x157;" horiz-adv-x="874" 
d="M731 1139q59 0 94 -15v-258q-74 27 -143 27q-129 0 -213 -93t-84 -263v-537h-242v1114h236v-153q125 178 352 178zM260 -96q66 0 106 -41t40 -109q0 -102 -67 -185t-218 -83q-25 0 -37 2v90q10 -2 31 -2q47 0 79.5 26.5t43.5 73.5q-49 8 -79 38t-30 73q0 53 35 85t96 32z
" />
    <glyph glyph-name="Rcaron" unicode="&#x158;" horiz-adv-x="1390" 
d="M305 1884h191l184 -147l184 147h193l-293 -317h-168zM1350 0h-306l-305 434q-8 0 -25.5 -1t-27.5 -1h-289v-432h-250v1448h584q276 0 421.5 -130t145.5 -376q0 -348 -297 -459zM676 647q178 0 269 76t91 211q0 295 -329 295h-310v-582h279z" />
    <glyph glyph-name="rcaron" unicode="&#x159;" horiz-adv-x="874" 
d="M119 1589h190l183 -149l184 149h192l-293 -319h-165zM143 0v1114h236v-153q125 178 352 178q59 0 94 -15v-258q-74 27 -143 27q-129 0 -213 -93t-84 -263v-537h-242z" />
    <glyph glyph-name="Sacute" unicode="&#x15a;" horiz-adv-x="1282" 
d="M526 1567l260 331l279 -22l-358 -309h-181zM686 -27q-184 0 -318.5 30t-293.5 101l94 218q270 -129 506 -129q135 0 209.5 53t74.5 151q0 92 -77.5 135t-259.5 82q-266 53 -397.5 147.5t-131.5 289.5q0 193 137.5 308.5t395.5 115.5q307 0 538 -113l-104 -207
q-211 96 -434 96q-131 0 -202 -55t-71 -135q0 -90 85 -134t284 -87q121 -27 202 -54.5t153.5 -75.5t108.5 -121t36 -175q0 -219 -137.5 -330t-397.5 -111z" />
    <glyph glyph-name="sacute" unicode="&#x15b;" horiz-adv-x="1083" 
d="M406 1268l258 331l278 -20l-358 -311h-178zM547 -27q-260 0 -469 103l80 194q174 -102 383 -102q217 0 217 141q0 59 -57.5 90t-204.5 64q-207 43 -304.5 119.5t-97.5 222.5q0 162 118 247t318 85q207 0 428 -88l-81 -195q-164 84 -351 84q-188 0 -188 -117q0 -61 53 -92
t205 -65q213 -49 312.5 -123t99.5 -211q0 -184 -115 -270.5t-346 -86.5z" />
    <glyph glyph-name="Scircumflex" unicode="&#x15c;" horiz-adv-x="1282" 
d="M258 1567l291 317h168l293 -317h-193l-184 149l-184 -149h-191zM686 -27q-184 0 -318.5 30t-293.5 101l94 218q270 -129 506 -129q135 0 209.5 53t74.5 151q0 92 -77.5 135t-259.5 82q-266 53 -397.5 147.5t-131.5 289.5q0 193 137.5 308.5t395.5 115.5q307 0 538 -113
l-104 -207q-211 96 -434 96q-131 0 -202 -55t-71 -135q0 -90 85 -134t284 -87q121 -27 202 -54.5t153.5 -75.5t108.5 -121t36 -175q0 -219 -137.5 -330t-397.5 -111z" />
    <glyph glyph-name="scircumflex" unicode="&#x15d;" horiz-adv-x="1083" 
d="M150 1268l290 317h168l293 -317h-192l-185 149l-184 -149h-190zM547 -27q-260 0 -469 103l80 194q174 -102 383 -102q217 0 217 141q0 59 -57.5 90t-204.5 64q-207 43 -304.5 119.5t-97.5 222.5q0 162 118 247t318 85q207 0 428 -88l-81 -195q-164 84 -351 84
q-188 0 -188 -117q0 -61 53 -92t205 -65q213 -49 312.5 -123t99.5 -211q0 -184 -115 -270.5t-346 -86.5z" />
    <glyph glyph-name="Scedilla" unicode="&#x15e;" horiz-adv-x="1282" 
d="M1221 414q0 -209 -124 -318.5t-360 -120.5l-26 -55q121 -29 120 -125q0 -86 -69.5 -133t-198.5 -47q-88 0 -141 12v107q41 -8 98 -8q123 0 123 75q0 55 -113 66v41l58 67q-252 12 -514 129l94 218q270 -129 506 -129q135 0 209.5 53t74.5 151q0 92 -77.5 135t-259.5 82
q-266 53 -397.5 147.5t-131.5 289.5q0 193 137.5 308.5t395.5 115.5q307 0 538 -113l-104 -207q-211 96 -434 96q-131 0 -202 -55t-71 -135q0 -90 85 -134t284 -87q121 -27 202 -54.5t153.5 -75.5t108.5 -121t36 -175z" />
    <glyph glyph-name="scedilla" unicode="&#x15f;" horiz-adv-x="1083" 
d="M1008 330q0 -330 -390 -355l-26 -57q121 -29 121 -125q0 -86 -70 -133t-199 -47q-88 0 -141 12v107q41 -8 98 -8q123 0 123 75q0 55 -112 66v41l59 69q-209 12 -393 101l80 194q174 -102 383 -102q217 0 217 141q0 59 -57.5 90t-204.5 64q-207 43 -304.5 119.5
t-97.5 222.5q0 162 118 247t318 85q207 0 428 -88l-81 -195q-164 84 -351 84q-188 0 -188 -117q0 -61 53 -92t205 -65q213 -49 312.5 -123t99.5 -211z" />
    <glyph glyph-name="Scaron" unicode="&#x160;" horiz-adv-x="1282" 
d="M258 1884h191l184 -147l184 147h193l-293 -317h-168zM686 -27q-184 0 -318.5 30t-293.5 101l94 218q270 -129 506 -129q135 0 209.5 53t74.5 151q0 92 -77.5 135t-259.5 82q-266 53 -397.5 147.5t-131.5 289.5q0 193 137.5 308.5t395.5 115.5q307 0 538 -113l-104 -207
q-211 96 -434 96q-131 0 -202 -55t-71 -135q0 -90 85 -134t284 -87q121 -27 202 -54.5t153.5 -75.5t108.5 -121t36 -175q0 -219 -137.5 -330t-397.5 -111z" />
    <glyph glyph-name="scaron" unicode="&#x161;" horiz-adv-x="1083" 
d="M147 1587h191l184 -149l185 149h192l-293 -319h-168zM547 -27q-260 0 -469 103l80 194q174 -102 383 -102q217 0 217 141q0 59 -57.5 90t-204.5 64q-207 43 -304.5 119.5t-97.5 222.5q0 162 118 247t318 85q207 0 428 -88l-81 -195q-164 84 -351 84q-188 0 -188 -117
q0 -61 53 -92t205 -65q213 -49 312.5 -123t99.5 -211q0 -184 -115 -270.5t-346 -86.5z" />
    <glyph glyph-name="uni0162" unicode="&#x162;" horiz-adv-x="1312" 
d="M784 0h-43l-36 -80q121 -29 120 -125q0 -86 -69.5 -133t-198.5 -47q-90 0 -141 12v107q41 -8 98 -8q123 0 123 75q0 55 -113 66v41l78 92h-74v1219h-473v229h1202v-229h-473v-1219z" />
    <glyph glyph-name="uni0163" unicode="&#x163;" horiz-adv-x="819" 
d="M778 901h-352v-518q0 -109 34 -155t128 -46q100 0 188 35v-211q-78 -27 -190 -29l-27 -57q121 -29 121 -125q0 -86 -69.5 -133t-198.5 -47q-88 0 -142 12v107q41 -8 99 -8q123 0 123 75q0 55 -113 66v41l63 74q-135 20 -195.5 109t-60.5 257v553h-166v213h166v436h240
v-436h352v-213z" />
    <glyph glyph-name="Tcaron" unicode="&#x164;" horiz-adv-x="1312" 
d="M283 1884h190l184 -147l185 147h192l-293 -317h-168zM528 0v1219h-473v229h1202v-229h-473v-1219h-256z" />
    <glyph glyph-name="tcaron" unicode="&#x165;" horiz-adv-x="901" 
d="M731 1720q70 0 111 -47t41 -139q0 -133 -76 -229.5t-209 -96.5v95q43 0 77 36.5t48 106.5q-51 4 -91 40t-40 95q0 61 39 100t100 39zM426 1550v-436h352v-213h-352v-518q0 -109 34 -155t128 -46q100 0 188 35v-211q-92 -31 -248 -31q-182 0 -262 90.5t-80 282.5v553h-166
v213h166v436h240z" />
    <glyph glyph-name="Tbar" unicode="&#x166;" horiz-adv-x="1312" 
d="M1257 1219h-473v-433h254v-198h-254v-588h-256v588h-256v198h256v433h-473v229h1202v-229z" />
    <glyph glyph-name="tbar" unicode="&#x167;" horiz-adv-x="819" 
d="M778 901h-352v-184h293v-193h-293v-141q0 -109 34 -155t128 -46q100 0 188 35v-211q-92 -31 -248 -31q-182 0 -262 90.5t-80 282.5v176h-135v193h135v184h-166v213h166v436h240v-436h352v-213z" />
    <glyph glyph-name="Utilde" unicode="&#x168;" horiz-adv-x="1490" 
d="M440 1554l-114 27q20 131 80.5 200.5t152.5 69.5q82 0 202 -63.5t163 -63.5q86 0 133 119l114 -26q-23 -131 -82 -201t-149 -70q-74 0 -195.5 64.5t-160.5 64.5q-93 0 -144 -121zM745.5 -27q-616.5 0 -616.5 598v877h254v-819q0 -221 86 -321.5t276.5 -100.5t277.5 100.5
t87 321.5v819h252v-877q0 -598 -616.5 -598z" />
    <glyph glyph-name="utilde" unicode="&#x169;" horiz-adv-x="1269" 
d="M330 1278l-115 27q20 131 80.5 200.5t153.5 69.5q82 0 201.5 -63.5t162.5 -63.5q86 0 133 119l115 -27q-23 -131 -82 -200.5t-150 -69.5q-74 0 -195.5 64.5t-160.5 64.5q-92 0 -143 -121zM545 -23q-428 0 -428 476v661h241v-612q0 -309 252 -309q168 0 291 145v776h242
v-1114h-232v125q-147 -148 -366 -148z" />
    <glyph glyph-name="Umacron" unicode="&#x16a;" horiz-adv-x="1490" 
d="M387 1579v174h717v-174h-717zM745.5 -27q-616.5 0 -616.5 598v877h254v-819q0 -221 86 -321.5t276.5 -100.5t277.5 100.5t87 321.5v819h252v-877q0 -598 -616.5 -598z" />
    <glyph glyph-name="umacron" unicode="&#x16b;" horiz-adv-x="1269" 
d="M276 1331v174h717v-174h-717zM545 -23q-428 0 -428 476v661h241v-612q0 -309 252 -309q168 0 291 145v776h242v-1114h-232v125q-147 -148 -366 -148z" />
    <glyph glyph-name="Ubreve" unicode="&#x16c;" horiz-adv-x="1490" 
d="M745 1567q-158 0 -252 79.5t-100 231.5h162q33 -141 190 -141q160 0 189 141h164q-8 -154 -100.5 -232.5t-252.5 -78.5zM745.5 -27q-616.5 0 -616.5 598v877h254v-819q0 -221 86 -321.5t276.5 -100.5t277.5 100.5t87 321.5v819h252v-877q0 -598 -616.5 -598z" />
    <glyph glyph-name="ubreve" unicode="&#x16d;" horiz-adv-x="1269" 
d="M637 1270q-158 0 -252 80t-102 231h163q33 -139 191 -139q160 0 188 139h164q-8 -152 -101 -231.5t-251 -79.5zM545 -23q-428 0 -428 476v661h241v-612q0 -309 252 -309q168 0 291 145v776h242v-1114h-232v125q-147 -148 -366 -148z" />
    <glyph glyph-name="Uring" unicode="&#x16e;" horiz-adv-x="1490" 
d="M745 1401q-100 0 -167.5 65.5t-67.5 164t67.5 164t167.5 65.5q102 0 169 -64.5t67 -165t-67 -165t-169 -64.5zM745.5 1511q51.5 0 84 34t32.5 89q0 51 -32.5 84t-84 33t-84 -34t-32.5 -87q0 -51 32.5 -85t84 -34zM745.5 -27q-616.5 0 -616.5 598v877h254v-819
q0 -221 86 -321.5t276.5 -100.5t277.5 100.5t87 321.5v819h252v-877q0 -598 -616.5 -598z" />
    <glyph glyph-name="uring" unicode="&#x16f;" horiz-adv-x="1269" 
d="M637 1253q-100 0 -168 65.5t-68 164t68 164t168 65.5q102 0 168.5 -64.5t66.5 -165t-66.5 -165t-168.5 -64.5zM637 1364q51 0 84 34t33 89q0 51 -33 84t-84 33t-84 -34t-33 -87q0 -51 33 -85t84 -34zM545 -23q-428 0 -428 476v661h241v-612q0 -309 252 -309
q168 0 291 145v776h242v-1114h-232v125q-147 -148 -366 -148z" />
    <glyph glyph-name="Uhungarumlaut" unicode="&#x170;" horiz-adv-x="1490" 
d="M471 1567l180 344l213 -72l-237 -272h-156zM813 1567l180 344l230 -76l-260 -268h-150zM745.5 -27q-616.5 0 -616.5 598v877h254v-819q0 -221 86 -321.5t276.5 -100.5t277.5 100.5t87 321.5v819h252v-877q0 -598 -616.5 -598z" />
    <glyph glyph-name="uhungarumlaut" unicode="&#x171;" horiz-adv-x="1269" 
d="M360 1268l181 346l213 -72l-238 -274h-156zM702 1268l181 346l229 -76l-260 -270h-150zM545 -23q-428 0 -428 476v661h241v-612q0 -309 252 -309q168 0 291 145v776h242v-1114h-232v125q-147 -148 -366 -148z" />
    <glyph glyph-name="Uogonek" unicode="&#x172;" horiz-adv-x="1490" 
d="M1110 1448h252v-877q0 -492 -418 -579q-129 -74 -129 -150q0 -72 98 -71q29 0 48 4l4 -135q-68 -14 -127 -15q-102 0 -162 41t-60 115q0 106 117 192q-604 6 -604 598v877h254v-819q0 -221 86 -321.5t276.5 -100.5t277.5 100.5t87 321.5v819z" />
    <glyph glyph-name="uogonek" unicode="&#x173;" horiz-adv-x="1269" 
d="M1147 -225l4 -135q-68 -14 -127 -15q-102 0 -161.5 41t-59.5 115q0 59 43 118.5t115 100.5h-50v125q-147 -147 -366 -148q-428 0 -428 476v661h241v-612q0 -309 252 -309q168 0 291 145v776h242v-1114h2q-143 -78 -144 -158q0 -72 99 -71q29 0 47 4z" />
    <glyph glyph-name="Wcircumflex" unicode="&#x174;" horiz-adv-x="2172" 
d="M715 1567l291 317h168l292 -317h-192l-184 149l-185 -149h-190zM1886 1448h275l-533 -1458h-131l-412 1007l-407 -1007h-129l-539 1458h279l342 -987l391 993h133l389 -997z" />
    <glyph glyph-name="wcircumflex" unicode="&#x175;" horiz-adv-x="1677" 
d="M469 1270l291 317h168l293 -317h-193l-184 149l-185 -149h-190zM1417 1114h250l-393 -1124h-139l-299 737l-295 -737h-133l-398 1124h256l226 -719l282 725h129l285 -731z" />
    <glyph glyph-name="Ycircumflex" unicode="&#x176;" horiz-adv-x="1331" 
d="M295 1567l291 317h168l293 -317h-193l-184 149l-185 -149h-190zM1333 1448l-540 -946v-502h-256v502l-539 946h295l375 -700l376 700h289z" />
    <glyph glyph-name="ycircumflex" unicode="&#x177;" horiz-adv-x="1202" 
d="M223 1270l291 317h168l293 -317h-193l-184 149l-184 -149h-191zM930 1114h260l-465 -1137q-49 -121 -108.5 -199.5t-128 -113.5t-124 -46t-128.5 -11q-102 0 -177 24v209q102 -27 164 -26q178 0 262 170l-505 1130h274l346 -846z" />
    <glyph glyph-name="Ydieresis" unicode="&#x178;" horiz-adv-x="1331" 
d="M451 1552q-66 0 -112 45t-46 108.5t46 109t112 45.5q63 0 108 -45.5t45 -109t-45 -108.5t-108 -45zM886.5 1552q-63.5 0 -109.5 45t-46 108.5t45 109t111 45.5q63 0 108 -45.5t45 -109t-45 -108.5t-108.5 -45zM1333 1448l-540 -946v-502h-256v502l-539 946h295l375 -700
l376 700h289z" />
    <glyph glyph-name="Zacute" unicode="&#x179;" horiz-adv-x="1357" 
d="M606 1567l260 331l279 -22l-359 -309h-180zM451 225h827v-225h-1208v123l815 1100h-760v225h1145v-127z" />
    <glyph glyph-name="zacute" unicode="&#x17a;" horiz-adv-x="1103" 
d="M432 1270l258 332l279 -21l-359 -311h-178zM408 197h649v-197h-1004v125l637 790h-604v199h965v-123z" />
    <glyph glyph-name="Zdotaccent" unicode="&#x17b;" horiz-adv-x="1357" 
d="M708.5 1563q-65.5 0 -111.5 46t-46 109.5t46 108.5t111.5 45t110.5 -45t45 -108.5t-45 -109.5t-110.5 -46zM451 225h827v-225h-1208v123l815 1100h-760v225h1145v-127z" />
    <glyph glyph-name="zdotaccent" unicode="&#x17c;" horiz-adv-x="1103" 
d="M548.5 1257q-65.5 0 -111.5 45.5t-46 110.5q0 63 46 108.5t111.5 45.5t111 -45t45.5 -109q0 -66 -45.5 -111t-111 -45zM408 197h649v-197h-1004v125l637 790h-604v199h965v-123z" />
    <glyph glyph-name="Zcaron" unicode="&#x17d;" horiz-adv-x="1357" 
d="M338 1884h190l185 -147l184 147h193l-293 -317h-168zM451 225h827v-225h-1208v123l815 1100h-760v225h1145v-127z" />
    <glyph glyph-name="zcaron" unicode="&#x17e;" horiz-adv-x="1103" 
d="M174 1589h191l184 -149l184 149h193l-293 -319h-168zM408 197h649v-197h-1004v125l637 790h-604v199h965v-123z" />
    <glyph glyph-name="uni018F" unicode="&#x18f;" horiz-adv-x="1652" 
d="M797 1475q336 0 552 -206t216 -546q0 -330 -207 -540t-539 -210q-322 0 -525.5 192.5t-203.5 528.5q0 78 2 101h1211q-23 205 -159 327.5t-347 122.5q-258 0 -443 -241l-198 143q246 328 641 328zM817 195q180 0 309 103t166 286h-940q29 -182 152 -285.5t313 -103.5z
" />
    <glyph glyph-name="florin" unicode="&#x192;" horiz-adv-x="980" 
d="M768 1274q-88 0 -132 -51.5t-52 -163.5l-11 -133h316v-174h-328l-45 -650q-23 -317 -346 -317q-98 0 -143 16v199q43 -12 88 -12q98 0 129.5 52t40.5 179l37 533h-158v174h170l12 159q12 186 109.5 288t263.5 102q117 0 215 -39v-189q-92 27 -166 27z" />
    <glyph glyph-name="Gcaron" unicode="&#x1e6;" horiz-adv-x="1583" 
d="M481 1884h191l184 -147l184 147h193l-293 -317h-168zM805 774h706v-588q-219 -213 -614 -213q-373 0 -591 202t-218 548t213 550t563 204q367 0 592 -209l-158 -172q-172 152 -432 151q-233 0 -374.5 -142t-141.5 -382q0 -246 148.5 -385t406.5 -139q227 0 367 106v252
h-467v217z" />
    <glyph glyph-name="gcaron" unicode="&#x1e7;" horiz-adv-x="1343" 
d="M303 1589h191l184 -149l184 149h193l-293 -319h-168zM643 -393q-272 0 -459 82v229q209 -104 424 -104q180 0 274.5 66.5t94.5 221.5v78q-119 -139 -352 -139q-246 0 -395.5 152.5t-149.5 400.5q0 242 148.5 393.5t385.5 151.5q229 0 359 -131v106h241v-952
q0 -276 -134 -415.5t-437 -139.5zM672 254q92 0 175 42t130 124v344q-49 76 -135 119t-178 43q-145 0 -238.5 -92.5t-93.5 -239.5q0 -152 93 -246t247 -94z" />
    <glyph glyph-name="uni01EA" unicode="&#x1ea;" horiz-adv-x="1726" 
d="M983 -18q-111 -72 -111 -140q0 -72 99 -71q29 0 47 4l4 -135q-68 -14 -127 -15q-102 0 -161.5 41t-59.5 115q0 111 121 194q-313 23 -510 225.5t-197 522.5q0 332 213 543t561 211q340 0 558 -207t218 -547q0 -299 -178 -502.5t-477 -238.5zM350 723q0 -229 141.5 -374.5
t370.5 -145.5q225 0 369.5 142t144.5 378q0 231 -141 377.5t-373 146.5q-223 0 -367.5 -144t-144.5 -380z" />
    <glyph glyph-name="uni01EB" unicode="&#x1eb;" horiz-adv-x="1382" 
d="M856 -6q-133 -74 -133 -152q0 -72 98 -71q29 0 47 4l4 -135q-68 -14 -127 -15q-102 0 -161.5 41t-59.5 115q0 111 125 199q-258 12 -413.5 169.5t-155.5 409.5q0 260 169 420t443.5 160t442.5 -160t168 -420q0 -221 -120 -370.5t-327 -194.5zM332 559q0 -164 100 -264
t260 -100t259.5 100t99.5 264q0 162 -99.5 261.5t-259.5 99.5t-260 -100.5t-100 -260.5z" />
    <glyph glyph-name="Aringacute" unicode="&#x1fa;" horiz-adv-x="1509" 
d="M852 1419l643 -1419h-272l-138 305h-661l-137 -305h-273l643 1419q-63 27 -101 83.5t-38 127.5q0 82 47 141.5t123 79.5l195 248l278 -22l-287 -248q115 -61 115 -199q0 -72 -37 -128t-100 -83zM753.5 1751q-51.5 0 -84 -34t-32.5 -87q0 -51 32.5 -85t84 -34t84 34
t32.5 89q0 51 -32.5 84t-84 33zM512 516h485l-125 299l-118 303l-119 -303z" />
    <glyph glyph-name="aringacute" unicode="&#x1fb;" horiz-adv-x="1349" 
d="M686 1253q-100 0 -167.5 65.5t-67.5 164.5q0 84 49 144.5t127 78.5l221 285l278 -21l-327 -284q123 -59 123 -203q0 -100 -67 -165t-169 -65zM686 1604q-51 0 -84 -34t-33 -87q0 -51 33 -85t84 -34t84 34t33 89q0 51 -33 84t-84 33zM973 1114h241v-1114h-237v117
q-119 -139 -352 -140q-248 0 -396.5 158t-148.5 424t147.5 423t386.5 157q229 0 359 -131v106zM977 356v408q-49 76 -135 118t-178 42q-150 0 -241 -96.5t-91 -266.5q0 -172 92 -270t248 -98q94 0 176 40.5t129 122.5z" />
    <glyph glyph-name="AEacute" unicode="&#x1fc;" horiz-adv-x="2070" 
d="M950 1567l260 331l279 -22l-359 -309h-180zM12 0l740 1448h1208v-221h-784v-404h661v-213h-661v-389h821v-221h-1067v305h-488l-151 -305h-279zM541 516h389v703h-41z" />
    <glyph glyph-name="aeacute" unicode="&#x1fd;" horiz-adv-x="2158" 
d="M958 1274l259 332l278 -21l-358 -311h-179zM2103 555l-2 -70h-901q23 -143 117 -223t248 -80q223 0 344 154l159 -131q-164 -225 -501 -225q-238 0 -377 129v-109h-238v117q-117 -139 -342 -140q-242 0 -386 158t-144 426q0 266 143.5 424t376.5 158q221 0 350 -131v106
h240v-104q133 127 348 127q270 0 417.5 -161t147.5 -425zM1530 938q-127 0 -214 -69.5t-112 -200.5h658q-12 121 -95 195.5t-237 74.5zM952 358v410q-47 74 -131 117t-172 43q-145 0 -234 -97.5t-89 -267.5q0 -172 90 -272.5t239 -100.5q90 0 171 42t126 126z" />
    <glyph glyph-name="Oslashacute" unicode="&#x1fe;" horiz-adv-x="1726" 
d="M764 1567l260 331l279 -22l-359 -309h-180zM1448 1241q190 -207 190 -518q0 -330 -214 -540t-562 -210q-242 0 -430 109l-72 -82h-245l172 199q-199 205 -199 524q0 332 213 543t561 211q246 0 441 -117l77 88h248zM350 723q0 -195 105 -334l686 787q-123 72 -279 71
q-223 0 -367.5 -144t-144.5 -380zM862 203q225 0 369.5 142t144.5 378q0 188 -98 326l-682 -781q112 -65 266 -65z" />
    <glyph glyph-name="oslashacute" unicode="&#x1ff;" horiz-adv-x="1382" 
d="M578 1270l258 332l278 -21l-358 -311h-178zM1157 954q143 -154 143 -395q0 -264 -167.5 -423t-442.5 -159q-190 0 -330 78l-51 -57h-225l143 160q-147 158 -147 401q0 260 169 420t441 160q188 0 332 -80l45 53h227zM319 559q0 -129 64 -225l491 559q-82 41 -184 41
q-166 0 -268.5 -103.5t-102.5 -271.5zM690 180q166 0 269.5 104.5t103.5 274.5q0 125 -62 219l-493 -557q82 -41 182 -41z" />
    <glyph glyph-name="uni0218" unicode="&#x218;" horiz-adv-x="1282" 
d="M721 840q121 -27 202 -54.5t153.5 -75.5t108.5 -121t36 -175q0 -219 -137.5 -330t-397.5 -111q-184 0 -318.5 30t-293.5 101l94 218q270 -129 506 -129q135 0 209.5 53t74.5 151q0 92 -77.5 135t-259.5 82q-266 53 -397.5 147.5t-131.5 289.5q0 193 137.5 308.5
t395.5 115.5q307 0 538 -113l-104 -207q-211 96 -434 96q-131 0 -202 -55t-71 -135q0 -90 85 -134t284 -87zM651 -96q66 0 106 -41t40 -109q0 -102 -66.5 -185t-218.5 -83q-25 0 -37 2v90q10 -2 31 -2q47 0 79.5 26.5t43.5 73.5q-49 8 -79 38t-30 73q0 53 35 85t96 32z" />
    <glyph glyph-name="uni0219" unicode="&#x219;" horiz-adv-x="1083" 
d="M596 664q213 -49 312.5 -123t99.5 -211q0 -184 -115 -270.5t-346 -86.5q-260 0 -469 103l80 194q174 -102 383 -102q217 0 217 141q0 59 -57.5 90t-204.5 64q-207 43 -304.5 119.5t-97.5 222.5q0 162 118 247t318 85q207 0 428 -88l-81 -195q-164 84 -351 84
q-188 0 -188 -117q0 -61 53 -91.5t205 -65.5zM532 -98q66 0 106 -41t40 -109q0 -102 -66.5 -185t-218.5 -83q-25 0 -37 2v90q10 -2 31 -2q47 0 80 26.5t43 73.5q-49 8 -79 38t-30 73q0 53 35 85t96 32z" />
    <glyph glyph-name="uni021A" unicode="&#x21a;" horiz-adv-x="1312" 
d="M55 1448h1202v-229h-473v-1219h-256v1219h-473v229zM645 -96q66 0 106 -41t40 -109q0 -102 -67 -185t-218 -83q-25 0 -37 2v90q10 -2 31 -2q47 0 79.5 26.5t43.5 73.5q-49 8 -79 38t-30 73q0 53 35 85t96 32z" />
    <glyph glyph-name="uni021B" unicode="&#x21b;" horiz-adv-x="819" 
d="M778 901h-352v-518q0 -109 34 -155t128 -46q100 0 188 35v-211q-92 -31 -248 -31q-182 0 -262 90.5t-80 282.5v553h-166v213h166v436h240v-436h352v-213zM500 -96q66 0 105.5 -41t39.5 -109q0 -102 -66.5 -185t-218.5 -83q-25 0 -36 2v90q10 -2 30 -2q47 0 80 26.5
t43 73.5q-49 8 -78.5 38t-29.5 73q0 53 35 85t96 32z" />
    <glyph glyph-name="uni0232" unicode="&#x232;" horiz-adv-x="1331" 
d="M307 1579v174h717v-174h-717zM1333 1448l-540 -946v-502h-256v502l-539 946h295l375 -700l376 700h289z" />
    <glyph glyph-name="uni0233" unicode="&#x233;" horiz-adv-x="1202" 
d="M238 1331v174h716v-174h-716zM930 1114h260l-465 -1137q-49 -121 -108.5 -199.5t-128 -113.5t-124 -46t-128.5 -11q-102 0 -177 24v209q102 -27 164 -26q178 0 262 170l-505 1130h274l346 -846z" />
    <glyph glyph-name="uni0237" unicode="&#x237;" horiz-adv-x="548" 
d="M78 -387q-104 0 -154 16v199q43 -12 84 -12q98 0 126 52t28 181v1065h244v-1190q0 -162 -89 -236.5t-239 -74.5z" />
    <glyph glyph-name="uni0259" unicode="&#x259;" horiz-adv-x="1284" 
d="M55 559q0 49 2 70h899q-23 143 -117 223t-243 80q-219 0 -342 -154l-158 131q168 227 516 228q274 0 433 -159t159 -425q0 -262 -159.5 -422t-415.5 -160q-279 0 -426.5 161t-147.5 427zM629 174q125 0 213 70.5t112 201.5h-655q12 -121 95 -196.5t235 -75.5z" />
    <glyph glyph-name="circumflex" unicode="&#x2c6;" horiz-adv-x="1028" 
d="M139 1270l291 317h166l293 -317h-191l-186 149l-182 -149h-191z" />
    <glyph glyph-name="caron" unicode="&#x2c7;" horiz-adv-x="1028" 
d="M143 1589h191l184 -149l184 149h191l-291 -319h-168z" />
    <glyph glyph-name="breve" unicode="&#x2d8;" horiz-adv-x="1028" 
d="M514 1270q-158 0 -251 80t-101 231h164q29 -139 188 -139q162 0 188 139h166q-8 -152 -102 -231.5t-252 -79.5z" />
    <glyph glyph-name="dotaccent" unicode="&#x2d9;" horiz-adv-x="778" 
d="M389.5 1257q-65.5 0 -112 45.5t-46.5 110.5q0 63 46.5 108.5t112 45.5t110.5 -45t45 -109q0 -66 -45 -111t-110.5 -45z" />
    <glyph glyph-name="ring" unicode="&#x2da;" horiz-adv-x="1028" 
d="M516 1253q-102 0 -168.5 64.5t-66.5 165t66.5 165t168.5 64.5q100 0 167 -64.5t67 -165t-67 -165t-167 -64.5zM516 1364q51 0 84 34t33 89q0 51 -33 84t-84 33t-84 -34t-33 -87q0 -51 33 -85t84 -34z" />
    <glyph glyph-name="ogonek" unicode="&#x2db;" horiz-adv-x="1028" 
d="M475 -375q-102 0 -161.5 41t-59.5 115q0 68 55.5 135.5t147.5 106.5l139 -23q-143 -78 -143 -158q0 -72 98 -71q27 0 47 4l4 -135q-68 -15 -127 -15z" />
    <glyph glyph-name="tilde" unicode="&#x2dc;" horiz-adv-x="1028" 
d="M203 1278l-115 27q45 270 236 270q80 0 200.5 -63.5t161.5 -63.5q88 0 135 119l115 -27q-47 -270 -231 -270q-74 0 -197 64.5t-160 64.5q-94 0 -145 -121z" />
    <glyph glyph-name="hungarumlaut" unicode="&#x2dd;" horiz-adv-x="1028" 
d="M145 1268l179 346l213 -72l-236 -274h-156zM485 1268l183 346l229 -76l-262 -270h-150z" />
    <glyph glyph-name="gravecomb" unicode="&#x300;" 
d="M-465 1270h-178l-358 309l278 23z" />
    <glyph glyph-name="acutecomb" unicode="&#x301;" 
d="M-719 1270l258 332l279 -21l-359 -311h-178z" />
    <glyph glyph-name="uni0302" unicode="&#x302;" 
d="M-973 1270l291 317h168l293 -317h-193l-184 149l-184 -149h-191z" />
    <glyph glyph-name="tildecomb" unicode="&#x303;" 
d="M-907 1278l-115 27q20 131 80.5 200.5t153.5 69.5q82 0 201.5 -63.5t162.5 -63.5q86 0 133 119l115 -27q-23 -131 -82 -200.5t-150 -69.5q-74 0 -195.5 64.5t-160.5 64.5q-92 0 -143 -121z" />
    <glyph glyph-name="uni0304" unicode="&#x304;" 
d="M-961 1331v174h717v-174h-717z" />
    <glyph glyph-name="uni0306" unicode="&#x306;" 
d="M-600 1270q-158 0 -252 80t-102 231h163q33 -139 191 -139q160 0 188 139h164q-8 -152 -101 -231.5t-251 -79.5z" />
    <glyph glyph-name="uni0307" unicode="&#x307;" 
d="M-602.5 1257q-65.5 0 -111.5 45.5t-46 110.5q0 63 46 108.5t111.5 45.5t111 -45t45.5 -109q0 -66 -45.5 -111t-111 -45z" />
    <glyph glyph-name="uni0308" unicode="&#x308;" 
d="M-819 1257q-66 0 -111 45.5t-45 109t45 108.5t111 45q63 0 108 -45t45 -108.5t-45 -109t-108 -45.5zM-381 1257q-66 0 -112 45.5t-46 109t46.5 108.5t111.5 45q63 0 108.5 -45t45.5 -108.5t-45.5 -109t-108.5 -45.5z" />
    <glyph glyph-name="uni030A" unicode="&#x30a;" 
d="M-600 1253q-100 0 -168 65.5t-68 164t68 164t168 65.5q102 0 168.5 -64.5t66.5 -165t-66.5 -165t-168.5 -64.5zM-600 1364q51 0 84 34t33 89q0 51 -33 84t-84 33t-84 -34t-33 -87q0 -51 33 -85t84 -34z" />
    <glyph glyph-name="uni030B" unicode="&#x30b;" 
d="M-877 1268l181 346l213 -72l-238 -274h-156zM-535 1268l181 346l229 -76l-260 -270h-150z" />
    <glyph glyph-name="uni030C" unicode="&#x30c;" 
d="M-973 1589h191l184 -149l184 149h193l-293 -319h-168z" />
    <glyph glyph-name="uni0312" unicode="&#x312;" 
d="M-465 1671h37v-92q-10 2 -31 2q-47 0 -79.5 -26.5t-43.5 -73.5q49 -8 79 -38t30 -73q0 -51 -35 -83t-96 -32q-66 0 -106 40t-40 110q0 102 66.5 184t218.5 82z" />
    <glyph glyph-name="uni0326" unicode="&#x326;" 
d="M-635 -96q66 0 106 -41t40 -109q0 -102 -67 -185t-218 -83q-25 0 -37 2v90q10 -2 31 -2q47 0 79.5 26.5t43.5 73.5q-49 8 -79 38t-30 73q0 53 35 85t96 32z" />
    <glyph glyph-name="uni0327" unicode="&#x327;" 
d="M-563 -80q121 -29 121 -125q0 -86 -70 -133t-199 -47q-88 0 -141 12v107q41 -8 98 -8q123 0 123 75q0 55 -112 66v41l84 98l141 10z" />
    <glyph glyph-name="uni0328" unicode="&#x328;" 
d="M-717 -375q-102 0 -161.5 41t-59.5 115q0 68 55.5 135.5t147.5 106.5l139 -23q-143 -78 -143 -158q0 -72 98 -71q29 0 47 4l4 -135q-68 -15 -127 -15z" />
    <glyph glyph-name="uni037E" unicode="&#x37e;" horiz-adv-x="471" 
d="M236 831q-66 0 -113 45.5t-47 110.5q0 63 47 108.5t113 45.5q63 0 108 -45t45 -109q0 -66 -45 -111t-108 -45zM227 283q68 0 114 -51.5t46 -163.5q0 -184 -87 -285.5t-251 -101.5v110q160 4 160 195q-55 6 -92 46t-37 99q0 72 40.5 112t106.5 40z" />
    <glyph glyph-name="tonos" unicode="&#x384;" horiz-adv-x="847" 
d="M356 1272l201 332l279 -23l-306 -309h-174z" />
    <glyph glyph-name="dieresistonos" unicode="&#x385;" horiz-adv-x="1171" 
d="M463 1274l49 387l244 -33l-181 -354h-112zM250 1257q-66 0 -112 45.5t-46 109t46 108.5t112 45q63 0 108 -45t45 -108.5t-45 -109t-108 -45.5zM903 1257q-66 0 -110.5 45.5t-44.5 109t45 108.5t110 45q63 0 108.5 -45t45.5 -108.5t-45.5 -109t-108.5 -45.5z" />
    <glyph glyph-name="Alphatonos" unicode="&#x386;" horiz-adv-x="1509" 
d="M-16 1081l188 392l264 -21l-274 -371h-178zM1223 0l-138 305h-661l-137 -305h-273l660 1458h160l661 -1458h-272zM754 1118l-119 -303l-123 -299h485l-125 299z" />
    <glyph glyph-name="anoteleia" unicode="&#x387;" horiz-adv-x="477" 
d="M239.5 831q-65.5 0 -111.5 45.5t-46 110.5q0 63 46 108.5t111.5 45.5t110.5 -45t45 -109q0 -66 -45 -111t-110.5 -45z" />
    <glyph glyph-name="Epsilontonos" unicode="&#x388;" horiz-adv-x="1290" 
d="M-426 1081l188 392l265 -21l-275 -371h-178zM147 0v1448h1031v-221h-785v-404h662v-213h-662v-389h821v-221h-1067z" />
    <glyph glyph-name="Etatonos" unicode="&#x389;" horiz-adv-x="1511" 
d="M-426 1081l188 392l265 -21l-275 -371h-178zM147 0v1448h250v-670h717v670h250v-1448h-250v553h-717v-553h-250z" />
    <glyph glyph-name="Iotatonos" unicode="&#x38a;" horiz-adv-x="577" 
d="M-418 1081l189 392l264 -21l-275 -371h-178zM162 0v1448h256v-1448h-256z" />
    <glyph glyph-name="Omicrontonos" unicode="&#x38c;" horiz-adv-x="1726" 
d="M862 -27q-340 0 -557 206t-217 544q0 332 213 543t561 211q340 0 558 -207t218 -547q0 -330 -214 -540t-562 -210zM-227 1081l188 392l264 -21l-274 -371h-178zM862 203q225 0 369.5 142t144.5 378q0 231 -141 377.5t-373 146.5q-223 0 -367.5 -144.5t-144.5 -379.5
q0 -229 141.5 -374.5t370.5 -145.5z" />
    <glyph glyph-name="Upsilontonos" unicode="&#x38e;" horiz-adv-x="1331" 
d="M-518 1081l188 392l264 -21l-274 -371h-178zM1333 1448l-540 -946v-502h-256v502l-539 946h295l375 -700l376 700h289z" />
    <glyph glyph-name="Omegatonos" unicode="&#x38f;" horiz-adv-x="1703" 
d="M1612 784q0 -184 -88 -329.5t-215 -229.5h290v-225h-661v168q412 242 412 594q0 221 -141.5 350t-356.5 129t-355.5 -129t-140.5 -350q0 -352 412 -594v-168h-657v225h286q-129 84 -217 229.5t-88 329.5q0 328 215 509.5t545 181.5t545 -181.5t215 -509.5zM-51 1473
l264 -21l-274 -371h-179z" />
    <glyph glyph-name="iotadieresistonos" unicode="&#x390;" horiz-adv-x="532" 
d="M180 1274l49 387l244 -33l-180 -354h-113zM-33 1257q-66 0 -111.5 45.5t-45.5 109t46 108.5t111 45q63 0 108.5 -45t45.5 -108.5t-45.5 -109t-108.5 -45.5zM621 1257q-66 0 -111 45.5t-45 109t45 108.5t111 45q63 0 108 -45t45 -108.5t-45 -109t-108 -45.5zM143 0v1114
h246v-1114h-246z" />
    <glyph glyph-name="Alpha" unicode="&#x391;" horiz-adv-x="1509" 
d="M1223 0l-138 305h-661l-137 -305h-273l660 1458h160l661 -1458h-272zM754 1118l-119 -303l-123 -299h485l-125 299z" />
    <glyph glyph-name="Beta" unicode="&#x392;" horiz-adv-x="1421" 
d="M1053 770q145 -31 229 -121t84 -227q0 -209 -129 -315.5t-401 -106.5h-689v1448h635q231 0 353 -93t122 -268q1 -247 -204 -317zM397 1235v-399h357q256 0 256 208q0 94 -62.5 142.5t-173.5 48.5h-377zM836 217q272 0 272 211q0 205 -309 205h-402v-416h439z" />
    <glyph glyph-name="Gamma" unicode="&#x393;" horiz-adv-x="1200" 
d="M147 0v1448h1020v-229h-766v-1219h-254z" />
    <glyph glyph-name="uni0394" unicode="&#x394;" horiz-adv-x="1462" 
d="M807 1458l620 -1335v-123h-1392v123l614 1335h158zM727 1108l-381 -885h762z" />
    <glyph glyph-name="Epsilon" unicode="&#x395;" horiz-adv-x="1290" 
d="M147 0v1448h1031v-221h-785v-404h662v-213h-662v-389h821v-221h-1067z" />
    <glyph glyph-name="Zeta" unicode="&#x396;" horiz-adv-x="1357" 
d="M451 225h827v-225h-1208v123l815 1100h-760v225h1145v-127z" />
    <glyph glyph-name="Eta" unicode="&#x397;" horiz-adv-x="1511" 
d="M147 0v1448h250v-670h717v670h250v-1448h-250v553h-717v-553h-250z" />
    <glyph glyph-name="Theta" unicode="&#x398;" horiz-adv-x="1726" 
d="M862 -27q-340 0 -557 206t-217 544q0 332 213 543t561 211q340 0 558 -207t218 -547q0 -330 -214 -540t-562 -210zM862 201q225 0 369.5 143t144.5 381q0 233 -141 379.5t-373 146.5q-223 0 -367.5 -144t-144.5 -382q0 -231 141.5 -377.5t370.5 -146.5zM530 604v209h672
v-209h-672z" />
    <glyph glyph-name="Iota" unicode="&#x399;" horiz-adv-x="577" 
d="M162 0v1448h256v-1448h-256z" />
    <glyph glyph-name="Kappa" unicode="&#x39a;" horiz-adv-x="1435" 
d="M1108 0l-475 616l-238 -272v-344h-248v1448h248v-780l645 780h318l-549 -649l614 -799h-315z" />
    <glyph glyph-name="Lambda" unicode="&#x39b;" horiz-adv-x="1486" 
d="M1473 0h-283l-453 1071l-446 -1071h-277l650 1458h159z" />
    <glyph glyph-name="Mu" unicode="&#x39c;" horiz-adv-x="1796" 
d="M1516 1456h133v-1456h-248v903l-453 -647h-100l-453 641v-897h-248v1456h134l620 -876z" />
    <glyph glyph-name="Nu" unicode="&#x39d;" horiz-adv-x="1574" 
d="M1180 1448h247v-1458h-127l-905 999v-989h-248v1460h127l906 -999v987z" />
    <glyph glyph-name="Xi" unicode="&#x39e;" horiz-adv-x="1341" 
d="M90 1217v231h1163v-231h-1163zM205 600v223h934v-223h-934zM76 0v233h1192v-233h-1192z" />
    <glyph glyph-name="Omicron" unicode="&#x39f;" horiz-adv-x="1726" 
d="M862 -27q-340 0 -557 206t-217 544q0 332 213 543t561 211q340 0 558 -207t218 -547q0 -330 -214 -540t-562 -210zM862 203q225 0 369.5 142t144.5 378q0 231 -141 377.5t-373 146.5q-223 0 -367.5 -144.5t-144.5 -379.5q0 -229 141.5 -374.5t370.5 -145.5z" />
    <glyph glyph-name="Pi" unicode="&#x3a0;" horiz-adv-x="1515" 
d="M147 0v1448h1221v-1448h-250v1223h-721v-1223h-250z" />
    <glyph glyph-name="Rho" unicode="&#x3a1;" horiz-adv-x="1337" 
d="M725 1448q279 0 423 -129t144 -379q0 -522 -608 -522h-287v-418h-250v1448h578zM674 635q358 0 358 299q0 295 -327 295h-308v-594h277z" />
    <glyph glyph-name="Sigma" unicode="&#x3a3;" horiz-adv-x="1325" 
d="M436 227h815v-227h-1194v127l478 588l-459 608v125h1163v-225h-790l364 -473v-74z" />
    <glyph glyph-name="Tau" unicode="&#x3a4;" horiz-adv-x="1312" 
d="M528 0v1219h-473v229h1202v-229h-473v-1219h-256z" />
    <glyph glyph-name="Upsilon" unicode="&#x3a5;" horiz-adv-x="1331" 
d="M1333 1448l-540 -946v-502h-256v502l-539 946h295l375 -700l376 700h289z" />
    <glyph glyph-name="Phi" unicode="&#x3a6;" horiz-adv-x="1798" 
d="M1044 1362q307 0 493.5 -170t186.5 -457q0 -281 -185 -452.5t-503 -171.5h-16v-148h-242v148h-16q-315 0 -501.5 169t-186.5 455q0 285 182 456t498 171h24v133h242v-133h24zM752 317h26v838h-24q-193 0 -307.5 -113.5t-114.5 -306.5q0 -184 116 -301t304 -117zM1047 317
q190 0 304.5 117t114.5 301q0 193 -114.5 306.5t-307.5 113.5h-24v-838h27z" />
    <glyph glyph-name="Chi" unicode="&#x3a7;" horiz-adv-x="1411" 
d="M1391 0h-301l-388 559l-380 -559h-304l512 735l-499 713h301l375 -545l374 545h299l-497 -713z" />
    <glyph glyph-name="Psi" unicode="&#x3a8;" horiz-adv-x="1722" 
d="M1391 1448h249v-526q0 -287 -165.5 -445t-460.5 -158h-27v-319h-248v319h-30q-295 0 -461 158t-166 445v526h250v-524q0 -186 101.5 -287.5t283.5 -101.5h22v913h248v-913h19q184 0 284.5 101t100.5 288v524z" />
    <glyph glyph-name="uni03A9" unicode="&#x3a9;" horiz-adv-x="1703" 
d="M1612 784q0 -184 -88 -329.5t-215 -229.5h290v-225h-661v168q412 242 412 594q0 221 -141.5 350t-356.5 129t-355.5 -129t-140.5 -350q0 -352 412 -594v-168h-657v225h286q-129 84 -217 229.5t-88 329.5q0 328 215 509.5t545 181.5t545 -181.5t215 -509.5z" />
    <glyph glyph-name="Iotadieresis" unicode="&#x3aa;" horiz-adv-x="577" 
d="M76 1552q-66 0 -112 45t-46 108.5t46 109t112 45.5q63 0 108 -45.5t45 -109t-45 -108.5t-108 -45zM512 1552q-63 0 -109.5 45t-46.5 108.5t45 109t111 45.5q63 0 108.5 -45.5t45.5 -109t-45.5 -108.5t-108.5 -45zM162 0v1448h256v-1448h-256z" />
    <glyph glyph-name="Upsilondieresis" unicode="&#x3ab;" horiz-adv-x="1331" 
d="M451 1552q-66 0 -112 45t-46 108.5t46 109t112 45.5q63 0 108 -45.5t45 -109t-45 -108.5t-108 -45zM886.5 1552q-63.5 0 -109.5 45t-46 108.5t45 109t111 45.5q63 0 108 -45.5t45 -109t-45 -108.5t-108.5 -45zM1333 1448l-540 -946v-502h-256v502l-539 946h295l375 -700
l376 700h289z" />
    <glyph glyph-name="alphatonos" unicode="&#x3ac;" horiz-adv-x="1349" 
d="M571 1272l201 332l279 -23l-306 -309h-174zM625 -23q-248 0 -396.5 158t-148.5 424t147.5 423t386.5 157q229 0 359 -131v106h241v-1114h-237v117q-119 -140 -352 -140zM672 193q94 0 176 40.5t129 122.5v408q-49 76 -135 118t-178 42q-150 0 -241 -96.5t-91 -266.5
q0 -172 92 -270t248 -98z" />
    <glyph glyph-name="epsilontonos" unicode="&#x3ad;" horiz-adv-x="1148" 
d="M483 1272l201 332l279 -23l-306 -309h-174zM1038 311l97 -200q-217 -133 -537 -134q-518 0 -518 316q0 215 231 278q-193 72 -192 258q0 166 131 239t334 73q289 0 510 -121l-88 -191q-190 98 -400 99q-244 0 -244 -137q0 -55 51.5 -95.5t157.5 -40.5h244v-184h-250
q-125 0 -183 -40t-58 -101q0 -139 299 -140q222 0 415 121z" />
    <glyph glyph-name="etatonos" unicode="&#x3ae;" horiz-adv-x="1298" 
d="M543 1272l200 332l279 -23l-305 -309h-174zM938 -360v972q0 174 -68.5 242t-191.5 68q-164 0 -293 -134v-788h-242v1114h236v-113q160 135 369 136q213 0 322.5 -108.5t109.5 -366.5v-1022h-242z" />
    <glyph glyph-name="iotatonos" unicode="&#x3af;" horiz-adv-x="532" 
d="M156 1272l200 332l279 -23l-305 -309h-174zM143 0v1114h246v-1114h-246z" />
    <glyph glyph-name="upsilondieresistonos" unicode="&#x3b0;" horiz-adv-x="1275" 
d="M547 1274l49 387l244 -33l-181 -354h-112zM334 1257q-66 0 -112 45.5t-46 109t46 108.5t112 45q63 0 108 -45t45 -108.5t-45 -109t-108 -45.5zM987.5 1257q-65.5 0 -111 45.5t-45.5 109t45.5 108.5t111 45t109.5 -45t44 -108.5t-44 -109t-109.5 -45.5zM639 -25
q-528 0 -528 492v647h241v-625q0 -299 287 -299q285 0 285 299v625h241v-647q0 -492 -526 -492z" />
    <glyph glyph-name="alpha" unicode="&#x3b1;" horiz-adv-x="1349" 
d="M625 -23q-248 0 -396.5 158t-148.5 424t147.5 423t386.5 157q229 0 359 -131v106h241v-1114h-237v117q-119 -140 -352 -140zM672 193q94 0 176 40.5t129 122.5v408q-49 76 -135 118t-178 42q-150 0 -241 -96.5t-91 -266.5q0 -172 92 -270t248 -98z" />
    <glyph glyph-name="beta" unicode="&#x3b2;" horiz-adv-x="1357" 
d="M1016 852q139 -37 211.5 -145.5t72.5 -260.5q0 -227 -144 -348t-374 -121q-119 0 -231.5 38t-173.5 110v-485h-240v1374q0 285 143.5 424t397.5 139q227 0 376.5 -110.5t149.5 -297.5q0 -104 -50 -189t-138 -128zM682 1370q-305 0 -305 -362v-82h297q117 0 204 49t87 166
q0 109 -82 169t-201 60zM754 193q135 0 215 68.5t80 205.5q0 262 -344 262h-328v-356q53 -86 157.5 -133t219.5 -47z" />
    <glyph glyph-name="gamma" unicode="&#x3b3;" horiz-adv-x="1234" 
d="M958 1114h267l-486 -1122v-352h-241v356l-488 1118h269l231 -563l113 -285z" />
    <glyph glyph-name="delta" unicode="&#x3b4;" horiz-adv-x="1374" 
d="M1063 1026q236 -209 235 -491q0 -248 -167.5 -404t-438 -156t-441.5 158t-171 416q0 238 149.5 382t395.5 144q39 0 59 -2q-188 147 -463 348v129h985v-202h-577q94 -57 234.5 -163t199.5 -159zM692 195q158 0 256.5 96t98.5 246q0 188 -164 323q-94 27 -185 27
q-164 0 -265 -88t-101 -246q0 -160 100 -259t260 -99z" />
    <glyph glyph-name="epsilon" unicode="&#x3b5;" horiz-adv-x="1148" 
d="M1038 311l97 -200q-217 -133 -537 -134q-518 0 -518 316q0 215 231 278q-193 72 -192 258q0 166 131 239t334 73q289 0 510 -121l-88 -191q-190 98 -400 99q-244 0 -244 -137q0 -55 51.5 -95.5t157.5 -40.5h244v-184h-250q-125 0 -183 -40t-58 -101q0 -139 299 -140
q222 0 415 121z" />
    <glyph glyph-name="zeta" unicode="&#x3b6;" horiz-adv-x="1126" 
d="M1116 1425q-180 -119 -301 -208t-243.5 -203.5t-184 -230t-61.5 -232.5q0 -133 71.5 -190.5t276.5 -84.5q238 -33 336 -104.5t98 -214.5q0 -166 -118 -251t-328 -85h-25v186q233 0 233 121q0 57 -58 85t-220 46q-256 29 -386 129.5t-130 313.5q0 135 47 258t138 228.5
t190.5 188.5t234.5 175h-532v198h962v-125z" />
    <glyph glyph-name="eta" unicode="&#x3b7;" horiz-adv-x="1298" 
d="M938 -360v972q0 174 -68.5 242t-191.5 68q-164 0 -293 -134v-788h-242v1114h236v-113q160 135 369 136q213 0 322.5 -108.5t109.5 -366.5v-1022h-242z" />
    <glyph glyph-name="theta" unicode="&#x3b8;" horiz-adv-x="1329" 
d="M666 1577q287 0 441.5 -215t154.5 -598q0 -377 -149.5 -580.5t-446.5 -203.5t-447.5 203.5t-150.5 580.5q0 383 154.5 598t443.5 215zM666 1364q-168 0 -258.5 -134t-94.5 -366h705q-8 233 -97 366.5t-255 133.5zM666 190q336 0 350 482h-703q15 -482 353 -482z" />
    <glyph glyph-name="iota" unicode="&#x3b9;" horiz-adv-x="532" 
d="M143 0v1114h246v-1114h-246z" />
    <glyph glyph-name="kappa" unicode="&#x3ba;" horiz-adv-x="1267" 
d="M956 0l-315 514l-256 -260v-254h-242v1114h242v-571l530 571h308l-406 -432l420 -682h-281z" />
    <glyph glyph-name="lambda" unicode="&#x3bb;" horiz-adv-x="1269" 
d="M1262 0h-271l-307 844l-379 -844h-266l536 1122l-4 13q-43 123 -100 178t-158 55q-80 0 -141 -20v208q72 18 166 19q182 0 277.5 -68.5t172.5 -271.5z" />
    <glyph glyph-name="uni03BC" unicode="&#x3bc;" horiz-adv-x="1304" 
d="M924 1114h241v-1114h-231v125q-135 -147 -328 -148q-145 0 -225 89v-426h-242v1474h242v-612q0 -309 252 -309q168 0 291 145v776z" />
    <glyph glyph-name="nu" unicode="&#x3bd;" horiz-adv-x="1216" 
d="M938 1114h266l-526 -1124h-141l-527 1124h277l211 -496l110 -280l115 276z" />
    <glyph glyph-name="xi" unicode="&#x3be;" horiz-adv-x="1112" 
d="M672 268q244 -14 339 -88t95 -223q0 -166 -117 -251t-327 -85h-25v186q233 0 233 121q0 59 -60 86t-230 35q-268 16 -394.5 101.5t-126.5 275.5q0 156 92.5 257t243.5 140q-221 70 -221 254q0 90 54.5 164t142.5 111h-277v198h971v-198h-193q-233 0 -340.5 -55.5
t-107.5 -174.5q0 -47 16.5 -81.5t55.5 -56t77.5 -35t110.5 -19.5t126 -7t148 -1v-195h-157q-264 0 -378 -59.5t-114 -190.5q0 -102 78 -149.5t285 -59.5z" />
    <glyph glyph-name="omicron" unicode="&#x3bf;" horiz-adv-x="1382" 
d="M692.5 -23q-274.5 0 -443.5 160t-169 422q0 260 169 420t443.5 160t442.5 -160t168 -420q0 -264 -168 -423t-442.5 -159zM692 195q160 0 259.5 100t99.5 264q0 162 -99.5 261.5t-259.5 99.5t-260 -100.5t-100 -260.5q0 -164 100 -264t260 -100z" />
    <glyph glyph-name="pi" unicode="&#x3c0;" horiz-adv-x="1316" 
d="M1178 1114v-1114h-242v899h-555v-899h-242v1114h1039z" />
    <glyph glyph-name="rho" unicode="&#x3c1;" horiz-adv-x="1339" 
d="M104 -360v921q0 272 153 424t421 152q270 0 424.5 -158t154.5 -426q0 -270 -148 -423t-404 -153q-233 0 -361 148v-485h-240zM666 193q166 0 253 95t87 263q0 172 -90.5 271.5t-244 99.5t-241.5 -98.5t-88 -278.5v-172q53 -90 141.5 -135t182.5 -45z" />
    <glyph glyph-name="uni03C2" unicode="&#x3c2;" horiz-adv-x="1163" 
d="M635 -379v186q233 0 233 121q0 53 -54 78t-204 57q-117 25 -208 63t-167.5 98.5t-118.5 153.5t-42 214q0 246 149.5 395.5t415.5 149.5q162 0 292 -56.5t206 -154.5l-168 -152q-49 66 -134 107t-188 41q-150 0 -235.5 -87t-85.5 -225q0 -147 93 -220t267 -116
q227 -53 323.5 -118.5t96.5 -198.5q0 -166 -118 -251t-329 -85h-24z" />
    <glyph glyph-name="sigma" unicode="&#x3c3;" horiz-adv-x="1372" 
d="M1327 1114v-215h-213q78 -66 124 -170t46 -221q0 -242 -167 -387.5t-429 -145.5q-272 0 -440 159t-168 421q0 260 164 409.5t440 149.5h643zM690 193q156 0 252 96t96 252q0 131 -64.5 231t-133.5 133h-150q-164 0 -262 -93t-98 -257t99 -263t261 -99z" />
    <glyph glyph-name="tau" unicode="&#x3c4;" horiz-adv-x="1046" 
d="M1006 1114v-215h-361v-899h-244v899h-360v215h965z" />
    <glyph glyph-name="upsilon" unicode="&#x3c5;" horiz-adv-x="1275" 
d="M639 -25q-528 0 -528 492v647h241v-625q0 -299 287 -299q285 0 285 299v625h241v-647q0 -492 -526 -492z" />
    <glyph glyph-name="phi" unicode="&#x3c6;" horiz-adv-x="1697" 
d="M1618 555q0 -266 -172 -420.5t-477 -159.5v-335h-242v335q-305 4 -476 159t-171 421t170 423t477 161v225h242v-225q311 -4 480 -160t169 -424zM330 559q0 -170 100 -269.5t303 -101.5v738q-203 -2 -303 -103.5t-100 -263.5zM965 188q203 2 303 101.5t100 269.5
q0 162 -100.5 263.5t-302.5 103.5v-738z" />
    <glyph glyph-name="chi" unicode="&#x3c7;" horiz-adv-x="1251" 
d="M1237 -360h-274l-342 567l-334 -567h-273l459 763l-444 711h280l314 -539l319 539h279l-449 -711z" />
    <glyph glyph-name="psi" unicode="&#x3c8;" horiz-adv-x="1638" 
d="M698 -360v346h-36q-266 0 -408.5 136t-142.5 396v596h239v-592q0 -160 82 -241.5t234 -81.5h36v1165h234v-1165h37q154 0 234.5 80.5t80.5 238.5v596h238v-596q0 -260 -141.5 -396t-407.5 -136h-37v-346h-242z" />
    <glyph glyph-name="omega" unicode="&#x3c9;" horiz-adv-x="1773" 
d="M1174 1133q225 -10 371.5 -170t146.5 -439q0 -250 -118 -399.5t-331 -149.5q-137 0 -227 63.5t-129 170.5q-39 -106 -129 -170t-228 -64q-213 0 -331.5 149.5t-118.5 399.5q0 279 146.5 438.5t371.5 170.5v-218q-117 -20 -191.5 -121.5t-74.5 -265.5q0 -145 60.5 -240
t164.5 -95q106 0 161.5 99t55.5 240v179h223v-179q0 -141 56.5 -240t163.5 -99q104 0 164.5 95t60.5 240q0 164 -76 265.5t-192 121.5v218z" />
    <glyph glyph-name="iotadieresis" unicode="&#x3ca;" horiz-adv-x="532" 
d="M51 1257q-66 0 -110.5 45.5t-44.5 109t45 108.5t110 45q63 0 108.5 -45t45.5 -108.5t-45.5 -109t-108.5 -45.5zM489 1257q-66 0 -111.5 45.5t-45.5 109t46 108.5t111 45q63 0 108.5 -45t45.5 -108.5t-45.5 -109t-108.5 -45.5zM143 0v1114h246v-1114h-246z" />
    <glyph glyph-name="upsilondieresis" unicode="&#x3cb;" horiz-adv-x="1275" 
d="M420 1257q-66 0 -111 45.5t-45 109t45 108.5t111 45q63 0 108 -45t45 -108.5t-45 -109t-108 -45.5zM858 1257q-66 0 -112 45.5t-46 109t46.5 108.5t111.5 45q63 0 108.5 -45t45.5 -108.5t-45.5 -109t-108.5 -45.5zM639 -25q-528 0 -528 492v647h241v-625q0 -299 287 -299
q285 0 285 299v625h241v-647q0 -492 -526 -492z" />
    <glyph glyph-name="omicrontonos" unicode="&#x3cc;" horiz-adv-x="1382" 
d="M582 1272l200 332l279 -23l-305 -309h-174zM692.5 -23q-274.5 0 -443.5 160t-169 422q0 260 169 420t443.5 160t442.5 -160t168 -420q0 -264 -168 -423t-442.5 -159zM692 195q160 0 259.5 100t99.5 264q0 162 -99.5 261.5t-259.5 99.5t-260 -100.5t-100 -260.5
q0 -164 100 -264t260 -100z" />
    <glyph glyph-name="upsilontonos" unicode="&#x3cd;" horiz-adv-x="1275" 
d="M524 1272l201 332l279 -23l-306 -309h-174zM639 -25q-528 0 -528 492v647h241v-625q0 -299 287 -299q285 0 285 299v625h241v-647q0 -492 -526 -492z" />
    <glyph glyph-name="omegatonos" unicode="&#x3ce;" horiz-adv-x="1773" 
d="M776 1272l201 332l278 -23l-305 -309h-174zM1174 1133q225 -10 371.5 -170t146.5 -439q0 -250 -118 -399.5t-331 -149.5q-137 0 -227 63.5t-129 170.5q-39 -106 -129 -170t-228 -64q-213 0 -331.5 149.5t-118.5 399.5q0 279 146.5 438.5t371.5 170.5v-218
q-117 -20 -191.5 -121.5t-74.5 -265.5q0 -145 60.5 -240t164.5 -95q106 0 161.5 99t55.5 240v179h223v-179q0 -141 56.5 -240t163.5 -99q104 0 164.5 95t60.5 240q0 164 -76 265.5t-192 121.5v218z" />
    <glyph glyph-name="uni0400" unicode="&#x400;" horiz-adv-x="1290" 
d="M743 1567h-178l-358 309l278 22zM147 0v1448h1031v-221h-785v-404h662v-213h-662v-389h821v-221h-1067z" />
    <glyph glyph-name="uni0401" unicode="&#x401;" horiz-adv-x="1290" 
d="M424 1591q-66 0 -111 45t-45 108.5t45 108.5t111 45q63 0 108.5 -45t45.5 -108.5t-45.5 -108.5t-108.5 -45zM862 1591q-66 0 -111.5 45t-45.5 108.5t46 108.5t111 45q63 0 108.5 -45t45.5 -108.5t-45.5 -108.5t-108.5 -45zM147 0v1448h1031v-221h-785v-404h662v-213h-662
v-389h821v-221h-1067z" />
    <glyph glyph-name="uni0402" unicode="&#x402;" horiz-adv-x="1675" 
d="M1106 942q262 0 398 -117.5t136 -349.5q0 -479 -571 -479q-63 0 -90 4v203h68q334 0 333 260q0 262 -313 262q-201 0 -365 -51v-674h-249v1223h-418v225h1243v-225h-576v-336q181 55 404 55z" />
    <glyph glyph-name="uni0403" unicode="&#x403;" horiz-adv-x="1200" 
d="M504 1567l260 331l278 -22l-358 -309h-180zM147 0v1448h1020v-229h-766v-1219h-254z" />
    <glyph glyph-name="uni0404" unicode="&#x404;" horiz-adv-x="1550" 
d="M1294 399l195 -161q-215 -264 -633 -265q-352 0 -560 201t-208 555q0 348 207 547t549 199q418 0 639 -273l-195 -160q-68 94 -181.5 149.5t-260.5 55.5q-207 0 -341 -113.5t-157 -322.5h758v-209h-752q33 -195 166 -297t336 -102q299 -1 438 196z" />
    <glyph glyph-name="uni0405" unicode="&#x405;" horiz-adv-x="1282" 
d="M686 -27q-184 0 -318.5 30t-293.5 101l94 218q270 -129 506 -129q135 0 209.5 53t74.5 151q0 92 -77.5 135t-259.5 82q-266 53 -397.5 147.5t-131.5 289.5q0 193 137.5 308.5t395.5 115.5q307 0 538 -113l-104 -207q-211 96 -434 96q-131 0 -202 -55t-71 -135
q0 -90 85 -134t284 -87q121 -27 202 -54.5t153.5 -75.5t108.5 -121t36 -175q0 -219 -137.5 -330t-397.5 -111z" />
    <glyph glyph-name="uni0406" unicode="&#x406;" horiz-adv-x="577" 
d="M162 0v1448h256v-1448h-256z" />
    <glyph glyph-name="uni0407" unicode="&#x407;" horiz-adv-x="577" 
d="M74 1591q-66 0 -111 45t-45 108.5t45 108.5t111 45q63 0 108 -45t45 -108.5t-45 -108.5t-108 -45zM512 1591q-66 0 -112 45t-46 108.5t46 108.5t112 45q63 0 108.5 -45t45.5 -108.5t-45.5 -108.5t-108.5 -45zM162 0v1448h256v-1448h-256z" />
    <glyph glyph-name="uni0408" unicode="&#x408;" horiz-adv-x="1253" 
d="M586 -27q-248 0 -397.5 141.5t-157.5 403.5h248q8 -166 92 -240.5t215 -74.5q289 0 288 375v870h254v-870q0 -315 -134 -460t-408 -145z" />
    <glyph glyph-name="uni0409" unicode="&#x409;" horiz-adv-x="2349" 
d="M1745 1001q281 0 424 -124.5t143 -368.5q0 -508 -608 -508h-555v1223h-553v-574q0 -195 -30.5 -327t-93 -201.5t-138.5 -97t-182 -27.5q-74 0 -109 4v219q25 -2 74 -2q123 0 176 111.5t53 353.5v766h1053v-447h346zM1694 219q360 0 360 285q0 281 -330 280h-325v-565h295
z" />
    <glyph glyph-name="uni040A" unicode="&#x40a;" horiz-adv-x="2312" 
d="M147 0v1448h250v-641h697v641h249v-473h365q279 0 423 -122t144 -359q0 -494 -608 -494h-573v580h-697v-580h-250zM1343 219h314q360 0 360 270q0 268 -329 269h-345v-539z" />
    <glyph glyph-name="uni040B" unicode="&#x40b;" horiz-adv-x="1687" 
d="M1042 942q129 0 228.5 -26.5t179.5 -86t122 -166t42 -255.5v-408h-248v389q0 188 -86 262t-254 74q-172 0 -324 -45v-680h-249v1223h-418v225h1243v-225h-576v-328q152 47 340 47z" />
    <glyph glyph-name="uni040C" unicode="&#x40c;" horiz-adv-x="1425" 
d="M612 1567l260 331l279 -22l-358 -309h-181zM1413 0h-340l-676 686v-686h-250v1448h250v-688l619 688h323l-653 -711z" />
    <glyph glyph-name="uni040D" unicode="&#x40d;" horiz-adv-x="1574" 
d="M891 1567h-178l-359 309l279 22zM1298 1460h129v-1460h-249v991l-899 -1001h-132v1458h250v-991z" />
    <glyph glyph-name="uni040E" unicode="&#x40e;" horiz-adv-x="1374" 
d="M688 1567q-158 0 -252 79.5t-100 231.5h162q33 -141 190 -141q160 0 189 141h163q-8 -154 -100 -232.5t-252 -78.5zM1087 1448h285l-545 -1092q-68 -139 -125 -214.5t-145 -122t-213 -46.5q-74 0 -143 13v219q51 -10 102 -10q90 0 149.5 33.5t116.5 138.5l-569 1081h291
l305 -617l98 -210l94 213z" />
    <glyph glyph-name="uni040F" unicode="&#x40f;" horiz-adv-x="1509" 
d="M1362 1448v-1448h-490v-340h-229v340h-496v1448h250v-1221h717v1221h248z" />
    <glyph glyph-name="uni0410" unicode="&#x410;" horiz-adv-x="1509" 
d="M1223 0l-138 305h-661l-137 -305h-273l660 1458h160l661 -1458h-272zM754 1118l-119 -303l-123 -299h485l-125 299z" />
    <glyph glyph-name="uni0411" unicode="&#x411;" horiz-adv-x="1380" 
d="M805 899q535 0 534 -438q0 -233 -141 -347t-432 -114h-619v1448h1061v-219h-811v-330h408zM756 219q172 0 248.5 59.5t76.5 176t-70.5 173t-226.5 56.5h-387v-465h359z" />
    <glyph glyph-name="uni0412" unicode="&#x412;" horiz-adv-x="1421" 
d="M1053 770q145 -31 229 -121t84 -227q0 -209 -129 -315.5t-401 -106.5h-689v1448h635q231 0 353 -93t122 -268q1 -247 -204 -317zM397 1235v-399h357q256 0 256 208q0 94 -62.5 142.5t-173.5 48.5h-377zM836 217q272 0 272 211q0 205 -309 205h-402v-416h439z" />
    <glyph glyph-name="uni0413" unicode="&#x413;" horiz-adv-x="1200" 
d="M147 0v1448h1020v-229h-766v-1219h-254z" />
    <glyph glyph-name="uni0414" unicode="&#x414;" horiz-adv-x="1710" 
d="M1649 227v-567h-232v340h-1134v-340h-232v567h152q125 111 125 523v698h1081v-1221h240zM467 227h692v996h-584v-492q1 -365 -108 -504z" />
    <glyph glyph-name="uni0415" unicode="&#x415;" horiz-adv-x="1290" 
d="M147 0v1448h1031v-221h-785v-404h662v-213h-662v-389h821v-221h-1067z" />
    <glyph glyph-name="uni0416" unicode="&#x416;" horiz-adv-x="2230" 
d="M2218 0h-338l-641 682v-682h-248v682l-649 -682h-330l695 727l-646 721h332l598 -688v688h248v-688l598 688h317l-632 -713z" />
    <glyph glyph-name="uni0417" unicode="&#x417;" horiz-adv-x="1386" 
d="M1004 750q143 -29 235 -120t92 -224q0 -213 -160.5 -323t-457.5 -110q-246 0 -401.5 65.5t-252.5 194.5l183 166q119 -209 479 -209q350 0 350 230q0 90 -89 145.5t-269 55.5h-254v198h217q143 0 232 62.5t89 165.5q0 106 -89 158t-240 52q-258 0 -385 -206l-185 161
q104 131 239.5 197t340.5 66q268 0 418.5 -100.5t150.5 -282.5q0 -129 -66 -216t-177 -126z" />
    <glyph glyph-name="uni0418" unicode="&#x418;" horiz-adv-x="1574" 
d="M1298 1460h129v-1460h-249v991l-899 -1001h-132v1458h250v-991z" />
    <glyph glyph-name="uni0419" unicode="&#x419;" horiz-adv-x="1574" 
d="M788 1567q-158 0 -252 79.5t-100 231.5h162q33 -141 190 -141q160 0 189 141h164q-8 -154 -100.5 -232.5t-252.5 -78.5zM1298 1460h129v-1460h-249v991l-899 -1001h-132v1458h250v-991z" />
    <glyph glyph-name="uni041A" unicode="&#x41a;" horiz-adv-x="1425" 
d="M1413 0h-340l-676 686v-686h-250v1448h250v-688l619 688h323l-653 -711z" />
    <glyph glyph-name="uni041B" unicode="&#x41b;" horiz-adv-x="1581" 
d="M152 -4q-74 0 -109 4v219q25 -2 74 -2q123 0 176 111.5t53 353.5v766h1088v-1448h-250v1223h-588v-574q0 -195 -30.5 -327t-93 -201.5t-138.5 -97t-182 -27.5z" />
    <glyph glyph-name="uni041C" unicode="&#x41c;" horiz-adv-x="1796" 
d="M1516 1456h133v-1456h-248v903l-453 -647h-100l-453 641v-897h-248v1456h134l620 -876z" />
    <glyph glyph-name="uni041D" unicode="&#x41d;" horiz-adv-x="1511" 
d="M147 0v1448h250v-670h717v670h250v-1448h-250v553h-717v-553h-250z" />
    <glyph glyph-name="uni041E" unicode="&#x41e;" horiz-adv-x="1726" 
d="M862 -27q-340 0 -557 206t-217 544q0 332 213 543t561 211q340 0 558 -207t218 -547q0 -330 -214 -540t-562 -210zM862 203q225 0 369.5 142t144.5 378q0 231 -141 377.5t-373 146.5q-223 0 -367.5 -144.5t-144.5 -379.5q0 -229 141.5 -374.5t370.5 -145.5z" />
    <glyph glyph-name="uni041F" unicode="&#x41f;" horiz-adv-x="1515" 
d="M147 0v1448h1221v-1448h-250v1223h-721v-1223h-250z" />
    <glyph glyph-name="uni0420" unicode="&#x420;" horiz-adv-x="1337" 
d="M725 1448q279 0 423 -129t144 -379q0 -522 -608 -522h-287v-418h-250v1448h578zM674 635q358 0 358 299q0 295 -327 295h-308v-594h277z" />
    <glyph glyph-name="uni0421" unicode="&#x421;" horiz-adv-x="1529" 
d="M840 -27q-340 0 -546 205t-206 551t205 546t547 200q401 0 630 -277l-196 -162q-150 209 -430 209q-223 0 -358.5 -139t-135.5 -377q0 -240 136.5 -383t357.5 -143q283 0 430 207l196 -162q-227 -275 -630 -275z" />
    <glyph glyph-name="uni0422" unicode="&#x422;" horiz-adv-x="1312" 
d="M528 0v1219h-473v229h1202v-229h-473v-1219h-256z" />
    <glyph glyph-name="uni0423" unicode="&#x423;" horiz-adv-x="1374" 
d="M1087 1448h285l-545 -1092q-68 -139 -125 -214.5t-145 -122t-213 -46.5q-74 0 -143 13v219q51 -10 102 -10q90 0 149.5 33.5t116.5 138.5l-569 1081h291l305 -617l98 -210l94 213z" />
    <glyph glyph-name="uni0424" unicode="&#x424;" horiz-adv-x="1798" 
d="M1044 1362q307 0 493.5 -170t186.5 -457q0 -281 -185 -452.5t-503 -171.5h-16v-148h-242v148h-16q-315 0 -501.5 169t-186.5 455q0 285 182 456t498 171h24v133h242v-133h24zM752 317h26v838h-24q-193 0 -307.5 -113.5t-114.5 -306.5q0 -184 116 -301t304 -117zM1047 317
q190 0 304.5 117t114.5 301q0 193 -114.5 306.5t-307.5 113.5h-24v-838h27z" />
    <glyph glyph-name="uni0425" unicode="&#x425;" horiz-adv-x="1411" 
d="M1391 0h-301l-388 559l-380 -559h-304l512 735l-499 713h301l375 -545l374 545h299l-497 -713z" />
    <glyph glyph-name="uni0426" unicode="&#x426;" horiz-adv-x="1595" 
d="M1581 227v-567h-229v340h-1205v1448h250v-1221h697v1221h249v-1221h238z" />
    <glyph glyph-name="uni0427" unicode="&#x427;" horiz-adv-x="1398" 
d="M1001 1448h250v-1448h-250v504q-150 -45 -331 -45q-127 0 -231.5 29.5t-188.5 92t-131 173t-47 260.5v434h250v-416q0 -352 370 -352q174 0 309 43v725z" />
    <glyph glyph-name="uni0428" unicode="&#x428;" horiz-adv-x="2183" 
d="M147 0v1448h250v-1221h570v1221h250v-1221h571v1221h248v-1448h-1889z" />
    <glyph glyph-name="uni0429" unicode="&#x429;" horiz-adv-x="2287" 
d="M2273 227v-567h-229v340h-1897v1448h250v-1221h570v1221h250v-1221h571v1221h248v-1221h237z" />
    <glyph glyph-name="uni042A" unicode="&#x42a;" horiz-adv-x="1650" 
d="M453 0v1219h-418v229h665v-447h347q281 0 424 -124.5t143 -368.5q0 -508 -606 -508h-555zM702 219h295q358 0 359 285q0 281 -328 280h-326v-565z" />
    <glyph glyph-name="uni042B" unicode="&#x42b;" horiz-adv-x="1894" 
d="M147 0v1448h250v-447h338q281 0 425.5 -124.5t144.5 -368.5q0 -508 -609 -508h-549zM1489 0v1448h258v-1448h-258zM397 219h289q358 0 358 285q0 281 -327 280h-320v-565z" />
    <glyph glyph-name="uni042C" unicode="&#x42c;" horiz-adv-x="1347" 
d="M147 0v1448h250v-447h346q281 0 424.5 -124.5t143.5 -368.5q0 -508 -609 -508h-555zM397 219h295q360 0 361 285q0 281 -330 280h-326v-565z" />
    <glyph glyph-name="uni042D" unicode="&#x42d;" horiz-adv-x="1550" 
d="M707 1475q342 0 548.5 -199t206.5 -547q0 -354 -207.5 -555t-560.5 -201q-418 0 -633 265l195 161q139 -197 438 -196q203 0 336 102.5t166 296.5h-752v209h758q-23 209 -157 322.5t-340 113.5q-147 0 -261 -55t-182 -150l-194 160q221 273 639 273z" />
    <glyph glyph-name="uni042E" unicode="&#x42e;" horiz-adv-x="2293" 
d="M1444 1477q338 0 554 -207t216 -547q0 -330 -212 -540t-558 -210q-293 0 -498 158t-256 426h-303v-557h-248v1448h248v-668h291q18 311 227 504t539 193zM1444 203q221 0 365.5 142t144.5 378q0 231 -140.5 377.5t-369.5 146.5q-221 0 -364.5 -144.5t-143.5 -379.5
q0 -229 140.5 -374.5t367.5 -145.5z" />
    <glyph glyph-name="uni042F" unicode="&#x42f;" horiz-adv-x="1396" 
d="M625 1448h622v-1448h-248v432h-303q-47 0 -69 2l-285 -434h-293l326 485q-276 115 -277 457q1 506 527 506zM707 647h292v582h-325q-313 0 -313 -291t346 -291z" />
    <glyph glyph-name="uni0430" unicode="&#x430;" horiz-adv-x="1349" 
d="M625 -23q-248 0 -396.5 158t-148.5 424t147.5 423t386.5 157q229 0 359 -131v106h241v-1114h-237v117q-119 -140 -352 -140zM672 193q94 0 176 40.5t129 122.5v408q-49 76 -135 118t-178 42q-150 0 -241 -96.5t-91 -266.5q0 -172 92 -270t248 -98z" />
    <glyph glyph-name="uni0431" unicode="&#x431;" horiz-adv-x="1394" 
d="M754 1083q262 0 411.5 -146t149.5 -388q0 -256 -167 -414t-435 -158q-295 0 -458 181.5t-163 519.5q0 158 14.5 277.5t56.5 234.5t112.5 190.5t189.5 125.5t280 61q283 16 445 47l24 -234q-125 -25 -423 -47q-227 -14 -329 -114.5t-130 -335.5q72 92 182.5 146t239.5 54z
M715 195q152 0 250 100t98 260q0 143 -94.5 236.5t-243.5 93.5q-117 0 -221.5 -72t-155.5 -209q10 -188 105.5 -298.5t261.5 -110.5z" />
    <glyph glyph-name="uni0432" unicode="&#x432;" horiz-adv-x="1253" 
d="M971 596q111 -25 170 -95.5t59 -181.5q0 -158 -101.5 -238.5t-330.5 -80.5h-625v1114h590q389 0 389 -278q1 -181 -151 -240zM381 913v-262h319q90 0 137.5 32t47.5 116q0 115 -172 114h-332zM766 201q98 0 143 31.5t45 101t-46 102.5t-160 33h-367v-268h385z" />
    <glyph glyph-name="uni0433" unicode="&#x433;" horiz-adv-x="1032" 
d="M993 1116v-215h-608v-901h-242v1114h142v2h708z" />
    <glyph glyph-name="uni0434" unicode="&#x434;" horiz-adv-x="1366" 
d="M1147 215h182v-516h-217v301h-876v-301h-220v516h95q131 82 131 494v405h905v-899zM365 213h546v690h-436v-239q1 -326 -110 -451z" />
    <glyph glyph-name="uni0435" unicode="&#x435;" horiz-adv-x="1284" 
d="M1229 555q0 -49 -2 -70h-899q23 -143 117 -223t243 -80q219 0 342 154l158 -131q-168 -227 -516 -228q-274 0 -433 159t-159 425q0 262 159.5 422t415.5 160q279 0 426.5 -161t147.5 -427zM655 940q-125 0 -213 -70.5t-112 -201.5h655q-12 121 -95 196.5t-235 75.5z" />
    <glyph glyph-name="uni0436" unicode="&#x436;" horiz-adv-x="1869" 
d="M1853 0h-319l-479 494v-494h-240v498l-493 -498h-306l529 530l-514 584h307l477 -547v547h240v-551l487 551h297l-518 -573z" />
    <glyph glyph-name="uni0437" unicode="&#x437;" horiz-adv-x="1157" 
d="M868 575q238 -63 238 -276q0 -322 -541 -322q-315 0 -528 134l94 213q104 -70 194.5 -100.5t215.5 -30.5q322 0 321 147q0 131 -244 131h-264v184h228q106 0 158.5 40t52.5 93q0 70 -76 105t-182 35q-156 0 -371 -103l-92 191q225 125 487 125q94 0 175 -15.5
t150.5 -49.5t110.5 -97.5t41 -149.5q0 -184 -168 -254z" />
    <glyph glyph-name="uni0438" unicode="&#x438;" horiz-adv-x="1343" 
d="M1071 1124h127v-1124h-231v717l-693 -727h-131v1124h232v-719z" />
    <glyph glyph-name="uni0439" unicode="&#x439;" horiz-adv-x="1343" 
d="M673.5 1270q-157.5 0 -251.5 80t-103 231h164q33 -139 191 -139q160 0 188 139h164q-8 -152 -101.5 -231.5t-251 -79.5zM1071 1124h127v-1124h-231v717l-693 -727h-131v1124h232v-719z" />
    <glyph glyph-name="uni043A" unicode="&#x43a;" horiz-adv-x="1243" 
d="M1212 0h-333l-496 494v-494h-240v1114h240v-551l512 551h305l-545 -573z" />
    <glyph glyph-name="uni043B" unicode="&#x43b;" horiz-adv-x="1337" 
d="M137 -4q-70 0 -106 4v209q25 -2 61 -2q109 0 150 86t41 252v569h909v-1114h-242v899h-432v-399q0 -274 -93 -389t-288 -115z" />
    <glyph glyph-name="uni043C" unicode="&#x43c;" horiz-adv-x="1544" 
d="M1278 1124h123v-1124h-227v659l-359 -479h-86l-358 479v-659h-228v1124h125l506 -659z" />
    <glyph glyph-name="uni043D" unicode="&#x43d;" horiz-adv-x="1333" 
d="M948 1114h242v-1114h-242v414h-563v-414h-242v1114h242v-496h563v496z" />
    <glyph glyph-name="uni043E" unicode="&#x43e;" horiz-adv-x="1382" 
d="M692.5 -23q-274.5 0 -443.5 160t-169 422q0 260 169 420t443.5 160t442.5 -160t168 -420q0 -264 -168 -423t-442.5 -159zM692 195q160 0 259.5 100t99.5 264q0 162 -99.5 261.5t-259.5 99.5t-260 -100.5t-100 -260.5q0 -164 100 -264t260 -100z" />
    <glyph glyph-name="uni043F" unicode="&#x43f;" horiz-adv-x="1325" 
d="M1182 1114v-1114h-242v899h-555v-899h-242v1114h1039z" />
    <glyph glyph-name="uni0440" unicode="&#x440;" horiz-adv-x="1357" 
d="M143 -360v1474h240v-106q131 131 360 131q240 0 386.5 -157t146.5 -423t-147.5 -424t-397.5 -158q-229 0 -348 140v-477h-240zM686 193q156 0 248 99t92 269q0 168 -92 265.5t-242 97.5q-90 0 -176 -42t-137 -118v-408q94 -163 307 -163z" />
    <glyph glyph-name="uni0441" unicode="&#x441;" horiz-adv-x="1226" 
d="M676 -20q-279 0 -437.5 156.5t-158.5 422.5q0 260 163 419t437 159q152 0 275.5 -57.5t199.5 -157.5l-168 -152q-47 66 -127 107t-172 41q-164 0 -261 -97.5t-97 -259.5q0 -168 96 -266t258 -98q199 0 311 149l168 -151q-78 -100 -203.5 -157.5t-283.5 -57.5z" />
    <glyph glyph-name="uni0442" unicode="&#x442;" horiz-adv-x="1046" 
d="M1006 1114v-215h-361v-899h-244v899h-360v215h965z" />
    <glyph glyph-name="uni0443" unicode="&#x443;" horiz-adv-x="1202" 
d="M930 1114h260l-465 -1137q-49 -121 -108.5 -199.5t-128 -113.5t-124 -46t-128.5 -11q-102 0 -177 24v209q102 -27 164 -26q178 0 262 170l-505 1130h274l346 -846z" />
    <glyph glyph-name="uni0444" unicode="&#x444;" horiz-adv-x="1697" 
d="M1618 555q0 -266 -172 -420.5t-477 -159.5v-335h-242v335q-305 4 -476 159t-171 421t170 423t477 161v411h242v-411q311 -4 480 -160t169 -424zM330 559q0 -170 100 -269.5t303 -101.5v738q-203 -2 -303 -103.5t-100 -263.5zM965 188q203 2 303 101.5t100 269.5
q0 162 -100.5 263.5t-302.5 103.5v-738z" />
    <glyph glyph-name="uni0445" unicode="&#x445;" horiz-adv-x="1198" 
d="M1176 0h-287l-293 397l-289 -397h-284l415 571l-411 543h288l281 -383l283 383h290l-411 -541z" />
    <glyph glyph-name="uni0446" unicode="&#x446;" horiz-adv-x="1390" 
d="M1171 215h183v-516h-219v301h-992v1114h242v-899h545v899h241v-899z" />
    <glyph glyph-name="uni0447" unicode="&#x447;" horiz-adv-x="1220" 
d="M836 1114h241v-1114h-241v367q-129 -33 -269 -33q-227 0 -370.5 106.5t-143.5 337.5v336h242v-330q0 -256 297 -256q133 0 244 33v553z" />
    <glyph glyph-name="uni0448" unicode="&#x448;" horiz-adv-x="1929" 
d="M143 0v1114h242v-899h459v899h241v-899h457v899h242v-1114h-1641z" />
    <glyph glyph-name="uni0449" unicode="&#x449;" horiz-adv-x="2004" 
d="M1784 215h182v-516h-217v301h-1606v1114h242v-899h459v899h241v-899h457v899h242v-899z" />
    <glyph glyph-name="uni044A" unicode="&#x44a;" horiz-adv-x="1417" 
d="M913 805q225 0 343 -101.5t118 -295.5q0 -408 -479 -408h-520v899h-334v215h575v-309h297zM885 201q238 0 237 202q0 201 -225 201h-283v-403h271z" />
    <glyph glyph-name="uni044B" unicode="&#x44b;" horiz-adv-x="1693" 
d="M143 0v1114h242v-309h297q227 0 344 -101.5t117 -295.5q0 -408 -479 -408h-521zM1303 0v1114h245v-1114h-245zM381 201h272q238 0 238 202q0 201 -225 201h-285v-403z" />
    <glyph glyph-name="uni044C" unicode="&#x44c;" horiz-adv-x="1185" 
d="M143 0v1114h242v-309h297q227 0 344 -101.5t117 -295.5q0 -408 -479 -408h-521zM381 201h272q238 0 238 202q0 201 -225 201h-285v-403z" />
    <glyph glyph-name="uni044D" unicode="&#x44d;" horiz-adv-x="1247" 
d="M573 1139q276 0 435 -158t159 -420q0 -272 -159.5 -426.5t-444.5 -154.5q-334 0 -497 213l165 149q115 -145 322 -145q150 0 245 71.5t115 200.5h-518v182h520q-20 127 -113 199t-243 72q-94 0 -180 -41t-139 -107l-168 154q78 98 209.5 154.5t291.5 56.5z" />
    <glyph glyph-name="uni044E" unicode="&#x44e;" horiz-adv-x="1900" 
d="M1219 1139q270 0 438 -160t168 -420q0 -262 -167 -422t-439 -160q-231 0 -390 118t-204 321h-246v-416h-242v1114h242v-498h233q20 238 186.5 380.5t420.5 142.5zM1218.5 195q155.5 0 255 100t99.5 264q0 160 -99.5 260.5t-255 100.5t-256 -100.5t-100.5 -260.5
q0 -164 100.5 -264t256 -100z" />
    <glyph glyph-name="uni044F" unicode="&#x44f;" horiz-adv-x="1257" 
d="M582 1114h530v-1114h-242v334h-295l-221 -334h-270l252 367q-231 80 -232 352q0 201 118 298t360 97zM874 522v391h-280q-238 0 -238 -194q0 -197 226 -197h292z" />
    <glyph glyph-name="uni0450" unicode="&#x450;" horiz-adv-x="1284" 
d="M764 1274h-178l-359 309l279 23zM1229 555q0 -49 -2 -70h-899q23 -143 117 -223t243 -80q219 0 342 154l158 -131q-168 -227 -516 -228q-274 0 -433 159t-159 425q0 262 159.5 422t415.5 160q279 0 426.5 -161t147.5 -427zM655 940q-125 0 -213 -70.5t-112 -201.5h655
q-12 121 -95 196.5t-235 75.5z" />
    <glyph glyph-name="uni0451" unicode="&#x451;" horiz-adv-x="1284" 
d="M426 1262q-66 0 -111 45t-45 108.5t45 108.5t111 45q63 0 108.5 -45t45.5 -108.5t-45.5 -108.5t-108.5 -45zM864 1262q-66 0 -111.5 45t-45.5 108.5t46 108.5t111 45q63 0 108.5 -45t45.5 -108.5t-45.5 -108.5t-108.5 -45zM1229 555q0 -49 -2 -70h-899q23 -143 117 -223
t243 -80q219 0 342 154l158 -131q-168 -227 -516 -228q-274 0 -433 159t-159 425q0 262 159.5 422t415.5 160q279 0 426.5 -161t147.5 -427zM655 940q-125 0 -213 -70.5t-112 -201.5h655q-12 121 -95 196.5t-235 75.5z" />
    <glyph glyph-name="uni0452" unicode="&#x452;" horiz-adv-x="1275" 
d="M739 1085q459 0 459 -657q0 -383 -148.5 -585.5t-416.5 -202.5v217q137 0 225 153.5t88 407.5q0 455 -274 454q-164 0 -293 -137v-735h-242v1253h-215v189h215v108h242v-108h424v-189h-424v-303q155 135 360 135z" />
    <glyph glyph-name="uni0453" unicode="&#x453;" horiz-adv-x="1032" 
d="M387 1202l258 332l279 -21l-359 -311h-178zM993 1116v-215h-608v-901h-242v1114h142v2h708z" />
    <glyph glyph-name="uni0454" unicode="&#x454;" horiz-adv-x="1247" 
d="M1016 342l166 -149q-164 -213 -498 -213q-285 0 -444.5 154.5t-159.5 426.5q0 262 158.5 420t435.5 158q160 0 292 -56.5t210 -154.5l-168 -154q-53 66 -139.5 107t-180.5 41q-150 0 -243 -72t-113 -199h520v-182h-518q20 -129 115.5 -200.5t244.5 -71.5q207 0 322 145z
" />
    <glyph glyph-name="uni0455" unicode="&#x455;" horiz-adv-x="1083" 
d="M547 -27q-260 0 -469 103l80 194q174 -102 383 -102q217 0 217 141q0 59 -57.5 90t-204.5 64q-207 43 -304.5 119.5t-97.5 222.5q0 162 118 247t318 85q207 0 428 -88l-81 -195q-164 84 -351 84q-188 0 -188 -117q0 -61 53 -92t205 -65q213 -49 312.5 -123t99.5 -211
q0 -184 -115 -270.5t-346 -86.5z" />
    <glyph glyph-name="uni0456" unicode="&#x456;" horiz-adv-x="532" 
d="M268.5 1257q-65.5 0 -111.5 45.5t-46 110.5q0 63 46 108.5t111.5 45.5t110.5 -45t45 -109q0 -66 -45 -111t-110.5 -45zM143 0v1114h246v-1114h-246z" />
    <glyph glyph-name="uni0457" unicode="&#x457;" horiz-adv-x="532" 
d="M51 1257q-66 0 -110.5 45.5t-44.5 109t45 108.5t110 45q63 0 108.5 -45t45.5 -108.5t-45.5 -109t-108.5 -45.5zM489 1257q-66 0 -111.5 45.5t-45.5 109t46 108.5t111 45q63 0 108.5 -45t45.5 -108.5t-45.5 -109t-108.5 -45.5zM143 0v1114h246v-1114h-246z" />
    <glyph glyph-name="uni0458" unicode="&#x458;" horiz-adv-x="548" 
d="M288.5 1257q-65.5 0 -111.5 45.5t-46 110.5q0 63 46 108.5t111.5 45.5t110.5 -45t45 -109q0 -66 -45 -111t-110.5 -45zM78 -387q-104 0 -154 16v199q43 -12 84 -12q98 0 126 52t28 181v1065h244v-1190q0 -162 -89 -236.5t-239 -74.5z" />
    <glyph glyph-name="uni0459" unicode="&#x459;" horiz-adv-x="1951" 
d="M1460 805q225 0 342 -101.5t117 -295.5q0 -207 -118 -307.5t-359 -100.5h-512v899h-416v-399q0 -274 -93 -389t-288 -115q-70 0 -106 4v209q25 -2 61 -2q109 0 150 86t41 252v569h892v-309h289zM1430 201q238 0 237 202q0 201 -223 201h-277v-403h263z" />
    <glyph glyph-name="uni045A" unicode="&#x45a;" horiz-adv-x="1961" 
d="M1483 793q453 0 452 -394q0 -399 -471 -399h-536v449h-549v-449h-242v1114h242v-463h549v463h241v-321h314zM1452 201q231 0 231 194q0 197 -219 197h-299v-391h287z" />
    <glyph glyph-name="uni045B" unicode="&#x45b;" horiz-adv-x="1294" 
d="M743 1085q213 0 323 -108.5t110 -366.5v-610h-244v561q0 174 -68.5 242.5t-191.5 68.5q-164 0 -293 -137v-735h-242v1253h-215v189h215v108h242v-108h424v-189h-424v-303q155 135 364 135z" />
    <glyph glyph-name="uni045C" unicode="&#x45c;" horiz-adv-x="1243" 
d="M520 1270l258 332l279 -21l-359 -311h-178zM1212 0h-333l-496 494v-494h-240v1114h240v-551l512 551h305l-545 -573z" />
    <glyph glyph-name="uni045D" unicode="&#x45d;" horiz-adv-x="1343" 
d="M793 1270h-179l-358 309l279 23zM1071 1124h127v-1124h-231v717l-693 -727h-131v1124h232v-719z" />
    <glyph glyph-name="uni045E" unicode="&#x45e;" horiz-adv-x="1202" 
d="M598 1270q-158 0 -252 80t-102 231h164q33 -139 190 -139q160 0 188 139h164q-8 -152 -101 -231.5t-251 -79.5zM930 1114h260l-465 -1137q-49 -121 -108.5 -199.5t-128 -113.5t-124 -46t-128.5 -11q-102 0 -177 24v209q102 -27 164 -26q178 0 262 170l-505 1130h274
l346 -846z" />
    <glyph glyph-name="uni045F" unicode="&#x45f;" horiz-adv-x="1314" 
d="M1171 1114v-1114h-405v-301h-217v301h-406v1114h242v-899h545v899h241z" />
    <glyph glyph-name="uni0462" unicode="&#x462;" horiz-adv-x="1644" 
d="M1085 868q270 0 396.5 -106.5t126.5 -317.5q0 -240 -143.5 -342t-417.5 -102h-629v1071h-383v217h383v160h248v-160h577v-217h-577v-203h419zM1036 213q160 0 237 52t77 173t-69 171t-214 50h-399v-446h368z" />
    <glyph glyph-name="uni0463" unicode="&#x463;" horiz-adv-x="1390" 
d="M907 737q217 0 328 -95t111 -269q0 -188 -112 -280.5t-345 -92.5h-553v899h-332v215h332v436h242v-436h448v-192h-448v-185h329zM868 195q227 0 228 182q0 82 -54.5 129t-156.5 47h-310v-358h293z" />
    <glyph glyph-name="uni0472" unicode="&#x472;" horiz-adv-x="1726" 
d="M862 1477q340 0 558 -207t218 -547q0 -330 -214 -540t-562 -210q-340 0 -557 206t-217 544q0 332 213 543t561 211zM862 1255q-207 0 -348 -121.5t-162 -328.5h1022q-18 203 -158.5 326.5t-353.5 123.5zM862 193q199 0 340 110.5t168 300.5h-1014q29 -184 166 -297.5
t340 -113.5z" />
    <glyph glyph-name="uni0473" unicode="&#x473;" horiz-adv-x="1382" 
d="M690 1143q274 0 442 -160t168 -422q0 -264 -167.5 -424t-442.5 -160q-272 0 -441 160t-169 424q0 262 169 422t441 160zM690 926q-135 0 -228 -74t-120 -199h698q-27 125 -121 199t-229 74zM690 193q135 0 228.5 73.5t121.5 200.5h-698q27 -127 120 -200.5t228 -73.5z
" />
    <glyph glyph-name="uni0474" unicode="&#x474;" horiz-adv-x="1501" 
d="M1372 1468q82 0 119 -4v-219q-27 2 -78 2q-70 0 -117 -39t-86 -139l-428 -1079h-151l-621 1458h283l307 -780l105 -289l96 287l188 528q55 158 147.5 216t235.5 58z" />
    <glyph glyph-name="uni0475" unicode="&#x475;" horiz-adv-x="1282" 
d="M1143 1120q61 0 117 -6v-219q-27 2 -78 2q-70 0 -119 -40t-92 -138l-314 -729h-143l-504 1124h273l196 -483l107 -281l100 281l78 203q68 178 153 232t226 54z" />
    <glyph glyph-name="uni0490" unicode="&#x490;" horiz-adv-x="1200" 
d="M934 1798h233v-579h-766v-1219h-254v1448h787v350z" />
    <glyph glyph-name="uni0491" unicode="&#x491;" horiz-adv-x="1032" 
d="M774 1417h219v-516h-608v-901h-242v1114h142v2h489v301z" />
    <glyph glyph-name="uni0492" unicode="&#x492;" horiz-adv-x="1239" 
d="M1206 1219h-766v-447h422v-215h-422v-557h-254v557h-149v215h149v676h1020v-229z" />
    <glyph glyph-name="uni0493" unicode="&#x493;" horiz-adv-x="1067" 
d="M1028 901h-608v-328h407v-206h-407v-367h-242v367h-145v206h145v541h141v2h709v-215z" />
    <glyph glyph-name="uni049A" unicode="&#x49a;" horiz-adv-x="1449" 
d="M1434 227v-567h-232v340h-129l-676 686v-686h-250v1448h250v-688l619 688h323l-653 -711l504 -510h244z" />
    <glyph glyph-name="uni049B" unicode="&#x49b;" horiz-adv-x="1269" 
d="M991 215h254v-516h-217v301h-149l-496 494v-494h-240v1114h240v-551l512 551h305l-545 -573z" />
    <glyph glyph-name="uni04A2" unicode="&#x4a2;" horiz-adv-x="1615" 
d="M1602 227v-567h-230v340h-258v553h-717v-553h-250v1448h250v-670h717v670h250v-1221h238z" />
    <glyph glyph-name="uni04A3" unicode="&#x4a3;" horiz-adv-x="1409" 
d="M1190 215h180v-516h-217v301h-205v414h-563v-414h-242v1114h242v-496h563v496h242v-899z" />
    <glyph glyph-name="uni04AE" unicode="&#x4ae;" horiz-adv-x="1331" 
d="M1333 1448l-540 -946v-502h-256v502l-539 946h295l375 -700l376 700h289z" />
    <glyph glyph-name="uni04AF" unicode="&#x4af;" horiz-adv-x="1234" 
d="M958 1114h267l-486 -1122v-352h-241v356l-488 1118h269l231 -563l113 -285l112 287z" />
    <glyph glyph-name="uni04B0" unicode="&#x4b0;" horiz-adv-x="1331" 
d="M1333 1448l-475 -832h279v-215h-344v-401h-256v401h-340v215h274l-473 832h295l375 -700l376 700h289z" />
    <glyph glyph-name="uni04B1" unicode="&#x4b1;" horiz-adv-x="1234" 
d="M1225 1114l-391 -905h213v-209h-304l-4 -8v-352h-241v356l-2 4h-308v209h218l-396 905h269l231 -563l113 -285l335 848h267z" />
    <glyph glyph-name="uni04BA" unicode="&#x4ba;" horiz-adv-x="1413" 
d="M758 1022q584 0 583 -535v-487h-249v469q0 186 -92.5 261t-262.5 75q-188 0 -340 -51v-754h-250v1448h250v-479q166 53 361 53z" />
    <glyph glyph-name="uni04BB" unicode="&#x4bb;" horiz-adv-x="1294" 
d="M137 0v1550h242v-549q156 135 364 136q213 0 323 -108.5t110 -366.5v-662h-244v612q0 174 -68.5 242t-191.5 68q-164 0 -293 -134v-788h-242z" />
    <glyph glyph-name="uni04D8" unicode="&#x4d8;" horiz-adv-x="1652" 
d="M797 1475q336 0 552 -206t216 -546q0 -330 -207 -540t-539 -210q-322 0 -525.5 192.5t-203.5 528.5q0 78 2 101h1211q-23 205 -159 327.5t-347 122.5q-258 0 -443 -241l-198 143q246 328 641 328zM817 195q180 0 309 103t166 286h-940q29 -182 152 -285.5t313 -103.5z
" />
    <glyph glyph-name="uni04D9" unicode="&#x4d9;" horiz-adv-x="1284" 
d="M55 559q0 49 2 70h899q-23 143 -117 223t-243 80q-219 0 -342 -154l-158 131q168 227 516 228q274 0 433 -159t159 -425q0 -262 -159.5 -422t-415.5 -160q-279 0 -426.5 161t-147.5 427zM629 174q125 0 213 70.5t112 201.5h-655q12 -121 95 -196.5t235 -75.5z" />
    <glyph glyph-name="uni04E8" unicode="&#x4e8;" horiz-adv-x="1726" 
d="M862 1477q340 0 558 -207t218 -547q0 -330 -214 -540t-562 -210q-340 0 -557 206t-217 544q0 332 213 543t561 211zM862 1255q-207 0 -348 -121.5t-162 -328.5h1022q-18 203 -158.5 326.5t-353.5 123.5zM862 193q199 0 340 110.5t168 300.5h-1014q29 -184 166 -297.5
t340 -113.5z" />
    <glyph glyph-name="uni04E9" unicode="&#x4e9;" horiz-adv-x="1382" 
d="M690 1143q274 0 442 -160t168 -422q0 -264 -167.5 -424t-442.5 -160q-272 0 -441 160t-169 424q0 262 169 422t441 160zM690 926q-135 0 -228 -74t-120 -199h698q-27 125 -121 199t-229 74zM690 193q135 0 228.5 73.5t121.5 200.5h-698q27 -127 120 -200.5t228 -73.5z
" />
    <glyph glyph-name="uni1E20" unicode="&#x1e20;" horiz-adv-x="1583" 
d="M494 1579v174h716v-174h-716zM805 774h706v-588q-219 -213 -614 -213q-373 0 -591 202t-218 548t213 550t563 204q367 0 592 -209l-158 -172q-172 152 -432 151q-233 0 -374.5 -142t-141.5 -382q0 -246 148.5 -385t406.5 -139q227 0 367 106v252h-467v217z" />
    <glyph glyph-name="Wgrave" unicode="&#x1e80;" horiz-adv-x="2172" 
d="M1188 1567h-178l-359 309l279 22zM1886 1448h275l-533 -1458h-131l-412 1007l-407 -1007h-129l-539 1458h279l342 -987l391 993h133l389 -997z" />
    <glyph glyph-name="wgrave" unicode="&#x1e81;" horiz-adv-x="1677" 
d="M961 1270h-179l-358 309l278 23zM1417 1114h250l-393 -1124h-139l-299 737l-295 -737h-133l-398 1124h256l226 -719l282 725h129l285 -731z" />
    <glyph glyph-name="Wacute" unicode="&#x1e82;" horiz-adv-x="2172" 
d="M983 1567l260 331l279 -22l-359 -309h-180zM1886 1448h275l-533 -1458h-131l-412 1007l-407 -1007h-129l-539 1458h279l342 -987l391 993h133l389 -997z" />
    <glyph glyph-name="wacute" unicode="&#x1e83;" horiz-adv-x="1677" 
d="M725 1270l258 332l279 -21l-359 -311h-178zM1417 1114h250l-393 -1124h-139l-299 737l-295 -737h-133l-398 1124h256l226 -719l282 725h129l285 -731z" />
    <glyph glyph-name="Wdieresis" unicode="&#x1e84;" horiz-adv-x="2172" 
d="M870 1552q-66 0 -111.5 45t-45.5 108.5t46 109t111 45.5q63 0 108.5 -45.5t45.5 -109t-45.5 -108.5t-108.5 -45zM1306.5 1552q-63.5 0 -109.5 45t-46 108.5t45 109t111 45.5q63 0 108 -45.5t45 -109t-45 -108.5t-108.5 -45zM1886 1448h275l-533 -1458h-131l-412 1007
l-407 -1007h-129l-539 1458h279l342 -987l391 993h133l389 -997z" />
    <glyph glyph-name="wdieresis" unicode="&#x1e85;" horiz-adv-x="1677" 
d="M625 1257q-66 0 -111 45.5t-45 109t45 108.5t111 45q63 0 108 -45t45 -108.5t-45 -109t-108 -45.5zM1063 1257q-66 0 -112 45.5t-46 109t46 108.5t112 45q63 0 108.5 -45t45.5 -108.5t-45.5 -109t-108.5 -45.5zM1417 1114h250l-393 -1124h-139l-299 737l-295 -737h-133
l-398 1124h256l226 -719l282 725h129l285 -731z" />
    <glyph glyph-name="uni1E9E" unicode="&#x1e9e;" horiz-adv-x="1519" 
d="M965 862q240 0 368.5 -123t128.5 -297q0 -229 -137 -349t-410 -120q-215 0 -358 50l55 225q133 -57 279 -58q311 0 311 248q0 242 -330 242q-104 0 -200 -41l-88 106l290 359l105 121h-582v-1225h-250v1448h1151v-133l-368 -453h35z" />
    <glyph glyph-name="Ygrave" unicode="&#x1ef2;" horiz-adv-x="1331" 
d="M768 1567h-178l-359 309l279 22zM1333 1448l-540 -946v-502h-256v502l-539 946h295l375 -700l376 700h289z" />
    <glyph glyph-name="ygrave" unicode="&#x1ef3;" horiz-adv-x="1202" 
d="M717 1270h-178l-359 309l279 23zM930 1114h260l-465 -1137q-49 -121 -108.5 -199.5t-128 -113.5t-124 -46t-128.5 -11q-102 0 -177 24v209q102 -27 164 -26q178 0 262 170l-505 1130h274l346 -846z" />
    <glyph glyph-name="uni2002" unicode="&#x2002;" horiz-adv-x="1087" 
 />
    <glyph glyph-name="uni2003" unicode="&#x2003;" horiz-adv-x="1847" 
 />
    <glyph glyph-name="uni2009" unicode="&#x2009;" horiz-adv-x="61" 
 />
    <glyph glyph-name="endash" unicode="&#x2013;" horiz-adv-x="1087" 
d="M92 580v198h903v-198h-903z" />
    <glyph glyph-name="emdash" unicode="&#x2014;" horiz-adv-x="1847" 
d="M92 580v198h1663v-198h-1663z" />
    <glyph glyph-name="quoteleft" unicode="&#x2018;" horiz-adv-x="460" 
d="M406 1370q-86 -2 -123 -51t-35 -150q57 -8 93 -48t36 -97q0 -68 -38 -107.5t-106 -39.5q-158 0 -157 210q0 389 330 390v-107z" />
    <glyph glyph-name="quoteright" unicode="&#x2019;" horiz-adv-x="446" 
d="M233 1477q158 0 158 -213q0 -387 -330 -387v106q86 2 122 50t36 151q-57 6 -93 47t-36 98q0 68 37.5 108t105.5 40z" />
    <glyph glyph-name="quotesinglbase" unicode="&#x201a;" horiz-adv-x="450" 
d="M221 285q158 0 158 -211q0 -389 -330 -389v106q86 2 122 50t34 151q-57 8 -92 48t-35 97q0 68 37.5 108t105.5 40z" />
    <glyph glyph-name="quotedblleft" unicode="&#x201c;" horiz-adv-x="862" 
d="M76 1087q0 389 330 390v-107q-86 -2 -123 -51t-35 -150q57 -8 93 -48t36 -97q0 -68 -38 -107.5t-106 -39.5q-157 -1 -157 210zM807 1370q-88 -2 -124 -50t-34 -151q57 -8 93 -48t36 -97q0 -68 -39 -107.5t-106 -39.5q-156 0 -156 210q0 389 330 390v-107z" />
    <glyph glyph-name="quotedblright" unicode="&#x201d;" horiz-adv-x="847" 
d="M233 1477q158 0 158 -213q0 -387 -330 -387v106q86 2 122 50t36 151q-57 6 -93 47t-36 98q0 68 37.5 108t105.5 40zM635 1477q158 0 158 -213q0 -387 -330 -387v106q86 2 122 50t33 151q-57 6 -91.5 47t-34.5 98q0 68 37.5 108t105.5 40z" />
    <glyph glyph-name="quotedblbase" unicode="&#x201e;" horiz-adv-x="851" 
d="M221 285q158 0 158 -211q0 -389 -330 -389v106q86 2 122 50t34 151q-57 8 -92 48t-35 97q0 68 37.5 108t105.5 40zM623 285q158 0 157 -211q0 -389 -331 -389v106q88 2 123.5 50t33.5 151q-57 8 -92 48t-35 97q0 68 38 108t106 40z" />
    <glyph glyph-name="dagger" unicode="&#x2020;" horiz-adv-x="718" 
d="M274 539l13 290l-2 246h-45l-215 -10v170l215 -10h43l-9 219h172l-10 -219h43l215 12v-172l-215 10h-45v-246l12 -290h-172z" />
    <glyph glyph-name="daggerdbl" unicode="&#x2021;" horiz-adv-x="718" 
d="M274 0l11 217h-43l-217 -12v170l215 -10h45v133l-11 225l11 225v127h-45l-215 -10v170l215 -10h43l-9 219h172l-10 -219h43l215 12v-172l-215 10h-45v-127l8 -225l-10 -225l2 -133h43l217 10v-168l-217 10h-43l10 -217h-170z" />
    <glyph glyph-name="bullet" unicode="&#x2022;" horiz-adv-x="763" 
d="M382.5 424q-106.5 0 -181 73.5t-74.5 180.5q0 104 74.5 179t181 75t180.5 -75t74 -179q0 -106 -74 -180t-180.5 -74z" />
    <glyph glyph-name="ellipsis" unicode="&#x2026;" horiz-adv-x="1447" 
d="M246 -27q-66 0 -113 45t-47 111q0 63 47 108.5t113 45.5q63 0 108 -45t45 -109q0 -66 -45 -111t-108 -45zM723 -27q-66 0 -113 45t-47 111q0 63 47 108.5t113 45.5q63 0 108.5 -45t45.5 -109q0 -66 -45.5 -111t-108.5 -45zM1206.5 -27q-65.5 0 -111.5 45t-46 111
q0 63 46 108.5t111.5 45.5t110.5 -45t45 -109q0 -66 -45 -111t-110.5 -45z" />
    <glyph glyph-name="perthousand" unicode="&#x2030;" horiz-adv-x="2867" 
d="M408 0l997 1448h201l-998 -1448h-200zM444.5 559q-184.5 0 -293 121t-108.5 330t108.5 330.5t293 121.5t293 -121.5t108.5 -330.5t-108.5 -330t-293 -121zM444.5 707q104.5 0 166 79.5t61.5 221.5q0 145 -60.5 225t-167.5 80q-104 0 -166.5 -81t-62.5 -224
q0 -141 62.5 -221t167 -80zM1552.5 -16q-184.5 0 -293 120.5t-108.5 329.5t108.5 331t293 122t293 -122t108.5 -331t-108.5 -329.5t-293 -120.5zM1552.5 131q104.5 0 166 80t61.5 221q0 145 -60.5 225t-167.5 80q-104 0 -166.5 -81t-62.5 -224q0 -141 62.5 -221t167 -80z
M2425 -16q-186 0 -294 119.5t-108 330.5t107.5 332t294.5 121q184 0 291.5 -121t107.5 -332q0 -209 -107.5 -329.5t-291.5 -120.5zM2425 131q104 0 164.5 80t60.5 221q0 143 -60.5 224t-164.5 81q-106 0 -168 -81t-62 -224q0 -141 62 -221t168 -80z" />
    <glyph glyph-name="guilsinglleft" unicode="&#x2039;" horiz-adv-x="661" 
d="M418 16l-361 531l361 530l162 -121l-293 -409l293 -410z" />
    <glyph glyph-name="guilsinglright" unicode="&#x203a;" horiz-adv-x="661" 
d="M246 16l-164 121l293 410l-293 409l164 121l358 -530z" />
    <glyph glyph-name="fraction" unicode="&#x2044;" horiz-adv-x="430" 
d="M-391 0l999 1448h199l-997 -1448h-201z" />
    <glyph glyph-name="uni2070" unicode="&#x2070;" horiz-adv-x="901" 
d="M450.5 559q-184.5 0 -293 121t-108.5 330t108.5 330.5t293 121.5t292 -120.5t107.5 -331.5q0 -209 -107.5 -330t-292 -121zM450.5 707q104.5 0 166 79.5t61.5 221.5q0 145 -60.5 225t-166.5 80q-104 0 -167 -81t-63 -224q0 -141 62.5 -221t167 -80z" />
    <glyph glyph-name="uni2074" unicode="&#x2074;" horiz-adv-x="819" 
d="M659 872h138v-141h-138v-156h-161v156h-471v88l514 633h118v-580zM229 862h281v357z" />
    <glyph glyph-name="uni2075" unicode="&#x2075;" horiz-adv-x="774" 
d="M420 1161q139 0 228 -82t89 -223q0 -150 -96 -223.5t-250 -73.5q-156 0 -251 75t-95 197v15h158v-6q0 -59 52 -97t132 -38t130 41.5t50 119.5q0 82 -49 124t-131 42q-111 0 -168 -59h-141l28 475h582v-148h-438l-14 -182q69 43 184 43z" />
    <glyph glyph-name="uni2076" unicode="&#x2076;" horiz-adv-x="839" 
d="M485 1147q139 0 225.5 -70.5t86.5 -210.5q0 -145 -94.5 -226t-253.5 -81q-188 0 -288 113.5t-100 322.5q0 231 99.5 350t281.5 119q143 0 235.5 -67.5t92.5 -165.5v-14h-168q-10 106 -158 106q-104 0 -160.5 -74.5t-56.5 -201.5v-11q84 111 258 111zM446 700
q86 0 132.5 46.5t46.5 118t-51.5 113.5t-131.5 42q-63 0 -118.5 -34t-83.5 -97q10 -84 65 -136.5t141 -52.5z" />
    <glyph glyph-name="uni2077" unicode="&#x2077;" horiz-adv-x="712" 
d="M31 1448h655v-82l-405 -791h-193l383 723h-440v150z" />
    <glyph glyph-name="uni2078" unicode="&#x2078;" horiz-adv-x="849" 
d="M629 1038q72 -23 117 -82t45 -133q0 -129 -98.5 -196.5t-266.5 -67.5q-172 0 -270.5 67.5t-98.5 196.5q0 74 46.5 133.5t119.5 81.5q-123 55 -123 193q0 115 89.5 174t236.5 59q145 0 234.5 -59t89.5 -174q0 -63 -33 -114.5t-88 -78.5zM426 1327q-74 0 -120 -31.5
t-46 -89.5q0 -49 45 -81.5t121 -32.5q74 0 118 31.5t44 82.5q0 57 -44 89t-118 32zM426 702q88 0 140 35t52 99q0 66 -52 102.5t-140 36.5t-141.5 -38t-53.5 -101q0 -66 52.5 -100t142.5 -34z" />
    <glyph glyph-name="uni2079" unicode="&#x2079;" horiz-adv-x="817" 
d="M389 1464q186 0 283.5 -113.5t97.5 -322.5q0 -231 -101.5 -350t-277.5 -119q-154 0 -243 66.5t-89 165.5v18h166q10 -109 164 -109q102 0 157.5 75t55.5 200v8q-88 -106 -254 -106q-141 0 -226 70.5t-85 207.5q0 147 95 228t257 81zM393 1004q76 0 128 36.5t71 92.5
q-8 86 -62.5 138t-140.5 52q-88 0 -135 -45t-47 -119t52 -114.5t134 -40.5z" />
    <glyph glyph-name="uni2080" unicode="&#x2080;" horiz-adv-x="901" 
d="M450.5 -219q-184.5 0 -293 121t-108.5 329.5t108.5 330.5t293 122t292 -121t107.5 -332q0 -209 -107.5 -329.5t-292 -120.5zM450.5 -72q104.5 0 166 80t61.5 221q0 145 -60.5 225.5t-166.5 80.5q-104 0 -167 -81t-63 -225q0 -141 62.5 -221t167 -80z" />
    <glyph glyph-name="uni2081" unicode="&#x2081;" horiz-adv-x="524" 
d="M246 -203v701l-183 -66l-51 131l291 107h105v-873h-162z" />
    <glyph glyph-name="uni2082" unicode="&#x2082;" horiz-adv-x="761" 
d="M221 -55h490v-148h-666v64q2 102 58.5 167.5t205.5 159.5q88 53 125 80t65.5 66t28.5 84q0 55 -43 86t-108 31q-78 0 -125 -42t-47 -116v-27h-162v35q0 139 90 218t248 79q141 0 233.5 -65.5t92.5 -184.5q0 -113 -61.5 -179.5t-213.5 -158.5q-20 -12 -57 -33.5t-53.5 -32
t-40 -26.5t-37 -29.5t-23.5 -27.5z" />
    <glyph glyph-name="uni2083" unicode="&#x2083;" horiz-adv-x="768" 
d="M432 346q137 0 214 -79t77 -195q0 -139 -93 -213t-249 -74q-158 0 -251 72.5t-93 197.5v15h162v-9q0 -59 48 -95t130 -36q80 0 127 40t47 110t-47 108.5t-129 38.5q-59 0 -121 -24l-64 78l254 243h-364v146h612v-82z" />
    <glyph glyph-name="uni2084" unicode="&#x2084;" horiz-adv-x="819" 
d="M659 94h138v-141h-138v-156h-161v156h-471v88l514 633h118v-580zM229 84h281v356z" />
    <glyph glyph-name="uni2085" unicode="&#x2085;" horiz-adv-x="774" 
d="M420 383q139 0 228 -82t89 -223q0 -150 -96 -223.5t-250 -73.5q-156 0 -251 74.5t-95 197.5v15h158v-7q0 -59 52 -97t132 -38t130 42t50 120q0 82 -49 124t-131 42q-111 0 -168 -59h-141l28 475h582v-148h-438l-14 -182q69 43 184 43z" />
    <glyph glyph-name="uni2086" unicode="&#x2086;" horiz-adv-x="839" 
d="M485 369q139 0 225.5 -71t86.5 -210q0 -145 -94.5 -226t-253.5 -81q-188 0 -288 113.5t-100 322.5q0 231 99.5 350t281.5 119q143 0 235.5 -67.5t92.5 -165.5v-15h-168q-10 106 -158 107q-104 0 -160.5 -75t-56.5 -202v-10q84 111 258 111zM446 -78q86 0 132.5 46
t46.5 118t-51.5 114t-131.5 42q-63 0 -118.5 -34t-83.5 -97q10 -84 65 -136.5t141 -52.5z" />
    <glyph glyph-name="uni2087" unicode="&#x2087;" horiz-adv-x="712" 
d="M31 670h655v-82l-405 -791h-193l383 723h-440v150z" />
    <glyph glyph-name="uni2088" unicode="&#x2088;" horiz-adv-x="849" 
d="M629 260q72 -23 117 -82t45 -133q0 -129 -98.5 -196.5t-266.5 -67.5q-172 0 -270.5 67.5t-98.5 196.5q0 74 46.5 133.5t119.5 81.5q-123 55 -123 193q0 115 89.5 174t236.5 59q145 0 234.5 -59.5t89.5 -173.5q0 -63 -33 -114.5t-88 -78.5zM426 549q-74 0 -120 -32
t-46 -89q0 -49 45 -82t121 -33q74 0 118 32t44 83q0 57 -44 89t-118 32zM426 -76q88 0 140 35t52 98q0 66 -52 103t-140 37t-141.5 -38t-53.5 -102q0 -66 52.5 -99.5t142.5 -33.5z" />
    <glyph glyph-name="uni2089" unicode="&#x2089;" horiz-adv-x="817" 
d="M389 686q186 0 283.5 -113.5t97.5 -322.5q0 -231 -101.5 -350t-277.5 -119q-154 0 -243 66.5t-89 164.5v19h166q10 -109 164 -109q102 0 157.5 75t55.5 200v8q-88 -106 -254 -107q-141 0 -226 71t-85 208q0 147 95 228t257 81zM393 225q76 0 128 37t71 92
q-8 86 -62.5 138.5t-140.5 52.5q-88 0 -135 -45t-47 -119t52 -115t134 -41z" />
    <glyph glyph-name="lira" unicode="&#x20a4;" horiz-adv-x="1329" 
d="M565 217h701v-217h-1166v164l219 39q2 70 -28 250h-193v147h168q-12 88 -14 141h-154v148h148q4 299 140 439t374 140q225 0 364.5 -128t139.5 -353v-41h-224v37q0 123 -75.5 191.5t-184.5 68.5q-283 0 -288 -354h522v-148h-516l18 -141h498v-147h-475q26 -156 26 -236z
" />
    <glyph glyph-name="Euro" unicode="&#x20ac;" horiz-adv-x="1433" 
d="M874 199q213 0 349 190l186 -141q-188 -274 -537 -275q-260 0 -433 141.5t-226 391.5h-147v147h127q-2 23 -3 70q0 49 3 72h-127v147h147q53 250 227 391.5t430 141.5q172 0 311.5 -74t227.5 -203l-186 -149q-135 201 -351 200q-152 0 -257 -79.5t-150 -227.5h496v-147
h-523q-2 -23 -2 -72q0 -47 2 -70h523v-147h-496q45 -147 151 -227t258 -80z" />
    <glyph glyph-name="uni20B4" unicode="&#x20b4;" horiz-adv-x="1263" 
d="M965 795q-88 -55 -209 -101q-20 -8 -62.5 -22.5t-50.5 -18.5h586v-147h-842q-61 -45 -61 -127q0 -100 78.5 -148.5t201.5 -48.5q266 0 453 144l119 -207q-125 -78 -258.5 -112t-317.5 -34q-231 0 -371.5 99.5t-140.5 283.5q0 82 31 150h-86v147h241q77 49 185 92
q61 29 125 50h-551v147h809q80 51 80 139q0 90 -73 137.5t-204 47.5q-227 0 -414 -117l-102 194q209 131 518 132q229 0 367.5 -103.5t138.5 -277.5q0 -82 -39 -152h113v-147h-264z" />
    <glyph glyph-name="uni20B8" unicode="&#x20b8;" horiz-adv-x="1263" 
d="M55 1300v148h1155v-148h-1155zM508 0v940h-453v219h1155v-219h-452v-940h-250z" />
    <glyph glyph-name="uni20BD" unicode="&#x20bd;" horiz-adv-x="1316" 
d="M696 506h-192v-144h461v-153h-461v-209h-250v209h-174v153h174v144h-174v176h174v766h479q264 0 401.5 -119t137.5 -348q-1 -475 -576 -475zM504 1229v-547h178q330 0 330 276q0 270 -299 271h-209z" />
    <glyph glyph-name="uni2117" unicode="&#x2117;" horiz-adv-x="1595" 
d="M796.5 -16q-321.5 0 -531.5 211t-210 534.5t211 534.5t535 211q319 0 527 -211t208 -534.5t-209 -534.5t-530.5 -211zM797 115q260 0 429 174t169 440q0 262 -169 437t-425 175q-262 0 -433 -175t-171 -439q0 -262 170 -437t430 -175zM500 317v838h358q158 0 241 -78
t83 -223q0 -297 -346 -297h-156v-240h-180zM680 707h137q82 0 124 39.5t42 105.5q0 150 -160 149h-143v-294z" />
    <glyph glyph-name="trademark" unicode="&#x2122;" horiz-adv-x="1400" 
d="M14 1335v115h557v-115h-211v-528h-131v528h-215zM1262 1450h88v-643h-129v377l-179 -281h-71l-178 281v-377h-129v643h90l252 -406z" />
    <glyph glyph-name="uni2126" unicode="&#x2126;" horiz-adv-x="1703" 
d="M1612 784q0 -184 -88 -329.5t-215 -229.5h290v-225h-661v168q412 242 412 594q0 221 -141.5 350t-356.5 129t-355.5 -129t-140.5 -350q0 -352 412 -594v-168h-657v225h286q-129 84 -217 229.5t-88 329.5q0 328 215 509.5t545 181.5t545 -181.5t215 -509.5z" />
    <glyph glyph-name="partialdiff" unicode="&#x2202;" horiz-adv-x="1345" 
d="M592 1473q317 0 495.5 -194t178.5 -572q0 -360 -162 -547t-463 -187q-248 0 -404.5 133.5t-156.5 366.5q0 240 142.5 357.5t355.5 117.5q303 0 442 -178q-2 231 -125 358t-324 127q-180 0 -313 -77l-102 192q170 103 436 103zM643 184q160 0 254 99.5t100 244.5
q-35 88 -131 157t-241 69q-129 0 -212 -71t-83 -208q0 -129 81.5 -210t231.5 -81z" />
    <glyph glyph-name="uni2206" unicode="&#x2206;" horiz-adv-x="1462" 
d="M807 1458l620 -1335v-123h-1392v123l614 1335h158zM727 1108l-381 -885h762z" />
    <glyph glyph-name="product" unicode="&#x220f;" horiz-adv-x="1495" 
d="M147 -330v1778h1201v-1778h-250v1553h-701v-1553h-250z" />
    <glyph glyph-name="summation" unicode="&#x2211;" horiz-adv-x="1286" 
d="M389 -102h850v-228h-1194v129l500 768l-482 752v129h1166v-227h-823l395 -623v-78z" />
    <glyph glyph-name="minus" unicode="&#x2212;" horiz-adv-x="1052" 
d="M82 575v203h887v-203h-887z" />
    <glyph glyph-name="radical" unicode="&#x221a;" horiz-adv-x="1361" 
d="M1251 1880h217l-553 -1888h-157l-455 1265h-303v191h508l338 -1018z" />
    <glyph glyph-name="infinity" unicode="&#x221e;" horiz-adv-x="1697" 
d="M440 279q-164 0 -266 108.5t-102 290.5q0 193 102 296t266 103q219 0 398 -239q178 240 395 239q164 0 267.5 -103.5t103.5 -295.5q0 -182 -103.5 -290.5t-267.5 -108.5q-219 0 -395 239q-177 -239 -398 -239zM459 473q156 0 272 205q-119 207 -272 207q-80 0 -129 -51.5
t-49 -155.5q0 -102 49 -153.5t129 -51.5zM1217 473q78 0 128 51t50 154q0 104 -49.5 155.5t-128.5 51.5q-154 0 -273 -207q117 -205 273 -205z" />
    <glyph glyph-name="integral" unicode="&#x222b;" horiz-adv-x="763" 
d="M166 -387q-104 0 -154 16v199q43 -12 84 -12q96 0 124 52t28 181v1278q0 184 90 279.5t258 95.5q129 0 221 -37v-188q-82 25 -160 24q-90 0 -130 -46t-40 -157v-1368q0 -166 -87 -241.5t-234 -75.5z" />
    <glyph glyph-name="approxequal" unicode="&#x2248;" horiz-adv-x="1277" 
d="M891 739q-76 0 -215 56q-147 57 -238 57q-135 0 -260 -90l-67 178q45 39 131 78t176 39q102 0 241 -58q141 -55 209 -55q121 0 230 105l69 -189q-129 -121 -276 -121zM891 272q-76 0 -217 56q-147 59 -236 59q-127 0 -260 -90l-67 176q147 117 307 117q100 0 239 -58
q135 -55 211 -55q121 0 230 105l69 -187q-122 -123 -276 -123z" />
    <glyph glyph-name="notequal" unicode="&#x2260;" horiz-adv-x="1204" 
d="M1092 827h-301l-203 -295h504v-202h-643l-156 -228h-180l155 228h-157v202h297l200 295h-497v203h637l151 221h182l-151 -221h162v-203z" />
    <glyph glyph-name="lessequal" unicode="&#x2264;" horiz-adv-x="1204" 
d="M1118 1372v-225l-686 -311l686 -310v-225l-1003 469v133zM111 -2v203h1007v-203h-1007z" />
    <glyph glyph-name="greaterequal" unicode="&#x2265;" horiz-adv-x="1204" 
d="M1090 903v-133l-1004 -469v225l686 310l-686 311v225zM86 201h1008v-203h-1008v203z" />
    <glyph glyph-name="lozenge" unicode="&#x25ca;" horiz-adv-x="997" 
d="M438 -8l-368 729l368 733h121l369 -733l-369 -729h-121zM500 289l196 436l-196 428l-199 -428z" />
    <glyph glyph-name="NULL" 
 />
    <glyph glyph-name="uni00A40301" horiz-adv-x="1253" 
d="M823 1567l260 331l279 -22l-358 -309h-181zM586 -27q-248 0 -397.5 141.5t-157.5 403.5h248q8 -166 92 -240.5t215 -74.5q289 0 288 375v870h254v-870q0 -315 -134 -460t-408 -145z" />
    <glyph glyph-name="uni1E9E.calt" horiz-adv-x="1519" 
d="M965 862q240 0 368.5 -123t128.5 -297q0 -229 -137 -349t-410 -120q-215 0 -358 50l55 225q133 -57 279 -58q311 0 311 248q0 242 -330 242q-104 0 -200 -41l-88 106l290 359l105 121h-582v-1225h-250v1448h1151v-133l-368 -453h35z" />
    <glyph glyph-name="IJ.dutch" horiz-adv-x="1351" 
d="M129 639v809h254v-809h-254zM684 -27q-254 0 -400.5 125t-154.5 383h250q6 -162 87 -220t218 -58q289 0 289 375v870h254v-870q0 -315 -133.5 -460t-409.5 -145z" />
    <glyph glyph-name="K.ss04" horiz-adv-x="1425" 
d="M1413 0h-340l-676 686v-686h-250v1448h250v-688l619 688h323l-653 -711z" />
    <glyph glyph-name="uni0136.ss04" horiz-adv-x="1425" 
d="M686 737l727 -737h-340l-676 686v-686h-250v1448h250v-688l619 688h323zM713 -96q66 0 105.5 -41t39.5 -109q0 -102 -66.5 -185t-218.5 -83q-25 0 -36 2v90q10 -2 30 -2q47 0 80 26.5t43 73.5q-49 8 -78.5 38t-29.5 73q0 53 35 85t96 32z" />
    <glyph glyph-name="i.loclTRK" horiz-adv-x="532" 
d="M268.5 1257q-65.5 0 -111.5 45.5t-46 110.5q0 63 46 108.5t111.5 45.5t110.5 -45t45 -109q0 -66 -45 -111t-110.5 -45zM143 0v1114h246v-1114h-246z" />
    <glyph glyph-name="uni006A0301" horiz-adv-x="548" 
d="M172 1270l258 332l279 -21l-359 -311h-178zM78 -387q-104 0 -154 16v199q43 -12 84 -12q98 0 126 52t28 181v1065h244v-1190q0 -162 -89 -236.5t-239 -74.5z" />
    <glyph glyph-name="k.ss04" horiz-adv-x="1243" 
d="M1212 0h-333l-496 494v-494h-240v1550h240v-987l512 551h305l-545 -573z" />
    <glyph glyph-name="uni0137.ss04" horiz-adv-x="1243" 
d="M655 541l557 -541h-333l-496 494v-494h-240v1550h240v-987l512 551h305zM651 -96q66 0 106 -41t40 -109q0 -102 -66.5 -185t-218.5 -83q-25 0 -37 2v90q10 -2 31 -2q47 0 79.5 26.5t43.5 73.5q-49 8 -79 38t-30 73q0 53 35 85t96 32z" />
    <glyph glyph-name="kgreenlandic.ss04" horiz-adv-x="1243" 
d="M1212 0h-333l-496 492v-492h-240v1114h240v-551l512 551h305l-547 -573z" />
    <glyph glyph-name="uni0414.loclBGR" horiz-adv-x="1701" 
d="M1466 227h172v-567h-229v340h-1126v-340h-232v567h154l553 1231h155zM471 227h725l-231 549l-134 336l-131 -334z" />
    <glyph glyph-name="uni041B.loclBGR" horiz-adv-x="1486" 
d="M1473 0h-283l-453 1071l-446 -1071h-277l650 1458h159z" />
    <glyph glyph-name="uni0457.calt1" horiz-adv-x="532" 
d="M65.5 1257q-65.5 0 -110.5 45.5t-45 109t45 108.5t110.5 45t109.5 -45t44 -108.5t-44 -109t-109.5 -45.5zM143 0v1114h246v-1114h-246z" />
    <glyph glyph-name="uni0457.calt2" horiz-adv-x="532" 
d="M2 1257q-66 0 -112 45.5t-46 109t46.5 108.5t111.5 45q63 0 108.5 -45t45.5 -108.5t-45.5 -109t-108.5 -45.5zM477 1257q-66 0 -112 45.5t-46 109t46.5 108.5t111.5 45q63 0 107.5 -45t44.5 -108.5t-44.5 -109t-107.5 -45.5zM143 0v1114h246v-1114h-246z" />
    <glyph glyph-name="uni0432.loclBGR" horiz-adv-x="1314" 
d="M977 844q123 -43 189.5 -150.5t66.5 -247.5q0 -231 -157.5 -351t-391.5 -120q-285 0 -438.5 154t-153.5 434v383q0 315 151.5 473t405.5 158q221 0 367.5 -109.5t146.5 -293.5q0 -111 -48 -199t-138 -131zM653 1370q-315 0 -317 -442h282q47 0 78 2t79 14t77 33.5
t50.5 64.5t21.5 103q0 106 -79 165.5t-192 59.5zM682 188q131 0 215 68t84 203q0 123 -82 196.5t-248 73.5h-315v-141q0 -190 89 -295t257 -105z" />
    <glyph glyph-name="uni0433.loclBGR" horiz-adv-x="1093" 
d="M528 -27q-461 0 -460 316q0 143 95 217t316 145q143 47 200.5 84t57.5 94q0 106 -182 107q-172 0 -346 -102l-100 186q207 117 456 117q201 0 315.5 -77t114.5 -239q0 -135 -93 -204.5t-314 -141.5q-141 -45 -198.5 -83t-57.5 -101q0 -53 55 -85t162 -32q207 0 356 127
l117 -184q-185 -144 -494 -144z" />
    <glyph glyph-name="uni0434.loclBGR" horiz-adv-x="1343" 
d="M643 -393q-272 0 -459 82v229q209 -104 424 -104q180 0 274.5 66.5t94.5 221.5v78q-119 -139 -352 -139q-246 0 -395.5 152.5t-149.5 400.5q0 242 148.5 393.5t385.5 151.5q229 0 359 -131v106h241v-952q0 -276 -134 -415.5t-437 -139.5zM672 254q92 0 175 42t130 124
v344q-49 76 -135 119t-178 43q-145 0 -238.5 -92.5t-93.5 -239.5q0 -152 93 -246t247 -94z" />
    <glyph glyph-name="uni0436.loclBGR" horiz-adv-x="1869" 
d="M1853 0h-319l-479 494v-494h-240v498l-493 -498h-306l529 530l-514 584h307l477 -547v983h240v-987l487 551h297l-518 -573z" />
    <glyph glyph-name="uni0437.loclBGR" horiz-adv-x="1130" 
d="M827 426q129 -39 194.5 -138.5t65.5 -234.5q0 -223 -152.5 -334.5t-424.5 -111.5t-461 100v240q207 -121 447 -121q166 0 253 62.5t87 177.5q0 246 -387 245h-179v197h158q76 0 130 7t110.5 26.5t86 63.5t29.5 110q0 215 -262 215q-182 0 -362 -111l-97 193
q223 129 469 129q227 0 362.5 -101.5t135.5 -291.5q0 -111 -53.5 -196t-149.5 -126z" />
    <glyph glyph-name="uni0438.loclBGR" horiz-adv-x="1294" 
d="M551 -23q-428 0 -428 476v661h242v-612q0 -309 253 -309q164 0 291 145v776h242v-1114h-233v125q-144 -148 -367 -148z" />
    <glyph glyph-name="uni0439.loclBGR" horiz-adv-x="1294" 
d="M643 1270q-158 0 -252 80t-102 231h164q33 -139 190 -139q160 0 188 139h164q-8 -152 -101 -231.5t-251 -79.5zM551 -23q-428 0 -428 476v661h242v-612q0 -309 253 -309q164 0 291 145v776h242v-1114h-233v125q-144 -148 -367 -148z" />
    <glyph glyph-name="uni045D.loclBGR" horiz-adv-x="1294" 
d="M762 1270h-178l-359 309l279 23zM551 -23q-428 0 -428 476v661h242v-612q0 -309 253 -309q164 0 291 145v776h242v-1114h-233v125q-144 -148 -367 -148z" />
    <glyph glyph-name="uni043A.loclBGR" horiz-adv-x="1243" 
d="M1212 0h-333l-496 492v-492h-240v1550h240v-987l512 551h305l-547 -573z" />
    <glyph glyph-name="uni043B.loclBGR" horiz-adv-x="1265" 
d="M702 1124l537 -1124h-274l-220 494l-116 282l-117 -284l-217 -492h-266l534 1124h139z" />
    <glyph glyph-name="uni043F.loclBGR" horiz-adv-x="1298" 
d="M143 0v1114h236v-113q160 135 369 136q213 0 322.5 -108.5t109.5 -366.5v-662h-242v612q0 174 -68.5 242t-191.5 68q-164 0 -293 -134v-788h-242z" />
    <glyph glyph-name="uni0442.loclBGR" horiz-adv-x="2015" 
d="M1479 1139q201 0 309 -112t108 -376v-651h-241v608q0 176 -67.5 246t-184.5 70q-158 0 -277 -119q10 -76 11 -152v-653h-240v629q0 160 -58.5 227.5t-168.5 67.5q-158 0 -285 -133v-791h-242v1114h236v-113q162 137 373 138q229 0 315 -148q172 148 412 148z" />
    <glyph glyph-name="uni0446.loclBGR" horiz-adv-x="1370" 
d="M1274 215h59v-516h-219v301q-59 0 -112.5 38t-77.5 101q-143 -162 -379 -162q-428 0 -428 476v661h241v-612q0 -309 252 -309q168 0 291 145v776h242v-760q0 -82 26.5 -110.5t104.5 -28.5z" />
    <glyph glyph-name="uni0448.loclBGR" horiz-adv-x="2009" 
d="M1622 1114h242v-1114h-232v125q-137 -147 -358 -148q-240 0 -338 175q-63 -74 -175 -124.5t-237 -50.5q-201 0 -301 114t-100 362v661h242v-612q0 -309 229 -309q178 0 287 153q-6 49 -7 107v661h240v-612q0 -309 229 -309q90 0 163 43t116 104v774z" />
    <glyph glyph-name="uni0449.loclBGR" horiz-adv-x="2091" 
d="M1993 215h61v-516h-219v301q-59 0 -112.5 38t-77.5 101q-143 -162 -371 -162q-240 0 -338 175q-63 -74 -175 -124.5t-237 -50.5q-201 0 -301 114t-100 362v661h242v-612q0 -309 229 -309q178 0 287 153q-6 49 -7 107v661h240v-612q0 -309 229 -309q90 0 163 43t116 104
v774h242v-760q0 -82 26.5 -110.5t102.5 -28.5z" />
    <glyph glyph-name="uni044C.loclBGR" horiz-adv-x="1202" 
d="M694 913q199 0 326 -127t127 -342q0 -219 -139.5 -345t-368.5 -126q-244 0 -380 132.5t-136 386.5v622h242v-326q132 125 329 125zM639 188q119 0 187.5 68t68.5 188q0 123 -64.5 192t-181.5 69q-176 0 -284 -142v-41q0 -334 274 -334z" />
    <glyph glyph-name="uni044A.loclBGR" horiz-adv-x="1431" 
d="M924 913q201 0 327.5 -127t126.5 -342q0 -219 -140 -345t-370 -126q-244 0 -379 132.5t-135 386.5v407h-313v215h555v-323q135 122 328 122zM868 188q119 0 188.5 68t69.5 188q0 123 -65.5 192t-179.5 69q-176 0 -285 -138v-45q0 -334 272 -334z" />
    <glyph glyph-name="uni044E.loclBGR" horiz-adv-x="1902" 
d="M1219 1139q272 0 440 -160t168 -420q0 -264 -168 -423t-440 -159q-231 0 -390 118t-202 321h-248v-416h-242v1550h242v-934h235q20 238 185.5 380.5t419.5 142.5zM1219 195q158 0 256 100t98 264q0 162 -98.5 261.5t-255.5 99.5q-156 0 -255.5 -100.5t-99.5 -260.5
q0 -164 99.5 -264t255.5 -100z" />
    <glyph glyph-name="uni0431.loclSRB" horiz-adv-x="1380" 
d="M827 1065q471 -156 471 -547q0 -244 -166.5 -393.5t-439.5 -149.5q-270 0 -441 153t-171 396q0 193 94 317t268 165q-211 92 -211 280q0 127 88.5 195.5t262.5 68.5h163q238 0 443 41l12 -213q-166 -33 -409 -32h-168q-139 0 -140 -84q0 -45 69.5 -88t274.5 -109z
M694 195q158 0 255.5 93t97.5 236q0 225 -334 348h-15q-160 0 -263 -87t-103 -246q0 -152 101 -248t261 -96z" />
    <glyph glyph-name="Kappa.ss04" horiz-adv-x="1425" 
d="M1413 0h-340l-676 686v-686h-250v1448h250v-688l619 688h323l-653 -711z" />
    <glyph glyph-name="kappa.ss04" horiz-adv-x="1243" 
d="M1212 0h-333l-496 494v-494h-240v1114h240v-551l512 551h305l-545 -573z" />
    <glyph glyph-name="zero.dnom" horiz-adv-x="901" 
d="M450.5 -16q-184.5 0 -293 120.5t-108.5 329.5t108.5 331t293 122t292 -121t107.5 -332q0 -209 -107.5 -329.5t-292 -120.5zM450.5 131q104.5 0 166 80t61.5 221q0 145 -60.5 225t-166.5 80q-104 0 -167 -81t-63 -224q0 -141 62.5 -221t167 -80z" />
    <glyph glyph-name="one.dnom" horiz-adv-x="524" 
d="M246 0v700l-183 -65l-51 131l291 106h105v-872h-162z" />
    <glyph glyph-name="two.dnom" horiz-adv-x="761" 
d="M221 147h490v-147h-666v63q2 102 58.5 168t205.5 160q88 53 125 80t65.5 65.5t28.5 84.5q0 55 -43 85.5t-108 30.5q-78 0 -125 -42t-47 -115v-27h-162v35q0 139 90 218t248 79q141 0 233.5 -65.5t92.5 -184.5q0 -113 -61.5 -179.5t-213.5 -158.5q-20 -12 -57 -33.5
t-53.5 -32t-40 -27t-37 -30t-23.5 -27.5z" />
    <glyph glyph-name="three.dnom" horiz-adv-x="768" 
d="M432 549q137 0 214 -79t77 -196q0 -139 -93 -212.5t-249 -73.5q-158 0 -251 72.5t-93 197.5v14h162v-8q0 -59 48 -95t130 -36q80 0 127 40t47 109.5t-47 108.5t-129 39q-59 0 -121 -24l-64 77l254 244h-364v145h612v-81z" />
    <glyph glyph-name="four.dnom" horiz-adv-x="819" 
d="M659 297h138v-141h-138v-156h-161v156h-471v88l514 633h118v-580zM229 287h281v356z" />
    <glyph glyph-name="five.dnom" horiz-adv-x="774" 
d="M420 586q139 0 228 -82t89 -223q0 -150 -96 -223.5t-250 -73.5q-156 0 -251 74.5t-95 197.5v14h158v-6q0 -59 52 -97t132 -38t130 42t50 120q0 82 -49 124t-131 42q-111 0 -168 -60h-141l28 475h582v-147h-438l-14 -182q69 43 184 43z" />
    <glyph glyph-name="six.dnom" horiz-adv-x="839" 
d="M485 571q139 0 225.5 -70.5t86.5 -209.5q0 -145 -94.5 -226t-253.5 -81q-188 0 -288 113.5t-100 322.5q0 231 99.5 350t281.5 119q143 0 235.5 -67.5t92.5 -166.5v-14h-168q-10 106 -158 107q-104 0 -160.5 -75t-56.5 -202v-10q84 110 258 110zM446 125q86 0 132.5 46
t46.5 117.5t-51.5 113.5t-131.5 42q-63 0 -118.5 -33.5t-83.5 -97.5q10 -84 65 -136t141 -52z" />
    <glyph glyph-name="seven.dnom" horiz-adv-x="712" 
d="M31 872h655v-81l-405 -791h-193l383 723h-440v149z" />
    <glyph glyph-name="eight.dnom" horiz-adv-x="849" 
d="M629 463q72 -23 117 -82t45 -133q0 -129 -98.5 -196.5t-266.5 -67.5q-172 0 -270.5 67.5t-98.5 196.5q0 74 46.5 133t119.5 82q-123 55 -123 192q0 115 89.5 174.5t236.5 59.5q145 0 234.5 -59.5t89.5 -174.5q0 -131 -121 -192zM426 752q-74 0 -120 -32t-46 -89
q0 -49 45 -82t121 -33q74 0 118 32t44 83q0 57 -44 89t-118 32zM426 127q88 0 140 35t52 98q0 66 -52 102.5t-140 36.5t-141.5 -37.5t-53.5 -101.5q0 -66 52.5 -99.5t142.5 -33.5z" />
    <glyph glyph-name="nine.dnom" horiz-adv-x="817" 
d="M389 889q186 0 283.5 -113.5t97.5 -322.5q0 -231 -101.5 -350t-277.5 -119q-154 0 -243 66.5t-89 164.5v18h166q10 -109 164 -108q102 0 157.5 74.5t55.5 199.5v9q-88 -106 -254 -107q-141 0 -226 70.5t-85 208.5q0 147 95 228t257 81zM393 428q76 0 128 37t71 92
q-8 86 -62.5 138.5t-140.5 52.5q-88 0 -135 -45.5t-47 -119t52 -114.5t134 -41z" />
    <glyph glyph-name="zero.numr" horiz-adv-x="901" 
d="M450.5 559q-184.5 0 -293 121t-108.5 330t108.5 330.5t293 121.5t292 -120.5t107.5 -331.5q0 -209 -107.5 -330t-292 -121zM450.5 707q104.5 0 166 79.5t61.5 221.5q0 145 -60.5 225t-166.5 80q-104 0 -167 -81t-63 -224q0 -141 62.5 -221t167 -80z" />
    <glyph glyph-name="one.numr" horiz-adv-x="524" 
d="M246 575v701l-183 -66l-51 131l291 107h105v-873h-162z" />
    <glyph glyph-name="two.numr" horiz-adv-x="761" 
d="M221 723h490v-148h-666v64q2 102 58.5 167.5t205.5 160.5q88 53 125 79.5t65.5 65.5t28.5 84q0 55 -43 86t-108 31q-78 0 -125 -42t-47 -116v-27h-162v35q0 139 90 218t248 79q141 0 233.5 -65.5t92.5 -184.5q0 -113 -61.5 -179t-213.5 -159q-20 -12 -57 -33.5
t-53.5 -31.5t-40 -26.5t-37 -30t-23.5 -27.5z" />
    <glyph glyph-name="three.numr" horiz-adv-x="768" 
d="M432 1124q137 0 214 -78.5t77 -195.5q0 -139 -93 -213t-249 -74q-158 0 -251 73t-93 198v14h162v-8q0 -59 48 -95t130 -36q80 0 127 39.5t47 109.5t-47 109t-129 39q-59 0 -121 -25l-64 78l254 244h-364v145h612v-82z" />
    <glyph glyph-name="four.numr" horiz-adv-x="819" 
d="M659 872h138v-141h-138v-156h-161v156h-471v88l514 633h118v-580zM229 862h281v357z" />
    <glyph glyph-name="five.numr" horiz-adv-x="774" 
d="M420 1161q139 0 228 -82t89 -223q0 -150 -96 -223.5t-250 -73.5q-156 0 -251 75t-95 197v15h158v-6q0 -59 52 -97t132 -38t130 41.5t50 119.5q0 82 -49 124t-131 42q-111 0 -168 -59h-141l28 475h582v-148h-438l-14 -182q69 43 184 43z" />
    <glyph glyph-name="six.numr" horiz-adv-x="839" 
d="M485 1147q139 0 225.5 -70.5t86.5 -210.5q0 -145 -94.5 -226t-253.5 -81q-188 0 -288 113.5t-100 322.5q0 231 99.5 350t281.5 119q143 0 235.5 -67.5t92.5 -165.5v-14h-168q-10 106 -158 106q-104 0 -160.5 -74.5t-56.5 -201.5v-11q84 111 258 111zM446 700
q86 0 132.5 46.5t46.5 118t-51.5 113.5t-131.5 42q-63 0 -118.5 -34t-83.5 -97q10 -84 65 -136.5t141 -52.5z" />
    <glyph glyph-name="seven.numr" horiz-adv-x="712" 
d="M31 1448h655v-82l-405 -791h-193l383 723h-440v150z" />
    <glyph glyph-name="eight.numr" horiz-adv-x="849" 
d="M629 1038q72 -23 117 -82t45 -133q0 -129 -98.5 -196.5t-266.5 -67.5q-172 0 -270.5 67.5t-98.5 196.5q0 74 46.5 133.5t119.5 81.5q-123 55 -123 193q0 115 89.5 174t236.5 59q145 0 234.5 -59t89.5 -174q0 -63 -33 -114.5t-88 -78.5zM426 1327q-74 0 -120 -31.5
t-46 -89.5q0 -49 45 -81.5t121 -32.5q74 0 118 31.5t44 82.5q0 57 -44 89t-118 32zM426 702q88 0 140 35t52 99q0 66 -52 102.5t-140 36.5t-141.5 -38t-53.5 -101q0 -66 52.5 -100t142.5 -34z" />
    <glyph glyph-name="nine.numr" horiz-adv-x="817" 
d="M389 1464q186 0 283.5 -113.5t97.5 -322.5q0 -231 -101.5 -350t-277.5 -119q-154 0 -243 66.5t-89 165.5v18h166q10 -109 164 -109q102 0 157.5 75t55.5 200v8q-88 -106 -254 -106q-141 0 -226 70.5t-85 207.5q0 147 95 228t257 81zM393 1004q76 0 128 36.5t71 92.5
q-8 86 -62.5 138t-140.5 52q-88 0 -135 -45t-47 -119t52 -114.5t134 -40.5z" />
    <glyph glyph-name="periodcentered.loclCAT.case" horiz-adv-x="475" 
d="M137 594q-66 0 -113 46t-47 109.5t47.5 108.5t112.5 45q63 0 108.5 -45t45.5 -108.5t-45.5 -109.5t-108.5 -46z" />
    <glyph glyph-name="periodcentered.loclCAT" horiz-adv-x="286" 
d="M150 528q-66 0 -112 46.5t-46 110t46 109.5t112 46q63 0 109 -45t46 -111t-46 -111t-109 -45z" />
    <glyph glyph-name="uni0308.case" 
d="M-817 1552q-66 0 -112 45t-46 108.5t46 109t112 45.5q63 0 108 -45.5t45 -109t-45 -108.5t-108 -45zM-380.5 1552q-63.5 0 -110 45t-46.5 108.5t45.5 109t110.5 45.5q63 0 108.5 -45.5t45.5 -109t-45 -108.5t-108.5 -45z" />
    <glyph glyph-name="uni0307.case" 
d="M-602.5 1565q-65.5 0 -111.5 46t-46 109.5t46 108.5t111.5 45t111 -45t45.5 -109q0 -66 -45.5 -110.5t-111 -44.5z" />
    <glyph glyph-name="gravecomb.case" 
d="M-500 1567h-178l-358 309l278 22z" />
    <glyph glyph-name="acutecomb.case" 
d="M-705 1567l261 331l278 -22l-358 -309h-181z" />
    <glyph glyph-name="uni030B.case" 
d="M-877 1567l181 344l213 -72l-238 -272h-156zM-535 1567l181 344l229 -76l-260 -268h-150z" />
    <glyph glyph-name="uni0302.case" 
d="M-973 1567l291 317h168l293 -317h-193l-184 149l-184 -149h-191z" />
    <glyph glyph-name="uni030C.case" 
d="M-973 1884h191l184 -147l184 147h193l-293 -317h-168z" />
    <glyph glyph-name="uni0306.case" 
d="M-602 1567q-158 0 -252 79.5t-100 231.5h161q33 -141 191 -141q160 0 188 141h164q-8 -154 -100 -232.5t-252 -78.5z" />
    <glyph glyph-name="uni030A.case" 
d="M-602 1401q-100 0 -168 65.5t-68 164t68 164t168 65.5q102 0 168.5 -64.5t66.5 -165t-66.5 -165t-168.5 -64.5zM-602 1511q51 0 84 34t33 89q0 51 -33 84t-84 33t-84 -34t-33 -87q0 -51 33 -85t84 -34z" />
    <glyph glyph-name="tildecomb.case" 
d="M-907 1554l-115 27q20 131 80.5 200.5t153.5 69.5q82 0 201.5 -63.5t162.5 -63.5q86 0 133 119l115 -26q-23 -131 -82 -201t-150 -70q-74 0 -195.5 64.5t-160.5 64.5q-92 0 -143 -121z" />
    <glyph glyph-name="uni0304.case" 
d="M-961 1579v174h717v-174h-717z" />
    <glyph glyph-name="dieresis.short" horiz-adv-x="1232" 
d="M428 1257q-66 0 -111 45.5t-45 109t45 108.5t111 45q63 0 108.5 -45t45.5 -108.5t-45.5 -109t-108.5 -45.5zM838 1257q-66 0 -112 45.5t-46 109t46 108.5t112 45q63 0 108 -45t45 -108.5t-45 -109t-108 -45.5z" />
    <glyph glyph-name="tonos.case" horiz-adv-x="847" 
d="M268 1081l189 392l264 -21l-275 -371h-178z" />
    <glyph glyph-name="brevecombcy" 
d="M-600 1270q-158 0 -252 80t-102 231h163q33 -139 191 -139q160 0 188 139h164q-8 -152 -101 -231.5t-251 -79.5z" />
    <glyph glyph-name="brevecombcy.case" 
d="M-602 1567q-158 0 -252 79.5t-100 231.5h161q33 -141 191 -141q160 0 188 141h164q-8 -154 -100 -232.5t-252 -78.5z" />
    <glyph glyph-name="KB" horiz-adv-x="1892" 
d="M969 -2q-193 0 -328 74.5t-192 193.5l43 19q145 -193 409 -193q109 0 179.5 51.5t70.5 155.5q0 88 -89 176t-241 146q-29 -104 -39 -152q86 -14 146 -35l-10 -74h-508l-2 70q100 70 200 102l150 783l-133 39l-4 61q96 59 239 60l144 -72l-130 -397l-135 -388l21 -4
q72 268 185.5 384t266.5 116q115 0 182.5 -49t67.5 -152q0 -123 -100 -200.5t-299 -77.5q-76 0 -141 8v-18q104 -12 176.5 -27.5t163 -49.5t138.5 -93.5t48 -141.5q0 -137 -127 -226t-352 -89zM840 676q184 6 269 83t85 171q0 43 -22.5 72.5t-61.5 29.5q-53 0 -130 -87
t-140 -269z" />
    </font>
</defs>
</svg>
