<?xml version="1.0" standalone="no"?>
<!DOCTYPE svg PUBLIC "-//W3C//DTD SVG 1.1//EN" "http://www.w3.org/Graphics/SVG/1.1/DTD/svg11.dtd" >
<svg xmlns="http://www.w3.org/2000/svg" xmlns:xlink="http://www.w3.org/1999/xlink" version="1.1">
<metadata>
Created by FontForge 20201107 at Sun Nov 17 10:31:45 2024
 By 
Copyright (c) 2014 by Intelligent Design - Kostas Bartsokas. All rights reserved.
</metadata>
<defs>
<font id="ZonaPro-Thin" horiz-adv-x="1298" >
  <font-face 
    font-family="Zona Pro Thin"
    font-weight="275"
    font-stretch="normal"
    units-per-em="2048"
    panose-1="2 1 3 3 4 0 2 2 0 4"
    ascent="1690"
    descent="-358"
    x-height="1104"
    cap-height="1444"
    bbox="-463 -545 2519 2015"
    underline-thickness="40"
    underline-position="-271"
    unicode-range="U+0020-FB04"
  />
<missing-glyph horiz-adv-x="1024" 
 />
    <glyph glyph-name="f_igrave" unicode="f&#xec;" horiz-adv-x="1153" 
d="M899 1208l-307 281q-120 0 -191 -69t-71 -193v-123h641v-1104h-74v1036h-567v-1095q0 -152 -86.5 -236t-218.5 -84q-7 0 -88 6v68q20 -2 75 -2q109 0 176.5 67.5t67.5 196.5v1079h-211v68h211v129q0 167 106 246q99 71 256 71l359 -342h-78z" />
    <glyph glyph-name="f_f" unicode="ff" horiz-adv-x="1484" 
d="M1481 1528v-68q-73 21 -181 21q-137 0 -191 -68t-54 -221v-88h403v-68h-403v-1063q0 -154 -88.5 -235.5t-225.5 -81.5q-29 0 -79 4v70q40 -4 73 -4q110 0 178 67.5t68 196.5v1046h-651v-1095q0 -154 -89 -237t-223 -83l-81 6v68q40 -4 75 -4q109 0 176.5 68.5t67.5 197.5
v1079h-211v68h211v67q0 330 315 330q104 0 185 -22v-68q-85 23 -187 23q-124 0 -181.5 -66t-57.5 -201v-63h651v92q0 88 17 152.5t44.5 102.5t70 61t85 30.5t98.5 7.5q104 0 185 -22z" />
    <glyph glyph-name="f_i" unicode="fi" horiz-adv-x="1153" 
d="M756 1528v-68q-74 21 -181 21q-137 0 -191 -76t-54 -229v-72h641v-1104h-74v1036h-567v-1095q0 -152 -86.5 -236t-218.5 -84q-7 0 -88 6v68q20 -2 75 -2q109 0 176.5 67.5t67.5 196.5v1079h-211v68h211v80q0 94 21.5 163.5t53 107t78 59.5t85 28t86.5 6q102 0 176 -20z
M934 1456q26 0 43.5 -16.5t17.5 -42.5t-17.5 -43t-43.5 -17t-44 17t-18 43t17.5 42.5t44.5 16.5z" />
    <glyph glyph-name="f_l" unicode="fl" horiz-adv-x="1208" 
d="M651 1552q100 0 175 -30.5t118 -83.5t63.5 -116t20.5 -136v-1186h-74v1176q0 155 -83 231t-220 76q-163 0 -242 -94.5t-79 -284.5h403v-68h-403v-1095q0 -150 -86.5 -234t-214.5 -84q-34 0 -92 4v68q40 -4 75 -4q109 0 176.5 68.5t67.5 197.5v1079h-211v68h211
q0 448 395 448z" />
    <glyph glyph-name="f_f_i" unicode="ffi" horiz-adv-x="1880" 
d="M1626 0v1036h-571v-1061q0 -153 -86 -236t-219 -83q-34 0 -88 4v70q40 -4 73 -4q110 0 178 67.5t68 196.5v1046h-651v-1095q0 -152 -86.5 -236t-218.5 -84q-7 0 -88 6v68q20 -2 75 -2q109 0 176.5 67.5t67.5 196.5v1079h-211v68h211v63q0 94 25 161.5t70 104t99 52.5
t121 16q104 0 185 -22v-68q-85 23 -187 23q-125 0 -182 -67t-57 -204v-59h651v76q0 92 17.5 159.5t45 107t70 63.5t85 32t97.5 8q104 0 185 -22v-68q-73 21 -181 21q-139 0 -192 -75.5t-53 -234.5v-67h645v-1104h-74zM1663 1456q26 0 43.5 -16.5t17.5 -42.5t-17.5 -43
t-43.5 -17t-43.5 17t-17.5 43t17.5 42.5t43.5 16.5z" />
    <glyph glyph-name="f_f_l" unicode="ffl" horiz-adv-x="1933" 
d="M1753 1186v-1186h-74v1176q0 155 -83 231t-220 76q-163 0 -242 -94.5t-79 -284.5h403v-68h-403v-1063q0 -152 -86 -234.5t-219 -82.5q-34 0 -88 4v70q40 -4 73 -4q110 0 178 67.5t68 196.5v1046h-651v-1095q0 -152 -86.5 -236t-218.5 -84q-7 0 -88 6v68q40 -4 75 -4
q109 0 176.5 68.5t67.5 197.5v1079h-211v68h211v80q0 152 86.5 235.5t218.5 83.5q106 0 195 -24v-68q-85 23 -187 23q-105 0 -172 -66t-67 -186v-78h651q0 448 395 448q100 0 175 -30.5t118 -83.5t63.5 -116t20.5 -136z" />
    <glyph glyph-name=".notdef" horiz-adv-x="1024" 
 />
    <glyph glyph-name=".null" horiz-adv-x="0" 
 />
    <glyph glyph-name="nonmarkingreturn" horiz-adv-x="682" 
 />
    <glyph glyph-name="space" unicode=" " horiz-adv-x="659" 
 />
    <glyph glyph-name="exclam" unicode="!" horiz-adv-x="376" 
d="M211 362h-43l-16 1080h75zM188 111q26 0 44 -17t18 -43t-17.5 -42.5t-44.5 -16.5q-26 0 -43.5 16.5t-17.5 42.5t17.5 43t43.5 17z" />
    <glyph glyph-name="quotedbl" unicode="&#x22;" horiz-adv-x="540" 
d="M346 922l31 512h86l-76 -512h-41zM74 922l30 512h86l-75 -512h-41z" />
    <glyph glyph-name="numbersign" unicode="#" horiz-adv-x="1370" 
d="M942 1038l59 348h64l-61 -348h307v-63h-316l-86 -486h334v-63h-344l-70 -410h-63l70 410h-435l-69 -410h-64l72 410h-279v63h289l84 486h-305v63h315l62 348h61l-59 -348h434zM848 489l82 486h-432l-84 -486h434z" />
    <glyph glyph-name="dollar" unicode="$" horiz-adv-x="1290" 
d="M676 1380v-622q66 -16 115 -29.5t104.5 -33.5t94.5 -41t77 -50t61.5 -62t37.5 -76.5t14 -94.5q0 -178 -137 -280t-367 -105v-131h-60v131q-146 2 -244 27t-255 104l30 63q149 -72 240.5 -96t228.5 -27v639q-91 23 -155 43.5t-131.5 53.5t-108.5 70.5t-67.5 92.5
t-26.5 123q0 166 133 271.5t356 105.5v84h60v-86q117 -6 237.5 -35t204.5 -73l-35 -66q-73 40 -186 67t-221 33zM205 1081q0 -51 22 -94t56.5 -73t90.5 -57t111 -45t131 -38v610q-189 -1 -300 -85.5t-111 -217.5zM1102 369q0 46 -14.5 84.5t-45 68.5t-66 53t-88 43t-99.5 34
t-113 30v-625q195 3 310.5 85.5t115.5 226.5z" />
    <glyph glyph-name="percent" unicode="%" horiz-adv-x="1841" 
d="M813 1057q0 -181 -102 -288t-256 -107q-153 0 -255 107t-102 288q0 182 102 288.5t255 106.5q154 0 256 -106.5t102 -288.5zM158 1057q0 -153 85 -243.5t212 -90.5q128 0 212.5 90.5t84.5 243.5q0 154 -84.5 244t-212.5 90q-127 0 -212 -90t-85 -244zM1386 780
q153 0 255 -105.5t102 -287.5q0 -181 -102 -288t-255 -107q-154 0 -256 107t-102 288q0 182 101.5 287.5t256.5 105.5zM1386 53q127 0 212 90.5t85 243.5q0 154 -85 244t-212 90q-129 0 -214 -90t-85 -244q0 -153 85.5 -243.5t213.5 -90.5zM1384 1436h68l-989 -1436h-68z
" />
    <glyph glyph-name="ampersand" unicode="&#x26;" horiz-adv-x="1384" 
d="M1260 614l57 -28q-135 -220 -266 -355l196 -188l-47 -47l-196 188q-206 -190 -408 -190q-124 0 -220.5 29.5t-153 79.5t-85 111.5t-28.5 131.5q0 125 78 219.5t257 163.5q-106 106 -154 191t-48 192q0 133 97 232.5t247 99.5q164 0 263 -95t99 -227q0 -286 -385 -417
l441 -426q19 19 38 39.5t37.5 43t33 40.5t32 42.5t28 38.5t27.5 39.5t22 33.5t21 32t17 26zM586 1378q-121 0 -198 -81.5t-77 -186.5q0 -52 13 -97t43.5 -90t60.5 -80t84 -89q108 37 182.5 80t113.5 90t55 92t16 98q0 110 -75 187t-218 77zM596 63q182 0 360 168l-462 447
q-308 -118 -308 -330q0 -55 23.5 -104.5t71 -90.5t128.5 -65.5t187 -24.5z" />
    <glyph glyph-name="quotesingle" unicode="'" horiz-adv-x="352" 
d="M119 922l33 512h84l-74 -512h-43z" />
    <glyph glyph-name="parenleft" unicode="(" horiz-adv-x="776" 
d="M195 625q0 -258 136.5 -460.5t385.5 -334.5l-27 -55q-270 139 -421.5 356t-151.5 494t151.5 494t421.5 356l27 -56q-249 -130 -385.5 -332.5t-136.5 -461.5z" />
    <glyph glyph-name="parenright" unicode=")" horiz-adv-x="776" 
d="M584 625q0 258 -138 460.5t-387 333.5l29 56q270 -139 420.5 -356t150.5 -494t-150.5 -494t-420.5 -356l-29 55q249 132 387 334.5t138 460.5z" />
    <glyph glyph-name="asterisk" unicode="*" horiz-adv-x="833" 
d="M739 926l-32 -56l-269 170l13 -317h-62l12 317l-268 -170l-29 56l281 145l-283 148l31 55l268 -172l-12 319h62l-13 -319l269 172l30 -55l-280 -148z" />
    <glyph glyph-name="plus" unicode="+" horiz-adv-x="1310" 
d="M1163 791v-62h-475v-475h-61v475h-475v62h475v475h61v-475h475z" />
    <glyph glyph-name="comma" unicode="," horiz-adv-x="307" 
d="M143 113q29 0 46.5 -21t17.5 -61q0 -68 -19.5 -123.5t-50.5 -89t-65.5 -52t-69.5 -20.5l-14 39q57 9 106 65t49 144q-23 0 -40 17t-17 42q0 24 18 42t39 18z" />
    <glyph glyph-name="hyphen" unicode="-" horiz-adv-x="835" 
d="M735 711v-64h-635v64h635z" />
    <glyph glyph-name="period" unicode="." horiz-adv-x="284" 
d="M139 111q26 0 44 -17t18 -43t-17.5 -42.5t-44.5 -16.5q-26 0 -43.5 16.5t-17.5 42.5t17.5 43t43.5 17z" />
    <glyph glyph-name="slash" unicode="/" horiz-adv-x="874" 
d="M-53 -262l907 1896h72l-908 -1896h-71z" />
    <glyph glyph-name="zero" unicode="0" horiz-adv-x="1495" 
d="M750 1450q135 0 253 -50t206.5 -141t140 -230t51.5 -308t-51.5 -308t-140 -230t-206.5 -141t-253 -50q-134 0 -252 50t-207.5 141t-141 230.5t-51.5 307.5t51.5 307.5t141 230.5t207.5 141t252 50zM750 1376q-118 0 -222.5 -45t-183.5 -127t-124.5 -207t-45.5 -276
t45.5 -276t124.5 -207t183.5 -127t222.5 -45q119 0 223.5 45t183 127t123.5 207t45 276t-45 276t-123.5 207t-183 127t-223.5 45z" />
    <glyph glyph-name="one" unicode="1" horiz-adv-x="776" 
d="M455 1444h59v-1444h-76v1370l-348 -78l-14 68z" />
    <glyph glyph-name="two" unicode="2" horiz-adv-x="1277" 
d="M240 72h925v-72h-1059v43q52 57 127.5 110t152 91.5t162 81.5t162 81.5t147 91t121.5 109.5t81.5 136.5t30.5 173.5q0 127 -63 233.5t-168 166.5t-226 60q-122 0 -226 -58t-167.5 -164t-63.5 -236v-31h-72v33q0 112 43 211t114.5 168.5t168.5 110t203 40.5
q140 0 261.5 -69.5t194 -192.5t72.5 -270q0 -125 -47 -227.5t-119.5 -169t-174.5 -129t-197 -105.5t-204 -102t-179 -115z" />
    <glyph glyph-name="three" unicode="3" horiz-adv-x="1253" 
d="M1133 1401l-443 -543q213 -4 346 -124t133 -290q0 -212 -153.5 -333t-411.5 -121q-155 0 -261 19t-222 71l29 65q108 -49 208.5 -66.5t245.5 -17.5q225 0 358.5 102.5t133.5 280.5q0 54 -17.5 105t-55 97t-91.5 80t-132.5 54.5t-172.5 20.5h-35l-14 33l438 538h-869v72
h986v-43z" />
    <glyph glyph-name="four" unicode="4" horiz-adv-x="1323" 
d="M999 479h238v-71h-238v-408h-75v408h-820l-18 45l858 991h55v-965zM199 479h725v836z" />
    <glyph glyph-name="five" unicode="5" horiz-adv-x="1257" 
d="M670 926q235 0 370.5 -134t135.5 -348q0 -212 -154 -333t-412 -121q-156 0 -265 17t-226 63l26 65q108 -43 212.5 -58.5t252.5 -15.5q225 0 358.5 102.5t133.5 282.5q0 185 -117 297.5t-323 112.5q-94 0 -219.5 -26.5t-217.5 -59.5l-41 27v647h924v-72h-852v-522
q74 28 193 52t221 24z" />
    <glyph glyph-name="six" unicode="6" horiz-adv-x="1361" 
d="M715 928q111 0 209.5 -30t174.5 -86t120.5 -144t44.5 -197q0 -107 -45.5 -197.5t-123.5 -151.5t-184 -95.5t-225 -34.5q-114 0 -217 48t-179 132t-120.5 204t-44.5 257q0 175 32 314.5t87 232.5t132.5 155.5t164 89.5t186.5 27q139 0 245 -38t210 -109l-37 -62
q-98 65 -194.5 101t-221.5 36q-87 0 -163.5 -25t-144 -81t-116 -140t-76.5 -207.5t-28 -277.5q0 -16 2 -26q25 99 109 170.5t188 103t215 31.5zM705 860q-125 0 -232.5 -43.5t-176.5 -132.5t-69 -205q0 -70 37.5 -144.5t99 -135t147.5 -99.5t175 -39q139 0 253.5 51
t182.5 145.5t68 213.5q0 121 -67 211t-175.5 134t-242.5 44z" />
    <glyph glyph-name="seven" unicode="7" horiz-adv-x="1171" 
d="M104 1444h998v-45l-723 -1399h-84l711 1372h-902v72z" />
    <glyph glyph-name="eight" unicode="8" horiz-adv-x="1302" 
d="M657 1452q134 0 238 -36t169.5 -116.5t65.5 -197.5q0 -119 -73 -202.5t-189 -108.5q153 -32 249.5 -134t96.5 -251q0 -133 -76.5 -228.5t-200.5 -140.5t-280 -45q-157 0 -281.5 45t-201 140.5t-76.5 228.5q0 149 96.5 251t249.5 134q-114 26 -188 109.5t-74 201.5
q0 117 65.5 197.5t170 116.5t239.5 36zM657 1384q-176 0 -289.5 -72.5t-113.5 -211.5q0 -134 109 -208.5t294 -74.5q183 0 292.5 74.5t109.5 208.5q0 139 -113.5 211.5t-288.5 72.5zM657 61q136 0 243.5 37.5t174 117t66.5 190.5q0 163 -133 254.5t-351 91.5
q-219 0 -352 -91.5t-133 -254.5q0 -111 66.5 -190.5t174.5 -117t244 -37.5z" />
    <glyph glyph-name="nine" unicode="9" horiz-adv-x="1357" 
d="M670 516q-112 0 -210.5 30t-174.5 86t-120 144t-44 197q0 113 44 204.5t120 151t177 91.5t218 32q116 0 216.5 -43t176 -123t119 -202.5t43.5 -272.5q0 -176 -29.5 -314.5t-82 -232.5t-128 -155.5t-163.5 -89t-193 -27.5q-139 0 -245 38t-212 109l39 62
q96 -65 193.5 -101.5t222.5 -36.5q92 0 170.5 25.5t144.5 81.5t112.5 140.5t72.5 208t26 278.5q0 4 -1 12t-1 12q-21 -96 -97.5 -166.5t-179 -104.5t-214.5 -34zM680 584q89 0 171.5 26t146.5 73.5t102.5 120.5t38.5 161q0 106 -64 202.5t-171 155.5t-224 59
q-136 0 -244.5 -46.5t-174.5 -141t-66 -221.5q0 -121 67 -211t175.5 -134t242.5 -44z" />
    <glyph glyph-name="colon" unicode=":" horiz-adv-x="387" 
d="M184 1098q26 0 44 -17t18 -43t-17.5 -42.5t-44.5 -16.5q-26 0 -43.5 16.5t-17.5 42.5t17.5 43t43.5 17zM184 111q26 0 44 -17t18 -43t-17.5 -42.5t-44.5 -16.5q-26 0 -43.5 16.5t-17.5 42.5t17.5 43t43.5 17z" />
    <glyph glyph-name="semicolon" unicode=";" horiz-adv-x="380" 
d="M184 113q62 0 62 -82q0 -128 -60.5 -204t-142.5 -81l-14 39q57 9 106 66t49 143q-25 0 -42 17t-17 42q0 24 18.5 42t40.5 18zM184 1098q26 0 44 -17t18 -43t-17.5 -42.5t-44.5 -16.5q-26 0 -43.5 16.5t-17.5 42.5t17.5 43t43.5 17z" />
    <glyph glyph-name="less" unicode="&#x3c;" horiz-adv-x="1243" 
d="M1094 1217v-72l-883 -432l883 -428v-72l-979 479v43z" />
    <glyph glyph-name="equal" unicode="=" horiz-adv-x="1269" 
d="M150 360v64h966v-64h-966zM150 1020h966v-64h-966v64z" />
    <glyph glyph-name="greater" unicode="&#x3e;" horiz-adv-x="1245" 
d="M168 213v72l881 428l-881 432v72l979 -482v-43z" />
    <glyph glyph-name="question" unicode="?" horiz-adv-x="1105" 
d="M473 1452q241 0 387 -120t146 -331q0 -99 -45 -176t-119 -122t-159 -67.5t-175 -23.5l-8 -268h-56l-8 307l15 21h22q117 0 208.5 27.5t146 74t82.5 102.5t28 117q0 183 -127 287t-336 104q-139 0 -231 -19.5t-199 -76.5l-29 60q112 62 210.5 83t246.5 21zM471 111
q26 0 43.5 -17t17.5 -43t-17.5 -42.5t-43.5 -16.5t-43.5 16.5t-17.5 42.5t17.5 43t43.5 17z" />
    <glyph glyph-name="at" unicode="@" horiz-adv-x="1976" 
d="M995 1483q183 0 349.5 -70.5t286.5 -190.5t191.5 -285.5t71.5 -348.5q0 -132 -57.5 -243.5t-158 -176t-220.5 -64.5q-239 0 -239 203q0 40 4 60q-67 -106 -169 -169t-214 -63q-169 0 -279 121.5t-110 300.5q0 141 66 264t176 194.5t235 71.5q126 0 222.5 -71t135.5 -187
l33 215l72 -10q-24 -149 -65.5 -419.5t-41.5 -284.5q0 -172 182 -172q111 0 199 62t133 159t45 209q0 172 -67.5 328t-181 268.5t-270.5 179t-329 66.5q-231 0 -426 -113.5t-308.5 -308t-113.5 -424.5q0 -173 67 -330t180.5 -270.5t270.5 -180.5t330 -67q158 0 300 52.5
t253 150.5l37 -37q-120 -104 -272 -161.5t-318 -57.5q-183 0 -350 71.5t-287.5 192t-192 287.5t-71.5 350t71.5 349.5t192 286.5t287.5 191.5t350 71.5zM1255 682q0 141 -93.5 238.5t-229.5 97.5q-106 0 -200.5 -61t-152 -167t-57.5 -229q0 -150 92 -253t230 -103
q106 0 200.5 64.5t152 175t58.5 237.5z" />
    <glyph glyph-name="A" unicode="A" horiz-adv-x="1458" 
d="M1327 0l-186 418h-826l-184 -418h-82l651 1444h58l649 -1444h-80zM727 1352l-383 -869h770z" />
    <glyph glyph-name="B" unicode="B" horiz-adv-x="1423" 
d="M1036 1157q0 -67 -26.5 -132t-81.5 -103q92 -9 167 -51.5t123.5 -107t74.5 -143.5t26 -163q0 -91 -28.5 -173t-82 -145.5t-137.5 -101t-188 -37.5h-688v1444h514q137 0 232 -82.5t95 -204.5zM270 1372v-444h500q51 0 90 21.5t60.5 55.5t32 71t10.5 73q0 97 -76.5 160
t-188.5 63h-428zM270 72h594q119 0 206 55t128 142t41 192q0 77 -24 148t-69.5 127.5t-118.5 90t-163 33.5h-594v-788z" />
    <glyph glyph-name="C" unicode="C" horiz-adv-x="1572" 
d="M874 68q158 0 296.5 66t232.5 181l59 -51q-106 -127 -259.5 -199.5t-328.5 -72.5q-153 0 -293 58t-241 155.5t-161 232.5t-60 283t60 283t161 233t241 156.5t293 58.5q175 0 328 -73.5t260 -200.5l-59 -52q-95 115 -233 182.5t-296 67.5q-183 0 -338.5 -87.5t-246 -238.5
t-90.5 -329t90.5 -328.5t245.5 -237.5t339 -87z" />
    <glyph glyph-name="D" unicode="D" horiz-adv-x="1484" 
d="M1366 721q0 -188 -90.5 -349.5t-246.5 -260.5t-343 -111h-491v1444h444q197 0 364.5 -97t265 -263.5t97.5 -362.5zM270 72h410q124 11 236 66t193.5 140.5t130 201t48.5 241.5q0 177 -87 327t-236.5 237t-325.5 87h-369v-1300z" />
    <glyph glyph-name="E" unicode="E" 
d="M270 72h918v-72h-993v1444h950v-72h-875v-637h748v-69h-748v-594z" />
    <glyph glyph-name="F" unicode="F" horiz-adv-x="1265" 
d="M1161 1372h-891v-737h779v-70h-779v-565h-75v1444h966v-72z" />
    <glyph glyph-name="G" unicode="G" horiz-adv-x="1640" 
d="M842 670h659v-467q-121 -99 -282.5 -155t-339.5 -56q-154 0 -294.5 58t-242.5 155.5t-162.5 232.5t-60.5 283t60.5 283t162.5 232.5t242.5 155.5t294.5 58q174 0 318.5 -54.5t250.5 -152.5l-51 -55q-202 186 -518 186q-138 0 -264.5 -52t-218 -139.5t-145.5 -208
t-54 -253.5t54 -254.5t145.5 -209t218 -139.5t264.5 -52q315 0 546 176v358h-583v70z" />
    <glyph glyph-name="H" unicode="H" horiz-adv-x="1486" 
d="M1217 1444h75v-1444h-75v604h-947v-604h-75v1444h75v-768h947v768z" />
    <glyph glyph-name="I" unicode="I" horiz-adv-x="468" 
d="M272 1444v-1444h-75v1444h75z" />
    <glyph glyph-name="J" unicode="J" horiz-adv-x="1243" 
d="M995 1444h76v-854q0 -180 -54 -312t-170 -209t-286 -77q-185 0 -324.5 119t-168.5 299l69 8q31 -152 149 -251t275 -99q214 0 324 139.5t110 374.5v862z" />
    <glyph glyph-name="K" unicode="K" horiz-adv-x="1400" 
d="M637 748l663 -748h-104l-612 690l-314 -336v-354h-75v1444h75v-981l914 981h98z" />
    <glyph glyph-name="L" unicode="L" horiz-adv-x="1210" 
d="M270 70h850v-70h-925v1444h75v-1374z" />
    <glyph glyph-name="M" unicode="M" horiz-adv-x="1789" 
d="M1544 1444h49v-1444h-75v1268l-623 -1024l-625 1024v-1268h-75v1444h51l649 -1061z" />
    <glyph glyph-name="N" unicode="N" horiz-adv-x="1572" 
d="M1303 1444h75v-1444h-49l-1059 1298v-1298h-75v1444h51l1057 -1299v1299z" />
    <glyph glyph-name="O" unicode="O" horiz-adv-x="1757" 
d="M879 1450q206 0 380.5 -98t275.5 -266t101 -365t-101 -365t-275.5 -266t-380.5 -98q-155 0 -295.5 58t-242.5 155.5t-162 232.5t-60 283t60 283t162 232.5t242.5 155.5t295.5 58zM879 68q139 0 265 52t217 139.5t144.5 208t53.5 253.5t-53.5 254t-144.5 209t-217 140
t-265 52q-138 0 -264.5 -52t-217.5 -140t-145.5 -209t-54.5 -254t54 -253.5t145.5 -208t218 -139.5t264.5 -52z" />
    <glyph glyph-name="P" unicode="P" horiz-adv-x="1339" 
d="M195 1444h550q109 0 195.5 -25t143 -68t94 -102.5t53.5 -125t16 -140.5q0 -127 -40.5 -221.5t-115 -151.5t-174 -84.5t-223.5 -27.5h-424v-498h-75v1444zM270 567h420q223 0 350 101.5t127 312.5q0 80 -23 148t-71.5 124t-133.5 87.5t-200 31.5h-469v-805z" />
    <glyph glyph-name="Q" unicode="Q" horiz-adv-x="1757" 
d="M1532 43l-41 -51l-168 139q-197 -139 -444 -139q-155 0 -295.5 58t-242.5 155.5t-162 232.5t-60 283t60 283t162 232.5t242.5 155.5t295.5 58q206 0 380.5 -98t275.5 -266t101 -365q0 -161 -70 -304t-192 -245zM879 68q212 0 385 114l-121 103l43 51l131 -111
q112 89 177 219t65 277q0 133 -53.5 254t-144.5 209t-217 140t-265 52q-138 0 -264.5 -52t-217.5 -140t-145.5 -209t-54.5 -254t54 -253.5t145.5 -208t218 -139.5t264.5 -52z" />
    <glyph glyph-name="R" unicode="R" horiz-adv-x="1370" 
d="M1196 0l-371 504q-61 -6 -129 -6h-426v-498h-75v1444h555q109 0 195 -25t142.5 -68t94 -102.5t53.5 -125t16 -140.5q0 -192 -91.5 -307.5t-256.5 -155.5l387 -520h-94zM270 1372v-805h424q223 0 350 101.5t127 312.5q0 64 -14 119.5t-46 106.5t-80 87t-121 57t-165 21
h-475z" />
    <glyph glyph-name="S" unicode="S" 
d="M680 760q77 -19 131.5 -36t117.5 -41t104.5 -52.5t77.5 -66t53.5 -86t17.5 -107.5q0 -180 -140 -282.5t-374 -102.5q-176 0 -279 23.5t-270 107.5l31 63q160 -78 257.5 -100.5t260.5 -22.5q199 0 317.5 83t118.5 229q0 48 -15 87t-47 69t-68 53t-92 43.5t-103 34
t-117 30.5q-84 20 -140.5 36.5t-124 41.5t-111 53t-82 65.5t-57 87t-18.5 109.5q0 166 132.5 269.5t356.5 103.5q126 0 268 -30.5t234 -80.5l-35 -65q-86 48 -218.5 76t-248.5 28q-189 0 -300 -83t-111 -216q0 -47 16 -86t50.5 -69.5t72.5 -53.5t98 -44t110.5 -35.5
t125.5 -32.5z" />
    <glyph glyph-name="T" unicode="T" horiz-adv-x="1351" 
d="M1243 1444v-72h-526v-1372h-76v1372h-524v72h1126z" />
    <glyph glyph-name="U" unicode="U" horiz-adv-x="1544" 
d="M1352 1444v-864q0 -123 -38 -229.5t-110 -186.5t-183.5 -126t-250.5 -46q-137 0 -247.5 45.5t-181.5 125.5t-108.5 186.5t-37.5 230.5v864h73v-856q0 -150 56.5 -266.5t171.5 -185t274 -68.5q240 0 373 145.5t133 374.5v856h76z" />
    <glyph glyph-name="V" unicode="V" horiz-adv-x="1556" 
d="M784 127l613 1317h82l-672 -1444h-45l-672 1444h84z" />
    <glyph glyph-name="W" unicode="W" horiz-adv-x="2287" 
d="M2200 1444l-545 -1444h-47l-475 1309l-476 -1309h-45l-546 1444h81l488 -1303l473 1303h49l473 -1303l488 1303h82z" />
    <glyph glyph-name="X" unicode="X" horiz-adv-x="1429" 
d="M721 780l539 664h90l-580 -723l582 -721h-92l-539 664l-539 -664h-92l582 721l-580 723h92z" />
    <glyph glyph-name="Y" unicode="Y" horiz-adv-x="1327" 
d="M1186 1444h90l-574 -944v-500h-75v500l-574 944h88l523 -866z" />
    <glyph glyph-name="Z" unicode="Z" horiz-adv-x="1329" 
d="M1217 1444v-37l-1000 -1335h1016v-72h-1131v35l998 1337h-938v72h1055z" />
    <glyph glyph-name="bracketleft" unicode="[" horiz-adv-x="589" 
d="M545 1376h-283v-1577h283v-59h-348v1696h348v-60z" />
    <glyph glyph-name="backslash" unicode="\" horiz-adv-x="849" 
d="M860 -262l-907 1896h72l907 -1896h-72z" />
    <glyph glyph-name="bracketright" unicode="]" horiz-adv-x="620" 
d="M78 -201h282v1577h-282v60h348v-1696h-348v59z" />
    <glyph glyph-name="asciicircum" unicode="^" horiz-adv-x="884" 
d="M154 1004h-74l344 440h45l344 -440h-74l-293 376z" />
    <glyph glyph-name="underscore" unicode="_" horiz-adv-x="1185" 
d="M1192 -63v-56h-1198v56h1198z" />
    <glyph glyph-name="grave" unicode="`" horiz-adv-x="897" 
d="M563 1552l-338 312l92 8l318 -320h-72z" />
    <glyph glyph-name="a" unicode="a" horiz-adv-x="1366" 
d="M1116 1104h72v-1104h-72v133q-179 -141 -436 -141q-157 0 -289 76.5t-208.5 207t-76.5 283.5q0 152 76.5 282t208.5 206.5t289 76.5q126 0 241.5 -39.5t194.5 -107.5v127zM1116 219v674q-78 76 -189 118t-241 42q-138 0 -255 -66.5t-185 -180t-68 -247.5q0 -135 68 -249
t185 -180.5t255 -66.5q133 0 243.5 40.5t186.5 115.5z" />
    <glyph glyph-name="b" unicode="b" horiz-adv-x="1368" 
d="M686 1124q156 0 288.5 -75t210 -205.5t77.5 -286.5q0 -155 -77.5 -285t-210 -205t-288.5 -75q-127 0 -242 38.5t-192 106.5v-137h-74v1544h74v-561q174 141 434 141zM680 63q138 0 255 66t185 179.5t68 248.5q0 136 -68 250t-185 180t-255 66q-132 0 -242.5 -41
t-185.5 -115v-674q163 -160 428 -160z" />
    <glyph glyph-name="c" unicode="c" horiz-adv-x="1206" 
d="M1053 231l51 -51q-76 -89 -179.5 -138.5t-219.5 -49.5q-163 0 -301.5 76t-219 206t-80.5 283q0 154 80.5 284.5t219 206.5t301.5 76q119 0 222.5 -49t178.5 -137l-53 -47q-65 75 -155.5 118.5t-192.5 43.5q-218 0 -372.5 -145.5t-154.5 -350.5q0 -134 70.5 -247.5
t192 -180t264.5 -66.5q101 0 191.5 45t156.5 123z" />
    <glyph glyph-name="d" unicode="d" horiz-adv-x="1368" 
d="M1116 1544h74v-1544h-74v137q-77 -68 -192 -106.5t-242 -38.5q-156 0 -289 75t-211 205t-78 285q0 156 78 286.5t211 205.5t289 75q255 0 434 -141v561zM686 63q130 0 241 42t189 118v674q-77 74 -187.5 115t-242.5 41q-137 0 -253.5 -66t-184.5 -180t-68 -250
q0 -135 68 -248.5t184.5 -179.5t253.5 -66z" />
    <glyph glyph-name="e" unicode="e" horiz-adv-x="1304" 
d="M1196 551v-25h-1016q12 -200 154 -331.5t336 -131.5q128 0 240 48t184 139l57 -45q-78 -99 -205 -156t-280 -57q-162 0 -291.5 76.5t-200 205t-70.5 283.5q0 156 70.5 285t200 205.5t291.5 76.5q243 0 386.5 -159t143.5 -414zM666 1055q-204 0 -340.5 -132.5
t-145.5 -330.5h944q-11 207 -133.5 335t-324.5 128z" />
    <glyph glyph-name="f" unicode="f" horiz-adv-x="759" 
d="M756 1528v-68q-74 21 -181 21q-139 0 -192 -85.5t-53 -260.5v-31h403v-68h-403v-1095q0 -138 -88 -228t-224 -90q-31 0 -81 4v68q40 -4 75 -4q111 0 177.5 65t66.5 201v1079h-211v68h211v37q0 194 72.5 301.5t242.5 107.5q104 0 185 -22z" />
    <glyph glyph-name="g" unicode="g" horiz-adv-x="1366" 
d="M1114 1104h74v-991q0 -102 -32.5 -190t-95 -156t-164 -107t-230.5 -39q-60 0 -109.5 2.5t-79.5 5t-71 11t-55.5 12t-64 18t-67.5 19.5l17 63q130 -38 205 -50.5t218 -12.5q116 0 206 34.5t143 92t79.5 125.5t26.5 141v47q-178 -137 -434 -137q-156 0 -289 76t-211 207
t-78 286q0 154 78 283.5t211 204.5t289 75q126 0 241.5 -39.5t192.5 -107.5v127zM178 561q0 -135 68 -249.5t184.5 -181.5t253.5 -67q273 0 430 154v676q-78 76 -189 118t-241 42q-137 0 -253.5 -66t-184.5 -179t-68 -247z" />
    <glyph glyph-name="h" unicode="h" horiz-adv-x="1308" 
d="M684 1124q210 0 342.5 -127t132.5 -360v-637h-74v637q0 196 -115 306t-292 110q-251 0 -426 -154v-899h-74v1544h74v-571q75 72 187 111.5t245 39.5z" />
    <glyph glyph-name="i" unicode="i" horiz-adv-x="436" 
d="M180 0v1104h76v-1104h-76zM217 1456q27 0 44.5 -16.5t17.5 -42.5t-18 -43t-44 -17t-43.5 17t-17.5 43t17.5 42.5t43.5 16.5z" />
    <glyph glyph-name="j" unicode="j" horiz-adv-x="432" 
d="M178 -43v1147h76v-1163q0 -152 -86.5 -236t-218.5 -84q-9 0 -90 6v68q23 -2 75 -2q109 0 176.5 67.5t67.5 196.5zM215 1456q26 0 43.5 -16.5t17.5 -42.5t-17.5 -43t-43.5 -17t-43.5 17t-17.5 43t17.5 42.5t43.5 16.5z" />
    <glyph glyph-name="k" unicode="k" horiz-adv-x="1253" 
d="M748 684l446 -684h-86l-414 629l-442 -410v-219h-74v1544h74v-1227l842 787h102z" />
    <glyph glyph-name="l" unicode="l" horiz-adv-x="432" 
d="M178 0v1544h76v-1544h-76z" />
    <glyph glyph-name="m" unicode="m" horiz-adv-x="2054" 
d="M1430 1124q211 0 344 -127t133 -360v-637h-74v637q0 196 -115 306t-293 110q-221 0 -376 -168q53 -106 53 -248v-637h-74v637q0 195 -104 305.5t-265 110.5q-243 0 -407 -154v-899h-74v1104h74v-133q74 74 180 113.5t232 39.5q116 0 209 -46.5t151 -137.5
q68 88 173.5 136t232.5 48z" />
    <glyph glyph-name="n" unicode="n" horiz-adv-x="1310" 
d="M684 1124q210 0 342.5 -127t132.5 -360v-637h-74v637q0 196 -114.5 306t-292.5 110q-251 0 -426 -154v-899h-74v1104h74v-133q75 74 187 113.5t245 39.5z" />
    <glyph glyph-name="o" unicode="o" horiz-adv-x="1406" 
d="M702 1124q162 0 300 -76t218 -206.5t80 -284.5q0 -153 -80 -283t-218 -206t-300 -76q-163 0 -301.5 76t-218.5 206t-80 283q0 154 80 284.5t218.5 206.5t301.5 76zM702 63q142 0 263 66.5t191.5 180t70.5 247.5q0 135 -70.5 249t-191.5 180.5t-263 66.5
q-143 0 -264 -66.5t-191.5 -180.5t-70.5 -249q0 -134 70.5 -247.5t191.5 -180t264 -66.5z" />
    <glyph glyph-name="p" unicode="p" horiz-adv-x="1372" 
d="M686 1124q156 0 288.5 -75t210 -205t77.5 -285q0 -156 -77.5 -286.5t-210 -205.5t-288.5 -75q-263 0 -434 139v-489h-74v1462h74v-127q77 68 192.5 107.5t241.5 39.5zM680 63q138 0 255 66t185 180t68 250q0 135 -68 248.5t-185 179.5t-255 66q-265 0 -428 -160v-674
q74 -74 184.5 -115t243.5 -41z" />
    <glyph glyph-name="q" unicode="q" horiz-adv-x="1372" 
d="M1120 1104h72v-1462h-72v489q-176 -139 -436 -139q-155 0 -287.5 75t-210 205.5t-77.5 286.5q0 155 77.5 285t210 205t287.5 75q127 0 243 -39.5t193 -107.5v127zM182 559q0 -136 68 -250t185 -180t255 -66q133 0 243.5 40.5t186.5 115.5v674q-78 76 -189 118t-241 42
q-138 0 -255 -66t-185 -179.5t-68 -248.5z" />
    <glyph glyph-name="r" unicode="r" horiz-adv-x="886" 
d="M252 1104v-264q48 131 145.5 207t229.5 77q96 0 190 -47l-18 -71q-83 41 -178 41q-162 0 -265.5 -134t-103.5 -333v-580h-74v1104h74z" />
    <glyph glyph-name="s" unicode="s" horiz-adv-x="1097" 
d="M104 92l29 62q239 -93 428 -93q187 0 275 69.5t88 172.5q0 50 -27.5 88t-82.5 66t-117 46.5t-152 37.5q-78 16 -138 33t-115 42t-90 55t-56 71.5t-21 91.5q0 125 115 207.5t286 82.5q207 0 404 -84l-25 -61q-168 76 -379 76q-141 0 -235 -62.5t-94 -158.5
q0 -88 89 -137.5t275 -86.5q82 -16 144 -33t118.5 -42.5t93 -57t57.5 -75t21 -97.5q0 -63 -24.5 -117.5t-74 -99.5t-136 -70.5t-201.5 -25.5q-215 0 -455 100z" />
    <glyph glyph-name="t" unicode="t" horiz-adv-x="796" 
d="M756 1036h-430v-684q0 -150 64.5 -219.5t178.5 -69.5q105 0 183 21v-68q-94 -24 -197 -24q-132 0 -218.5 83.5t-86.5 235.5v725h-203v68h203v440h76v-440h430v-68z" />
    <glyph glyph-name="u" unicode="u" horiz-adv-x="1331" 
d="M1079 1104h74v-1104h-74v145q-79 -73 -196 -113t-254 -40q-210 0 -342.5 127t-132.5 360v625h71v-625q0 -196 115.5 -306t294.5 -110q263 0 444 154v887z" />
    <glyph glyph-name="v" unicode="v" horiz-adv-x="1241" 
d="M1102 1104h84l-543 -1104h-43l-543 1104h82l484 -985z" />
    <glyph glyph-name="w" unicode="w" horiz-adv-x="1738" 
d="M1624 1104h76l-430 -1104h-45l-355 977l-354 -977h-45l-434 1104h80l379 -975l348 975h51l350 -975z" />
    <glyph glyph-name="x" unicode="x" horiz-adv-x="1187" 
d="M598 494l-436 -494h-90l481 553l-481 551h92l434 -496l434 496h92l-479 -551l481 -553h-92z" />
    <glyph glyph-name="y" unicode="y" horiz-adv-x="1245" 
d="M1087 1104h80l-469 -1163q-36 -90 -102 -155t-150 -99t-168.5 -49t-177.5 -15h-10l4 66h23q194 0 332 75.5t194 235.5h-61l-512 1104h82l473 -1022h51z" />
    <glyph glyph-name="z" unicode="z" horiz-adv-x="1208" 
d="M1122 1063l-901 -995h897v-68h-1012v47l898 989h-867v68h985v-41z" />
    <glyph glyph-name="braceleft" unicode="{" horiz-adv-x="780" 
d="M717 1444v-62q-54 0 -90 -3.5t-73.5 -15t-59.5 -33t-36 -60t-14 -92.5v-215q0 -189 -33 -276t-132 -109q100 -22 132.5 -102.5t32.5 -266.5v-252q0 -54 14 -92t36 -60t59.5 -34t74 -15.5t89.5 -3.5v-61q-64 0 -107.5 4t-90 19t-74.5 41.5t-46 74.5t-18 115v243
q0 68 -0.5 102t-5 79.5t-12 64.5t-23.5 45t-37 34.5t-55.5 18.5t-77 12.5t-102.5 2.5v59q59 0 102 3t77 14.5t56 22t37.5 38t23 48t12 67.5t5 81t0.5 103v207q0 57 11.5 99.5t35 70t51 45t69.5 25.5t79 11t90 3z" />
    <glyph glyph-name="bar" unicode="|" horiz-adv-x="520" 
d="M215 -262v1896h64v-1896h-64z" />
    <glyph glyph-name="braceright" unicode="}" horiz-adv-x="772" 
d="M68 1382v62q64 0 107.5 -4t91 -18.5t75 -41t46 -74.5t18.5 -116v-207q0 -69 0.5 -103t5 -81t12 -67.5t23 -48t37.5 -38t56 -22t77 -14.5t102 -3v-59q-60 0 -102.5 -2.5t-77 -12.5t-55.5 -18.5t-37 -34.5t-23.5 -45t-12 -64.5t-5 -79.5t-0.5 -102v-243q0 -48 -9.5 -86.5
t-25 -65t-40.5 -45.5t-51.5 -30t-63.5 -17t-70 -8t-78 -2v61q53 0 89.5 3.5t74 15.5t59 34t35.5 60t14 92v252q0 187 32.5 267t135.5 102q-102 22 -135 108.5t-33 276.5v215q0 67 -19 109.5t-59.5 62.5t-83 26t-110.5 6z" />
    <glyph glyph-name="asciitilde" unicode="~" horiz-adv-x="944" 
d="M147 502l-55 6q15 107 70.5 164t146.5 57q63 0 174 -50t164 -50q51 0 92 41.5t54 120.5l55 -11q-16 -107 -70.5 -162t-126.5 -55q-63 0 -177 50.5t-163 50.5q-65 0 -107 -42t-57 -120z" />
    <glyph glyph-name="exclamdown" unicode="&#xa1;" horiz-adv-x="395" 
d="M168 1079h43l16 -1079h-75zM188 1331q-26 0 -43.5 17t-17.5 43t17.5 42.5t43.5 16.5q27 0 44.5 -16.5t17.5 -42.5t-18 -43t-44 -17z" />
    <glyph glyph-name="cent" unicode="&#xa2;" horiz-adv-x="1177" 
d="M748 1243l-201 -973q72 -14 131 -14q100 1 189 45.5t155 122.5l51 -49q-74 -87 -178.5 -137t-218.5 -50q-80 0 -141 17l-43 -205h-66l45 219q-176 61 -286.5 207t-110.5 328q0 130 52.5 238.5t140.5 179t199 109t230 38.5l31 143h66l-31 -151q185 -27 313 -174l-53 -45
q-111 126 -274 151zM143 754q0 -159 94.5 -285.5t247.5 -179.5l197 964q-228 -3 -383.5 -148t-155.5 -351z" />
    <glyph glyph-name="sterling" unicode="&#xa3;" horiz-adv-x="1308" 
d="M1237 70v-70h-1149v45l229 23q-41 285 -63 550h-145v68h143q-8 84 -8 168q0 158 38.5 275t110 186.5t164 103t207.5 33.5q143 0 262 -70.5t186 -189.5l-59 -39q-58 103 -161.5 165t-227.5 62q-113 0 -199.5 -38t-139.5 -107.5t-79.5 -163.5t-26.5 -211q0 -72 9 -174h655
v-68h-651q23 -238 65 -548h840z" />
    <glyph glyph-name="KB" unicode="&#xa4;" horiz-adv-x="1992" 
d="M1333 1268q104 -42 169 -136t65 -210q0 -117 -65 -212t-169 -137q-42 -104 -136 -168.5t-210 -64.5q-117 0 -211.5 64.5t-136.5 168.5q-104 42 -168.5 137t-64.5 212q0 116 64.5 210t168.5 136q42 104 136.5 168.5t211.5 64.5q116 0 210 -64.5t136 -168.5zM1030 602h72
q65 0 111.5 47t46.5 113q0 68 -50 115h-180v-275zM1030 965h180q50 47 50 114q0 66 -46.5 113t-111.5 47h-72v-274zM801 743l141 -141v275h-229v-275h88v141zM713 965h229v274l-141 -141v141h-88v-274zM1591 154q35 -14 35 -54q0 -23 -14.5 -39t-40.5 -16h-96v180h79
q27 0 40.5 -11t13.5 -28q0 -18 -17 -32zM326 135q0 -37 -24.5 -63.5t-59.5 -26.5h-68v180h62q38 0 64 -26.5t26 -63.5zM1413 135q0 -37 -24.5 -63.5t-59.5 -26.5h-67v180h61q38 0 64 -26.5t26 -63.5zM1032 131v94h49v-180h-22l-96 92v-92h-50v180h23zM811 135h84v-67
q-29 -24 -80 -27q-40 0 -68 28t-28 66t28 65t68 27q45 0 74 -26l-33 -33q-18 14 -41 14q-19 0 -32 -13.5t-13 -33.5q0 -22 13 -36.5t32 -14.5q13 0 29 8v8h-33v35zM487 59l19 37q32 -14 61 -14q21 0 21 12q0 11 -29 19q-34 7 -50.5 18.5t-16.5 38.5q0 25 17.5 41t49.5 16
t74 -14l-21 -39q-32 12 -53 12q-18 0 -18 -12q0 -11 30 -18q68 -13 68 -56q0 -28 -20 -43.5t-54 -15.5q-41 0 -78 18zM1153 125v-41h86v-39h-135v180h131v-41h-82v-24h55v-35h-55zM389 125v-41h86v-39h-135v180h129v-41h-80v-24h53v-35h-53zM1706 158l37 65h57l-69 -119v-59
h-50v59l-67 119h55zM705 45h-50v180h50v-180zM1331 -274q0 -18 -13.5 -30.5t-29.5 -12.5h-24v86h24q18 0 30.5 -12.5t12.5 -30.5zM223 88h15q17 0 27.5 13t10.5 34q0 19 -11.5 32t-28.5 13h-13v-92zM1311 88h14q17 0 28 13.5t11 33.5q0 19 -12 32t-29 13h-12v-92zM1858 -295
l20 -22h-12l-17 18h-20v-18h-8v86h22q13 0 23 -10.5t10 -22.5q0 -22 -18 -31zM1288 -309q14 0 24.5 10.5t10.5 24.5q0 15 -10.5 24.5t-24.5 9.5h-16v-69h16zM424 -305l25 76h8l-29 -86h-8l-19 71l-16 -71h-8l-29 86h8l25 -76l16 76h9zM174 -305l25 76h8l-29 -86h-8l-18 71
l-17 -71h-8l-29 86h8l25 -76l16 76h9zM297 -305l25 76h8l-29 -86h-8l-19 71l-16 -71h-8l-29 86h8l25 -76l16 76h9zM1159 -303v72h8v-86h-8l-51 73v-73h-8v86h8zM1677 -303v72h9v-86h-9l-51 73v-73h-8v86h8zM590 -303v72h8v-86h-8l-51 73v-73h-9v86h9zM1522 84h22q31 0 31 22
q0 21 -37 21h-16v-43zM1774 -291v8h28v-22q-13 -12 -33 -12t-32.5 12t-12.5 31t13 32t30 13q18 0 33 -15l-6 -6q-9 12 -27 12q-14 0 -24 -10.5t-10 -25.5q0 -14 10.5 -24.5t25.5 -10.5q6 0 12.5 2t9.5 4l3 2v10h-20zM1569 -291v8h28v-22q-12 -12 -32 -12t-32.5 12t-12.5 31
t13 32t30 13t32 -15l-6 -6q-9 12 -26 12q-14 0 -24.5 -10.5t-10.5 -25.5q0 -14 11 -24.5t26 -10.5q6 0 12 2t9 4l3 2v10h-20zM981 -291v8h29v-22q-13 -12 -33 -12t-32.5 12t-12.5 31t13 32t30 13q18 0 33 -15l-7 -6q-9 12 -26 12q-14 0 -24.5 -10.5t-10.5 -25.5
q0 -14 11 -24.5t26 -10.5q6 0 12 2t9 4l3 2v10h-20zM1028 -231h53v-9h-45v-36h41v-9h-41v-24h45v-8h-53v86zM1350 -231h53v-9h-45v-36h41v-9h-41v-24h45v-8h-53v86zM698 -231h54v-9h-45v-36h41v-9h-41v-24h45v-8h-54v86zM1829 -291h14q10 1 17.5 9.5t7.5 17.5q0 10 -8 17
t-17 7h-14v-51zM1450 -268q23 -9 23 -25q0 -10 -7 -17t-18 -7q-24 0 -31 18l6 4q7 -14 25 -14q16 0 16 16q0 12 -16 17q-25 10 -25 24q0 9 7 16t16 7q14 0 22 -15l-6 -4q-7 10 -16 10q-5 0 -9.5 -4t-4.5 -10q0 -10 18 -16zM1210 -240h-26v9h61v-9h-26v-77h-9v77zM643 -240
h-27v9h62v-9h-27v-77h-8v77zM770 -231h8v-78h41v-8h-49v86zM838 -231h8v-78h41v-8h-49v86zM1552 184h-30v-22h28q15 0 15 10q0 12 -13 12zM500 -231h8v-86h-8v86zM1493 -231h8v-86h-8v86zM905 -231h8v-86h-8v86zM1700 -311q0 8 8 8t8 -8t-8 -8t-8 8zM461 -311q0 8 8 8t8 -8
t-8 -8t-8 8z" />
    <glyph glyph-name="yen" unicode="&#xa5;" horiz-adv-x="1431" 
d="M1313 1444l-508 -834h364v-65h-403l-27 -47v-31h428v-68h-428v-399h-75v399h-431v68h431v31l-27 47h-404v65h363l-506 834h88l522 -866l523 866h90z" />
    <glyph glyph-name="brokenbar" unicode="&#xa6;" horiz-adv-x="501" 
d="M219 850v784h62v-784h-62zM219 -260v784h62v-784h-62z" />
    <glyph glyph-name="section" unicode="&#xa7;" horiz-adv-x="1282" 
d="M1098 657q0 -63 -46 -114.5t-102 -81.5q82 -56 82 -160q0 -54 -24.5 -106t-72 -97t-127.5 -72.5t-181 -27.5q-268 0 -459 96l31 60q69 -32 107 -46.5t118 -29.5t178 -15q62 0 122 13.5t112.5 41t85 74.5t32.5 107q0 34 -18 61.5t-43 45t-68 33.5t-75 24t-84 20.5
t-76 18.5l-57 15q-49 13 -74 19.5t-67.5 19.5t-65 22.5t-54 24.5t-48 30.5t-33.5 35t-24 43t-7 50.5q0 61 50.5 111.5t135.5 84.5q-143 72 -143 203q0 94 60 163t147 100.5t184 31.5q169 0 442 -88l-20 -65q-262 86 -422 86q-78 0 -149.5 -25t-121 -79.5t-49.5 -127.5
q0 -24 7.5 -45.5t24 -39t34 -31.5t48 -27t54 -22.5t63.5 -20t66 -17t72 -17.5t70 -17q83 -20 138.5 -37.5t106 -40.5t79 -48.5t45 -59.5t16.5 -77zM711 850q-28 7 -93.5 22.5t-113.5 28t-88 27.5q-78 -27 -133.5 -73.5t-55.5 -90.5q0 -23 9.5 -42.5t33 -36t47.5 -29t68 -27
t79.5 -24.5t96.5 -26q3 -1 4 -1q33 -9 149.5 -36t166.5 -46q39 9 95 56t56 103q0 66 -69.5 108.5t-251.5 86.5z" />
    <glyph glyph-name="dieresis" unicode="&#xa8;" horiz-adv-x="1024" 
d="M356 1712q27 0 44.5 -16.5t17.5 -42.5t-18 -43t-44 -17t-43.5 17t-17.5 43t17.5 42.5t43.5 16.5zM670 1712q26 0 43.5 -16.5t17.5 -42.5t-17.5 -43t-43.5 -17t-44 17t-18 43t17.5 42.5t44.5 16.5z" />
    <glyph glyph-name="copyright" unicode="&#xa9;" horiz-adv-x="1699" 
d="M854 1458q150 0 285 -59t231 -158t152.5 -234t56.5 -282q0 -146 -57 -281t-153.5 -234t-232.5 -158.5t-286 -59.5q-100 0 -195 27t-175 75t-146.5 116t-113 148.5t-72 174.5t-25.5 192q0 146 57 281t154 234t233.5 158.5t286.5 59.5zM1528 725q0 137 -52.5 262.5
t-142 218t-215 147t-264.5 54.5q-140 0 -266.5 -55t-217 -147.5t-143.5 -218t-53 -261.5q0 -137 53 -262.5t142.5 -218t215.5 -147t265 -54.5q140 0 266 55t216 147.5t143 218t53 261.5zM856 354q83 0 155.5 37t123.5 101l47 -37q-58 -75 -143.5 -117.5t-182.5 -42.5
q-174 0 -297 126t-123 304t123 303t297 125q97 0 182.5 -42.5t143.5 -117.5l-47 -37q-51 64 -123.5 101t-155.5 37q-148 0 -253 -108t-105 -261q0 -154 105 -262.5t253 -108.5z" />
    <glyph glyph-name="ordfeminine" unicode="&#xaa;" horiz-adv-x="980" 
d="M788 1415h62v-756h-62v64q-116 -80 -278 -80q-166 0 -282.5 115.5t-116.5 277.5q0 163 116 278.5t283 115.5q154 0 278 -82v67zM788 795v479q-46 43 -119.5 68.5t-154.5 25.5q-141 0 -240.5 -97.5t-99.5 -234.5t99.5 -234t240.5 -97q163 0 274 90z" />
    <glyph glyph-name="guillemotleft" unicode="&#xab;" horiz-adv-x="1058" 
d="M909 20l-354 525l354 524q6 -3 27 -18t25 -19l-334 -487l334 -488q-7 -7 -52 -37zM471 20l-354 525l354 524q6 -3 26 -17.5t25 -19.5l-334 -487l334 -488q-9 -9 -51 -37z" />
    <glyph glyph-name="logicalnot" unicode="&#xac;" horiz-adv-x="1216" 
d="M1100 920v-400h-70v332h-942v68h1012z" />
    <glyph glyph-name="uni00AD" unicode="&#xad;" horiz-adv-x="835" 
d="M735 711v-64h-635v64h635z" />
    <glyph glyph-name="registered" unicode="&#xae;" horiz-adv-x="1699" 
d="M854 1458q100 0 195 -27t175 -75t146.5 -116t113 -148.5t72 -174.5t25.5 -192q0 -146 -57 -281t-154 -234t-233.5 -158.5t-286.5 -59.5q-100 0 -195 27t-175 75t-146.5 116t-113 148.5t-72 174.5t-25.5 192q0 146 57 281t154 234t233.5 158.5t286.5 59.5zM1528 725
q0 137 -52.5 262.5t-142 218t-215 147t-264.5 54.5q-140 0 -266.5 -55t-217 -147.5t-143.5 -218t-53 -261.5q0 -137 53 -262.5t142.5 -218t215.5 -147t265 -54.5q140 0 266 55t216 147.5t143 218t53 261.5zM1198 336l-47 -37l-233 305q-18 -2 -60 -2h-229v-287h-62v832h320
q78 0 135.5 -21.5t90 -59.5t48 -83.5t15.5 -99.5q0 -213 -193 -267zM629 1090v-433h227q121 0 189.5 54.5t68.5 169.5q0 91 -55 150t-174 59h-256z" />
    <glyph glyph-name="macron" unicode="&#xaf;" horiz-adv-x="1024" 
d="M188 1626v60h648v-60h-648z" />
    <glyph glyph-name="degree" unicode="&#xb0;" horiz-adv-x="966" 
d="M483 745q-153 0 -262.5 107.5t-109.5 257.5q0 148 111.5 256.5t260.5 108.5t261 -109t112 -260q0 -148 -110.5 -254.5t-262.5 -106.5zM483 803q127 0 220.5 90t93.5 213q0 127 -94.5 219t-219.5 92t-219 -91.5t-94 -215.5q0 -126 92.5 -216.5t220.5 -90.5z" />
    <glyph glyph-name="plusminus" unicode="&#xb1;" horiz-adv-x="1310" 
d="M1163 903v-63h-475v-473h-61v473h-475v63h475v473h61v-473h475zM1163 0h-1011v63h1011v-63z" />
    <glyph glyph-name="twosuperior" unicode="&#xb2;" horiz-adv-x="849" 
d="M201 670h534v-58h-639v29q39 57 114.5 108t151.5 89t148 79.5t117 98.5t45 129q0 111 -80 186.5t-189 75.5q-101 0 -176 -74.5t-75 -187.5v-17h-56v19q0 136 90 226.5t217 90.5q133 0 229.5 -91.5t96.5 -225.5q0 -66 -28.5 -121t-73 -91.5t-104 -72.5t-115 -62t-114 -61
t-93.5 -69z" />
    <glyph glyph-name="threesuperior" unicode="&#xb3;" horiz-adv-x="849" 
d="M705 1417l-259 -317q120 -8 197.5 -71t77.5 -161q0 -125 -91 -196.5t-243 -71.5q-100 0 -168.5 13t-148.5 49l22 51q75 -33 139.5 -45.5t155.5 -12.5q124 0 199.5 57t75.5 156q0 85 -76 134t-193 49h-24l-13 22l250 316h-493v55h592v-27z" />
    <glyph glyph-name="acute" unicode="&#xb4;" horiz-adv-x="1024" 
d="M748 1864l-336 -312h-72l317 320z" />
    <glyph glyph-name="mu" unicode="&#xb5;" horiz-adv-x="1355" 
d="M1104 1104h74v-1104h-74v145q-78 -73 -195 -113t-252 -40q-136 0 -244 61t-161 174v-573h-74v1450h74v-625q0 -197 114.5 -306.5t292.5 -109.5q264 0 445 154v887z" />
    <glyph glyph-name="paragraph" unicode="&#xb6;" horiz-adv-x="1130" 
d="M530 1434h451v-1434h-74v1362h-252v-1362h-75v563h-43q-211 0 -342.5 114t-131.5 320q0 209 125.5 323t341.5 114zM582 641v721h-50q-178 0 -283.5 -94t-105.5 -269q0 -170 109.5 -264t284.5 -94h45z" />
    <glyph glyph-name="periodcentered" unicode="&#xb7;" horiz-adv-x="342" 
d="M164 698q26 0 43.5 -16.5t17.5 -42.5t-17.5 -42.5t-43.5 -16.5q-27 0 -44.5 16.5t-17.5 42.5t17.5 42.5t44.5 16.5z" />
    <glyph glyph-name="cedilla" unicode="&#xb8;" horiz-adv-x="878" 
d="M379 -152l96 154h53l-59 -121q54 0 88.5 -30.5t34.5 -81.5q0 -59 -46 -104.5t-138 -45.5q-36 0 -66.5 4.5t-46.5 9.5l-16 5l12 45q47 -15 106 -15q65 0 98 30.5t33 72.5q0 77 -149 77z" />
    <glyph glyph-name="onesuperior" unicode="&#xb9;" horiz-adv-x="679" 
d="M422 1444h24v-832h-59v768l-213 -47l-12 53z" />
    <glyph glyph-name="ordmasculine" unicode="&#xba;" horiz-adv-x="1038" 
d="M510 1434q172 0 295 -116t123 -280q0 -162 -123 -277.5t-295 -115.5q-173 0 -295.5 115t-122.5 278q0 164 122.5 280t295.5 116zM510 707q146 0 250 97t104 234q0 138 -104 236t-250 98q-147 0 -250.5 -98t-103.5 -236q0 -137 103.5 -234t250.5 -97z" />
    <glyph glyph-name="guillemotright" unicode="&#xbb;" horiz-adv-x="1052" 
d="M963 545l-357 -525l-51 37l334 488l-334 487l51 37zM524 545l-356 -525l-49 37l332 488l-332 487l49 37z" />
    <glyph glyph-name="onequarter" unicode="&#xbc;" horiz-adv-x="1718" 
d="M397 1444h27v-832h-59v768l-213 -47l-13 53zM1411 272h180v-55h-180v-217h-57v217h-453l-22 49l489 568h43v-562zM1354 272v459l-398 -459h398zM1270 1436h67l-989 -1436h-67z" />
    <glyph glyph-name="onehalf" unicode="&#xbd;" horiz-adv-x="1824" 
d="M397 1444h27v-832h-59v768l-213 -47l-13 53zM1143 57h536v-57h-639v29q39 57 114.5 108t151.5 88.5t148 79t117 98.5t45 129q0 111 -79.5 187t-188.5 76q-102 0 -177 -74.5t-75 -185.5v-19h-56v19q0 136 90.5 226.5t217.5 90.5q133 0 229 -91.5t96 -225.5
q0 -57 -20.5 -105t-57 -84t-81 -66.5t-97 -57.5t-100 -51.5t-95.5 -54t-79 -59.5zM1270 1436h69l-989 -1436h-69z" />
    <glyph glyph-name="threequarters" unicode="&#xbe;" horiz-adv-x="1796" 
d="M1526 272h178v-55h-178v-217h-60v217h-454l-21 49l492 568h43v-562zM1466 272v459l-397 -459h397zM113 1442h592v-27l-259 -315q120 -8 197.5 -71t77.5 -161q0 -125 -91 -196.5t-243 -71.5q-100 0 -168.5 13t-148.5 49l22 51q75 -33 139.5 -45.5t155.5 -12.5
q124 0 199.5 57t75.5 156q0 87 -75.5 135t-193.5 48h-24l-13 22l250 313h-493v56zM1384 1436h68l-989 -1436h-68z" />
    <glyph glyph-name="questiondown" unicode="&#xbf;" horiz-adv-x="1105" 
d="M633 -10q-242 0 -387.5 119.5t-145.5 330.5q0 99 45 176t119 122t159 67.5t175 23.5l8 269h56l8 -307l-15 -21h-22q-117 0 -208.5 -27.5t-146 -74t-82.5 -102.5t-28 -117q0 -183 127 -287.5t336 -104.5q138 0 230.5 20t199.5 77l29 -60q-112 -62 -210.5 -83t-246.5 -21z
M635 1331q-26 0 -44 17t-18 43t17.5 42.5t44.5 16.5q26 0 43.5 -16.5t17.5 -42.5t-17.5 -43t-43.5 -17z" />
    <glyph glyph-name="Agrave" unicode="&#xc0;" horiz-adv-x="1458" 
d="M1327 0l-186 418h-826l-184 -418h-82l651 1444h58l649 -1444h-80zM727 1352l-383 -869h770zM696 1552l-338 312l93 8l317 -320h-72z" />
    <glyph glyph-name="Aacute" unicode="&#xc1;" horiz-adv-x="1458" 
d="M1327 0l-186 418h-826l-184 -418h-82l651 1444h58l649 -1444h-80zM727 1352l-383 -869h770zM1106 1864l-336 -312h-72l318 320z" />
    <glyph glyph-name="Acircumflex" unicode="&#xc2;" horiz-adv-x="1458" 
d="M1327 0l-186 418h-826l-184 -418h-82l651 1444h58l649 -1444h-80zM727 1352l-383 -869h770zM410 1552l290 275h54l293 -275h-86l-234 213l-231 -213h-86z" />
    <glyph glyph-name="Atilde" unicode="&#xc3;" horiz-adv-x="1458" 
d="M1327 0l-186 418h-826l-184 -418h-82l651 1444h58l649 -1444h-80zM727 1352l-383 -869h770zM408 1559l-56 8q15 106 70.5 162.5t146.5 56.5q63 0 174 -49t164 -49q51 0 92 41t54 118l55 -8q-16 -107 -70.5 -162t-126.5 -55q-51 0 -114.5 24.5t-123 49t-100.5 24.5
q-134 0 -165 -161z" />
    <glyph glyph-name="Adieresis" unicode="&#xc4;" horiz-adv-x="1458" 
d="M1327 0l-186 418h-826l-184 -418h-82l651 1444h58l649 -1444h-80zM727 1352l-383 -869h770zM569 1712q27 0 44.5 -16.5t17.5 -42.5t-18 -43t-44 -17t-43.5 17t-17.5 43t17.5 42.5t43.5 16.5zM883 1712q26 0 43.5 -16.5t17.5 -42.5t-17.5 -43t-43.5 -17t-44 17t-18 43
t17.5 42.5t44.5 16.5z" />
    <glyph glyph-name="Aring" unicode="&#xc5;" horiz-adv-x="1458" 
d="M553 1577q0 70 51.5 121t122.5 51t122.5 -51t51.5 -121q0 -60 -36.5 -106t-92.5 -60l635 -1411h-80l-186 418h-826l-184 -418h-82l635 1409q-56 14 -93.5 61.5t-37.5 106.5zM727 1352l-383 -869h770zM727 1462q47 0 82 34.5t35 80.5t-35 80.5t-82 34.5t-82 -34.5
t-35 -80.5t35 -80.5t82 -34.5z" />
    <glyph glyph-name="AE" unicode="&#xc6;" horiz-adv-x="2013" 
d="M985 72h920v-72h-994v418h-563l-225 -418h-84l778 1444h1045v-72h-877v-637h750v-69h-750v-594zM858 1370l-477 -887h530v887h-53z" />
    <glyph glyph-name="Ccedilla" unicode="&#xc7;" horiz-adv-x="1572" 
d="M741 -152l90 146q-146 7 -277.5 67.5t-227 157t-151.5 228t-56 274.5q0 148 60 283t161 233t241 156.5t293 58.5q175 0 328 -73.5t260 -200.5l-59 -52q-95 115 -233 182.5t-296 67.5q-183 0 -338.5 -87.5t-246 -238.5t-90.5 -329t90.5 -328.5t245.5 -237.5t339 -87
q158 0 296.5 66t232.5 181l59 -51q-104 -125 -254.5 -197t-322.5 -75l-54 -111q54 0 88.5 -30.5t34.5 -81.5q0 -59 -46 -104.5t-138 -45.5q-36 0 -66.5 4.5t-46.5 9.5l-16 5l12 45q47 -15 107 -15q65 0 98 30.5t33 72.5q0 77 -150 77z" />
    <glyph glyph-name="Egrave" unicode="&#xc8;" 
d="M270 72h918v-72h-993v1444h950v-72h-875v-637h748v-69h-748v-594zM653 1552l-338 312l93 8l317 -320h-72z" />
    <glyph glyph-name="Eacute" unicode="&#xc9;" 
d="M270 72h918v-72h-993v1444h950v-72h-875v-637h748v-69h-748v-594zM1061 1864l-336 -312h-72l318 320z" />
    <glyph glyph-name="Ecircumflex" unicode="&#xca;" 
d="M270 72h918v-72h-993v1444h950v-72h-875v-637h748v-69h-748v-594zM367 1552l290 275h54l293 -275h-86l-234 213l-231 -213h-86z" />
    <glyph glyph-name="Edieresis" unicode="&#xcb;" 
d="M270 72h918v-72h-993v1444h950v-72h-875v-637h748v-69h-748v-594zM528 1712q27 0 44.5 -16.5t17.5 -42.5t-18 -43t-44 -17t-43.5 17t-17.5 43t17.5 42.5t43.5 16.5zM842 1712q26 0 43.5 -16.5t17.5 -42.5t-17.5 -43t-43.5 -17t-44 17t-18 43t17.5 42.5t44.5 16.5z" />
    <glyph glyph-name="Igrave" unicode="&#xcc;" horiz-adv-x="468" 
d="M272 1444v-1444h-75v1444h75zM203 1579l-338 311l92 8l317 -319h-71z" />
    <glyph glyph-name="Iacute" unicode="&#xcd;" horiz-adv-x="468" 
d="M272 1444v-1444h-75v1444h75zM616 1890l-335 -311h-72l317 319z" />
    <glyph glyph-name="Icircumflex" unicode="&#xce;" horiz-adv-x="468" 
d="M272 1444v-1444h-75v1444h75zM-82 1579l291 274h53l293 -274h-86l-233 213l-232 -213h-86z" />
    <glyph glyph-name="Idieresis" unicode="&#xcf;" horiz-adv-x="468" 
d="M272 1444v-1444h-75v1444h75zM82 1739q26 0 43.5 -17t17.5 -43t-17.5 -42.5t-43.5 -16.5q-27 0 -44.5 16.5t-17.5 42.5t18 43t44 17zM395 1739q26 0 44 -17t18 -43t-17.5 -42.5t-44.5 -16.5q-26 0 -43.5 16.5t-17.5 42.5t17.5 43t43.5 17z" />
    <glyph glyph-name="Eth" unicode="&#xd0;" horiz-adv-x="1497" 
d="M-10 690v66h217v688h444q197 0 364.5 -97t265 -263.5t97.5 -362.5q0 -189 -90 -355t-247.5 -266t-342.5 -100h-491v690h-217zM283 72h409q164 0 305 90.5t222 240t81 318.5q0 177 -87 327t-236.5 237t-325.5 87h-368v-616h426v-66h-426v-618z" />
    <glyph glyph-name="Ntilde" unicode="&#xd1;" horiz-adv-x="1572" 
d="M1303 1444h75v-1444h-49l-1059 1298v-1298h-75v1444h51l1057 -1299v1299zM463 1559l-55 8q15 106 70.5 162.5t146.5 56.5q63 0 174 -49t164 -49q51 0 91.5 40.5t53.5 118.5l55 -8q-16 -107 -70 -162t-126 -55q-51 0 -114.5 24.5t-123 49t-100.5 24.5q-135 0 -166 -161z
" />
    <glyph glyph-name="Ograve" unicode="&#xd2;" horiz-adv-x="1757" 
d="M879 1450q206 0 380.5 -98t275.5 -266t101 -365t-101 -365t-275.5 -266t-380.5 -98q-155 0 -295.5 58t-242.5 155.5t-162 232.5t-60 283t60 283t162 232.5t242.5 155.5t295.5 58zM879 68q139 0 265 52t217 139.5t144.5 208t53.5 253.5t-53.5 254t-144.5 209t-217 140
t-265 52q-138 0 -264.5 -52t-217.5 -140t-145.5 -209t-54.5 -254t54 -253.5t145.5 -208t218 -139.5t264.5 -52zM829 1552l-337 312l92 8l317 -320h-72z" />
    <glyph glyph-name="Oacute" unicode="&#xd3;" horiz-adv-x="1757" 
d="M879 1450q206 0 380.5 -98t275.5 -266t101 -365t-101 -365t-275.5 -266t-380.5 -98q-155 0 -295.5 58t-242.5 155.5t-162 232.5t-60 283t60 283t162 232.5t242.5 155.5t295.5 58zM879 68q139 0 265 52t217 139.5t144.5 208t53.5 253.5t-53.5 254t-144.5 209t-217 140
t-265 52q-138 0 -264.5 -52t-217.5 -140t-145.5 -209t-54.5 -254t54 -253.5t145.5 -208t218 -139.5t264.5 -52zM1235 1864l-336 -312h-72l318 320z" />
    <glyph glyph-name="Ocircumflex" unicode="&#xd4;" horiz-adv-x="1757" 
d="M879 1450q206 0 380.5 -98t275.5 -266t101 -365t-101 -365t-275.5 -266t-380.5 -98q-155 0 -295.5 58t-242.5 155.5t-162 232.5t-60 283t60 283t162 232.5t242.5 155.5t295.5 58zM879 68q139 0 265 52t217 139.5t144.5 208t53.5 253.5t-53.5 254t-144.5 209t-217 140
t-265 52q-138 0 -264.5 -52t-217.5 -140t-145.5 -209t-54.5 -254t54 -253.5t145.5 -208t218 -139.5t264.5 -52zM545 1552l291 275h53l293 -275h-86l-234 213l-231 -213h-86z" />
    <glyph glyph-name="Otilde" unicode="&#xd5;" horiz-adv-x="1757" 
d="M879 1450q206 0 380.5 -98t275.5 -266t101 -365t-101 -365t-275.5 -266t-380.5 -98q-155 0 -295.5 58t-242.5 155.5t-162 232.5t-60 283t60 283t162 232.5t242.5 155.5t295.5 58zM879 68q139 0 265 52t217 139.5t144.5 208t53.5 253.5t-53.5 254t-144.5 209t-217 140
t-265 52q-138 0 -264.5 -52t-217.5 -140t-145.5 -209t-54.5 -254t54 -253.5t145.5 -208t218 -139.5t264.5 -52zM547 1559l-55 8q15 106 70.5 162.5t146.5 56.5q63 0 174 -49t164 -49q51 0 91.5 40.5t53.5 118.5l55 -8q-16 -107 -70 -162t-126 -55q-51 0 -114.5 24.5t-123 49
t-100.5 24.5q-135 0 -166 -161z" />
    <glyph glyph-name="Odieresis" unicode="&#xd6;" horiz-adv-x="1757" 
d="M879 1450q206 0 380.5 -98t275.5 -266t101 -365t-101 -365t-275.5 -266t-380.5 -98q-155 0 -295.5 58t-242.5 155.5t-162 232.5t-60 283t60 283t162 232.5t242.5 155.5t295.5 58zM879 68q139 0 265 52t217 139.5t144.5 208t53.5 253.5t-53.5 254t-144.5 209t-217 140
t-265 52q-138 0 -264.5 -52t-217.5 -140t-145.5 -209t-54.5 -254t54 -253.5t145.5 -208t218 -139.5t264.5 -52zM717 1712q26 0 43.5 -16.5t17.5 -42.5t-17.5 -43t-43.5 -17t-44 17t-18 43t17.5 42.5t44.5 16.5zM1030 1712q27 0 44.5 -16.5t17.5 -42.5t-18 -43t-44 -17
t-43.5 17t-17.5 43t17.5 42.5t43.5 16.5z" />
    <glyph glyph-name="multiply" unicode="&#xd7;" horiz-adv-x="1128" 
d="M633 647l418 -416l-43 -47l-420 418l-416 -416l-45 45l418 416l-418 416l45 47l416 -420l420 420l45 -45z" />
    <glyph glyph-name="Oslash" unicode="&#xd8;" horiz-adv-x="1757" 
d="M225 0l152 174q-122 101 -190 243.5t-68 303.5q0 148 60 283t162 232.5t242.5 155.5t295.5 58q257 0 464 -154l130 148h77l-159 -184q115 -104 180 -243t65 -296q0 -197 -101 -365t-275.5 -266t-380.5 -98q-254 0 -457 147l-121 -139h-76zM197 721q0 -143 60.5 -269
t168.5 -219l868 1004q-182 139 -415 139q-138 0 -264.5 -52t-217.5 -140t-145.5 -209t-54.5 -254zM879 68q139 0 265 52t217 139.5t144.5 208t53.5 253.5q0 139 -59 263.5t-163 215.5l-866 -1001q179 -131 408 -131z" />
    <glyph glyph-name="Ugrave" unicode="&#xd9;" horiz-adv-x="1544" 
d="M1352 1444v-864q0 -123 -38 -229.5t-110 -186.5t-183.5 -126t-250.5 -46q-137 0 -247.5 45.5t-181.5 125.5t-108.5 186.5t-37.5 230.5v864h73v-856q0 -150 56.5 -266.5t171.5 -185t274 -68.5q240 0 373 145.5t133 374.5v856h76zM745 1552l-337 312l92 8l317 -320h-72z
" />
    <glyph glyph-name="Uacute" unicode="&#xda;" horiz-adv-x="1544" 
d="M1352 1444v-864q0 -123 -38 -229.5t-110 -186.5t-183.5 -126t-250.5 -46q-137 0 -247.5 45.5t-181.5 125.5t-108.5 186.5t-37.5 230.5v864h73v-856q0 -150 56.5 -266.5t171.5 -185t274 -68.5q240 0 373 145.5t133 374.5v856h76zM1153 1864l-336 -312h-72l318 320z" />
    <glyph glyph-name="Ucircumflex" unicode="&#xdb;" horiz-adv-x="1544" 
d="M1352 1444v-864q0 -123 -38 -229.5t-110 -186.5t-183.5 -126t-250.5 -46q-137 0 -247.5 45.5t-181.5 125.5t-108.5 186.5t-37.5 230.5v864h73v-856q0 -150 56.5 -266.5t171.5 -185t274 -68.5q240 0 373 145.5t133 374.5v856h76zM459 1552l291 275h53l293 -275h-86
l-234 213l-231 -213h-86z" />
    <glyph glyph-name="Udieresis" unicode="&#xdc;" horiz-adv-x="1544" 
d="M1352 1444v-864q0 -123 -38 -229.5t-110 -186.5t-183.5 -126t-250.5 -46q-137 0 -247.5 45.5t-181.5 125.5t-108.5 186.5t-37.5 230.5v864h73v-856q0 -150 56.5 -266.5t171.5 -185t274 -68.5q240 0 373 145.5t133 374.5v856h76zM621 1712q26 0 43.5 -16.5t17.5 -42.5
t-17.5 -43t-43.5 -17t-44 17t-18 43t17.5 42.5t44.5 16.5zM934 1712q26 0 43.5 -16.5t17.5 -42.5t-17.5 -43t-43.5 -17t-44 17t-18 43t17.5 42.5t44.5 16.5z" />
    <glyph glyph-name="Yacute" unicode="&#xdd;" horiz-adv-x="1327" 
d="M1186 1444h90l-574 -944v-500h-75v500l-574 944h88l523 -866zM1047 1864l-336 -312h-72l317 320z" />
    <glyph glyph-name="Thorn" unicode="&#xde;" horiz-adv-x="1339" 
d="M195 0v1444h75v-232h475q107 0 193 -24.5t143 -66.5t95 -100.5t54.5 -125t16.5 -141.5q0 -126 -40.5 -220.5t-115 -152t-173.5 -85.5t-222 -28h-426v-268h-75zM270 338h426q106 0 191 24t149 73t98.5 130t34.5 189q0 81 -23 148.5t-72 123t-133.5 86.5t-197.5 31h-473
v-805z" />
    <glyph glyph-name="germandbls" unicode="&#xdf;" horiz-adv-x="1300" 
d="M850 864q110 -20 191 -88.5t118 -152t37 -170.5q0 -143 -66.5 -249.5t-175.5 -159t-245 -52.5q-135 0 -242 37l16 67q109 -33 222 -33q179 0 298 104t119 286q0 65 -25 129t-73 118.5t-128.5 88.5t-180.5 34h-53v66h43q111 0 191.5 78.5t80.5 206.5q0 147 -102.5 229
t-268.5 82q-152 0 -253 -123.5t-101 -327.5v-1380h-74v1374q0 239 122.5 381.5t305.5 142.5q198 0 321.5 -100t123.5 -281q0 -113 -57 -194.5t-144 -112.5z" />
    <glyph glyph-name="agrave" unicode="&#xe0;" horiz-adv-x="1366" 
d="M1116 1104h72v-1104h-72v133q-179 -141 -436 -141q-157 0 -289 76.5t-208.5 207t-76.5 283.5q0 152 76.5 282t208.5 206.5t289 76.5q126 0 241.5 -39.5t194.5 -107.5v127zM1116 219v674q-78 76 -189 118t-241 42q-138 0 -255 -66.5t-185 -180t-68 -247.5q0 -135 68 -249
t185 -180.5t255 -66.5q133 0 243.5 40.5t186.5 115.5zM655 1264l-338 311l93 8l317 -319h-72z" />
    <glyph glyph-name="aacute" unicode="&#xe1;" horiz-adv-x="1366" 
d="M1116 1104h72v-1104h-72v133q-179 -141 -436 -141q-157 0 -289 76.5t-208.5 207t-76.5 283.5q0 152 76.5 282t208.5 206.5t289 76.5q126 0 241.5 -39.5t194.5 -107.5v127zM1116 219v674q-78 76 -189 118t-241 42q-138 0 -255 -66.5t-185 -180t-68 -247.5q0 -135 68 -249
t185 -180.5t255 -66.5q133 0 243.5 40.5t186.5 115.5zM1063 1575l-336 -311h-72l318 319z" />
    <glyph glyph-name="acircumflex" unicode="&#xe2;" horiz-adv-x="1366" 
d="M1116 1104h72v-1104h-72v133q-179 -141 -436 -141q-157 0 -289 76.5t-208.5 207t-76.5 283.5q0 152 76.5 282t208.5 206.5t289 76.5q126 0 241.5 -39.5t194.5 -107.5v127zM1116 219v674q-78 76 -189 118t-241 42q-138 0 -255 -66.5t-185 -180t-68 -247.5q0 -135 68 -249
t185 -180.5t255 -66.5q133 0 243.5 40.5t186.5 115.5zM385 1264l291 274h53l293 -274h-86l-234 213l-231 -213h-86z" />
    <glyph glyph-name="atilde" unicode="&#xe3;" horiz-adv-x="1366" 
d="M1116 1104h72v-1104h-72v133q-179 -141 -436 -141q-157 0 -289 76.5t-208.5 207t-76.5 283.5q0 152 76.5 282t208.5 206.5t289 76.5q126 0 241.5 -39.5t194.5 -107.5v127zM1116 219v674q-78 76 -189 118t-241 42q-138 0 -255 -66.5t-185 -180t-68 -247.5q0 -135 68 -249
t185 -180.5t255 -66.5q133 0 243.5 40.5t186.5 115.5zM383 1270l-55 8q15 106 70.5 162.5t146.5 56.5q63 0 174 -49t164 -49q51 0 91.5 41t53.5 119l55 -9q-16 -107 -70 -162t-126 -55q-51 0 -114.5 24.5t-123 49.5t-100.5 25q-135 0 -166 -162z" />
    <glyph glyph-name="adieresis" unicode="&#xe4;" horiz-adv-x="1366" 
d="M1116 1104h72v-1104h-72v133q-179 -141 -436 -141q-157 0 -289 76.5t-208.5 207t-76.5 283.5q0 152 76.5 282t208.5 206.5t289 76.5q126 0 241.5 -39.5t194.5 -107.5v127zM1116 219v674q-78 76 -189 118t-241 42q-138 0 -255 -66.5t-185 -180t-68 -247.5q0 -135 68 -249
t185 -180.5t255 -66.5q133 0 243.5 40.5t186.5 115.5zM549 1423q26 0 43.5 -16.5t17.5 -42.5t-17.5 -42.5t-43.5 -16.5q-27 0 -44.5 16.5t-17.5 42.5t17.5 42.5t44.5 16.5zM862 1423q27 0 44.5 -16.5t17.5 -42.5t-17.5 -42.5t-44.5 -16.5q-26 0 -43.5 16.5t-17.5 42.5
t17.5 42.5t43.5 16.5z" />
    <glyph glyph-name="aring" unicode="&#xe5;" horiz-adv-x="1366" 
d="M1116 1104h72v-1104h-72v133q-179 -141 -436 -141q-157 0 -289 76.5t-208.5 207t-76.5 283.5q0 152 76.5 282t208.5 206.5t289 76.5q126 0 241.5 -39.5t194.5 -107.5v127zM1116 219v674q-78 76 -189 118t-241 42q-138 0 -255 -66.5t-185 -180t-68 -247.5q0 -135 68 -249
t185 -180.5t255 -66.5q133 0 243.5 40.5t186.5 115.5zM526 1477q0 70 51.5 121t122.5 51t122.5 -51t51.5 -121t-51.5 -121t-122.5 -51t-122.5 51t-51.5 121zM700 1362q47 0 82 34.5t35 80.5t-35 80t-82 34t-81.5 -34t-34.5 -80t34.5 -80.5t81.5 -34.5z" />
    <glyph glyph-name="ae" unicode="&#xe6;" horiz-adv-x="2326" 
d="M1190 0h-74v133q-179 -141 -434 -141q-156 0 -288.5 75t-210 205.5t-77.5 286.5q0 155 77.5 285t210 205t288.5 75q126 0 241.5 -39.5t192.5 -107.5v127h74v-293q63 141 195 227t301 86q245 0 388.5 -159t143.5 -414v-25h-1018q9 -199 145.5 -332t344.5 -133
q135 0 246 49t182 138l53 -43q-78 -99 -204 -156t-279 -57q-171 0 -303 85t-195 226v-303zM1116 219v674q-77 76 -188 118t-240 42q-138 0 -255.5 -66t-186 -179.5t-68.5 -248.5q0 -136 68.5 -250t186 -180t255.5 -66q132 0 242 41t186 115zM1686 1057q-204 0 -340.5 -133.5
t-145.5 -331.5h944q-11 207 -134.5 336t-323.5 129z" />
    <glyph glyph-name="ccedilla" unicode="&#xe7;" horiz-adv-x="1206" 
d="M567 -152l90 146q-114 9 -216.5 56.5t-176.5 122t-117 175t-43 209.5q0 154 80.5 284.5t219 206.5t301.5 76q119 0 222.5 -49t178.5 -137l-53 -47q-65 75 -155.5 118.5t-192.5 43.5q-218 0 -372.5 -145.5t-154.5 -350.5q0 -134 70.5 -247.5t192 -180t264.5 -66.5
q101 0 191.5 45t156.5 123l51 -51q-74 -87 -176.5 -137t-216.5 -51l-54 -111q54 0 88.5 -30.5t34.5 -81.5q0 -59 -46 -104.5t-138 -45.5q-36 0 -66.5 4.5t-46.5 9.5l-16 5l12 45q47 -15 107 -15q65 0 98 30.5t33 72.5q0 77 -150 77z" />
    <glyph glyph-name="egrave" unicode="&#xe8;" horiz-adv-x="1304" 
d="M1196 551v-25h-1016q12 -200 154 -331.5t336 -131.5q128 0 240 48t184 139l57 -45q-78 -99 -205 -156t-280 -57q-162 0 -291.5 76.5t-200 205t-70.5 283.5q0 156 70.5 285t200 205.5t291.5 76.5q243 0 386.5 -159t143.5 -414zM666 1055q-204 0 -340.5 -132.5
t-145.5 -330.5h944q-11 207 -133.5 335t-324.5 128zM625 1264l-338 311l92 8l317 -319h-71z" />
    <glyph glyph-name="eacute" unicode="&#xe9;" horiz-adv-x="1304" 
d="M1196 551v-25h-1016q12 -200 154 -331.5t336 -131.5q128 0 240 48t184 139l57 -45q-78 -99 -205 -156t-280 -57q-162 0 -291.5 76.5t-200 205t-70.5 283.5q0 156 70.5 285t200 205.5t291.5 76.5q243 0 386.5 -159t143.5 -414zM666 1055q-204 0 -340.5 -132.5
t-145.5 -330.5h944q-11 207 -133.5 335t-324.5 128zM1030 1575l-336 -311h-71l317 319z" />
    <glyph glyph-name="ecircumflex" unicode="&#xea;" horiz-adv-x="1304" 
d="M1196 551v-25h-1016q12 -200 154 -331.5t336 -131.5q128 0 240 48t184 139l57 -45q-78 -99 -205 -156t-280 -57q-162 0 -291.5 76.5t-200 205t-70.5 283.5q0 156 70.5 285t200 205.5t291.5 76.5q243 0 386.5 -159t143.5 -414zM666 1055q-204 0 -340.5 -132.5
t-145.5 -330.5h944q-11 207 -133.5 335t-324.5 128zM336 1264l291 274h53l293 -274h-86l-234 213l-231 -213h-86z" />
    <glyph glyph-name="edieresis" unicode="&#xeb;" horiz-adv-x="1304" 
d="M1196 551v-25h-1016q12 -200 154 -331.5t336 -131.5q128 0 240 48t184 139l57 -45q-78 -99 -205 -156t-280 -57q-162 0 -291.5 76.5t-200 205t-70.5 283.5q0 156 70.5 285t200 205.5t291.5 76.5q243 0 386.5 -159t143.5 -414zM666 1055q-204 0 -340.5 -132.5
t-145.5 -330.5h944q-11 207 -133.5 335t-324.5 128zM498 1423q26 0 43.5 -16.5t17.5 -42.5t-17.5 -42.5t-43.5 -16.5q-27 0 -44.5 16.5t-17.5 42.5t17.5 42.5t44.5 16.5zM811 1423q26 0 43.5 -16.5t17.5 -42.5t-17.5 -42.5t-43.5 -16.5t-43.5 16.5t-17.5 42.5t17.5 42.5
t43.5 16.5z" />
    <glyph glyph-name="igrave" unicode="&#xec;" horiz-adv-x="436" 
d="M188 1243l-338 311l93 9l317 -320h-72zM180 0v1104h76v-1104h-76z" />
    <glyph glyph-name="iacute" unicode="&#xed;" horiz-adv-x="436" 
d="M598 1554l-336 -311h-72l318 320zM180 0v1104h76v-1104h-76z" />
    <glyph glyph-name="icircumflex" unicode="&#xee;" horiz-adv-x="436" 
d="M180 0v1104h76v-1104h-76zM-98 1243l291 275h53l293 -275h-86l-234 213l-231 -213h-86z" />
    <glyph glyph-name="idieresis" unicode="&#xef;" horiz-adv-x="436" 
d="M63 1403q26 0 44 -17t18 -43t-17.5 -42.5t-44.5 -16.5q-26 0 -43.5 16.5t-17.5 42.5t17.5 43t43.5 17zM377 1403q26 0 43.5 -17t17.5 -43t-17.5 -42.5t-43.5 -16.5q-27 0 -44.5 16.5t-17.5 42.5t18 43t44 17zM180 0v1104h76v-1104h-76z" />
    <glyph glyph-name="eth" unicode="&#xf0;" horiz-adv-x="1361" 
d="M469 1544h94q14 -14 86 -81.5t113 -108.5l303 106l35 -51l-293 -102q96 -96 171.5 -184.5t146 -192t109 -208.5t38.5 -202q-1 -141 -81.5 -263t-218.5 -193.5t-300 -71.5t-300 72t-218 194.5t-80 263.5q0 140 77.5 257.5t211.5 186t296 70.5q259 3 416 -157l-43 65
q-107 152 -297 338l-358 -125l-37 49l350 123q-17 17 -221 215zM672 61q143 0 264 63.5t191.5 172.5t70.5 238q0 98 -46 182.5t-120.5 139t-168.5 85.5t-191 31q-143 0 -264 -59.5t-191 -163.5t-70 -228q0 -188 154 -324.5t371 -136.5z" />
    <glyph glyph-name="ntilde" unicode="&#xf1;" horiz-adv-x="1310" 
d="M684 1124q210 0 342.5 -127t132.5 -360v-637h-74v637q0 196 -114.5 306t-292.5 110q-251 0 -426 -154v-899h-74v1104h74v-133q75 74 187 113.5t245 39.5zM340 1249l-55 8q15 106 71 163t146 57q63 0 174 -49.5t164 -49.5q51 0 91.5 41t53.5 119l55 -8q-16 -107 -70 -162
t-126 -55q-51 0 -114.5 24.5t-123 49t-100.5 24.5q-135 0 -166 -162z" />
    <glyph glyph-name="ograve" unicode="&#xf2;" horiz-adv-x="1406" 
d="M702 1124q162 0 300 -76t218 -206.5t80 -284.5q0 -153 -80 -283t-218 -206t-300 -76q-163 0 -301.5 76t-218.5 206t-80 283q0 154 80 284.5t218.5 206.5t301.5 76zM702 63q142 0 263 66.5t191.5 180t70.5 247.5q0 135 -70.5 249t-191.5 180.5t-263 66.5
q-143 0 -264 -66.5t-191.5 -180.5t-70.5 -249q0 -134 70.5 -247.5t191.5 -180t264 -66.5zM659 1243l-337 311l92 9l317 -320h-72z" />
    <glyph glyph-name="oacute" unicode="&#xf3;" horiz-adv-x="1406" 
d="M702 1124q162 0 300 -76t218 -206.5t80 -284.5q0 -153 -80 -283t-218 -206t-300 -76q-163 0 -301.5 76t-218.5 206t-80 283q0 154 80 284.5t218.5 206.5t301.5 76zM702 63q142 0 263 66.5t191.5 180t70.5 247.5q0 135 -70.5 249t-191.5 180.5t-263 66.5
q-143 0 -264 -66.5t-191.5 -180.5t-70.5 -249q0 -134 70.5 -247.5t191.5 -180t264 -66.5zM1065 1554l-336 -311h-72l318 320z" />
    <glyph glyph-name="ocircumflex" unicode="&#xf4;" horiz-adv-x="1406" 
d="M702 1124q162 0 300 -76t218 -206.5t80 -284.5q0 -153 -80 -283t-218 -206t-300 -76q-163 0 -301.5 76t-218.5 206t-80 283q0 154 80 284.5t218.5 206.5t301.5 76zM702 63q142 0 263 66.5t191.5 180t70.5 247.5q0 135 -70.5 249t-191.5 180.5t-263 66.5
q-143 0 -264 -66.5t-191.5 -180.5t-70.5 -249q0 -134 70.5 -247.5t191.5 -180t264 -66.5zM375 1243l291 275h53l293 -275h-86l-234 213l-231 -213h-86z" />
    <glyph glyph-name="otilde" unicode="&#xf5;" horiz-adv-x="1406" 
d="M702 1124q162 0 300 -76t218 -206.5t80 -284.5q0 -153 -80 -283t-218 -206t-300 -76q-163 0 -301.5 76t-218.5 206t-80 283q0 154 80 284.5t218.5 206.5t301.5 76zM702 63q142 0 263 66.5t191.5 180t70.5 247.5q0 135 -70.5 249t-191.5 180.5t-263 66.5
q-143 0 -264 -66.5t-191.5 -180.5t-70.5 -249q0 -134 70.5 -247.5t191.5 -180t264 -66.5zM373 1249l-56 8q15 106 71 163t147 57q63 0 173.5 -49.5t163.5 -49.5q51 0 92 41t54 119l55 -8q-16 -107 -70 -162t-126 -55q-51 0 -114.5 24.5t-123 49t-100.5 24.5
q-135 0 -166 -162z" />
    <glyph glyph-name="odieresis" unicode="&#xf6;" horiz-adv-x="1406" 
d="M702 1124q162 0 300 -76t218 -206.5t80 -284.5q0 -153 -80 -283t-218 -206t-300 -76q-163 0 -301.5 76t-218.5 206t-80 283q0 154 80 284.5t218.5 206.5t301.5 76zM702 63q142 0 263 66.5t191.5 180t70.5 247.5q0 135 -70.5 249t-191.5 180.5t-263 66.5
q-143 0 -264 -66.5t-191.5 -180.5t-70.5 -249q0 -134 70.5 -247.5t191.5 -180t264 -66.5zM537 1403q26 0 43.5 -17t17.5 -43t-17.5 -42.5t-43.5 -16.5q-27 0 -44.5 16.5t-17.5 42.5t18 43t44 17zM850 1403q26 0 43.5 -17t17.5 -43t-17.5 -42.5t-43.5 -16.5q-27 0 -44.5 16.5
t-17.5 42.5t18 43t44 17z" />
    <glyph glyph-name="divide" unicode="&#xf7;" horiz-adv-x="1077" 
d="M981 711v-64h-881v64h881zM530 1098q-25 0 -41 16t-16 41t16 41t41 16t41.5 -16t16.5 -41t-16.5 -41t-41.5 -16zM530 94q-25 0 -41 16.5t-16 41.5t16 42t41 17t41.5 -17t16.5 -42t-16.5 -41.5t-41.5 -16.5z" />
    <glyph glyph-name="oslash" unicode="&#xf8;" horiz-adv-x="1406" 
d="M170 0l125 143q-91 78 -142 185.5t-51 228.5q0 154 80 284.5t218.5 206.5t301.5 76q201 0 359 -114l94 108h74l-127 -141q94 -79 146 -188t52 -232q0 -153 -80 -283t-218 -206t-300 -76q-201 0 -364 117l-96 -109h-72zM702 63q142 0 263 66.5t191.5 180t70.5 247.5
q0 106 -45.5 200.5t-128.5 162.5l-668 -756q141 -101 317 -101zM176 557q0 -105 44.5 -197.5t123.5 -160.5l668 755q-140 99 -310 99q-143 0 -264 -66.5t-191.5 -180.5t-70.5 -249z" />
    <glyph glyph-name="ugrave" unicode="&#xf9;" horiz-adv-x="1331" 
d="M1079 1104h74v-1104h-74v145q-79 -73 -196 -113t-254 -40q-210 0 -342.5 127t-132.5 360v625h71v-625q0 -196 115.5 -306t294.5 -110q263 0 444 154v887zM637 1243l-338 311l92 9l318 -320h-72z" />
    <glyph glyph-name="uacute" unicode="&#xfa;" horiz-adv-x="1331" 
d="M1079 1104h74v-1104h-74v145q-79 -73 -196 -113t-254 -40q-210 0 -342.5 127t-132.5 360v625h71v-625q0 -196 115.5 -306t294.5 -110q263 0 444 154v887zM1042 1554l-335 -311h-72l317 320z" />
    <glyph glyph-name="ucircumflex" unicode="&#xfb;" horiz-adv-x="1331" 
d="M1079 1104h74v-1104h-74v145q-79 -73 -196 -113t-254 -40q-210 0 -342.5 127t-132.5 360v625h71v-625q0 -196 115.5 -306t294.5 -110q263 0 444 154v887zM332 1243l291 275h53l293 -275h-86l-234 213l-231 -213h-86z" />
    <glyph glyph-name="udieresis" unicode="&#xfc;" horiz-adv-x="1331" 
d="M1079 1104h74v-1104h-74v145q-79 -73 -196 -113t-254 -40q-210 0 -342.5 127t-132.5 360v625h71v-625q0 -196 115.5 -306t294.5 -110q263 0 444 154v887zM492 1403q26 0 43.5 -17t17.5 -43t-17.5 -42.5t-43.5 -16.5q-27 0 -44.5 16.5t-17.5 42.5t18 43t44 17zM805 1403
q26 0 43.5 -17t17.5 -43t-17.5 -42.5t-43.5 -16.5q-27 0 -44.5 16.5t-17.5 42.5t18 43t44 17z" />
    <glyph glyph-name="yacute" unicode="&#xfd;" horiz-adv-x="1245" 
d="M1087 1104h80l-469 -1163q-36 -90 -102 -155t-150 -99t-168.5 -49t-177.5 -15h-10l4 66h23q194 0 332 75.5t194 235.5h-61l-512 1104h82l473 -1022h51zM1016 1554l-336 -311h-72l318 320z" />
    <glyph glyph-name="thorn" unicode="&#xfe;" horiz-adv-x="1372" 
d="M686 1124q156 0 288.5 -75t210 -205t77.5 -285q0 -156 -77.5 -286.5t-210 -205.5t-288.5 -75q-263 0 -434 139v-489h-74v1902h74v-567q77 68 192.5 107.5t241.5 39.5zM680 63q138 0 255 66t185 180t68 250q0 135 -68 248.5t-185 179.5t-255 66q-265 0 -428 -160v-674
q74 -74 184.5 -115t243.5 -41z" />
    <glyph glyph-name="ydieresis" unicode="&#xff;" horiz-adv-x="1245" 
d="M1087 1104h80l-469 -1163q-36 -90 -102 -155t-150 -99t-168.5 -49t-177.5 -15h-10l4 66h23q194 0 332 75.5t194 235.5h-61l-512 1104h82l473 -1022h51zM483 1403q26 0 44 -17t18 -43t-17.5 -42.5t-44.5 -16.5q-26 0 -43.5 16.5t-17.5 42.5t17.5 43t43.5 17zM797 1403
q26 0 43.5 -17t17.5 -43t-17.5 -42.5t-43.5 -16.5q-27 0 -44.5 16.5t-17.5 42.5t18 43t44 17z" />
    <glyph glyph-name="Amacron" unicode="&#x100;" horiz-adv-x="1458" 
d="M1327 0l-186 418h-826l-184 -418h-82l651 1444h58l649 -1444h-80zM727 1352l-383 -869h770zM403 1626v60h648v-60h-648z" />
    <glyph glyph-name="amacron" unicode="&#x101;" horiz-adv-x="1366" 
d="M1116 1104h72v-1104h-72v133q-179 -141 -436 -141q-157 0 -289 76.5t-208.5 207t-76.5 283.5q0 152 76.5 282t208.5 206.5t289 76.5q126 0 241.5 -39.5t194.5 -107.5v127zM1116 219v674q-78 76 -189 118t-241 42q-138 0 -255 -66.5t-185 -180t-68 -247.5q0 -135 68 -249
t185 -180.5t255 -66.5q133 0 243.5 40.5t186.5 115.5zM360 1337v60h648v-60h-648z" />
    <glyph glyph-name="Abreve" unicode="&#x102;" horiz-adv-x="1458" 
d="M1327 0l-186 418h-826l-184 -418h-82l651 1444h58l649 -1444h-80zM727 1352l-383 -869h770zM729 1597q-126 0 -201.5 65.5t-87.5 195.5q3 0 32 2t32 2q7 -100 66 -148.5t159 -48.5q99 0 157.5 48.5t67.5 148.5l62 -4q-10 -130 -86 -195.5t-201 -65.5z" />
    <glyph glyph-name="abreve" unicode="&#x103;" horiz-adv-x="1366" 
d="M1116 1104h72v-1104h-72v133q-179 -141 -436 -141q-157 0 -289 76.5t-208.5 207t-76.5 283.5q0 152 76.5 282t208.5 206.5t289 76.5q126 0 241.5 -39.5t194.5 -107.5v127zM1116 219v674q-78 76 -189 118t-241 42q-138 0 -255 -66.5t-185 -180t-68 -247.5q0 -135 68 -249
t185 -180.5t255 -66.5q133 0 243.5 40.5t186.5 115.5zM688 1309q-126 0 -201.5 65t-87.5 195q3 0 32 2t32 2q7 -100 66 -148.5t159 -48.5q99 0 157.5 48.5t67.5 148.5l62 -4q-10 -130 -86 -195t-201 -65z" />
    <glyph glyph-name="Aogonek" unicode="&#x104;" horiz-adv-x="1458" 
d="M1327 0l-186 418h-826l-184 -418h-82l651 1444h58l649 -1444l-1 -1q-13 -12 -27.5 -26.5t-42 -46t-45 -66.5t-17.5 -65q0 -82 108 -82q14 0 78 11l10 -60q-67 -12 -112 -12q-74 0 -114 34.5t-40 94.5q0 45 28 94.5t53.5 76.5t51.5 48h-10zM727 1352l-383 -869h770z" />
    <glyph glyph-name="aogonek" unicode="&#x105;" horiz-adv-x="1366" 
d="M1241 -276l10 -60q-68 -12 -112 -12q-74 0 -114 34.5t-40 94.5q0 45 28 94.5t53.5 76.5t51.5 48h-2v133q-179 -141 -436 -141q-157 0 -289 76.5t-208.5 207t-76.5 283.5q0 152 76.5 282t208.5 206.5t289 76.5q126 0 241.5 -39.5t194.5 -107.5v127h72v-1104l-1 -1
q-13 -12 -27.5 -26.5t-42 -46t-45 -66.5t-17.5 -65q0 -82 108 -82q14 0 78 11zM1116 219v674q-78 76 -189 118t-241 42q-138 0 -255 -66.5t-185 -180t-68 -247.5q0 -135 68 -249t185 -180.5t255 -66.5q133 0 243.5 40.5t186.5 115.5z" />
    <glyph glyph-name="Cacute" unicode="&#x106;" horiz-adv-x="1572" 
d="M874 68q158 0 296.5 66t232.5 181l59 -51q-106 -127 -259.5 -199.5t-328.5 -72.5q-153 0 -293 58t-241 155.5t-161 232.5t-60 283t60 283t161 233t241 156.5t293 58.5q175 0 328 -73.5t260 -200.5l-59 -52q-95 115 -233 182.5t-296 67.5q-183 0 -338.5 -87.5t-246 -238.5
t-90.5 -329t90.5 -328.5t245.5 -237.5t339 -87zM1223 1864l-336 -312h-72l318 320z" />
    <glyph glyph-name="cacute" unicode="&#x107;" horiz-adv-x="1206" 
d="M1053 231l51 -51q-76 -89 -179.5 -138.5t-219.5 -49.5q-163 0 -301.5 76t-219 206t-80.5 283q0 154 80.5 284.5t219 206.5t301.5 76q119 0 222.5 -49t178.5 -137l-53 -47q-65 75 -155.5 118.5t-192.5 43.5q-218 0 -372.5 -145.5t-154.5 -350.5q0 -134 70.5 -247.5
t192 -180t264.5 -66.5q101 0 191.5 45t156.5 123zM1049 1575l-336 -311h-72l317 319z" />
    <glyph glyph-name="Ccircumflex" unicode="&#x108;" horiz-adv-x="1572" 
d="M874 68q158 0 296.5 66t232.5 181l59 -51q-106 -127 -259.5 -199.5t-328.5 -72.5q-153 0 -293 58t-241 155.5t-161 232.5t-60 283t60 283t161 233t241 156.5t293 58.5q175 0 328 -73.5t260 -200.5l-59 -52q-95 115 -233 182.5t-296 67.5q-183 0 -338.5 -87.5t-246 -238.5
t-90.5 -329t90.5 -328.5t245.5 -237.5t339 -87zM528 1552l291 275h53l293 -275h-86l-233 213l-232 -213h-86z" />
    <glyph glyph-name="ccircumflex" unicode="&#x109;" horiz-adv-x="1206" 
d="M1053 231l51 -51q-76 -89 -179.5 -138.5t-219.5 -49.5q-163 0 -301.5 76t-219 206t-80.5 283q0 154 80.5 284.5t219 206.5t301.5 76q119 0 222.5 -49t178.5 -137l-53 -47q-65 75 -155.5 118.5t-192.5 43.5q-218 0 -372.5 -145.5t-154.5 -350.5q0 -134 70.5 -247.5
t192 -180t264.5 -66.5q101 0 191.5 45t156.5 123zM354 1264l291 274h53l293 -274h-86l-233 213l-232 -213h-86z" />
    <glyph glyph-name="Cdotaccent" unicode="&#x10a;" horiz-adv-x="1572" 
d="M874 68q158 0 296.5 66t232.5 181l59 -51q-106 -127 -259.5 -199.5t-328.5 -72.5q-153 0 -293 58t-241 155.5t-161 232.5t-60 283t60 283t161 233t241 156.5t293 58.5q175 0 328 -73.5t260 -200.5l-59 -52q-95 115 -233 182.5t-296 67.5q-183 0 -338.5 -87.5t-246 -238.5
t-90.5 -329t90.5 -328.5t245.5 -237.5t339 -87zM864 1712q27 0 44.5 -16.5t17.5 -42.5t-18 -43t-44 -17t-43.5 17t-17.5 43t17.5 42.5t43.5 16.5z" />
    <glyph glyph-name="cdotaccent" unicode="&#x10b;" horiz-adv-x="1206" 
d="M1053 231l51 -51q-76 -89 -179.5 -138.5t-219.5 -49.5q-163 0 -301.5 76t-219 206t-80.5 283q0 154 80.5 284.5t219 206.5t301.5 76q119 0 222.5 -49t178.5 -137l-53 -47q-65 75 -155.5 118.5t-192.5 43.5q-218 0 -372.5 -145.5t-154.5 -350.5q0 -134 70.5 -247.5
t192 -180t264.5 -66.5q101 0 191.5 45t156.5 123zM690 1423q27 0 44.5 -16.5t17.5 -42.5t-17.5 -42.5t-44.5 -16.5q-26 0 -43.5 16.5t-17.5 42.5t17.5 42.5t43.5 16.5z" />
    <glyph glyph-name="Ccaron" unicode="&#x10c;" horiz-adv-x="1572" 
d="M874 68q158 0 296.5 66t232.5 181l59 -51q-106 -127 -259.5 -199.5t-328.5 -72.5q-153 0 -293 58t-241 155.5t-161 232.5t-60 283t60 283t161 233t241 156.5t293 58.5q175 0 328 -73.5t260 -200.5l-59 -52q-95 115 -233 182.5t-296 67.5q-183 0 -338.5 -87.5t-246 -238.5
t-90.5 -329t90.5 -328.5t245.5 -237.5t339 -87zM838 1552l-291 275h86l231 -213l234 213h86l-293 -275h-53z" />
    <glyph glyph-name="ccaron" unicode="&#x10d;" horiz-adv-x="1206" 
d="M1053 231l51 -51q-76 -89 -179.5 -138.5t-219.5 -49.5q-163 0 -301.5 76t-219 206t-80.5 283q0 154 80.5 284.5t219 206.5t301.5 76q119 0 222.5 -49t178.5 -137l-53 -47q-65 75 -155.5 118.5t-192.5 43.5q-218 0 -372.5 -145.5t-154.5 -350.5q0 -134 70.5 -247.5
t192 -180t264.5 -66.5q101 0 191.5 45t156.5 123zM641 1264l-291 274h86l232 -213l233 213h86l-293 -274h-53z" />
    <glyph glyph-name="Dcaron" unicode="&#x10e;" horiz-adv-x="1484" 
d="M1366 721q0 -188 -90.5 -349.5t-246.5 -260.5t-343 -111h-491v1444h444q197 0 364.5 -97t265 -263.5t97.5 -362.5zM270 72h410q124 11 236 66t193.5 140.5t130 201t48.5 241.5q0 177 -87 327t-236.5 237t-325.5 87h-369v-1300zM637 1552l-291 275h86l232 -213l233 213h86
l-293 -275h-53z" />
    <glyph glyph-name="dcaron" unicode="&#x10f;" horiz-adv-x="1490" 
d="M1116 1544h74v-1544h-74v137q-77 -68 -192 -106.5t-242 -38.5q-156 0 -289 75t-211 205t-78 285q0 156 78 286.5t211 205.5t289 75q255 0 434 -141v561zM686 63q130 0 241 42t189 118v674q-77 74 -187.5 115t-242.5 41q-137 0 -253.5 -66t-184.5 -180t-68 -250
q0 -135 68 -248.5t184.5 -179.5t253.5 -66zM1417 1444q66 0 66 -105q0 -90 -57.5 -151.5t-155.5 -61.5l-13 39q69 3 115 41.5t47 120.5q-25 1 -40 17.5t-15 39.5q0 26 16 43t37 17z" />
    <glyph glyph-name="Dcroat" unicode="&#x110;" horiz-adv-x="1497" 
d="M-10 690v66h217v688h444q197 0 364.5 -97t265 -263.5t97.5 -362.5q0 -189 -90 -355t-247.5 -266t-342.5 -100h-491v690h-217zM283 72h409q164 0 305 90.5t222 240t81 318.5q0 177 -87 327t-236.5 237t-325.5 87h-368v-616h426v-66h-426v-618zM338 1626v60h647v-60h-647z
" />
    <glyph glyph-name="dcroat" unicode="&#x111;" horiz-adv-x="1368" 
d="M1470 1325v-63h-280v-1262h-74v137q-77 -68 -192 -106.5t-242 -38.5q-156 0 -289 75t-211 205t-78 285q0 156 78 286.5t211 205.5t289 75q255 0 434 -141v279h-280v63h280v219h74v-219h280zM686 63q130 0 241 42t189 118v674q-77 74 -187.5 115t-242.5 41
q-137 0 -253.5 -66t-184.5 -180t-68 -250q0 -135 68 -248.5t184.5 -179.5t253.5 -66z" />
    <glyph glyph-name="Emacron" unicode="&#x112;" 
d="M270 72h918v-72h-993v1444h950v-72h-875v-637h748v-69h-748v-594zM358 1626v60h648v-60h-648z" />
    <glyph glyph-name="emacron" unicode="&#x113;" horiz-adv-x="1304" 
d="M1196 551v-25h-1016q12 -200 154 -331.5t336 -131.5q128 0 240 48t184 139l57 -45q-78 -99 -205 -156t-280 -57q-162 0 -291.5 76.5t-200 205t-70.5 283.5q0 156 70.5 285t200 205.5t291.5 76.5q243 0 386.5 -159t143.5 -414zM666 1055q-204 0 -340.5 -132.5
t-145.5 -330.5h944q-11 207 -133.5 335t-324.5 128zM344 1337v60h647v-60h-647z" />
    <glyph glyph-name="Ebreve" unicode="&#x114;" 
d="M270 72h918v-72h-993v1444h950v-72h-875v-637h748v-69h-748v-594zM686 1597q-126 0 -201.5 65.5t-87.5 195.5q3 0 32 2t32 2q7 -100 66 -148.5t159 -48.5q99 0 157.5 48.5t67.5 148.5l62 -4q-10 -130 -86 -195.5t-201 -65.5z" />
    <glyph glyph-name="ebreve" unicode="&#x115;" horiz-adv-x="1304" 
d="M1196 551v-25h-1016q12 -200 154 -331.5t336 -131.5q128 0 240 48t184 139l57 -45q-78 -99 -205 -156t-280 -57q-162 0 -291.5 76.5t-200 205t-70.5 283.5q0 156 70.5 285t200 205.5t291.5 76.5q243 0 386.5 -159t143.5 -414zM666 1055q-204 0 -340.5 -132.5
t-145.5 -330.5h944q-11 207 -133.5 335t-324.5 128zM655 1309q-126 0 -201 65t-87 195q3 0 31.5 2t31.5 2q7 -100 66 -148.5t159 -48.5q99 0 158 48.5t68 148.5l61 -4q-10 -130 -86 -195t-201 -65z" />
    <glyph glyph-name="Edotaccent" unicode="&#x116;" 
d="M270 72h918v-72h-993v1444h950v-72h-875v-637h748v-69h-748v-594zM684 1712q26 0 43.5 -16.5t17.5 -42.5t-17.5 -43t-43.5 -17t-43.5 17t-17.5 43t17.5 42.5t43.5 16.5z" />
    <glyph glyph-name="edotaccent" unicode="&#x117;" horiz-adv-x="1304" 
d="M1196 551v-25h-1016q12 -200 154 -331.5t336 -131.5q128 0 240 48t184 139l57 -45q-78 -99 -205 -156t-280 -57q-162 0 -291.5 76.5t-200 205t-70.5 283.5q0 156 70.5 285t200 205.5t291.5 76.5q243 0 386.5 -159t143.5 -414zM666 1055q-204 0 -340.5 -132.5
t-145.5 -330.5h944q-11 207 -133.5 335t-324.5 128zM653 1423q27 0 44.5 -16.5t17.5 -42.5t-17.5 -42.5t-44.5 -16.5q-26 0 -43.5 16.5t-17.5 42.5t17.5 42.5t43.5 16.5z" />
    <glyph glyph-name="Eogonek" unicode="&#x118;" 
d="M1241 -276l10 -60q-68 -12 -112 -12q-74 0 -114 34.5t-40 94.5q0 45 28 94.5t53.5 76.5t51.5 48h-923v1444h950v-72h-875v-637h748v-69h-748v-594h918v-72l-1 -1q-13 -12 -27.5 -26.5t-42 -46t-45 -66.5t-17.5 -65q0 -82 108 -82q14 0 78 11z" />
    <glyph glyph-name="eogonek" unicode="&#x119;" horiz-adv-x="1304" 
d="M856 -270l10 -60q-68 -12 -112 -12q-74 0 -114 34.5t-40 94.5q0 99 119 207q-18 -2 -53 -2q-162 0 -291.5 76.5t-200 205t-70.5 283.5q0 156 70.5 285t200 205.5t291.5 76.5q243 0 386.5 -159t143.5 -414v-25h-1016q12 -200 154 -331.5t336 -131.5q128 0 240 48t184 139
l57 -45q-128 -160 -350 -201q-14 -12 -39.5 -37t-58.5 -76t-33 -90q0 -82 108 -82q14 0 78 11zM666 1055q-204 0 -340.5 -132.5t-145.5 -330.5h944q-11 207 -133.5 335t-324.5 128z" />
    <glyph glyph-name="Ecaron" unicode="&#x11a;" 
d="M270 72h918v-72h-993v1444h950v-72h-875v-637h748v-69h-748v-594zM657 1552l-290 275h86l231 -213l234 213h86l-293 -275h-54z" />
    <glyph glyph-name="ecaron" unicode="&#x11b;" horiz-adv-x="1304" 
d="M1196 551v-25h-1016q12 -200 154 -331.5t336 -131.5q128 0 240 48t184 139l57 -45q-78 -99 -205 -156t-280 -57q-162 0 -291.5 76.5t-200 205t-70.5 283.5q0 156 70.5 285t200 205.5t291.5 76.5q243 0 386.5 -159t143.5 -414zM666 1055q-204 0 -340.5 -132.5
t-145.5 -330.5h944q-11 207 -133.5 335t-324.5 128zM627 1264l-291 274h86l231 -213l234 213h86l-293 -274h-53z" />
    <glyph glyph-name="Gcircumflex" unicode="&#x11c;" horiz-adv-x="1640" 
d="M842 670h659v-467q-121 -99 -282.5 -155t-339.5 -56q-154 0 -294.5 58t-242.5 155.5t-162.5 232.5t-60.5 283t60.5 283t162.5 232.5t242.5 155.5t294.5 58q174 0 318.5 -54.5t250.5 -152.5l-51 -55q-202 186 -518 186q-138 0 -264.5 -52t-218 -139.5t-145.5 -208
t-54 -253.5t54 -254.5t145.5 -209t218 -139.5t264.5 -52q315 0 546 176v358h-583v70zM530 1552l291 275h53l293 -275h-86l-233 213l-232 -213h-86z" />
    <glyph glyph-name="gcircumflex" unicode="&#x11d;" horiz-adv-x="1366" 
d="M1114 1104h74v-991q0 -102 -32.5 -190t-95 -156t-164 -107t-230.5 -39q-60 0 -109.5 2.5t-79.5 5t-71 11t-55.5 12t-64 18t-67.5 19.5l17 63q130 -38 205 -50.5t218 -12.5q116 0 206 34.5t143 92t79.5 125.5t26.5 141v47q-178 -137 -434 -137q-156 0 -289 76t-211 207
t-78 286q0 154 78 283.5t211 204.5t289 75q126 0 241.5 -39.5t192.5 -107.5v127zM178 561q0 -135 68 -249.5t184.5 -181.5t253.5 -67q273 0 430 154v676q-78 76 -189 118t-241 42q-137 0 -253.5 -66t-184.5 -179t-68 -247zM371 1264l291 274h53l293 -274h-86l-234 213
l-231 -213h-86z" />
    <glyph glyph-name="Gbreve" unicode="&#x11e;" horiz-adv-x="1640" 
d="M842 670h659v-467q-121 -99 -282.5 -155t-339.5 -56q-154 0 -294.5 58t-242.5 155.5t-162.5 232.5t-60.5 283t60.5 283t162.5 232.5t242.5 155.5t294.5 58q174 0 318.5 -54.5t250.5 -152.5l-51 -55q-202 186 -518 186q-138 0 -264.5 -52t-218 -139.5t-145.5 -208
t-54 -253.5t54 -254.5t145.5 -209t218 -139.5t264.5 -52q315 0 546 176v358h-583v70zM850 1597q-126 0 -201.5 65.5t-87.5 195.5q3 0 32 2t32 2q7 -100 66 -148.5t159 -48.5q99 0 157.5 48.5t67.5 148.5l62 -4q-10 -130 -86 -195.5t-201 -65.5z" />
    <glyph glyph-name="gbreve" unicode="&#x11f;" horiz-adv-x="1366" 
d="M1114 1104h74v-991q0 -102 -32.5 -190t-95 -156t-164 -107t-230.5 -39q-60 0 -109.5 2.5t-79.5 5t-71 11t-55.5 12t-64 18t-67.5 19.5l17 63q130 -38 205 -50.5t218 -12.5q116 0 206 34.5t143 92t79.5 125.5t26.5 141v47q-178 -137 -434 -137q-156 0 -289 76t-211 207
t-78 286q0 154 78 283.5t211 204.5t289 75q126 0 241.5 -39.5t192.5 -107.5v127zM178 561q0 -135 68 -249.5t184.5 -181.5t253.5 -67q273 0 430 154v676q-78 76 -189 118t-241 42q-137 0 -253.5 -66t-184.5 -179t-68 -247zM690 1309q-126 0 -201.5 65t-87.5 195q3 0 32 2
t32 2q7 -100 66 -148.5t159 -48.5q99 0 157.5 48.5t67.5 148.5l62 -4q-10 -130 -86 -195t-201 -65z" />
    <glyph glyph-name="Gdotaccent" unicode="&#x120;" horiz-adv-x="1640" 
d="M842 670h659v-467q-121 -99 -282.5 -155t-339.5 -56q-154 0 -294.5 58t-242.5 155.5t-162.5 232.5t-60.5 283t60.5 283t162.5 232.5t242.5 155.5t294.5 58q174 0 318.5 -54.5t250.5 -152.5l-51 -55q-202 186 -518 186q-138 0 -264.5 -52t-218 -139.5t-145.5 -208
t-54 -253.5t54 -254.5t145.5 -209t218 -139.5t264.5 -52q315 0 546 176v358h-583v70zM848 1712q26 0 43.5 -16.5t17.5 -42.5t-17.5 -43t-43.5 -17t-44 17t-18 43t17.5 42.5t44.5 16.5z" />
    <glyph glyph-name="gdotaccent" unicode="&#x121;" horiz-adv-x="1366" 
d="M1114 1104h74v-991q0 -102 -32.5 -190t-95 -156t-164 -107t-230.5 -39q-60 0 -109.5 2.5t-79.5 5t-71 11t-55.5 12t-64 18t-67.5 19.5l17 63q130 -38 205 -50.5t218 -12.5q116 0 206 34.5t143 92t79.5 125.5t26.5 141v47q-178 -137 -434 -137q-156 0 -289 76t-211 207
t-78 286q0 154 78 283.5t211 204.5t289 75q126 0 241.5 -39.5t192.5 -107.5v127zM178 561q0 -135 68 -249.5t184.5 -181.5t253.5 -67q273 0 430 154v676q-78 76 -189 118t-241 42q-137 0 -253.5 -66t-184.5 -179t-68 -247zM688 1423q27 0 44.5 -16.5t17.5 -42.5t-17.5 -42.5
t-44.5 -16.5q-26 0 -43.5 16.5t-17.5 42.5t17.5 42.5t43.5 16.5z" />
    <glyph glyph-name="Gcommaaccent" unicode="&#x122;" horiz-adv-x="1640" 
d="M842 670h659v-467q-121 -99 -282.5 -155t-339.5 -56q-154 0 -294.5 58t-242.5 155.5t-162.5 232.5t-60.5 283t60.5 283t162.5 232.5t242.5 155.5t294.5 58q174 0 318.5 -54.5t250.5 -152.5l-51 -55q-202 186 -518 186q-138 0 -264.5 -52t-218 -139.5t-145.5 -208
t-54 -253.5t54 -254.5t145.5 -209t218 -139.5t264.5 -52q315 0 546 176v358h-583v70zM870 -145q64 0 64 -105q0 -90 -57.5 -151.5t-153.5 -61.5l-14 37q70 3 115.5 41.5t45.5 122.5q-23 0 -39 17t-16 40q0 24 17 42t38 18z" />
    <glyph glyph-name="gcommaaccent" unicode="&#x123;" horiz-adv-x="1366" 
d="M1114 1104h74v-991q0 -102 -32.5 -190t-95 -156t-164 -107t-230.5 -39q-60 0 -109.5 2.5t-79.5 5t-71 11t-55.5 12t-64 18t-67.5 19.5l17 63q130 -38 205 -50.5t218 -12.5q116 0 206 34.5t143 92t79.5 125.5t26.5 141v47q-178 -137 -434 -137q-156 0 -289 76t-211 207
t-78 286q0 154 78 283.5t211 204.5t289 75q126 0 241.5 -39.5t192.5 -107.5v127zM178 561q0 -135 68 -249.5t184.5 -181.5t253.5 -67q273 0 430 154v676q-78 76 -189 118t-241 42q-137 0 -253.5 -66t-184.5 -179t-68 -247zM705 1329q-64 0 -64 105q0 90 57.5 151.5
t153.5 61.5l14 -37q-70 -3 -115.5 -41.5t-45.5 -122.5q23 0 39 -17t16 -40q0 -24 -17 -42t-38 -18z" />
    <glyph glyph-name="Hcircumflex" unicode="&#x124;" horiz-adv-x="1486" 
d="M1217 1444h75v-1444h-75v604h-947v-604h-75v1444h75v-768h947v768zM442 1552l291 275h53l293 -275h-86l-233 213l-232 -213h-86z" />
    <glyph glyph-name="hcircumflex" unicode="&#x125;" horiz-adv-x="1308" 
d="M684 1124q210 0 342.5 -127t132.5 -360v-637h-74v637q0 196 -115 306t-292 110q-251 0 -426 -154v-899h-74v1544h74v-571q75 72 187 111.5t245 39.5zM317 1552l291 275h54l292 -275h-86l-233 213l-232 -213h-86z" />
    <glyph glyph-name="Hbar" unicode="&#x126;" horiz-adv-x="1486" 
d="M98 1184v63h97v197h75v-197h947v197h75v-197h103v-63h-103v-1184h-75v604h-947v-604h-75v1184h-97zM270 676h947v508h-947v-508z" />
    <glyph glyph-name="hbar" unicode="&#x127;" horiz-adv-x="1308" 
d="M-61 1184v61h239v299h74v-299h235v-61h-235v-211q75 72 187 111.5t245 39.5q210 0 342.5 -127t132.5 -360v-637h-74v637q0 196 -115 306t-292 110q-251 0 -426 -154v-899h-74v1184h-239z" />
    <glyph glyph-name="Itilde" unicode="&#x128;" horiz-adv-x="468" 
d="M272 1444v-1444h-75v1444h75zM-86 1585l-55 8q15 106 70.5 162.5t146.5 56.5q63 0 174 -49t164 -49q51 0 91.5 41t53.5 119l55 -8q-16 -107 -70 -162t-126 -55q-51 0 -114.5 24.5t-123 49t-100.5 24.5q-135 0 -166 -162z" />
    <glyph glyph-name="itilde" unicode="&#x129;" horiz-adv-x="436" 
d="M-102 1249l-56 8q15 106 71 163t146 57q63 0 174 -49.5t164 -49.5q51 0 92 41t54 119l55 -8q-16 -107 -70.5 -162t-126.5 -55q-51 0 -114.5 24.5t-123 49t-100.5 24.5q-134 0 -165 -162zM180 0v1104h76v-1104h-76z" />
    <glyph glyph-name="Imacron" unicode="&#x12a;" horiz-adv-x="468" 
d="M272 1444v-1444h-75v1444h75zM-90 1653v59h647v-59h-647z" />
    <glyph glyph-name="imacron" unicode="&#x12b;" horiz-adv-x="436" 
d="M-104 1317v59h647v-59h-647zM180 0v1104h76v-1104h-76z" />
    <glyph glyph-name="Ibreve" unicode="&#x12c;" horiz-adv-x="468" 
d="M272 1444v-1444h-75v1444h75zM233 1624q-126 0 -201 65t-87 195q3 0 31.5 2t31.5 2q7 -100 66 -148t159 -48q99 0 158 48t68 148l61 -4q-10 -130 -86 -195t-201 -65z" />
    <glyph glyph-name="ibreve" unicode="&#x12d;" horiz-adv-x="436" 
d="M219 1288q-126 0 -201.5 65t-87.5 195q3 0 32 2t32 2q7 -100 66 -148t159 -48q99 0 157.5 48t67.5 148l62 -4q-10 -130 -86 -195t-201 -65zM180 0v1104h76v-1104h-76z" />
    <glyph glyph-name="Iogonek" unicode="&#x12e;" horiz-adv-x="468" 
d="M326 -276l10 -60q-67 -12 -113 -12q-74 0 -113.5 34.5t-39.5 94.5q0 45 28 94.5t53.5 76.5t51.5 48h-6v1444h75v-1444l-1 -1q-13 -12 -27.5 -26.5t-42 -46t-45 -66.5t-17.5 -65q0 -82 109 -82q14 0 78 11z" />
    <glyph glyph-name="iogonek" unicode="&#x12f;" horiz-adv-x="436" 
d="M180 0v1104h76v-1104l-1 -1q-13 -12 -27.5 -26.5t-42 -46t-45 -66.5t-17.5 -65q0 -82 108 -82q14 0 78 11l10 -60q-68 -12 -112 -12q-74 0 -114 34.5t-40 94.5q0 45 28 94.5t53.5 76.5t51.5 48h-6zM217 1456q27 0 44.5 -16.5t17.5 -42.5t-18 -43t-44 -17t-43.5 17
t-17.5 43t17.5 42.5t43.5 16.5z" />
    <glyph glyph-name="Idotaccent" unicode="&#x130;" horiz-adv-x="468" 
d="M272 1444v-1444h-75v1444h75zM236 1739q26 0 43.5 -17t17.5 -43t-17.5 -42.5t-43.5 -16.5q-27 0 -44.5 16.5t-17.5 42.5t18 43t44 17z" />
    <glyph glyph-name="dotlessi" unicode="&#x131;" horiz-adv-x="436" 
d="M180 0v1104h76v-1104h-76z" />
    <glyph glyph-name="IJ" unicode="&#x132;" horiz-adv-x="1705" 
d="M272 1444v-1444h-75v1444h75zM1477 1444h75v-854q0 -180 -54 -312t-170 -209t-286 -77q-185 0 -324.5 119t-168.5 299l69 8q31 -152 149 -251t275 -99q214 0 324.5 139.5t110.5 374.5v862z" />
    <glyph glyph-name="ij" unicode="&#x133;" horiz-adv-x="874" 
d="M180 0v1104h76v-1104h-76zM217 1456q27 0 44.5 -16.5t17.5 -42.5t-18 -43t-44 -17t-43.5 17t-17.5 43t17.5 42.5t43.5 16.5zM621 -43v1147h75v-1163q0 -152 -86.5 -236t-218.5 -84q-9 0 -90 6v68q23 -2 76 -2q109 0 176.5 67.5t67.5 196.5zM657 1456q27 0 44.5 -16.5
t17.5 -42.5t-18 -43t-44 -17t-43.5 17t-17.5 43t17.5 42.5t43.5 16.5z" />
    <glyph glyph-name="Jcircumflex" unicode="&#x134;" horiz-adv-x="1243" 
d="M995 1444h76v-854q0 -180 -54 -312t-170 -209t-286 -77q-185 0 -324.5 119t-168.5 299l69 8q31 -152 149 -251t275 -99q214 0 324 139.5t110 374.5v862zM428 1552l291 275h53l293 -275h-86l-234 213l-231 -213h-86z" />
    <glyph glyph-name="jcircumflex" unicode="&#x135;" horiz-adv-x="432" 
d="M178 -43v1147h76v-1163q0 -152 -86.5 -236t-218.5 -84q-9 0 -90 6v68q23 -2 75 -2q109 0 176.5 67.5t67.5 196.5zM-98 1264l291 274h53l293 -274h-86l-234 213l-231 -213h-86z" />
    <glyph glyph-name="Kcommaaccent" unicode="&#x136;" horiz-adv-x="1400" 
d="M637 748l663 -748h-104l-612 690l-314 -336v-354h-75v1444h75v-981l914 981h98zM680 -145q63 0 63 -105q0 -90 -57.5 -151.5t-153.5 -61.5l-14 37q70 3 116 41.5t46 122.5q-23 0 -39 17t-16 40q0 24 17 42t38 18z" />
    <glyph glyph-name="kcommaaccent" unicode="&#x137;" horiz-adv-x="1253" 
d="M748 684l446 -684h-86l-414 629l-442 -410v-219h-74v1544h74v-1227l842 787h102zM625 -145q63 0 63 -105q0 -90 -57.5 -151.5t-153.5 -61.5l-14 37q70 3 116 41.5t46 122.5q-23 0 -39.5 17t-16.5 40q0 24 17.5 42t38.5 18z" />
    <glyph glyph-name="kgreenlandic" unicode="&#x138;" horiz-adv-x="1253" 
d="M748 684l446 -684h-86l-414 629l-442 -410v-219h-74v1104h74v-787l842 787h102z" />
    <glyph glyph-name="Lacute" unicode="&#x139;" horiz-adv-x="1210" 
d="M270 70h850v-70h-925v1444h75v-1374zM621 1864l-336 -312h-72l317 320z" />
    <glyph glyph-name="lacute" unicode="&#x13a;" horiz-adv-x="432" 
d="M178 0v1544h76v-1544h-76zM602 1964l-336 -311h-71l317 319z" />
    <glyph glyph-name="Lcommaaccent" unicode="&#x13b;" horiz-adv-x="1210" 
d="M270 70h850v-70h-925v1444h75v-1374zM659 -145q64 0 64 -105q0 -90 -57.5 -151.5t-153.5 -61.5l-14 37q70 3 115.5 41.5t45.5 122.5q-23 0 -39 17t-16 40q0 24 17 42t38 18z" />
    <glyph glyph-name="lcommaaccent" unicode="&#x13c;" horiz-adv-x="432" 
d="M178 0v1544h76v-1544h-76zM209 -145q63 0 63 -105q0 -90 -57.5 -151.5t-153.5 -61.5l-14 37q70 3 116 41.5t46 122.5q-23 0 -39 17t-16 40q0 24 17 42t38 18z" />
    <glyph glyph-name="Lcaron" unicode="&#x13d;" horiz-adv-x="1210" 
d="M270 70h850v-70h-925v1444h75v-1374zM575 1446q66 0 66 -105q0 -90 -57.5 -151.5t-155.5 -61.5l-12 39q69 3 115 41.5t47 120.5q-25 1 -40.5 17.5t-15.5 39.5q0 26 16 43t37 17z" />
    <glyph glyph-name="lcaron" unicode="&#x13e;" horiz-adv-x="598" 
d="M178 0v1544h76v-1544h-76zM537 1444q65 0 65 -105q0 -90 -57.5 -151.5t-155.5 -61.5l-12 39q69 3 115 41.5t47 120.5q-25 1 -40.5 17.5t-15.5 39.5q0 25 16.5 42.5t37.5 17.5z" />
    <glyph glyph-name="Ldot" unicode="&#x13f;" horiz-adv-x="1210" 
d="M270 70h850v-70h-925v1444h75v-1374zM469 1110q26 0 43.5 -16.5t17.5 -42.5t-17.5 -43t-43.5 -17t-43.5 17t-17.5 43t17.5 42.5t43.5 16.5z" />
    <glyph glyph-name="ldot" unicode="&#x140;" horiz-adv-x="499" 
d="M178 0v1544h76v-1544h-76zM426 1110q26 0 43.5 -16.5t17.5 -42.5t-17.5 -43t-43.5 -17t-43.5 17t-17.5 43t17.5 42.5t43.5 16.5z" />
    <glyph glyph-name="Lslash" unicode="&#x141;" horiz-adv-x="1210" 
d="M-6 590v76l201 57v721h75v-699l504 148v-76l-504 -145v-602h850v-70h-925v649z" />
    <glyph glyph-name="lslash" unicode="&#x142;" horiz-adv-x="630" 
d="M-47 584v75l287 84v801h73v-780l301 88v-76l-301 -86v-690h-73v668z" />
    <glyph glyph-name="Nacute" unicode="&#x143;" horiz-adv-x="1572" 
d="M1303 1444h75v-1444h-49l-1059 1298v-1298h-75v1444h51l1057 -1299v1299zM1167 1864l-336 -312h-71l317 320z" />
    <glyph glyph-name="nacute" unicode="&#x144;" horiz-adv-x="1310" 
d="M684 1124q210 0 342.5 -127t132.5 -360v-637h-74v637q0 196 -114.5 306t-292.5 110q-251 0 -426 -154v-899h-74v1104h74v-133q75 74 187 113.5t245 39.5zM1018 1554l-336 -311h-72l318 320z" />
    <glyph glyph-name="Ncommaaccent" unicode="&#x145;" horiz-adv-x="1572" 
d="M1303 1444h75v-1444h-49l-1059 1298v-1298h-75v1444h51l1057 -1299v1299zM807 -145q63 0 63 -105q0 -90 -57.5 -151.5t-153.5 -61.5l-14 37q70 3 116 41.5t46 122.5q-23 0 -39 17t-16 40q0 24 17 42t38 18z" />
    <glyph glyph-name="ncommaaccent" unicode="&#x146;" horiz-adv-x="1310" 
d="M684 1124q210 0 342.5 -127t132.5 -360v-637h-74v637q0 196 -114.5 306t-292.5 110q-251 0 -426 -154v-899h-74v1104h74v-133q75 74 187 113.5t245 39.5zM688 -145q64 0 64 -105q0 -90 -57.5 -151.5t-153.5 -61.5l-15 37q70 3 116 41.5t46 122.5q-23 0 -39 17t-16 40
q0 24 17 42t38 18z" />
    <glyph glyph-name="Ncaron" unicode="&#x147;" horiz-adv-x="1572" 
d="M1303 1444h75v-1444h-49l-1059 1298v-1298h-75v1444h51l1057 -1299v1299zM764 1552l-291 275h86l232 -213l233 213h86l-293 -275h-53z" />
    <glyph glyph-name="ncaron" unicode="&#x148;" horiz-adv-x="1310" 
d="M684 1124q210 0 342.5 -127t132.5 -360v-637h-74v637q0 196 -114.5 306t-292.5 110q-251 0 -426 -154v-899h-74v1104h74v-133q75 74 187 113.5t245 39.5zM614 1243l-290 275h86l231 -213l233 213h87l-293 -275h-54z" />
    <glyph glyph-name="napostrophe" unicode="&#x149;" horiz-adv-x="1310" 
d="M684 1124q210 0 342.5 -127t132.5 -360v-637h-74v637q0 196 -114.5 306t-292.5 110q-251 0 -426 -154v-899h-74v1104h74v-133q75 74 187 113.5t245 39.5zM272 1550q64 0 64 -104q0 -90 -57.5 -151.5t-153.5 -61.5l-14 37q70 3 115.5 41.5t45.5 122.5q-23 0 -39 17t-16 40
q0 24 17 41.5t38 17.5z" />
    <glyph glyph-name="Eng" unicode="&#x14a;" horiz-adv-x="1572" 
d="M1303 1444h75v-1440q0 -250 -133 -399.5t-375 -149.5q-186 0 -326 118.5t-169 297.5l69 8q31 -152 149 -251t275 -99q215 0 323.5 132.5t108.5 365.5l-1030 1278v-1305h-75v1444h51l1057 -1305v1305z" />
    <glyph glyph-name="eng" unicode="&#x14b;" horiz-adv-x="1310" 
d="M684 1124q210 0 342.5 -127t132.5 -360v-696q0 -152 -86.5 -236t-218.5 -84q-9 0 -90 6v68q23 -2 76 -2q109 0 177 66.5t68 191.5v686q0 197 -114.5 306.5t-292.5 109.5q-251 0 -426 -154v-899h-74v1104h74v-133q75 74 187 113.5t245 39.5z" />
    <glyph glyph-name="Omacron" unicode="&#x14c;" horiz-adv-x="1757" 
d="M879 1450q206 0 380.5 -98t275.5 -266t101 -365t-101 -365t-275.5 -266t-380.5 -98q-155 0 -295.5 58t-242.5 155.5t-162 232.5t-60 283t60 283t162 232.5t242.5 155.5t295.5 58zM879 68q139 0 265 52t217 139.5t144.5 208t53.5 253.5t-53.5 254t-144.5 209t-217 140
t-265 52q-138 0 -264.5 -52t-217.5 -140t-145.5 -209t-54.5 -254t54 -253.5t145.5 -208t218 -139.5t264.5 -52zM541 1626v60h647v-60h-647z" />
    <glyph glyph-name="omacron" unicode="&#x14d;" horiz-adv-x="1406" 
d="M702 1124q162 0 300 -76t218 -206.5t80 -284.5q0 -153 -80 -283t-218 -206t-300 -76q-163 0 -301.5 76t-218.5 206t-80 283q0 154 80 284.5t218.5 206.5t301.5 76zM702 63q142 0 263 66.5t191.5 180t70.5 247.5q0 135 -70.5 249t-191.5 180.5t-263 66.5
q-143 0 -264 -66.5t-191.5 -180.5t-70.5 -249q0 -134 70.5 -247.5t191.5 -180t264 -66.5zM383 1317v59h647v-59h-647z" />
    <glyph glyph-name="Obreve" unicode="&#x14e;" horiz-adv-x="1757" 
d="M879 1450q206 0 380.5 -98t275.5 -266t101 -365t-101 -365t-275.5 -266t-380.5 -98q-155 0 -295.5 58t-242.5 155.5t-162 232.5t-60 283t60 283t162 232.5t242.5 155.5t295.5 58zM879 68q139 0 265 52t217 139.5t144.5 208t53.5 253.5t-53.5 254t-144.5 209t-217 140
t-265 52q-138 0 -264.5 -52t-217.5 -140t-145.5 -209t-54.5 -254t54 -253.5t145.5 -208t218 -139.5t264.5 -52zM868 1597q-126 0 -201 65t-87 196q3 0 31.5 2t31.5 2q7 -100 66 -148.5t159 -48.5q99 0 158 48.5t68 148.5l61 -4q-10 -130 -86 -195.5t-201 -65.5z" />
    <glyph glyph-name="obreve" unicode="&#x14f;" horiz-adv-x="1406" 
d="M702 1124q162 0 300 -76t218 -206.5t80 -284.5q0 -153 -80 -283t-218 -206t-300 -76q-163 0 -301.5 76t-218.5 206t-80 283q0 154 80 284.5t218.5 206.5t301.5 76zM702 63q142 0 263 66.5t191.5 180t70.5 247.5q0 135 -70.5 249t-191.5 180.5t-263 66.5
q-143 0 -264 -66.5t-191.5 -180.5t-70.5 -249q0 -134 70.5 -247.5t191.5 -180t264 -66.5zM700 1288q-126 0 -201 65t-87 195q3 0 31.5 2t31.5 2q7 -100 66 -148t159 -48q99 0 158 48t68 148l61 -4q-10 -130 -86 -195t-201 -65z" />
    <glyph glyph-name="Ohungarumlaut" unicode="&#x150;" horiz-adv-x="1757" 
d="M879 1450q206 0 380.5 -98t275.5 -266t101 -365t-101 -365t-275.5 -266t-380.5 -98q-155 0 -295.5 58t-242.5 155.5t-162 232.5t-60 283t60 283t162 232.5t242.5 155.5t295.5 58zM879 68q139 0 265 52t217 139.5t144.5 208t53.5 253.5t-53.5 254t-144.5 209t-217 140
t-265 52q-138 0 -264.5 -52t-217.5 -140t-145.5 -209t-54.5 -254t54 -253.5t145.5 -208t218 -139.5t264.5 -52zM866 1862l82 -25l-194 -281h-72zM1161 1862l82 -25l-196 -281h-72z" />
    <glyph glyph-name="ohungarumlaut" unicode="&#x151;" horiz-adv-x="1406" 
d="M702 1124q162 0 300 -76t218 -206.5t80 -284.5q0 -153 -80 -283t-218 -206t-300 -76q-163 0 -301.5 76t-218.5 206t-80 283q0 154 80 284.5t218.5 206.5t301.5 76zM702 63q142 0 263 66.5t191.5 180t70.5 247.5q0 135 -70.5 249t-191.5 180.5t-263 66.5
q-143 0 -264 -66.5t-191.5 -180.5t-70.5 -249q0 -134 70.5 -247.5t191.5 -180t264 -66.5zM686 1552l82 -24l-195 -281h-71zM981 1552l82 -24l-197 -281h-71z" />
    <glyph glyph-name="OE" unicode="&#x152;" horiz-adv-x="2078" 
d="M119 721q0 154 64.5 289.5t172 230t251 149t298.5 54.5h1020v-72h-874v-637h747v-69h-747v-594h917v-72h-1063q-152 0 -296 57t-251.5 153t-173 230.5t-65.5 280.5zM975 72v1300h-66q-136 0 -264 -46.5t-227.5 -128.5t-160 -206.5t-60.5 -269.5q0 -139 60.5 -261.5
t159.5 -206.5t228 -132.5t264 -48.5h66z" />
    <glyph glyph-name="oe" unicode="&#x153;" horiz-adv-x="2426" 
d="M700 -8q-162 0 -300 76t-218 206t-80 283q0 154 80 284.5t218.5 206.5t301.5 76q193 0 347 -107t213 -276q52 172 192 277.5t332 105.5q245 0 388.5 -159t143.5 -414v-25h-1018q8 -199 145.5 -333t344.5 -134q134 0 245 49.5t183 137.5l53 -41q-78 -99 -204 -156
t-279 -57q-192 0 -333 105.5t-195 275.5q-58 -168 -212 -274.5t-348 -106.5zM702 63q143 0 264 66.5t191 180t70 247.5q0 135 -70.5 249t-191.5 180.5t-263 66.5q-143 0 -264 -66.5t-191.5 -180.5t-70.5 -249q0 -134 70.5 -247.5t191.5 -180t264 -66.5zM1786 1057
q-204 0 -340.5 -133.5t-145.5 -331.5h945q-11 207 -135 336t-324 129z" />
    <glyph glyph-name="Racute" unicode="&#x154;" horiz-adv-x="1370" 
d="M1196 0l-371 504q-61 -6 -129 -6h-426v-498h-75v1444h555q109 0 195 -25t142.5 -68t94 -102.5t53.5 -125t16 -140.5q0 -192 -91.5 -307.5t-256.5 -155.5l387 -520h-94zM270 1372v-805h424q223 0 350 101.5t127 312.5q0 64 -14 119.5t-46 106.5t-80 87t-121 57t-165 21
h-475zM1026 1864l-336 -312h-72l318 320z" />
    <glyph glyph-name="racute" unicode="&#x155;" horiz-adv-x="886" 
d="M252 1104v-264q48 131 145.5 207t229.5 77q96 0 190 -47l-18 -71q-83 41 -178 41q-162 0 -265.5 -134t-103.5 -333v-580h-74v1104h74zM604 1575l-336 -311h-71l317 319z" />
    <glyph glyph-name="Rcommaaccent" unicode="&#x156;" horiz-adv-x="1370" 
d="M1196 0l-371 504q-61 -6 -129 -6h-426v-498h-75v1444h555q109 0 195 -25t142.5 -68t94 -102.5t53.5 -125t16 -140.5q0 -192 -91.5 -307.5t-256.5 -155.5l387 -520h-94zM270 1372v-805h424q223 0 350 101.5t127 312.5q0 64 -14 119.5t-46 106.5t-80 87t-121 57t-165 21
h-475zM721 -145q63 0 63 -105q0 -90 -57.5 -151.5t-153.5 -61.5l-14 37q70 3 116 41.5t46 122.5q-23 0 -39 17t-16 40q0 24 17 42t38 18z" />
    <glyph glyph-name="rcommaaccent" unicode="&#x157;" horiz-adv-x="886" 
d="M252 1104v-264q48 131 145.5 207t229.5 77q96 0 190 -47l-18 -71q-83 41 -178 41q-162 0 -265.5 -134t-103.5 -333v-580h-74v1104h74zM225 -145q64 0 64 -105q0 -90 -57.5 -151.5t-153.5 -61.5l-15 37q70 3 116 41.5t46 122.5q-23 0 -39 17t-16 40q0 24 17 42t38 18z" />
    <glyph glyph-name="Rcaron" unicode="&#x158;" horiz-adv-x="1370" 
d="M1196 0l-371 504q-61 -6 -129 -6h-426v-498h-75v1444h555q109 0 195 -25t142.5 -68t94 -102.5t53.5 -125t16 -140.5q0 -192 -91.5 -307.5t-256.5 -155.5l387 -520h-94zM270 1372v-805h424q223 0 350 101.5t127 312.5q0 64 -14 119.5t-46 106.5t-80 87t-121 57t-165 21
h-475zM643 1552l-291 275h86l232 -213l233 213h86l-293 -275h-53z" />
    <glyph glyph-name="rcaron" unicode="&#x159;" horiz-adv-x="886" 
d="M252 1104v-264q48 131 145.5 207t229.5 77q96 0 190 -47l-18 -71q-83 41 -178 41q-162 0 -265.5 -134t-103.5 -333v-580h-74v1104h74zM438 1264l-291 274h86l232 -213l233 213h86l-292 -274h-54z" />
    <glyph glyph-name="Sacute" unicode="&#x15a;" 
d="M680 760q77 -19 131.5 -36t117.5 -41t104.5 -52.5t77.5 -66t53.5 -86t17.5 -107.5q0 -180 -140 -282.5t-374 -102.5q-176 0 -279 23.5t-270 107.5l31 63q160 -78 257.5 -100.5t260.5 -22.5q199 0 317.5 83t118.5 229q0 48 -15 87t-47 69t-68 53t-92 43.5t-103 34
t-117 30.5q-84 20 -140.5 36.5t-124 41.5t-111 53t-82 65.5t-57 87t-18.5 109.5q0 166 132.5 269.5t356.5 103.5q126 0 268 -30.5t234 -80.5l-35 -65q-86 48 -218.5 76t-248.5 28q-189 0 -300 -83t-111 -216q0 -47 16 -86t50.5 -69.5t72.5 -53.5t98 -44t110.5 -35.5
t125.5 -32.5zM1018 1864l-336 -312h-72l318 320z" />
    <glyph glyph-name="sacute" unicode="&#x15b;" horiz-adv-x="1097" 
d="M104 92l29 62q239 -93 428 -93q187 0 275 69.5t88 172.5q0 50 -27.5 88t-82.5 66t-117 46.5t-152 37.5q-78 16 -138 33t-115 42t-90 55t-56 71.5t-21 91.5q0 125 115 207.5t286 82.5q207 0 404 -84l-25 -61q-168 76 -379 76q-141 0 -235 -62.5t-94 -158.5
q0 -88 89 -137.5t275 -86.5q82 -16 144 -33t118.5 -42.5t93 -57t57.5 -75t21 -97.5q0 -63 -24.5 -117.5t-74 -99.5t-136 -70.5t-201.5 -25.5q-215 0 -455 100zM889 1554l-336 -311h-72l318 320z" />
    <glyph glyph-name="Scircumflex" unicode="&#x15c;" 
d="M680 760q77 -19 131.5 -36t117.5 -41t104.5 -52.5t77.5 -66t53.5 -86t17.5 -107.5q0 -180 -140 -282.5t-374 -102.5q-176 0 -279 23.5t-270 107.5l31 63q160 -78 257.5 -100.5t260.5 -22.5q199 0 317.5 83t118.5 229q0 48 -15 87t-47 69t-68 53t-92 43.5t-103 34
t-117 30.5q-84 20 -140.5 36.5t-124 41.5t-111 53t-82 65.5t-57 87t-18.5 109.5q0 166 132.5 269.5t356.5 103.5q126 0 268 -30.5t234 -80.5l-35 -65q-86 48 -218.5 76t-248.5 28q-189 0 -300 -83t-111 -216q0 -47 16 -86t50.5 -69.5t72.5 -53.5t98 -44t110.5 -35.5
t125.5 -32.5zM328 1552l290 275h54l293 -275h-86l-234 213l-231 -213h-86z" />
    <glyph glyph-name="scircumflex" unicode="&#x15d;" horiz-adv-x="1097" 
d="M104 92l29 62q239 -93 428 -93q187 0 275 69.5t88 172.5q0 50 -27.5 88t-82.5 66t-117 46.5t-152 37.5q-78 16 -138 33t-115 42t-90 55t-56 71.5t-21 91.5q0 125 115 207.5t286 82.5q207 0 404 -84l-25 -61q-168 76 -379 76q-141 0 -235 -62.5t-94 -158.5
q0 -88 89 -137.5t275 -86.5q82 -16 144 -33t118.5 -42.5t93 -57t57.5 -75t21 -97.5q0 -63 -24.5 -117.5t-74 -99.5t-136 -70.5t-201.5 -25.5q-215 0 -455 100zM205 1243l291 275h53l293 -275h-86l-234 213l-231 -213h-86z" />
    <glyph glyph-name="Scedilla" unicode="&#x15e;" 
d="M582 -152l86 138q-176 0 -279 23.5t-270 107.5l31 63q160 -78 257.5 -100.5t260.5 -22.5q199 0 317.5 83t118.5 229q0 48 -15 87t-47 69t-68 53t-92 43.5t-103 34t-117 30.5q-84 20 -140.5 36.5t-124 41.5t-111 53t-82 65.5t-57 87t-18.5 109.5q0 166 132.5 269.5
t356.5 103.5q126 0 268 -30.5t234 -80.5l-35 -65q-86 48 -218.5 76t-248.5 28q-189 0 -300 -83t-111 -216q0 -47 16 -86t50.5 -69.5t72.5 -53.5t98 -44t110.5 -35.5t125.5 -32.5q77 -19 131.5 -36t117.5 -41t104.5 -52.5t77.5 -66t53.5 -86t17.5 -107.5
q0 -169 -124.5 -270.5t-334.5 -112.5l-51 -107q54 0 88.5 -30.5t34.5 -81.5q0 -59 -46.5 -104.5t-138.5 -45.5q-36 0 -66.5 4.5t-46.5 9.5l-16 5l13 45q47 -15 106 -15q65 0 98 30.5t33 72.5q0 77 -149 77z" />
    <glyph glyph-name="scedilla" unicode="&#x15f;" horiz-adv-x="1097" 
d="M442 -152l90 144q-203 5 -428 100l29 62q239 -93 428 -93q187 0 275 69.5t88 172.5q0 50 -27.5 88t-82.5 66t-117 46.5t-152 37.5q-78 16 -138 33t-115 42t-90 55t-56 71.5t-21 91.5q0 125 115 207.5t286 82.5q207 0 404 -84l-25 -61q-168 76 -379 76q-141 0 -235 -62.5
t-94 -158.5q0 -88 89 -137.5t275 -86.5q82 -16 144 -33t118.5 -42.5t93 -57t57.5 -75t21 -97.5q0 -62 -23 -115t-69.5 -97.5t-128 -71t-188.5 -29.5l-54 -111q54 0 88.5 -30.5t34.5 -81.5q0 -59 -46 -104.5t-138 -45.5q-36 0 -66.5 4.5t-46.5 9.5l-16 5l12 45
q47 -15 107 -15q65 0 98 30.5t33 72.5q0 77 -150 77z" />
    <glyph glyph-name="Scaron" unicode="&#x160;" 
d="M680 760q77 -19 131.5 -36t117.5 -41t104.5 -52.5t77.5 -66t53.5 -86t17.5 -107.5q0 -180 -140 -282.5t-374 -102.5q-176 0 -279 23.5t-270 107.5l31 63q160 -78 257.5 -100.5t260.5 -22.5q199 0 317.5 83t118.5 229q0 48 -15 87t-47 69t-68 53t-92 43.5t-103 34
t-117 30.5q-84 20 -140.5 36.5t-124 41.5t-111 53t-82 65.5t-57 87t-18.5 109.5q0 166 132.5 269.5t356.5 103.5q126 0 268 -30.5t234 -80.5l-35 -65q-86 48 -218.5 76t-248.5 28q-189 0 -300 -83t-111 -216q0 -47 16 -86t50.5 -69.5t72.5 -53.5t98 -44t110.5 -35.5
t125.5 -32.5zM614 1552l-290 275h86l231 -213l233 213h87l-293 -275h-54z" />
    <glyph glyph-name="scaron" unicode="&#x161;" horiz-adv-x="1097" 
d="M104 92l29 62q239 -93 428 -93q187 0 275 69.5t88 172.5q0 50 -27.5 88t-82.5 66t-117 46.5t-152 37.5q-78 16 -138 33t-115 42t-90 55t-56 71.5t-21 91.5q0 125 115 207.5t286 82.5q207 0 404 -84l-25 -61q-168 76 -379 76q-141 0 -235 -62.5t-94 -158.5
q0 -88 89 -137.5t275 -86.5q82 -16 144 -33t118.5 -42.5t93 -57t57.5 -75t21 -97.5q0 -63 -24.5 -117.5t-74 -99.5t-136 -70.5t-201.5 -25.5q-215 0 -455 100zM500 1243l-291 275h86l231 -213l234 213h86l-293 -275h-53z" />
    <glyph glyph-name="Tcedilla" unicode="&#x162;" horiz-adv-x="1351" 
d="M567 -152l95 152h-21v1372h-524v72h1126v-72h-526v-1372h-2l-58 -119q54 0 88.5 -30.5t34.5 -81.5q0 -59 -46 -104.5t-138 -45.5q-36 0 -66.5 4.5t-46.5 9.5l-16 5l12 45q47 -15 107 -15q65 0 98 30.5t33 72.5q0 77 -150 77z" />
    <glyph glyph-name="tcedilla" unicode="&#x163;" horiz-adv-x="796" 
d="M524 -152l90 146q-9 0 -29 -1t-30 -1q-132 0 -218.5 83.5t-86.5 235.5v725h-203v68h203v440h76v-440h430v-68h-430v-684q0 -150 64.5 -219.5t178.5 -69.5q105 0 183 21v-68q-35 -11 -80 -16l-58 -119q54 0 88.5 -30.5t34.5 -81.5q0 -59 -46 -104.5t-138 -45.5
q-36 0 -66.5 4.5t-46.5 9.5l-16 5l12 45q47 -15 107 -15q65 0 98 30.5t33 72.5q0 77 -150 77z" />
    <glyph glyph-name="Tcaron" unicode="&#x164;" horiz-adv-x="1351" 
d="M1243 1444v-72h-526v-1372h-76v1372h-524v72h1126zM655 1552l-290 275h86l231 -213l233 213h86l-292 -275h-54z" />
    <glyph glyph-name="tcaron" unicode="&#x165;" horiz-adv-x="894" 
d="M756 1036h-430v-684q0 -150 64.5 -219.5t178.5 -69.5q105 0 183 21v-68q-94 -24 -197 -24q-132 0 -218.5 83.5t-86.5 235.5v725h-203v68h203v440h76v-440h430v-68zM870 1470q66 0 66 -104q0 -90 -57.5 -151.5t-155.5 -61.5l-12 39q69 3 114.5 41.5t46.5 120.5
q-25 1 -40 17.5t-15 39.5q0 25 16 42t37 17z" />
    <glyph glyph-name="Tbar" unicode="&#x166;" horiz-adv-x="1351" 
d="M356 731v60h285v581h-524v72h1126v-72h-526v-581h287v-60h-287v-731h-76v731h-285z" />
    <glyph glyph-name="tbar" unicode="&#x167;" horiz-adv-x="796" 
d="M82 719v59h168v258h-203v68h203v440h76v-440h430v-68h-430v-258h403v-59h-403v-367q0 -150 64.5 -219.5t178.5 -69.5q105 0 183 21v-68q-94 -24 -197 -24q-132 0 -218.5 83.5t-86.5 235.5v408h-168z" />
    <glyph glyph-name="Utilde" unicode="&#x168;" horiz-adv-x="1544" 
d="M1352 1444v-864q0 -123 -38 -229.5t-110 -186.5t-183.5 -126t-250.5 -46q-137 0 -247.5 45.5t-181.5 125.5t-108.5 186.5t-37.5 230.5v864h73v-856q0 -150 56.5 -266.5t171.5 -185t274 -68.5q240 0 373 145.5t133 374.5v856h76zM457 1559l-56 8q15 106 70.5 162.5
t146.5 56.5q63 0 174 -49t164 -49q51 0 92 41t54 118l55 -8q-16 -107 -70 -162t-126 -55q-51 0 -114.5 24.5t-123 49t-100.5 24.5q-135 0 -166 -161z" />
    <glyph glyph-name="utilde" unicode="&#x169;" horiz-adv-x="1331" 
d="M1079 1104h74v-1104h-74v145q-79 -73 -196 -113t-254 -40q-210 0 -342.5 127t-132.5 360v625h71v-625q0 -196 115.5 -306t294.5 -110q263 0 444 154v887zM340 1249l-55 8q15 106 71 163t146 57q63 0 174 -49.5t164 -49.5q51 0 91.5 41t53.5 119l55 -8q-16 -107 -70 -162
t-126 -55q-51 0 -114.5 24.5t-123 49t-100.5 24.5q-135 0 -166 -162z" />
    <glyph glyph-name="Umacron" unicode="&#x16a;" horiz-adv-x="1544" 
d="M1352 1444v-864q0 -123 -38 -229.5t-110 -186.5t-183.5 -126t-250.5 -46q-137 0 -247.5 45.5t-181.5 125.5t-108.5 186.5t-37.5 230.5v864h73v-856q0 -150 56.5 -266.5t171.5 -185t274 -68.5q240 0 373 145.5t133 374.5v856h76zM451 1626v60h647v-60h-647z" />
    <glyph glyph-name="umacron" unicode="&#x16b;" horiz-adv-x="1331" 
d="M1079 1104h74v-1104h-74v145q-79 -73 -196 -113t-254 -40q-210 0 -342.5 127t-132.5 360v625h71v-625q0 -196 115.5 -306t294.5 -110q263 0 444 154v887zM334 1317v59h647v-59h-647z" />
    <glyph glyph-name="Ubreve" unicode="&#x16c;" horiz-adv-x="1544" 
d="M1352 1444v-864q0 -123 -38 -229.5t-110 -186.5t-183.5 -126t-250.5 -46q-137 0 -247.5 45.5t-181.5 125.5t-108.5 186.5t-37.5 230.5v864h73v-856q0 -150 56.5 -266.5t171.5 -185t274 -68.5q240 0 373 145.5t133 374.5v856h76zM778 1597q-126 0 -201.5 65.5t-87.5 195.5
q3 0 32 2t32 2q7 -100 66 -148.5t159 -48.5q99 0 158 48.5t68 148.5l61 -4q-10 -130 -86 -195.5t-201 -65.5z" />
    <glyph glyph-name="ubreve" unicode="&#x16d;" horiz-adv-x="1331" 
d="M1079 1104h74v-1104h-74v145q-79 -73 -196 -113t-254 -40q-210 0 -342.5 127t-132.5 360v625h71v-625q0 -196 115.5 -306t294.5 -110q263 0 444 154v887zM659 1288q-126 0 -201 65t-87 195q3 0 31.5 2t31.5 2q7 -100 66 -148t159 -48q99 0 158 48t68 148l61 -4
q-10 -130 -86 -195t-201 -65z" />
    <glyph glyph-name="Uring" unicode="&#x16e;" horiz-adv-x="1544" 
d="M1352 1444v-864q0 -123 -38 -229.5t-110 -186.5t-183.5 -126t-250.5 -46q-137 0 -247.5 45.5t-181.5 125.5t-108.5 186.5t-37.5 230.5v864h73v-856q0 -150 56.5 -266.5t171.5 -185t274 -68.5q240 0 373 145.5t133 374.5v856h76zM602 1577q0 70 51.5 121t122.5 51
t122.5 -51t51.5 -121t-51.5 -121t-122.5 -51t-122.5 51t-51.5 121zM776 1462q47 0 82 34.5t35 80.5t-35 80.5t-82 34.5t-82 -34.5t-35 -80.5t35 -80.5t82 -34.5z" />
    <glyph glyph-name="uring" unicode="&#x16f;" horiz-adv-x="1331" 
d="M1079 1104h74v-1104h-74v145q-79 -73 -196 -113t-254 -40q-210 0 -342.5 127t-132.5 360v625h71v-625q0 -196 115.5 -306t294.5 -110q263 0 444 154v887zM494 1477q0 70 51.5 121t122.5 51t122.5 -51t51.5 -121t-51.5 -121t-122.5 -51t-122.5 51t-51.5 121zM668 1362
q47 0 81.5 34.5t34.5 80.5t-34.5 80t-81.5 34t-82 -34t-35 -80t35 -80.5t82 -34.5z" />
    <glyph glyph-name="Uhungarumlaut" unicode="&#x170;" horiz-adv-x="1544" 
d="M1352 1444v-864q0 -123 -38 -229.5t-110 -186.5t-183.5 -126t-250.5 -46q-137 0 -247.5 45.5t-181.5 125.5t-108.5 186.5t-37.5 230.5v864h73v-856q0 -150 56.5 -266.5t171.5 -185t274 -68.5q240 0 373 145.5t133 374.5v856h76zM776 1862l82 -25l-194 -281h-72z
M1071 1862l82 -25l-197 -281h-71z" />
    <glyph glyph-name="uhungarumlaut" unicode="&#x171;" horiz-adv-x="1331" 
d="M1079 1104h74v-1104h-74v145q-79 -73 -196 -113t-254 -40q-210 0 -342.5 127t-132.5 360v625h71v-625q0 -196 115.5 -306t294.5 -110q263 0 444 154v887zM647 1552l82 -24l-194 -281h-72zM942 1552l82 -24l-197 -281h-71z" />
    <glyph glyph-name="Uogonek" unicode="&#x172;" horiz-adv-x="1544" 
d="M918 -276l10 -60q-68 -12 -113 -12q-74 0 -113.5 34.5t-39.5 94.5q0 101 122 211h-14q-137 0 -247.5 45.5t-181.5 125.5t-108.5 186.5t-37.5 230.5v864h73v-856q0 -150 56.5 -266.5t171.5 -185t274 -68.5q240 0 373 145.5t133 374.5v856h76v-864q0 -152 -55 -275.5
t-167.5 -206t-269.5 -100.5l-8 -7l-13.5 -13.5t-17.5 -18t-20 -23t-20 -25.5t-19.5 -28t-15.5 -29t-11 -30t-4 -29q0 -82 109 -82q14 0 78 11z" />
    <glyph glyph-name="uogonek" unicode="&#x173;" horiz-adv-x="1331" 
d="M1206 -276l11 -60q-67 -12 -113 -12q-74 0 -114 34.5t-40 94.5q0 45 28 94.5t53.5 76.5t51.5 48h-4v145q-79 -73 -196 -113t-254 -40q-210 0 -342.5 127t-132.5 360v625h71v-625q0 -196 115.5 -306t294.5 -110q263 0 444 154v887h74v-1104l-1 -1q-13 -12 -27.5 -26.5
t-42 -46t-45 -66.5t-17.5 -65q0 -82 108 -82q14 0 78 11z" />
    <glyph glyph-name="Wcircumflex" unicode="&#x174;" horiz-adv-x="2287" 
d="M2200 1444l-545 -1444h-47l-475 1309l-476 -1309h-45l-546 1444h81l488 -1303l473 1303h49l473 -1303l488 1303h82zM815 1552l291 275h53l293 -275h-86l-233 213l-232 -213h-86z" />
    <glyph glyph-name="wcircumflex" unicode="&#x175;" horiz-adv-x="1738" 
d="M1624 1104h76l-430 -1104h-45l-355 977l-354 -977h-45l-434 1104h80l379 -975l348 975h51l350 -975zM551 1225l291 274h53l293 -274h-86l-234 213l-231 -213h-86z" />
    <glyph glyph-name="Ycircumflex" unicode="&#x176;" horiz-adv-x="1327" 
d="M1186 1444h90l-574 -944v-500h-75v500l-574 944h88l523 -866zM348 1552l291 275h53l293 -275h-86l-233 213l-232 -213h-86z" />
    <glyph glyph-name="ycircumflex" unicode="&#x177;" horiz-adv-x="1245" 
d="M1087 1104h80l-469 -1163q-36 -90 -102 -155t-150 -99t-168.5 -49t-177.5 -15h-10l4 66h23q194 0 332 75.5t194 235.5h-61l-512 1104h82l473 -1022h51zM322 1243l290 275h54l292 -275h-86l-233 213l-231 -213h-86z" />
    <glyph glyph-name="Ydieresis" unicode="&#x178;" horiz-adv-x="1327" 
d="M1186 1444h90l-574 -944v-500h-75v500l-574 944h88l523 -866zM510 1712q26 0 43.5 -16.5t17.5 -42.5t-17.5 -43t-43.5 -17t-43.5 17t-17.5 43t17.5 42.5t43.5 16.5zM823 1712q27 0 44.5 -16.5t17.5 -42.5t-18 -43t-44 -17t-43.5 17t-17.5 43t17.5 42.5t43.5 16.5z" />
    <glyph glyph-name="Zacute" unicode="&#x179;" horiz-adv-x="1329" 
d="M1217 1444v-37l-1000 -1335h1016v-72h-1131v35l998 1337h-938v72h1055zM1075 1864l-336 -312h-71l317 320z" />
    <glyph glyph-name="zacute" unicode="&#x17a;" horiz-adv-x="1208" 
d="M1122 1063l-901 -995h897v-68h-1012v47l898 989h-867v68h985v-41zM950 1554l-336 -311h-71l317 320z" />
    <glyph glyph-name="Zdotaccent" unicode="&#x17b;" horiz-adv-x="1329" 
d="M1217 1444v-37l-1000 -1335h1016v-72h-1131v35l998 1337h-938v72h1055zM682 1712q26 0 43.5 -16.5t17.5 -42.5t-17.5 -43t-43.5 -17t-43.5 17t-17.5 43t17.5 42.5t43.5 16.5z" />
    <glyph glyph-name="zdotaccent" unicode="&#x17c;" horiz-adv-x="1208" 
d="M1122 1063l-901 -995h897v-68h-1012v47l898 989h-867v68h985v-41zM618 1403q26 0 44 -17t18 -43t-17.5 -42.5t-44.5 -16.5q-26 0 -43.5 16.5t-17.5 42.5t17.5 43t43.5 17z" />
    <glyph glyph-name="Zcaron" unicode="&#x17d;" horiz-adv-x="1329" 
d="M1217 1444v-37l-1000 -1335h1016v-72h-1131v35l998 1337h-938v72h1055zM649 1552l-291 275h86l232 -213l233 213h86l-293 -275h-53z" />
    <glyph glyph-name="zcaron" unicode="&#x17e;" horiz-adv-x="1208" 
d="M1122 1063l-901 -995h897v-68h-1012v47l898 989h-867v68h985v-41zM606 1243l-291 275h86l232 -213l233 213h86l-293 -275h-53z" />
    <glyph glyph-name="florin" unicode="&#x192;" horiz-adv-x="1132" 
d="M1083 1493v-66q-19 12 -30 18t-44 13.5t-75 7.5q-108 0 -188.5 -67t-104.5 -193l-39 -194h359v-66h-369l-103 -545q-28 -152 -130.5 -235.5t-235.5 -83.5q-14 0 -29.5 2.5t-25.5 5.5t-20 6.5t-11 3.5v66q44 -14 84 -14q109 0 191 69.5t106 198.5l98 526h-244v66h258
l39 205q30 153 132 236t235 83q53 0 93.5 -14t53.5 -29z" />
    <glyph glyph-name="Aringacute" unicode="&#x1fa;" horiz-adv-x="1458" 
d="M1108 2007l-299 -278q43 -22 69.5 -63t26.5 -89q0 -60 -38 -107t-95 -61l635 -1409h-80l-186 418h-826l-184 -418h-82l637 1411q-56 14 -92.5 60t-36.5 106q0 70 51.5 121t122.5 51q15 0 21 -2l266 268zM727 1352l-383 -869h770zM731 1462q47 0 82 34.5t35 80.5t-35 80.5
t-82 34.5t-82 -34.5t-35 -80.5t35 -80.5t82 -34.5z" />
    <glyph glyph-name="aringacute" unicode="&#x1fb;" horiz-adv-x="1366" 
d="M1116 1104h72v-1104h-72v133q-179 -141 -436 -141q-157 0 -289 76.5t-208.5 207t-76.5 283.5q0 152 76.5 282t208.5 206.5t289 76.5q126 0 241.5 -39.5t194.5 -107.5v127zM1116 219v674q-78 76 -189 118t-241 42q-138 0 -255 -66.5t-185 -180t-68 -247.5q0 -135 68 -249
t185 -180.5t255 -66.5q133 0 243.5 40.5t186.5 115.5zM1071 1905l-299 -279q41 -22 66.5 -62.5t25.5 -86.5q0 -70 -51.5 -121t-122.5 -51t-122.5 51t-51.5 121t51.5 121t122.5 51q4 0 13 -1t14 -1l264 266zM690 1362q47 0 82 34.5t35 80.5t-35 80t-82 34t-82 -34t-35 -80
t35 -80.5t82 -34.5z" />
    <glyph glyph-name="AEacute" unicode="&#x1fc;" horiz-adv-x="2013" 
d="M985 72h920v-72h-994v418h-563l-225 -418h-84l778 1444h1045v-72h-877v-637h750v-69h-750v-594zM858 1370l-477 -887h530v887h-53zM1298 1864l-335 -312h-72l317 320z" />
    <glyph glyph-name="aeacute" unicode="&#x1fd;" horiz-adv-x="2326" 
d="M1190 0h-74v133q-179 -141 -434 -141q-156 0 -288.5 75t-210 205.5t-77.5 286.5q0 155 77.5 285t210 205t288.5 75q126 0 241.5 -39.5t192.5 -107.5v127h74v-293q63 141 195 227t301 86q245 0 388.5 -159t143.5 -414v-25h-1018q9 -199 145.5 -332t344.5 -133
q135 0 246 49t182 138l53 -43q-78 -99 -204 -156t-279 -57q-171 0 -303 85t-195 226v-303zM1116 219v674q-77 76 -188 118t-240 42q-138 0 -255.5 -66t-186 -179.5t-68.5 -248.5q0 -136 68.5 -250t186 -180t255.5 -66q132 0 242 41t186 115zM1686 1057q-204 0 -340.5 -133.5
t-145.5 -331.5h944q-11 207 -134.5 336t-323.5 129zM1532 1575l-336 -311h-72l318 319z" />
    <glyph glyph-name="Oslashacute" unicode="&#x1fe;" horiz-adv-x="1759" 
d="M1225 1864l-336 -312h-72l318 320zM225 0l152 174q-122 101 -190 243.5t-68 303.5q0 148 60 283t162 232.5t242.5 155.5t295.5 58q257 0 464 -154l130 148h77l-159 -184q115 -104 180 -243t65 -296q0 -197 -101 -365t-275.5 -266t-380.5 -98q-254 0 -457 147l-121 -139
h-76zM197 721q0 -143 60.5 -269t168.5 -219l868 1004q-182 139 -415 139q-138 0 -264.5 -52t-217.5 -140t-145.5 -209t-54.5 -254zM879 68q139 0 265 52t217 139.5t144.5 208t53.5 253.5q0 139 -59 263.5t-163 215.5l-866 -1001q179 -131 408 -131z" />
    <glyph glyph-name="oslashacute" unicode="&#x1ff;" horiz-adv-x="1404" 
d="M1047 1575l-336 -311h-72l317 319zM170 0l125 143q-91 78 -142 185.5t-51 228.5q0 154 80 284.5t218.5 206.5t301.5 76q201 0 359 -114l94 108h74l-127 -141q94 -79 146 -188t52 -232q0 -153 -80 -283t-218 -206t-300 -76q-201 0 -364 117l-96 -109h-72zM702 63
q142 0 263 66.5t191.5 180t70.5 247.5q0 106 -45.5 200.5t-128.5 162.5l-668 -756q141 -101 317 -101zM176 557q0 -105 44.5 -197.5t123.5 -160.5l668 755q-140 99 -310 99q-143 0 -264 -66.5t-191.5 -180.5t-70.5 -249z" />
    <glyph glyph-name="Scommaaccent" unicode="&#x218;" 
d="M680 760q77 -19 131.5 -36t117.5 -41t104.5 -52.5t77.5 -66t53.5 -86t17.5 -107.5q0 -180 -140 -282.5t-374 -102.5q-176 0 -279 23.5t-270 107.5l31 63q160 -78 257.5 -100.5t260.5 -22.5q199 0 317.5 83t118.5 229q0 48 -15 87t-47 69t-68 53t-92 43.5t-103 34
t-117 30.5q-84 20 -140.5 36.5t-124 41.5t-111 53t-82 65.5t-57 87t-18.5 109.5q0 166 132.5 269.5t356.5 103.5q126 0 268 -30.5t234 -80.5l-35 -65q-86 48 -218.5 76t-248.5 28q-189 0 -300 -83t-111 -216q0 -47 16 -86t50.5 -69.5t72.5 -53.5t98 -44t110.5 -35.5
t125.5 -32.5zM678 -145q63 0 63 -105q0 -90 -57.5 -151.5t-153.5 -61.5l-14 37q70 3 116 41.5t46 122.5q-23 0 -39 17t-16 40q0 24 17 42t38 18z" />
    <glyph glyph-name="scommaaccent" unicode="&#x219;" horiz-adv-x="1097" 
d="M104 92l29 62q239 -93 428 -93q187 0 275 69.5t88 172.5q0 50 -27.5 88t-82.5 66t-117 46.5t-152 37.5q-78 16 -138 33t-115 42t-90 55t-56 71.5t-21 91.5q0 125 115 207.5t286 82.5q207 0 404 -84l-25 -61q-168 76 -379 76q-141 0 -235 -62.5t-94 -158.5
q0 -88 89 -137.5t275 -86.5q82 -16 144 -33t118.5 -42.5t93 -57t57.5 -75t21 -97.5q0 -63 -24.5 -117.5t-74 -99.5t-136 -70.5t-201.5 -25.5q-215 0 -455 100zM569 -145q64 0 64 -105q0 -90 -57.5 -151.5t-153.5 -61.5l-14 37q70 3 115.5 41.5t45.5 122.5q-23 0 -39 17
t-16 40q0 24 17 42t38 18z" />
    <glyph glyph-name="uni021A" unicode="&#x21a;" horiz-adv-x="1351" 
d="M1243 1444v-72h-526v-1372h-76v1372h-524v72h1126zM674 -145q63 0 63 -105q0 -90 -57.5 -151.5t-153.5 -61.5l-14 37q70 3 116 41.5t46 122.5q-23 0 -39.5 17t-16.5 40q0 24 17.5 42t38.5 18z" />
    <glyph glyph-name="uni021B" unicode="&#x21b;" horiz-adv-x="796" 
d="M756 1036h-430v-684q0 -150 64.5 -219.5t178.5 -69.5q105 0 183 21v-68q-94 -24 -197 -24q-132 0 -218.5 83.5t-86.5 235.5v725h-203v68h203v440h76v-440h430v-68zM489 -147q64 0 64 -105q0 -90 -57.5 -151.5t-153.5 -61.5l-14 37q70 3 115.5 41.5t45.5 122.5
q-23 0 -39 17t-16 40q0 24 17 42t38 18z" />
    <glyph glyph-name="dotlessj" unicode="&#x237;" horiz-adv-x="432" 
d="M178 -43v1147h76v-1163q0 -152 -86.5 -236t-218.5 -84q-9 0 -90 6v68q23 -2 75 -2q109 0 176.5 67.5t67.5 196.5z" />
    <glyph glyph-name="circumflex" unicode="&#x2c6;" horiz-adv-x="1024" 
d="M190 1552l291 275h54l292 -275h-86l-233 213l-232 -213h-86z" />
    <glyph glyph-name="caron" unicode="&#x2c7;" horiz-adv-x="1024" 
d="M481 1552l-291 275h86l232 -213l233 213h86l-292 -275h-54z" />
    <glyph glyph-name="breve" unicode="&#x2d8;" horiz-adv-x="1024" 
d="M514 1597q-126 0 -201.5 65.5t-87.5 195.5q3 0 32 2t32 2q7 -100 66 -148.5t159 -48.5q99 0 157.5 48.5t67.5 148.5l62 -4q-10 -130 -86 -195.5t-201 -65.5z" />
    <glyph glyph-name="dotaccent" unicode="&#x2d9;" horiz-adv-x="776" 
d="M360 1712q27 0 44.5 -16.5t17.5 -42.5t-18 -43t-44 -17t-43.5 17t-17.5 43t17.5 42.5t43.5 16.5z" />
    <glyph glyph-name="ring" unicode="&#x2da;" horiz-adv-x="1024" 
d="M336 1577q0 70 51.5 121t122.5 51t122.5 -51t51.5 -121t-51.5 -121t-122.5 -51t-122.5 51t-51.5 121zM510 1462q47 0 82 34.5t35 80.5t-35 80.5t-82 34.5t-82 -34.5t-35 -80.5t35 -80.5t82 -34.5z" />
    <glyph glyph-name="ogonek" unicode="&#x2db;" horiz-adv-x="1024" 
d="M647 -276l10 -60q-67 -12 -112 -12q-74 0 -114 34.5t-40 94.5q0 19 5 38.5t13 37t18.5 34.5t23 32t24 28t23 24t19.5 18t14 12l6 5l57 -10l-1 -1q-13 -12 -27.5 -26.5t-42 -46t-45 -66.5t-17.5 -65q0 -82 108 -82q14 0 78 11z" />
    <glyph glyph-name="tilde" unicode="&#x2dc;" horiz-adv-x="1024" 
d="M184 1559l-55 8q15 106 70.5 162.5t146.5 56.5q63 0 174 -49t164 -49q51 0 91.5 40.5t53.5 118.5l56 -8q-16 -107 -70.5 -162t-126.5 -55q-51 0 -114.5 24.5t-123 49t-100.5 24.5q-135 0 -166 -161z" />
    <glyph glyph-name="hungarumlaut" unicode="&#x2dd;" horiz-adv-x="1024" 
d="M381 1862l82 -25l-195 -281h-71zM676 1862l82 -25l-197 -281h-72z" />
    <glyph glyph-name="uni037E" unicode="&#x37e;" horiz-adv-x="385" 
d="M184 113q62 0 62 -82q0 -128 -60.5 -204t-142.5 -81l-14 39q57 9 106 66t49 143q-25 0 -42 17t-17 42q0 24 18.5 42t40.5 18zM184 1098q26 0 44 -17t18 -43t-17.5 -42.5t-44.5 -16.5q-26 0 -43.5 16.5t-17.5 42.5t17.5 43t43.5 17z" />
    <glyph glyph-name="tonos" unicode="&#x384;" horiz-adv-x="845" 
d="M735 1446l-358 -313h-76l344 321z" />
    <glyph glyph-name="dieresistonos" unicode="&#x385;" horiz-adv-x="1167" 
d="M537 1206l139 377l67 -10l-145 -367h-61zM319 1389q26 0 44 -17t18 -43t-17.5 -42.5t-44.5 -16.5q-26 0 -43.5 16.5t-17.5 42.5t17.5 43t43.5 17zM862 1389q26 0 44 -17t18 -43t-17.5 -42.5t-44.5 -16.5q-26 0 -43.5 16.5t-17.5 42.5t17.5 43t43.5 17z" />
    <glyph glyph-name="Alphatonos" unicode="&#x386;" horiz-adv-x="1458" 
d="M1327 0l-186 418h-826l-184 -418h-82l651 1444h58l649 -1444h-80zM727 1352l-383 -869h770zM489 1446l-358 -313h-76l344 321z" />
    <glyph glyph-name="anoteleia" unicode="&#x387;" horiz-adv-x="342" 
d="M139 1079q27 0 44.5 -16.5t17.5 -42.5t-17.5 -42.5t-44.5 -16.5q-26 0 -43.5 16.5t-17.5 42.5t17.5 42.5t43.5 16.5z" />
    <glyph glyph-name="Epsilontonos" unicode="&#x388;" 
d="M53 1446l-358 -313h-76l344 321zM270 72h918v-72h-993v1444h950v-72h-875v-637h748v-69h-748v-594z" />
    <glyph glyph-name="Etatonos" unicode="&#x389;" horiz-adv-x="1486" 
d="M1217 1444h75v-1444h-75v604h-947v-604h-75v1444h75v-768h947v768zM53 1446l-358 -313h-76l344 321z" />
    <glyph glyph-name="Iotatonos" unicode="&#x38a;" horiz-adv-x="468" 
d="M272 1444v-1444h-75v1444h75zM53 1446l-358 -313h-76l344 321z" />
    <glyph glyph-name="Omicrontonos" unicode="&#x38c;" horiz-adv-x="1757" 
d="M242 1446l-359 -313h-76l345 321zM879 1450q206 0 380.5 -98t275.5 -266t101 -365t-101 -365t-275.5 -266t-380.5 -98q-155 0 -295.5 58t-242.5 155.5t-162 232.5t-60 283t60 283t162 232.5t242.5 155.5t295.5 58zM879 68q139 0 265 52t217 139.5t144.5 208t53.5 253.5
t-53.5 254t-144.5 209t-217 140t-265 52q-138 0 -264.5 -52t-217.5 -140t-145.5 -209t-54.5 -254t54 -253.5t145.5 -208t218 -139.5t264.5 -52z" />
    <glyph glyph-name="Upsilontonos" unicode="&#x38e;" horiz-adv-x="1327" 
d="M-29 1446l-358 -313h-76l344 321zM1186 1444h90l-574 -944v-500h-75v500l-574 944h88l523 -866z" />
    <glyph glyph-name="Omegatonos" unicode="&#x38f;" horiz-adv-x="1718" 
d="M1599 739q0 -101 -26.5 -195t-69 -166t-100.5 -134t-117.5 -104t-122.5 -72h412v-68h-576v74q62 14 130.5 48t139.5 93.5t127 133t92 176t36 214.5q0 157 -52 281t-143 201.5t-210 118t-259 40.5t-259.5 -40.5t-211 -118t-143 -201.5t-51.5 -281q0 -112 35.5 -214.5
t92 -176t127.5 -133t139 -93.5t130 -48v-74h-576v68h410q-80 37 -153.5 96.5t-138 142t-103.5 195t-39 237.5q0 141 37.5 258.5t105 200.5t160.5 141t203.5 85.5t234.5 27.5t233.5 -27.5t202.5 -85.5t160.5 -141t105 -200.5t37.5 -258.5zM233 1446l-358 -313h-76l344 321z
" />
    <glyph glyph-name="iotadieresistonos" unicode="&#x390;" horiz-adv-x="436" 
d="M180 0v1104h76v-1104h-76zM178 1192l139 377l68 -10l-145 -367h-62zM-39 1374q27 0 44.5 -16.5t17.5 -42.5t-18 -43t-44 -17t-43.5 17t-17.5 43t17.5 42.5t43.5 16.5zM504 1374q26 0 43.5 -16.5t17.5 -42.5t-17.5 -43t-43.5 -17t-44 17t-18 43t17.5 42.5t44.5 16.5z" />
    <glyph glyph-name="Alpha" unicode="&#x391;" horiz-adv-x="1458" 
d="M1327 0l-186 418h-826l-184 -418h-82l651 1444h58l649 -1444h-80zM727 1352l-383 -869h770z" />
    <glyph glyph-name="Beta" unicode="&#x392;" horiz-adv-x="1423" 
d="M1036 1157q0 -67 -26.5 -132t-81.5 -103q92 -9 167 -51.5t123.5 -107t74.5 -143.5t26 -163q0 -91 -28.5 -173t-82 -145.5t-137.5 -101t-188 -37.5h-688v1444h514q137 0 232 -82.5t95 -204.5zM270 1372v-444h500q51 0 90 21.5t60.5 55.5t32 71t10.5 73q0 97 -76.5 160
t-188.5 63h-428zM270 72h594q119 0 206 55t128 142t41 192q0 77 -24 148t-69.5 127.5t-118.5 90t-163 33.5h-594v-788z" />
    <glyph glyph-name="Gamma" unicode="&#x393;" horiz-adv-x="1210" 
d="M1120 1444v-72h-850v-1372h-75v1444h925z" />
    <glyph glyph-name="uni0394" unicode="&#x394;" horiz-adv-x="1456" 
d="M758 1444l647 -1444h-1354l649 1444h58zM727 1350l-567 -1282h1136z" />
    <glyph glyph-name="Epsilon" unicode="&#x395;" 
d="M270 72h918v-72h-993v1444h950v-72h-875v-637h748v-69h-748v-594z" />
    <glyph glyph-name="Zeta" unicode="&#x396;" horiz-adv-x="1329" 
d="M1217 1444v-37l-1000 -1335h1016v-72h-1131v35l998 1337h-938v72h1055z" />
    <glyph glyph-name="Eta" unicode="&#x397;" horiz-adv-x="1486" 
d="M1217 1444h75v-1444h-75v604h-947v-604h-75v1444h75v-768h947v768z" />
    <glyph glyph-name="Theta" unicode="&#x398;" horiz-adv-x="1757" 
d="M879 1450q206 0 380.5 -98t275.5 -266t101 -365t-101 -365t-275.5 -266t-380.5 -98q-155 0 -295.5 58t-242.5 155.5t-162 232.5t-60 283t60 283t162 232.5t242.5 155.5t295.5 58zM879 68q139 0 265 52t217 139.5t144.5 208t53.5 253.5t-53.5 254t-144.5 209t-217 140
t-265 52q-138 0 -264.5 -52t-217.5 -140t-145.5 -209t-54.5 -254t54 -253.5t145.5 -208t218 -139.5t264.5 -52zM362 690v66h1033v-66h-1033z" />
    <glyph glyph-name="Iota" unicode="&#x399;" horiz-adv-x="468" 
d="M272 1444v-1444h-75v1444h75z" />
    <glyph glyph-name="Kappa" unicode="&#x39a;" horiz-adv-x="1400" 
d="M637 748l663 -748h-104l-612 690l-314 -336v-354h-75v1444h75v-981l914 981h98z" />
    <glyph glyph-name="Lambda" unicode="&#x39b;" horiz-adv-x="1456" 
d="M756 1444l647 -1444h-80l-596 1348l-594 -1348h-82l647 1444h58z" />
    <glyph glyph-name="Mu" unicode="&#x39c;" horiz-adv-x="1789" 
d="M1544 1444h49v-1444h-75v1268l-623 -1024l-625 1024v-1268h-75v1444h51l649 -1061z" />
    <glyph glyph-name="Nu" unicode="&#x39d;" horiz-adv-x="1572" 
d="M1303 1444h75v-1444h-49l-1059 1298v-1298h-75v1444h51l1057 -1299v1299z" />
    <glyph glyph-name="Xi" unicode="&#x39e;" horiz-adv-x="1382" 
d="M135 68h1133v-68h-1133v68zM1249 1444v-68h-1095v68h1095zM1163 694h-923v66h923v-66z" />
    <glyph glyph-name="Omicron" unicode="&#x39f;" horiz-adv-x="1757" 
d="M879 1450q206 0 380.5 -98t275.5 -266t101 -365t-101 -365t-275.5 -266t-380.5 -98q-155 0 -295.5 58t-242.5 155.5t-162 232.5t-60 283t60 283t162 232.5t242.5 155.5t295.5 58zM879 68q139 0 265 52t217 139.5t144.5 208t53.5 253.5t-53.5 254t-144.5 209t-217 140
t-265 52q-138 0 -264.5 -52t-217.5 -140t-145.5 -209t-54.5 -254t54 -253.5t145.5 -208t218 -139.5t264.5 -52z" />
    <glyph glyph-name="Pi" unicode="&#x3a0;" horiz-adv-x="1523" 
d="M195 1444h1134v-1444h-74v1376h-985v-1376h-75v1444z" />
    <glyph glyph-name="Rho" unicode="&#x3a1;" horiz-adv-x="1320" 
d="M195 1444h550q109 0 195.5 -25t143 -68t94 -102.5t53.5 -125t16 -140.5q0 -127 -40.5 -221.5t-115 -151.5t-174 -84.5t-223.5 -27.5h-424v-498h-75v1444zM270 567h420q223 0 350 101.5t127 312.5q0 80 -23 148t-71.5 124t-133.5 87.5t-200 31.5h-469v-805z" />
    <glyph glyph-name="Sigma" unicode="&#x3a3;" horiz-adv-x="1314" 
d="M215 72h997v-72h-1114v37l518 684l-516 686v37h1110v-72h-995l490 -651z" />
    <glyph glyph-name="Tau" unicode="&#x3a4;" horiz-adv-x="1351" 
d="M1243 1444v-72h-526v-1372h-76v1372h-524v72h1126z" />
    <glyph glyph-name="Upsilon" unicode="&#x3a5;" horiz-adv-x="1327" 
d="M1186 1444h90l-574 -944v-500h-75v500l-574 944h88l523 -866z" />
    <glyph glyph-name="Phi" unicode="&#x3a6;" horiz-adv-x="1828" 
d="M1710 743v-18q0 -104 -36.5 -199.5t-100.5 -168.5t-147 -128t-180 -83.5t-195 -28.5h-99v-117h-75v117h-99q-166 1 -316 76.5t-246.5 217t-96.5 314.5v18q0 164 90.5 304t242.5 221.5t326 81.5h99v94h75v-94h99q174 0 325 -81t242 -221.5t92 -304.5zM195 733
q0 -119 49.5 -222.5t130.5 -173t186.5 -109.5t216.5 -40h99v1090h-99q-156 0 -290 -72t-213.5 -198t-79.5 -275zM952 1278v-1090h97q111 0 216.5 40t187.5 109.5t131.5 173t49.5 222.5q0 149 -79.5 275t-213.5 198t-290 72h-99z" />
    <glyph glyph-name="Chi" unicode="&#x3a7;" horiz-adv-x="1507" 
d="M760 780l575 664h92l-618 -723l621 -721h-95l-575 666l-576 -666h-94l621 721l-619 723h94z" />
    <glyph glyph-name="Psi" unicode="&#x3a8;" horiz-adv-x="1761" 
d="M1536 1444h76v-529q0 -163 -85.5 -301.5t-226 -217.5t-299.5 -79h-81v-317h-76v317h-82q-159 0 -299.5 79t-225.5 217.5t-85 301.5v529h73v-529q0 -108 44 -206t117.5 -168t172 -111t203.5 -41h82v1055h76v-1055h81q105 0 203.5 41t171 111t116.5 168t44 206v529z" />
    <glyph glyph-name="uni03A9" unicode="&#x3a9;" horiz-adv-x="1718" 
d="M1599 739q0 -101 -26.5 -195t-69 -166t-100.5 -134t-117.5 -104t-122.5 -72h412v-68h-576v74q62 14 130.5 48t139.5 93.5t127 133t92 176t36 214.5q0 157 -52 281t-143 201.5t-210 118t-259 40.5t-259.5 -40.5t-211 -118t-143 -201.5t-51.5 -281q0 -112 35.5 -214.5
t92 -176t127.5 -133t139 -93.5t130 -48v-74h-576v68h410q-80 37 -153.5 96.5t-138 142t-103.5 195t-39 237.5q0 141 37.5 258.5t105 200.5t160.5 141t203.5 85.5t234.5 27.5t233.5 -27.5t202.5 -85.5t160.5 -141t105 -200.5t37.5 -258.5z" />
    <glyph glyph-name="Iotadieresis" unicode="&#x3aa;" horiz-adv-x="468" 
d="M272 1444v-1444h-75v1444h75zM80 1739q26 0 43.5 -17t17.5 -43t-17.5 -42.5t-43.5 -16.5q-27 0 -44.5 16.5t-17.5 42.5t18 43t44 17zM393 1739q26 0 44 -17t18 -43t-17.5 -42.5t-44.5 -16.5q-26 0 -43.5 16.5t-17.5 42.5t17.5 43t43.5 17z" />
    <glyph glyph-name="Upsilondieresis" unicode="&#x3ab;" horiz-adv-x="1327" 
d="M1186 1444h90l-574 -944v-500h-75v500l-574 944h88l523 -866zM510 1739q26 0 43.5 -17t17.5 -43t-17.5 -42.5t-43.5 -16.5t-43.5 16.5t-17.5 42.5t17.5 43t43.5 17zM823 1739q26 0 44 -17t18 -43t-17.5 -42.5t-44.5 -16.5q-26 0 -43.5 16.5t-17.5 42.5t17.5 43t43.5 17z
" />
    <glyph glyph-name="alphatonos" unicode="&#x3ac;" horiz-adv-x="1368" 
d="M1116 1104h74v-1104h-74v133q-179 -141 -434 -141q-156 0 -288.5 75t-210 205.5t-77.5 286.5q0 155 77.5 285t210 205t288.5 75q126 0 241.5 -39.5t192.5 -107.5v127zM1116 219v674q-77 76 -188 118t-240 42q-138 0 -255 -66t-185 -179.5t-68 -248.5q0 -136 68 -250
t185 -180t255 -66q132 0 242 41t186 115zM1094 1552l-359 -313h-76l345 322z" />
    <glyph glyph-name="epsilontonos" unicode="&#x3ad;" horiz-adv-x="1202" 
d="M1073 1552l-358 -313h-76l344 322zM1061 197l33 -60q-144 -77 -249 -111t-243 -34q-498 0 -498 317q0 81 58 154t160 104q-80 36 -128.5 108t-48.5 134q0 90 34.5 152.5t101 97.5t149.5 50t193 15q199 0 448 -131l-31 -57q-229 121 -413 121q-94 0 -165 -12.5
t-127.5 -40.5t-86 -78t-29.5 -121q0 -29 16.5 -64t45.5 -68t76 -56.5t100 -26.5h325v-60h-368q-111 -14 -173.5 -79t-62.5 -138q0 -252 424 -252q128 0 225 32t234 104z" />
    <glyph glyph-name="etatonos" unicode="&#x3ae;" horiz-adv-x="1308" 
d="M684 1124q210 0 342.5 -127t132.5 -360v-637h-74v637q0 197 -114.5 306.5t-292.5 109.5q-251 0 -426 -154v-899h-74v1104h74v-133q75 74 187 113.5t245 39.5zM1094 1552l-359 -313h-76l345 322z" />
    <glyph glyph-name="iotatonos" unicode="&#x3af;" horiz-adv-x="436" 
d="M180 0v1104h76v-1104h-76zM616 1552l-358 -313h-76l344 322z" />
    <glyph glyph-name="upsilondieresistonos" unicode="&#x3b0;" 
d="M1149 1104v-655q0 -139 -71 -245t-184 -159t-247 -53q-72 0 -142.5 18.5t-134.5 56.5t-113 91.5t-78 128.5t-29 162v655h73v-649q0 -92 37 -168.5t98 -124t136 -73.5t153 -26q117 0 213.5 45.5t155.5 136t59 210.5v649h74zM606 1206l139 377l68 -10l-145 -367h-62z
M389 1389q26 0 44 -17t18 -43t-17.5 -42.5t-44.5 -16.5q-26 0 -43.5 16.5t-17.5 42.5t17.5 43t43.5 17zM932 1389q26 0 43.5 -17t17.5 -43t-17.5 -42.5t-43.5 -16.5q-27 0 -44.5 16.5t-17.5 42.5t18 43t44 17z" />
    <glyph glyph-name="alpha" unicode="&#x3b1;" horiz-adv-x="1368" 
d="M1116 1104h74v-1104h-74v133q-179 -141 -434 -141q-156 0 -288.5 75t-210 205.5t-77.5 286.5q0 155 77.5 285t210 205t288.5 75q126 0 241.5 -39.5t192.5 -107.5v127zM1116 219v674q-77 76 -188 118t-240 42q-138 0 -255 -66t-185 -179.5t-68 -248.5q0 -136 68 -250
t185 -180t255 -66q132 0 242 41t186 115z" />
    <glyph glyph-name="beta" unicode="&#x3b2;" horiz-adv-x="1300" 
d="M862 864q107 -25 185 -93t113.5 -150t35.5 -168q0 -143 -66.5 -249.5t-175.5 -159t-245 -52.5q-278 0 -457 158v-496h-74v1374q0 239 122.5 380.5t305.5 141.5q199 0 322 -99t123 -280q0 -112 -51.5 -190t-137.5 -117zM606 1481q-153 0 -253.5 -121.5t-100.5 -325.5v-145
h455q110 0 190 78t80 207q0 147 -102.5 227t-268.5 80zM705 63q179 0 298 104t119 286q0 65 -25 129t-73 118.5t-128.5 88.5t-180.5 34h-463v-583q77 -84 193 -130.5t260 -46.5z" />
    <glyph glyph-name="gamma" unicode="&#x3b3;" horiz-adv-x="1236" 
d="M1100 1104h80l-525 -1100v-350h-73v350l-525 1100h78l483 -1006z" />
    <glyph glyph-name="delta" unicode="&#x3b4;" horiz-adv-x="1402" 
d="M1147 1477h-766q591 -429 620 -449q297 -223 297 -508q0 -141 -80 -263t-218 -193.5t-300 -71.5q-122 0 -233.5 42.5t-191.5 114.5t-127.5 169.5t-47.5 203.5q0 138 78.5 256.5t212.5 188t291 69.5q75 0 137.5 -14t92.5 -28t65 -36q-7 7 -194.5 145t-371.5 272l-184 134
v35h920v-67zM700 61q142 0 263 62.5t191.5 169t70.5 229.5q0 93 -41.5 177t-112 144t-167.5 95t-204 35q-143 0 -264 -59.5t-191.5 -163.5t-70.5 -228q0 -92 41.5 -177t112 -147.5t168 -99.5t204.5 -37z" />
    <glyph glyph-name="epsilon" unicode="&#x3b5;" horiz-adv-x="1202" 
d="M1061 197l33 -60q-144 -77 -249 -111t-243 -34q-498 0 -498 317q0 81 58 154t160 104q-80 36 -128.5 108t-48.5 134q0 90 34.5 152.5t101 97.5t149.5 50t193 15q199 0 448 -131l-31 -57q-229 121 -413 121q-94 0 -165 -12.5t-127.5 -40.5t-86 -78t-29.5 -121
q0 -29 16.5 -64t45.5 -68t76 -56.5t100 -26.5h325v-60h-368q-111 -14 -173.5 -79t-62.5 -138q0 -252 424 -252q128 0 225 32t234 104z" />
    <glyph glyph-name="zeta" unicode="&#x3b6;" horiz-adv-x="1036" 
d="M1022 1544v-39q-88 -74 -154.5 -131.5t-159.5 -143.5t-161 -156t-142 -156t-120 -158t-76.5 -148t-30.5 -139q0 -53 35 -93t91.5 -63t129.5 -43.5t148.5 -35t148.5 -37.5t129.5 -50t91.5 -73t35 -107q0 -48 -23.5 -94t-61.5 -81t-80.5 -64.5t-86.5 -50t-72 -32t-45 -16.5
l-26 60q50 16 101 41t102.5 59.5t83.5 80t32 93.5q0 54 -44.5 93t-116 61t-157.5 41t-172.5 41.5t-158 53t-116 85t-44.5 129.5t33 161t95 175t134.5 174t168 177t177 164.5t179.5 154.5h-791v67h924z" />
    <glyph glyph-name="eta" unicode="&#x3b7;" horiz-adv-x="1308" 
d="M684 1124q210 0 342.5 -127t132.5 -360v-637h-74v637q0 197 -114.5 306.5t-292.5 109.5q-251 0 -426 -154v-899h-74v1104h74v-133q75 74 187 113.5t245 39.5z" />
    <glyph glyph-name="theta" unicode="&#x3b8;" horiz-adv-x="1351" 
d="M676 1550q119 0 223 -55.5t181.5 -155.5t122 -249t44.5 -328q0 -178 -44.5 -325t-122 -243.5t-181.5 -149t-223 -52.5q-118 0 -221.5 52.5t-181 149t-122.5 243.5t-45 325t45 327.5t122.5 249.5t181.5 155.5t221 55.5zM676 1481q-208 0 -350 -189t-148 -495h996
q-2 153 -42.5 282.5t-107.5 217t-157 136t-191 48.5zM676 61q102 0 191.5 46t157 130.5t107.5 211.5t42 280h-996q2 -154 42 -281t108 -211t157.5 -130t190.5 -46z" />
    <glyph glyph-name="iota" unicode="&#x3b9;" horiz-adv-x="436" 
d="M180 0v1104h76v-1104h-76z" />
    <glyph glyph-name="kappa" unicode="&#x3ba;" horiz-adv-x="1253" 
d="M748 684l446 -684h-86l-414 629l-442 -410v-219h-74v1104h74v-787l842 787h102z" />
    <glyph glyph-name="lambda" unicode="&#x3bb;" horiz-adv-x="1257" 
d="M741 1227l467 -1227h-80l-415 1098l-76 -62l-479 -1036h-82l514 1100l94 78q-35 102 -116.5 173t-176.5 101.5t-196 30.5h-41v67h43q115 0 220 -32.5t194 -107.5t130 -183z" />
    <glyph glyph-name="uni03BC" unicode="&#x3bc;" horiz-adv-x="1355" 
d="M1104 1104h74v-1104h-74v145q-78 -73 -195 -113t-252 -40q-136 0 -244 61t-161 174v-573h-74v1450h74v-625q0 -197 114.5 -306.5t292.5 -109.5q264 0 445 154v887z" />
    <glyph glyph-name="nu" unicode="&#x3bd;" horiz-adv-x="1241" 
d="M1102 1104h84l-543 -1104h-43l-543 1104h82l484 -985z" />
    <glyph glyph-name="xi" unicode="&#x3be;" horiz-adv-x="1030" 
d="M954 1544v-61q-153 -1 -274.5 -21t-198 -53t-126.5 -78t-70.5 -91t-20.5 -97q0 -103 86 -178.5t220 -110.5t296 -35v-63q-198 -2 -353 -39.5t-245 -107t-90 -160.5q0 -64 33 -111.5t87.5 -73.5t124 -47t141.5 -32.5t141.5 -30.5t124 -40.5t87.5 -62t33 -96.5
q0 -63 -41 -121.5t-99 -97.5t-106 -62.5t-77 -31.5l-45 53q44 12 92 36t94 57t76 76t30 87q0 42 -33 72t-87.5 46t-124 32t-141.5 28.5t-141.5 38t-124 58.5t-87.5 90.5t-33 134.5q0 126 125 216t336 128q-170 39 -272.5 128t-102.5 220q0 49 16.5 94.5t52 91t101 84
t154.5 64.5h-451v67h893z" />
    <glyph glyph-name="omicron" unicode="&#x3bf;" horiz-adv-x="1406" 
d="M705 1124q162 0 300 -76t218 -206.5t80 -284.5q0 -153 -80 -283t-218 -206t-300 -76q-163 0 -301.5 76t-219 206t-80.5 283q0 154 80.5 284.5t219 206.5t301.5 76zM705 63q142 0 263 66.5t191 180t70 247.5q0 135 -70 249t-191 180.5t-263 66.5q-218 0 -372.5 -145.5
t-154.5 -350.5q0 -134 70.5 -247.5t192 -180t264.5 -66.5z" />
    <glyph glyph-name="pi" unicode="&#x3c0;" horiz-adv-x="1378" 
d="M178 1104h1020v-1104h-74v1034h-872v-1034h-74v1104z" />
    <glyph glyph-name="rho" unicode="&#x3c1;" horiz-adv-x="1341" 
d="M655 1124q159 0 292.5 -74.5t211.5 -205t78 -287.5q0 -155 -77.5 -285.5t-210 -205t-287.5 -74.5q-266 0 -437 139v-477h-73v997q0 128 67.5 237t183.5 172.5t252 63.5zM655 63q138 0 255 65.5t185 179t68 249.5q0 137 -67.5 251t-184 179.5t-256.5 65.5
q-175 0 -302.5 -116.5t-127.5 -283.5v-434q75 -75 185 -115.5t245 -40.5z" />
    <glyph glyph-name="uni03C2" unicode="&#x3c2;" horiz-adv-x="1159" 
d="M690 72q16 -6 56.5 -21.5t58 -23t50 -23t48 -28.5t33.5 -32t25.5 -41.5t7.5 -49.5q0 -147 -242 -242q-2 6 -15 26.5t-18 24.5q203 92 203 186q0 18 -7 34t-22.5 29.5t-30.5 23.5t-41.5 21t-44.5 18t-50.5 18.5t-49.5 17.5q-69 26 -117.5 46.5t-110 52t-103.5 61.5t-86 73
t-70 90.5t-43 109t-17 132.5q0 150 81 277t214.5 199.5t284.5 72.5q126 0 236.5 -53t183.5 -149l-55 -45q-65 83 -160.5 129.5t-204.5 46.5q-132 0 -248 -63t-187 -173.5t-71 -241.5q0 -49 10 -92.5t25 -79t42.5 -69t52 -58t66 -51.5t71 -44t80 -39.5t81 -35.5t84.5 -34z
" />
    <glyph glyph-name="sigma" unicode="&#x3c3;" horiz-adv-x="1409" 
d="M1329 1104v-68h-389q150 -39 256.5 -171.5t106.5 -309.5q0 -152 -80 -281.5t-218 -205.5t-300 -76q-163 0 -301.5 76t-219 206t-80.5 283q0 149 80.5 275t219 199t301.5 73h624zM705 63q142 0 263 66.5t191 180t70 247.5q0 97 -41.5 185.5t-112 152.5t-167.5 101.5
t-203 37.5q-143 0 -264.5 -63.5t-192 -173.5t-70.5 -240q0 -134 70.5 -247.5t192 -180t264.5 -66.5z" />
    <glyph glyph-name="tau" unicode="&#x3c4;" horiz-adv-x="1085" 
d="M1024 1104v-68h-442v-1036h-74v1036h-449v68h965z" />
    <glyph glyph-name="upsilon" unicode="&#x3c5;" 
d="M1149 1104v-655q0 -139 -71 -245t-184 -159t-247 -53q-72 0 -142.5 18.5t-134.5 56.5t-113 91.5t-78 128.5t-29 162v655h73v-649q0 -92 37 -168.5t98 -124t136 -73.5t153 -26q117 0 213.5 45.5t155.5 136t59 210.5v649h74z" />
    <glyph glyph-name="phi" unicode="&#x3c6;" horiz-adv-x="1679" 
d="M1575 547q0 -128 -58.5 -234.5t-156.5 -175.5t-223 -107t-260 -38v-338h-74v338q-136 0 -261 38t-223 107t-156.5 175.5t-58.5 234.5q0 178 110 322.5t292 217.5l26 -61q-160 -64 -257 -192.5t-97 -286.5q0 -141 83 -253t221.5 -172.5t305.5 -60.5h15v1063q46 4 69 4
q113 0 214 -19.5t191.5 -64t156 -111t103.5 -165.5t38 -221zM877 1059v-998h10q169 0 308.5 60.5t222.5 172.5t83 253q0 108 -33.5 195t-90.5 145t-136.5 97.5t-168.5 57t-189 17.5h-6z" />
    <glyph glyph-name="chi" unicode="&#x3c7;" horiz-adv-x="1187" 
d="M598 494l-436 -494h-90l481 553l-481 551h92l434 -496l434 496h92l-479 -551l481 -553h-92z" />
    <glyph glyph-name="psi" unicode="&#x3c8;" horiz-adv-x="1640" 
d="M1415 1104h76v-655q0 -227 -160 -342t-475 -115v-338h-74v338q-313 0 -472.5 115.5t-159.5 341.5v655h73v-649q0 -103 38 -179t109.5 -122t168.5 -68.5t221 -22.5h22v1186h74v-1186h23q536 0 536 392v649z" />
    <glyph glyph-name="omega" unicode="&#x3c9;" horiz-adv-x="1832" 
d="M1239 1051l6 69q211 -19 347.5 -170t136.5 -393q0 -261 -127 -413t-351 -152q-112 0 -202.5 70.5t-130.5 175.5q-41 -105 -133 -175.5t-201 -70.5q-226 0 -353 152t-127 413q0 122 37.5 224t103 173t153.5 114t190 52l8 -69q-183 -21 -300.5 -153t-117.5 -341
q0 -229 108 -361.5t300 -132.5q119 0 207 99.5t88 224.5v291h71v-291q0 -126 88 -225t209 -99q191 0 298.5 132.5t107.5 361.5q0 209 -117.5 341t-298.5 153z" />
    <glyph glyph-name="iotadieresis" unicode="&#x3ca;" horiz-adv-x="436" 
d="M180 0v1104h76v-1104h-76zM63 1403q26 0 44 -17t18 -43t-17.5 -42.5t-44.5 -16.5q-26 0 -43.5 16.5t-17.5 42.5t17.5 43t43.5 17zM377 1403q26 0 43.5 -17t17.5 -43t-17.5 -42.5t-43.5 -16.5q-27 0 -44.5 16.5t-17.5 42.5t18 43t44 17z" />
    <glyph glyph-name="upsilondieresis" unicode="&#x3cb;" 
d="M1149 1104v-655q0 -139 -71 -245t-184 -159t-247 -53q-72 0 -142.5 18.5t-134.5 56.5t-113 91.5t-78 128.5t-29 162v655h73v-649q0 -92 37 -168.5t98 -124t136 -73.5t153 -26q117 0 213.5 45.5t155.5 136t59 210.5v649h74zM481 1403q26 0 44 -17t18 -43t-17.5 -42.5
t-44.5 -16.5q-26 0 -43.5 16.5t-17.5 42.5t17.5 43t43.5 17zM795 1403q26 0 43.5 -17t17.5 -43t-17.5 -42.5t-43.5 -16.5q-27 0 -44.5 16.5t-17.5 42.5t18 43t44 17z" />
    <glyph glyph-name="omicrontonos" unicode="&#x3cc;" horiz-adv-x="1406" 
d="M1087 1552l-358 -313h-76l344 322zM705 1124q162 0 300 -76t218 -206.5t80 -284.5q0 -153 -80 -283t-218 -206t-300 -76q-163 0 -301.5 76t-219 206t-80.5 283q0 154 80.5 284.5t219 206.5t301.5 76zM705 63q142 0 263 66.5t191 180t70 247.5q0 135 -70 249t-191 180.5
t-263 66.5q-218 0 -372.5 -145.5t-154.5 -350.5q0 -134 70.5 -247.5t192 -180t264.5 -66.5z" />
    <glyph glyph-name="upsilontonos" unicode="&#x3cd;" 
d="M1042 1552l-358 -313h-76l344 322zM1149 1104v-655q0 -139 -71 -245t-184 -159t-247 -53q-72 0 -142.5 18.5t-134.5 56.5t-113 91.5t-78 128.5t-29 162v655h73v-649q0 -92 37 -168.5t98 -124t136 -73.5t153 -26q117 0 213.5 45.5t155.5 136t59 210.5v649h74z" />
    <glyph glyph-name="omegatonos" unicode="&#x3ce;" horiz-adv-x="1832" 
d="M1239 1051l6 69q211 -19 347.5 -170t136.5 -393q0 -261 -127 -413t-351 -152q-112 0 -202.5 70.5t-130.5 175.5q-41 -105 -133 -175.5t-201 -70.5q-226 0 -353 152t-127 413q0 122 37.5 224t103 173t153.5 114t190 52l8 -69q-183 -21 -300.5 -153t-117.5 -341
q0 -229 108 -361.5t300 -132.5q119 0 207 99.5t88 224.5v291h71v-291q0 -126 88 -225t209 -99q191 0 298.5 132.5t107.5 361.5q0 209 -117.5 341t-298.5 153zM1317 1552l-359 -313h-75l344 322z" />
    <glyph glyph-name="Wgrave" unicode="&#x1e80;" horiz-adv-x="2287" 
d="M2200 1444l-545 -1444h-47l-475 1309l-476 -1309h-45l-546 1444h81l488 -1303l473 1303h49l473 -1303l488 1303h82zM1100 1552l-338 312l92 8l317 -320h-71z" />
    <glyph glyph-name="wgrave" unicode="&#x1e81;" horiz-adv-x="1738" 
d="M1624 1104h76l-430 -1104h-45l-355 977l-354 -977h-45l-434 1104h80l379 -975l348 975h51l350 -975zM829 1225l-337 311l92 8l317 -319h-72z" />
    <glyph glyph-name="Wacute" unicode="&#x1e82;" horiz-adv-x="2287" 
d="M2200 1444l-545 -1444h-47l-475 1309l-476 -1309h-45l-546 1444h81l488 -1303l473 1303h49l473 -1303l488 1303h82zM1509 1864l-335 -312h-72l317 320z" />
    <glyph glyph-name="wacute" unicode="&#x1e83;" horiz-adv-x="1738" 
d="M1624 1104h76l-430 -1104h-45l-355 977l-354 -977h-45l-434 1104h80l379 -975l348 975h51l350 -975zM1253 1536l-335 -311h-72l317 319z" />
    <glyph glyph-name="Wdieresis" unicode="&#x1e84;" horiz-adv-x="2287" 
d="M2200 1444l-545 -1444h-47l-475 1309l-476 -1309h-45l-546 1444h81l488 -1303l473 1303h49l473 -1303l488 1303h82zM977 1712q26 0 43.5 -16.5t17.5 -42.5t-17.5 -43t-43.5 -17t-44 17t-18 43t17.5 42.5t44.5 16.5zM1290 1712q27 0 44.5 -16.5t17.5 -42.5t-18 -43
t-44 -17t-43.5 17t-17.5 43t17.5 42.5t43.5 16.5z" />
    <glyph glyph-name="wdieresis" unicode="&#x1e85;" horiz-adv-x="1738" 
d="M1624 1104h76l-430 -1104h-45l-355 977l-354 -977h-45l-434 1104h80l379 -975l348 975h51l350 -975zM715 1384q26 0 43.5 -16.5t17.5 -42.5t-17.5 -42.5t-43.5 -16.5q-27 0 -44.5 16.5t-17.5 42.5t17.5 42.5t44.5 16.5zM1028 1384q27 0 44.5 -16.5t17.5 -42.5
t-17.5 -42.5t-44.5 -16.5q-26 0 -43.5 16.5t-17.5 42.5t17.5 42.5t43.5 16.5z" />
    <glyph glyph-name="Ygrave" unicode="&#x1ef2;" horiz-adv-x="1327" 
d="M1186 1444h90l-574 -944v-500h-75v500l-574 944h88l523 -866zM608 1552l-338 312l92 8l318 -320h-72z" />
    <glyph glyph-name="ygrave" unicode="&#x1ef3;" horiz-adv-x="1245" 
d="M1087 1104h80l-469 -1163q-36 -90 -102 -155t-150 -99t-168.5 -49t-177.5 -15h-10l4 66h23q194 0 332 75.5t194 235.5h-61l-512 1104h82l473 -1022h51zM608 1243l-338 311l92 9l318 -320h-72z" />
    <glyph glyph-name="endash" unicode="&#x2013;" horiz-adv-x="1081" 
d="M981 711v-64h-881v64h881z" />
    <glyph glyph-name="emdash" unicode="&#x2014;" horiz-adv-x="1839" 
d="M1735 711v-64h-1635v64h1635z" />
    <glyph glyph-name="quoteleft" unicode="&#x2018;" horiz-adv-x="366" 
d="M180 1126q-63 0 -63 105q0 90 57.5 151.5t153.5 61.5l14 -37q-70 -3 -116 -41.5t-46 -122.5q23 0 39.5 -17t16.5 -40q0 -24 -17.5 -42t-38.5 -18z" />
    <glyph glyph-name="quoteright" unicode="&#x2019;" horiz-adv-x="337" 
d="M207 1444q65 0 65 -105q0 -90 -57.5 -151.5t-155.5 -61.5l-12 39q69 3 115 41.5t47 120.5q-25 1 -40 17.5t-15 39.5q0 26 16 43t37 17z" />
    <glyph glyph-name="quotesinglbase" unicode="&#x201a;" horiz-adv-x="378" 
d="M182 117q64 0 64 -105q0 -90 -57.5 -151.5t-155.5 -61.5l-13 39q69 3 115.5 41.5t46.5 120.5q-24 2 -39.5 18.5t-15.5 40.5t16.5 41t38.5 17z" />
    <glyph glyph-name="quotedblleft" unicode="&#x201c;" horiz-adv-x="641" 
d="M440 1126q-63 0 -63 105q0 90 57.5 151.5t155.5 61.5l12 -39q-69 -3 -115.5 -41.5t-46.5 -120.5q24 -2 40 -18.5t16 -40.5t-17 -41t-39 -17zM160 1126q-64 0 -64 105q0 90 56.5 151.5t154.5 61.5l15 -39q-70 -3 -116 -41.5t-46 -120.5q24 -2 39.5 -18.5t15.5 -40.5
t-17 -41t-38 -17z" />
    <glyph glyph-name="quotedblright" unicode="&#x201d;" horiz-adv-x="626" 
d="M209 1444q65 0 65 -105q0 -90 -57.5 -151.5t-155.5 -61.5l-12 39q69 3 115 41.5t47 120.5q-25 1 -40 17.5t-15 39.5q0 26 16 43t37 17zM492 1444q63 0 63 -105q0 -90 -57.5 -151.5t-153.5 -61.5l-14 39q69 3 115.5 41.5t46.5 120.5q-24 2 -40 18t-16 39q0 25 17.5 42.5
t38.5 17.5z" />
    <glyph glyph-name="quotedblbase" unicode="&#x201e;" horiz-adv-x="632" 
d="M186 117q66 0 66 -105q0 -90 -57.5 -151.5t-155.5 -61.5l-12 39q69 3 114.5 41.5t46.5 120.5q-24 2 -39.5 18.5t-15.5 40.5t16 41t37 17zM469 117q63 0 63 -105q0 -90 -57 -151.5t-153 -61.5l-15 39q69 3 115.5 41.5t46.5 120.5q-24 2 -39.5 18.5t-15.5 40.5t17 41t38 17
z" />
    <glyph glyph-name="dagger" unicode="&#x2020;" horiz-adv-x="839" 
d="M737 1188v-74l-243 12h-45v-256l8 -325h-66l6 325v256h-49l-244 -12v76l244 -10h47l-2 235h64l-6 -235h43z" />
    <glyph glyph-name="daggerdbl" unicode="&#x2021;" horiz-adv-x="880" 
d="M469 535v-248h45l244 12v-72l-244 9h-43l6 -236h-63l2 236h-49l-242 -11v74l242 -12h51l2 248l-2 184l2 162l-2 245h-51l-242 -10v74l242 -10h49l-2 235h63l-6 -235h43l244 8v-72l-242 10h-47v-245l2 -162z" />
    <glyph glyph-name="bullet" unicode="&#x2022;" horiz-adv-x="757" 
d="M580 721q0 -84 -59.5 -143.5t-143.5 -59.5q-85 0 -145 59t-60 144q0 83 60 142t145 59q83 0 143 -59t60 -142z" />
    <glyph glyph-name="ellipsis" unicode="&#x2026;" horiz-adv-x="1019" 
d="M139 111q26 0 44 -17t18 -43t-17.5 -42.5t-44.5 -16.5q-26 0 -43.5 16.5t-17.5 42.5t17.5 43t43.5 17zM496 111q26 0 43.5 -17t17.5 -43t-17.5 -42.5t-43.5 -16.5q-27 0 -44.5 16.5t-17.5 42.5t18 43t44 17zM864 111q26 0 44 -17t18 -43t-17.5 -42.5t-44.5 -16.5
q-26 0 -43.5 16.5t-17.5 42.5t17.5 43t43.5 17z" />
    <glyph glyph-name="perthousand" unicode="&#x2030;" horiz-adv-x="2611" 
d="M782 1057q0 -181 -101.5 -288t-254.5 -107q-154 0 -256 107t-102 288q0 182 102 288.5t256 106.5q153 0 254.5 -106.5t101.5 -288.5zM127 1057q0 -153 85.5 -243.5t213.5 -90.5q127 0 212 90.5t85 243.5q0 154 -85 244t-212 90q-129 0 -214 -90t-85 -244zM1356 780
q153 0 254.5 -105.5t101.5 -287.5q0 -181 -101.5 -288t-254.5 -107q-154 0 -256.5 107t-102.5 288q0 182 102 287.5t257 105.5zM1356 53q127 0 212 90.5t85 243.5q0 154 -85 244t-212 90q-128 0 -212.5 -90t-84.5 -244q0 -153 84.5 -243.5t212.5 -90.5zM2163 780
q153 0 254.5 -105.5t101.5 -287.5q0 -181 -101.5 -288t-254.5 -107q-154 0 -256.5 107t-102.5 288q0 182 102 287.5t257 105.5zM2163 53q127 0 212 90.5t85 243.5q0 154 -85 244t-212 90t-212 -90t-85 -244q0 -153 85 -243.5t212 -90.5zM1354 1436h67l-989 -1436h-67z" />
    <glyph glyph-name="guilsinglleft" unicode="&#x2039;" horiz-adv-x="593" 
d="M422 20l-354 525l354 524l51 -37l-334 -487l334 -488z" />
    <glyph glyph-name="guilsinglright" unicode="&#x203a;" horiz-adv-x="550" 
d="M119 1069l356 -524l-356 -525l-49 37l331 488l-331 487z" />
    <glyph glyph-name="fraction" unicode="&#x2044;" horiz-adv-x="899" 
d="M922 1436h67l-989 -1436h-68z" />
    <glyph glyph-name="Euro" unicode="&#x20ac;" horiz-adv-x="1441" 
d="M872 68q138 0 259 64t206 175l58 -45q-94 -126 -230.5 -198t-292.5 -72q-236 0 -417 157.5t-234 403.5h-139v57h131q-8 49 -8 109q0 57 8 104h-131v60h139q51 245 233 404t418 159q155 0 292 -72t231 -198l-58 -48q-85 113 -206 177.5t-259 64.5q-205 0 -364 -138
t-207 -349h647v-60h-657q-8 -47 -8 -104q0 -60 8 -109h657v-57h-645q48 -212 206.5 -348.5t362.5 -136.5z" />
    <glyph glyph-name="uni2117" unicode="&#x2117;" horiz-adv-x="1771" 
 />
    <glyph glyph-name="trademark" unicode="&#x2122;" horiz-adv-x="1423" 
d="M588 1432v-54h-250v-585h-53v585h-252v54h555zM1337 1432h23v-639h-53v507l-283 -407l-283 407v-507h-53v639h23l313 -449z" />
    <glyph glyph-name="Omega" unicode="&#x2126;" horiz-adv-x="1718" 
d="M1599 739q0 -101 -26.5 -195t-69 -166t-100.5 -134t-117.5 -104t-122.5 -72h412v-68h-576v74q62 14 130.5 48t139.5 93.5t127 133t92 176t36 214.5q0 157 -52 281t-143 201.5t-210 118t-259 40.5t-259.5 -40.5t-211 -118t-143 -201.5t-51.5 -281q0 -112 35.5 -214.5
t92 -176t127.5 -133t139 -93.5t130 -48v-74h-576v68h410q-80 37 -153.5 96.5t-138 142t-103.5 195t-39 237.5q0 141 37.5 258.5t105 200.5t160.5 141t203.5 85.5t234.5 27.5t233.5 -27.5t202.5 -85.5t160.5 -141t105 -200.5t37.5 -258.5z" />
    <glyph glyph-name="partialdiff" unicode="&#x2202;" horiz-adv-x="1355" 
d="M672 926q128 0 234.5 -34t181.5 -103.5t98 -165.5q0 161 -27 289.5t-74.5 215t-115 144t-146 83t-170.5 25.5q-249 0 -409 -57l-35 61q179 68 453 68q97 0 183 -27t162.5 -89.5t131 -155.5t86.5 -233t32 -314q0 -143 -44 -264.5t-119.5 -203.5t-177 -127.5t-216.5 -45.5
q-166 0 -301.5 58t-216 168.5t-80.5 252.5q0 87 30 161.5t83 128t125 91t156 56t176 18.5zM682 860q-139 0 -252 -44t-182.5 -134t-69.5 -211q0 -180 150 -295t372 -115q116 0 223 60.5t171.5 157.5t64.5 200q0 88 -40 161t-106.5 120.5t-152 73.5t-178.5 26z" />
    <glyph glyph-name="Delta" unicode="&#x2206;" horiz-adv-x="1456" 
d="M758 1444l647 -1444h-1354l649 1444h58zM727 1350l-567 -1282h1136z" />
    <glyph glyph-name="product" unicode="&#x220f;" horiz-adv-x="1497" 
d="M182 -330v1774h1135v-1774h-76v1706h-985v-1706h-74z" />
    <glyph glyph-name="summation" unicode="&#x2211;" horiz-adv-x="1339" 
d="M139 1444h1110v-72h-1001l504 -813l-502 -817h999v-72h-1110v37l525 852l-525 848v37z" />
    <glyph glyph-name="minus" unicode="&#x2212;" horiz-adv-x="1081" 
d="M958 711v-64h-841v64h841z" />
    <glyph glyph-name="radical" unicode="&#x221a;" horiz-adv-x="1619" 
d="M887 113l831 1761h78l-885 -1874h-51l-530 1141h-256v69h307z" />
    <glyph glyph-name="infinity" unicode="&#x221e;" horiz-adv-x="1765" 
d="M1626 748q0 -166 -101.5 -256.5t-260.5 -90.5q-119 0 -208 69t-182 220q-90 -145 -181.5 -217t-207.5 -72q-159 0 -259.5 91t-100.5 256q0 166 100.5 257t259.5 91q116 0 207.5 -72.5t181.5 -218.5q93 152 182 221.5t208 69.5q160 0 261 -91.5t101 -256.5zM1262 465
q133 0 216 73t83 210q0 138 -83 211t-216 73q-104 0 -184.5 -68.5t-168.5 -215.5q87 -148 167.5 -215.5t185.5 -67.5zM487 465q102 0 186 71t167 212q-83 141 -167 212.5t-186 71.5q-133 0 -216 -73t-83 -211q0 -137 83 -210t216 -73z" />
    <glyph glyph-name="integral" unicode="&#x222b;" horiz-adv-x="589" 
d="M608 1528l-4 -64q-26 0 -47.5 -2t-39 -8.5t-31.5 -12t-25.5 -19t-19.5 -22.5t-15 -28.5t-11.5 -32t-9.5 -39t-8 -42t-8 -48.5l-176 -1124q-44 -286 -69.5 -355.5t-102.5 -90.5q-43 -11 -135 -11q1 4 2 32.5t2 31.5h18q29 0 50 2t38.5 9.5t29 13.5t22 24t16 30t12 43.5
t10.5 52t11 66.5l178 1135q41 261 69 338t105 102q58 19 139 19z" />
    <glyph glyph-name="approxequal" unicode="&#x2248;" horiz-adv-x="1282" 
d="M922 358q51 0 99 20t74.5 40t65.5 55l23 -63q-43 -38 -72 -59.5t-82 -41.5t-112 -20q-69 0 -153 27.5t-169 55t-158 27.5q-86 0 -159 -28.5t-115 -59.5l-23 60q47 35 127 67.5t176 32.5q68 0 136 -17.5t114 -39t108 -39t120 -17.5zM922 956q51 0 99 19t75 39.5t65 54.5
l23 -63q-43 -38 -72 -59.5t-82 -41.5t-112 -20q-69 0 -153 27.5t-169 55t-158 27.5q-86 0 -159 -28.5t-115 -59.5l-23 62q46 35 126 66.5t177 31.5q68 0 136 -17.5t114 -38t108 -38t120 -17.5z" />
    <glyph glyph-name="notequal" unicode="&#x2260;" horiz-adv-x="1308" 
d="M367 100h-68l133 260h-264v64h299l274 532h-573v64h606l129 250h66l-129 -250h297v-64h-330l-275 -532h605v-64h-637z" />
    <glyph glyph-name="lessequal" unicode="&#x2264;" horiz-adv-x="1286" 
d="M1133 63v-63h-981v63h981zM1133 1329v-72l-883 -430l883 -430v-71l-981 481v41z" />
    <glyph glyph-name="greaterequal" unicode="&#x2265;" horiz-adv-x="1284" 
d="M1133 63v-63h-981v63h981zM152 326v71l880 430l-880 430v72l981 -481v-41z" />
    <glyph glyph-name="lozenge" unicode="&#x25ca;" horiz-adv-x="956" 
d="M449 1544h38l383 -772l-383 -772h-38l-381 772zM141 772l326 -661l330 661l-330 662z" />
    <glyph glyph-name="NULL" horiz-adv-x="0" 
 />
    <glyph glyph-name="CR" horiz-adv-x="567" 
 />
    <glyph glyph-name="intelligentdesign" horiz-adv-x="1980" 
d="M1335 1268q104 -42 169 -136t65 -210q0 -117 -65 -212t-169 -137q-42 -104 -136.5 -168.5t-211.5 -64.5t-211 64t-137 169q-104 42 -168.5 137t-64.5 212q0 116 64.5 210t168.5 136q43 105 137 169t211 64t211 -64t137 -169zM1032 965h230q0 99 -66 175t-164 93v-268z
M1032 877v-269q98 19 164 94.5t66 174.5h-230zM944 602v275h-141v-275h141zM944 965v274h-141v-274h141zM586 227q40 0 68 -27t28 -65t-28 -66t-68 -28t-68.5 28t-28.5 66t28.5 65t68.5 27zM1389 98q10 -10 30 -20l-18 -43q-39 14 -66 49h-30v-39h-50v180h84q39 0 56.5 -19
t17.5 -50q0 -40 -24 -58zM1237 135q0 -37 -24.5 -63.5t-59.5 -26.5h-68v180h62q38 0 64 -26.5t26 -63.5zM1008 131v94h49v-180h-23l-96 92v-92h-49v180h22zM815 223h49v-106q0 -33 -24.5 -54.5t-59.5 -21.5q-33 0 -58.5 21.5t-25.5 54.5v106h49v-94q0 -24 8.5 -33.5
t26.5 -9.5t26.5 9.5t8.5 33.5v94zM1499 158l37 65h55l-67 -119v-59h-49v59l-68 119h55zM479 225v-41h-37v-65h35v-35h-35v-39h-49v39h-10v35h10v106h86zM586 86q19 0 32 14.5t13 34.5t-13 33.5t-32 13.5q-20 0 -33.5 -13.5t-13.5 -33.5t13.5 -34.5t33.5 -14.5zM1331 -274
q0 -18 -13.5 -30.5t-29.5 -12.5h-24v86h24q18 0 30.5 -12.5t12.5 -30.5zM1135 88h14q17 0 28 13.5t11 33.5q0 19 -12 32t-29 13h-12v-92zM1858 -295l20 -22h-12l-17 18h-20v-18h-8v86h22q13 0 23 -10.5t10 -22.5q0 -22 -18 -31zM1331 184h-26v-65h22q35 3 35 33q0 32 -31 32
zM1288 -309q14 0 24.5 10.5t10.5 24.5q0 15 -10.5 24.5t-24.5 9.5h-16v-69h16zM297 -305l25 76h8l-29 -86h-8l-19 71l-16 -71h-8l-29 86h8l25 -76l16 76h9zM424 -305l25 76h8l-29 -86h-8l-19 71l-16 -71h-8l-29 86h8l25 -76l16 76h9zM174 -305l25 76h8l-29 -86h-8l-18 71
l-17 -71h-8l-29 86h8l25 -76l16 76h9zM1159 -303v72h8v-86h-8l-51 73v-73h-8v86h8zM1677 -303v72h9v-86h-9l-51 73v-73h-8v86h8zM590 -303v72h8v-86h-8l-51 73v-73h-9v86h9zM981 -291v8h29v-22q-13 -12 -33 -12t-32.5 12t-12.5 31t13 32t30 13q18 0 33 -15l-7 -6
q-9 12 -26 12q-14 0 -24.5 -10.5t-10.5 -25.5q0 -14 11 -24.5t26 -10.5q6 0 12 2t9 4l3 2v10h-20zM1569 -291v8h28v-22q-12 -12 -32 -12t-32.5 12t-12.5 31t13 32t30 13t32 -15l-6 -6q-9 12 -26 12q-14 0 -24.5 -10.5t-10.5 -25.5q0 -14 11 -24.5t26 -10.5q6 0 12 2t9 4l3 2
v10h-20zM1774 -291v8h28v-22q-13 -12 -33 -12t-32.5 12t-12.5 31t13 32t30 13q18 0 33 -15l-6 -6q-9 12 -27 12q-14 0 -24 -10.5t-10 -25.5q0 -14 10.5 -24.5t25.5 -10.5q6 0 12.5 2t9.5 4l3 2v10h-20zM698 -231h54v-9h-45v-36h41v-9h-41v-24h45v-8h-54v86zM1350 -231h53v-9
h-45v-36h41v-9h-41v-24h45v-8h-53v86zM1028 -231h53v-9h-45v-36h41v-9h-41v-24h45v-8h-53v86zM1829 -291h14q10 1 17.5 9.5t7.5 17.5q0 10 -8 17t-17 7h-14v-51zM1450 -268q23 -9 23 -25q0 -10 -7 -17t-18 -7q-24 0 -31 18l6 4q7 -14 25 -14q16 0 16 16q0 12 -16 17
q-25 10 -25 24q0 9 7 16t16 7q14 0 22 -15l-6 -4q-7 10 -16 10q-5 0 -9.5 -4t-4.5 -10q0 -10 18 -16zM643 -240h-27v9h62v-9h-27v-77h-8v77zM1210 -240h-26v9h61v-9h-26v-77h-9v77zM838 -231h8v-78h41v-8h-49v86zM770 -231h8v-78h41v-8h-49v86zM500 -231h8v-86h-8v86z
M905 -231h8v-86h-8v86zM1493 -231h8v-86h-8v86zM461 -311q0 8 8 8t8 -8t-8 -8t-8 8zM1700 -311q0 8 8 8t8 -8t-8 -8t-8 8z" />
    </font>
</defs>
</svg>
